<svg width="251" height="296" viewBox="0 0 251 296" fill="none" xmlns="http://www.w3.org/2000/svg">
<path fill-rule="evenodd" clip-rule="evenodd" d="M122.631 105.548C120.505 107.166 119.239 109.22 120.62 111.533C121.785 113.485 124.458 113.505 127.313 112.787C126.885 113.998 126.384 115.184 125.814 116.337C124.572 118.847 123.531 120.659 122.691 121.774C121.093 123.895 118.139 121.869 113.83 115.696C112.129 113.26 109.345 111.808 106.373 111.808C106.102 111.808 105.831 111.835 105.565 111.89C103.396 112.337 101.999 114.457 102.446 116.625C107.234 139.877 111.033 152.562 113.845 154.68C118.345 158.071 122.527 173.058 122.527 173.058L147.788 169.395L150.594 158.379C151.448 155.026 151.589 151.531 151.009 148.119L144.736 111.234C144.317 108.769 143.541 106.379 142.432 104.139L140.067 99.3597C138.212 95.6117 134.272 93.3593 130.101 93.6619L107.534 95.2986C105.614 95.4379 103.937 96.6513 103.205 98.432C102.14 101.025 103.378 103.991 105.971 105.057C108.089 105.927 113.643 106.091 122.631 105.548Z" fill="#6169E6"/>
<path fill-rule="evenodd" clip-rule="evenodd" d="M148.576 126.034L152.999 133.537C153.051 133.625 153.099 133.715 153.143 133.807L168.832 166.621L165.938 183.821L140.859 164.693L142.145 145.886L149.54 150.869L145.546 127.139C145.395 126.246 145.997 125.4 146.891 125.249C147.561 125.137 148.231 125.449 148.576 126.034Z" fill="#7C84FF"/>
<path fill-rule="evenodd" clip-rule="evenodd" d="M165.779 129.953C171.9 127.715 178.021 125.477 184.143 123.239C199.152 117.751 215.77 125.469 221.258 140.477C222.302 143.332 222.89 146.333 222.999 149.371L224.137 180.927H159.188C163.582 146.945 165.779 129.953 165.779 129.953Z" fill="#DFE0FF"/>
<path fill-rule="evenodd" clip-rule="evenodd" d="M168.554 68.7231L153.686 67.4863L151.125 50.2913C151.047 49.7644 150.556 49.4009 150.029 49.4794C149.607 49.5422 149.277 49.8746 149.216 50.2968L146.455 69.6035C146.179 71.5369 147.522 73.3284 149.456 73.6048C149.472 73.6071 149.487 73.6092 149.503 73.6112L166.97 75.8687C169.153 76.1509 171.163 74.6418 171.501 72.467C171.777 70.6904 170.56 69.0265 168.784 68.7505C168.707 68.7386 168.631 68.7295 168.554 68.7231Z" fill="#9CA4FF"/>
<mask id="mask0_711_3777" style="mask-type:alpha" maskUnits="userSpaceOnUse" x="156" y="0" width="68" height="132">
<path d="M206.548 130.075C207.589 130.476 208.737 130.648 209.923 130.534C210.363 130.492 210.798 130.413 211.225 130.298C215.402 129.167 217.87 124.864 216.739 120.688L214.987 114.219L215.012 114.233C216.384 114.989 218.004 115.157 219.502 114.699C222.561 113.764 224.282 110.526 223.347 107.468L214.199 75.656C213.445 71.9514 212.097 67.387 209.92 60.7752L209.664 59.8876L209.654 59.9706C206.973 51.8737 203.096 40.7867 197.624 24.6848C197.523 24.3855 194.512 15.3411 194.409 15.0402C193.762 14.177 192.537 14.0021 191.674 14.6494C191.324 14.912 191.072 15.2845 190.959 15.7073L188.943 23.2381L186.178 2.92468C186.01 1.69317 184.875 0.830732 183.644 0.998372C182.766 1.11782 182.04 1.74076 181.789 2.58994L181.387 3.94885L158.359 78.782C157.425 81.8144 156.951 84.9693 156.951 88.1419V118.238C156.951 125.517 162.853 131.418 170.134 131.418H200.744C202.824 131.418 204.795 130.936 206.548 130.075Z" fill="white"/>
</mask>
<g mask="url(#mask0_711_3777)">
<path d="M206.548 130.075C207.589 130.476 208.737 130.648 209.923 130.534C210.363 130.492 210.798 130.413 211.225 130.298C215.402 129.167 217.87 124.864 216.739 120.688L214.987 114.219L215.012 114.233C216.384 114.989 218.004 115.157 219.502 114.699C222.561 113.764 224.282 110.526 223.347 107.468L214.199 75.656C213.445 71.9514 212.097 67.387 209.92 60.7752L209.664 59.8876L209.654 59.9706C206.973 51.8737 203.096 40.7867 197.624 24.6848C197.523 24.3855 194.512 15.3411 194.409 15.0402C193.762 14.177 192.537 14.0021 191.674 14.6494C191.324 14.912 191.072 15.2845 190.959 15.7073L188.943 23.2381L186.178 2.92468C186.01 1.69317 184.875 0.830732 183.644 0.998372C182.766 1.11782 182.04 1.74076 181.789 2.58994L181.387 3.94885L158.359 78.782C157.425 81.8144 156.951 84.9693 156.951 88.1419V118.238C156.951 125.517 162.853 131.418 170.134 131.418H200.744C202.824 131.418 204.795 130.936 206.548 130.075Z" fill="#DFE0FF"/>
<path fill-rule="evenodd" clip-rule="evenodd" d="M157.754 82.2309C158.397 80.5163 159.362 79.8198 160.648 80.1413C161.934 80.4627 162.791 81.6415 163.22 83.6776C165.202 80.457 168.846 78.6467 172.61 79.0124C173.71 79.1192 174.921 79.2812 176.242 79.4983C184.045 80.7804 187.751 88.4843 188.139 92.5185C188.468 95.9482 188.198 93.6576 188.121 102.324C188.105 104.189 189.031 109.147 190.899 117.198V117.198C191.782 121.003 189.413 124.803 185.608 125.686C185.098 125.805 184.577 125.866 184.054 125.869C176.964 125.914 172.967 125.889 172.062 125.792C167.277 125.283 166.24 124.185 162.721 124.185C159.752 124.185 158.305 124.935 158.38 126.435C153.24 124.418 150.459 119.328 150.037 111.165C149.616 103.001 152.188 93.3567 157.754 82.2309Z" fill="#9CA4FF"/>
</g>
<path fill-rule="evenodd" clip-rule="evenodd" d="M172.709 118.398H170.137L170.877 121.768C170.933 122.024 171.138 122.22 171.396 122.264C171.747 122.324 172.079 122.089 172.139 121.739L172.709 118.398ZM160.169 118.398H157.597L158.337 121.768C158.393 122.024 158.599 122.22 158.857 122.264C159.207 122.324 159.539 122.089 159.599 121.739L160.169 118.398Z" fill="#FBF6F7"/>
<mask id="mask1_711_3777" style="mask-type:alpha" maskUnits="userSpaceOnUse" x="4" y="177" width="114" height="110">
<path d="M54.9996 209.884C47.8791 192.381 42.9856 182.669 40.3189 180.747C37.0502 178.391 33.3383 178.963 31.77 180.902C26.5994 175.892 21.4787 175.786 16.4079 180.583C15.9705 180.878 15.5699 181.175 15.2062 181.475C13.4685 181.454 11.7103 181.793 9.9316 182.494C0.99686 186.011 2.24959 193.284 13.6898 204.312L46.4138 241.968C50.2996 246.439 55.3564 249.739 61.0239 251.502C62.4843 251.956 64.349 253.489 66.6178 256.099C68.6338 258.419 69.7281 260.162 69.9008 261.329C70.7939 267.363 73.3878 273.006 77.3798 277.6L81.5727 282.424C81.9144 282.818 82.2818 283.188 82.6725 283.532C87.5902 287.87 95.1252 287.376 99.5024 282.43L107.198 273.734L107.259 273.789L107.349 273.563L108.825 271.896L108.248 271.326L117.883 247.331L77.2748 209.72L55.4182 210.441C55.2783 210.255 55.1387 210.069 54.9996 209.884Z" fill="white"/>
</mask>
<g mask="url(#mask1_711_3777)">
<path d="M54.9978 209.884C47.8774 192.381 42.9839 182.668 40.3172 180.747C37.0485 178.391 33.3367 178.962 31.7684 180.902C26.5978 175.892 21.477 175.786 16.4062 180.582C15.9688 180.878 15.5683 181.175 15.2046 181.474C13.4669 181.453 11.7087 181.793 9.92994 182.493C0.995187 186.01 2.24789 193.283 13.6881 204.312L46.4119 241.967C50.2977 246.439 55.3545 249.739 61.022 251.502C62.4824 251.956 64.347 253.488 66.6159 256.099C68.6319 258.419 69.7262 260.162 69.8989 261.329C70.7919 267.363 73.3858 273.006 77.3778 277.6L81.5707 282.424C81.9124 282.817 82.2797 283.188 82.6704 283.532C87.5881 287.87 95.1231 287.376 99.5003 282.43L107.196 273.734L107.257 273.789L107.347 273.563L108.823 271.896L108.246 271.326L117.881 247.331L77.273 209.72L55.4165 210.441C55.2765 210.255 55.1369 210.069 54.9978 209.884Z" fill="#6169E6"/>
</g>
<mask id="mask2_711_3777" style="mask-type:alpha" maskUnits="userSpaceOnUse" x="169" y="100" width="17" height="10">
<path d="M174.314 100.556H181.387C183.873 100.556 185.889 102.571 185.889 105.057C185.889 107.543 183.873 109.558 181.387 109.558H174.314C171.828 109.558 169.812 107.543 169.812 105.057C169.812 102.571 171.828 100.556 174.314 100.556Z" fill="white"/>
</mask>
<g mask="url(#mask2_711_3777)">
<path d="M174.314 100.556H181.387C183.873 100.556 185.889 102.571 185.889 105.057C185.889 107.543 183.873 109.558 181.387 109.558H174.314C171.828 109.558 169.812 107.543 169.812 105.057C169.812 102.571 171.828 100.556 174.314 100.556Z" fill="#FBF6F7"/>
<path d="M169.651 104.093C169.651 102.139 171.234 100.556 173.188 100.556C175.141 100.556 176.725 102.139 176.725 104.093V106.021C176.725 107.975 175.141 109.558 173.188 109.558C171.234 109.558 169.651 107.975 169.651 106.021V104.093Z" fill="#2B2B2B"/>
</g>
<mask id="mask3_711_3777" style="mask-type:alpha" maskUnits="userSpaceOnUse" x="156" y="100" width="6" height="10">
<path d="M156.952 100.556V109.557C159.35 109.557 161.293 107.614 161.293 105.217V104.896C161.293 102.499 159.35 100.556 156.952 100.556Z" fill="white"/>
</mask>
<g mask="url(#mask3_711_3777)">
<path d="M156.952 100.556V109.557C159.35 109.557 161.293 107.614 161.293 105.217V104.896C161.293 102.499 159.35 100.556 156.952 100.556Z" fill="#FBF6F7"/>
<path d="M151.809 104.092C151.809 102.139 153.393 100.556 155.346 100.556C157.299 100.556 158.883 102.139 158.883 104.092V106.021C158.883 107.974 157.299 109.557 155.346 109.557C153.393 109.557 151.809 107.974 151.809 106.021V104.092Z" fill="#2B2B2B"/>
</g>
<path fill-rule="evenodd" clip-rule="evenodd" d="M85.5561 236.705C80.3727 235.908 75.9924 232.44 74.0278 227.578L73.9811 227.462C71.9682 222.481 72.5357 216.828 75.4986 212.347L77.0356 210.022C71.3982 212.071 65.1664 209.164 63.1164 203.527C63.0685 203.395 63.0231 203.263 62.9804 203.129L61.1199 197.323C70.3889 198.218 76.9267 197.575 80.7332 195.394C84.5397 193.213 87.755 190.534 90.3791 187.357L93.4336 192.501L85.5561 236.705Z" fill="#7C84FF"/>
<mask id="mask4_711_3777" style="mask-type:alpha" maskUnits="userSpaceOnUse" x="25" y="236" width="137" height="52">
<path d="M77.0524 259.482C59.1348 253.409 48.5727 250.746 45.366 251.494C41.4354 252.411 39.4268 255.57 39.8624 258.013C32.6741 258.626 29.2265 262.401 29.5196 269.337L30.5078 269.734C28.8042 271.215 27.537 273.119 26.7062 275.445C23.4909 284.446 29.8143 288.251 45.6765 286.858H95.668C101.604 286.858 107.425 285.214 112.484 282.11C113.788 281.31 116.173 280.91 119.639 280.91C122.719 280.91 124.757 281.226 125.753 281.857C130.903 285.123 136.876 286.858 142.974 286.858H149.379C149.901 286.858 150.423 286.823 150.94 286.755C157.454 285.893 162.035 279.914 161.173 273.402L159.657 261.952L159.739 261.942L159.628 261.727L159.337 259.531L158.527 259.593L146.717 236.706L91.5748 242.653L77.749 259.531C77.516 259.515 77.2838 259.498 77.0524 259.482Z" fill="white"/>
</mask>
<g mask="url(#mask4_711_3777)">
<path d="M77.0524 259.482C59.1348 253.409 48.5727 250.746 45.366 251.494C41.4354 252.411 39.4268 255.57 39.8624 258.013C32.6741 258.626 29.2265 262.401 29.5196 269.337L30.5078 269.734C28.8042 271.215 27.537 273.119 26.7062 275.445C23.4909 284.446 29.8143 288.251 45.6765 286.858H95.668C101.604 286.858 107.425 285.214 112.484 282.11C113.788 281.31 116.173 280.91 119.639 280.91C122.719 280.91 124.757 281.226 125.753 281.857C130.903 285.123 136.876 286.858 142.974 286.858H149.379C149.901 286.858 150.423 286.823 150.94 286.755C157.454 285.893 162.035 279.914 161.173 273.402L159.657 261.952L159.739 261.942L159.628 261.727L159.337 259.531L158.527 259.593L146.717 236.706L91.5748 242.653L77.749 259.531C77.516 259.515 77.2838 259.498 77.0524 259.482Z" fill="#9CA4FF"/>
<path d="M28.9223 269.127C29.0492 268.947 29.2953 268.657 29.6731 268.296C30.2871 267.708 31.0575 267.125 31.9961 266.583C36.4692 264.001 42.9605 263.235 51.7831 265.335C52.1286 265.417 52.342 265.764 52.2597 266.109C52.1774 266.455 51.8307 266.668 51.4852 266.586C42.9709 264.559 36.816 265.285 32.6392 267.697C31.7915 268.186 31.1033 268.707 30.5621 269.225C30.3762 269.403 30.2227 269.566 30.1 269.71C30.0308 269.792 29.9896 269.845 29.9749 269.866C29.7708 270.157 29.3698 270.227 29.0791 270.023C28.7884 269.819 28.7182 269.418 28.9223 269.127Z" fill="#7C84FF"/>
<path d="M26.9844 274.641C26.6293 274.641 26.3414 274.929 26.3414 275.284C26.3414 275.639 26.6293 275.927 26.9844 275.927C27.9266 275.927 32.3635 274.908 35.4238 273.905C37.4122 273.254 38.9426 272.598 39.877 271.946C41.2094 271.016 41.4905 269.84 40.2079 268.966C37.6499 267.222 33.9826 267.222 29.2353 268.89C28.9002 269.008 28.7241 269.375 28.8419 269.71C28.9596 270.045 29.3267 270.221 29.6618 270.103C34.0615 268.557 37.3256 268.557 39.4834 270.028C39.8635 270.287 39.835 270.407 39.141 270.891C38.3359 271.453 36.9009 272.068 35.0234 272.683C32.0849 273.646 27.7526 274.641 26.9844 274.641ZM34.9145 257.28C34.5594 257.28 34.2715 257.568 34.2715 257.923C34.2715 258.278 34.5594 258.566 34.9145 258.566C35.9652 258.566 36.7144 258.485 38.2573 258.25L38.3009 258.243C40.4989 257.909 41.5702 257.844 43.2681 258.068C45.5318 258.367 48.2772 259.236 51.899 260.885C52.2222 261.032 52.6035 260.889 52.7507 260.566C52.8978 260.243 52.755 259.861 52.4318 259.714C48.7028 258.017 45.8398 257.11 43.4365 256.793C41.5908 256.549 40.4155 256.621 38.1072 256.972L38.0636 256.979C36.5814 257.204 35.8821 257.28 34.9145 257.28Z" fill="#7C84FF"/>
</g>
<path fill-rule="evenodd" clip-rule="evenodd" d="M163.594 96.2249L159.017 110.553C158.545 112.031 159.361 113.612 160.839 114.084C161.1 114.167 161.372 114.212 161.645 114.217L163.14 114.243C164.383 114.265 165.408 113.275 165.429 112.032C165.43 112.021 165.43 112.011 165.43 112L165.478 96.5213C165.479 95.9886 165.049 95.5555 164.516 95.5539C164.095 95.5526 163.722 95.8241 163.594 96.2249Z" fill="#7C84FF"/>
<mask id="mask5_711_3777" style="mask-type:alpha" maskUnits="userSpaceOnUse" x="77" y="144" width="158" height="116">
<path d="M222.526 173.533L233.971 224.478C237.084 238.337 228.371 252.096 214.511 255.209C212.66 255.624 210.77 255.834 208.874 255.834H182.587C170.58 255.834 159.573 249.144 154.045 238.487L142.948 217.095L159.346 259.531H151.809C143.57 259.531 135.782 255.771 130.658 249.32L125.746 243.135V248.922C125.746 254.781 120.996 259.531 115.136 259.531C108.766 259.531 103.079 255.544 100.907 249.558L98.5768 243.135L95.9863 248.12C92.3426 255.131 85.0976 259.531 77.1951 259.531C84.6912 237.172 88.9782 219.222 90.0563 205.682C91.1344 192.141 89.9018 171.727 86.3587 144.438H118.19L175.583 178.838L222.526 173.533Z" fill="white"/>
</mask>
<g mask="url(#mask5_711_3777)">
<path d="M222.526 173.533L233.971 224.478C237.084 238.337 228.371 252.096 214.511 255.209C212.66 255.624 210.77 255.834 208.874 255.834H182.587C170.58 255.834 159.573 249.144 154.045 238.487L142.948 217.095L159.346 259.531H151.809C143.57 259.531 135.782 255.771 130.658 249.32L125.746 243.135V248.922C125.746 254.781 120.996 259.531 115.136 259.531C108.766 259.531 103.079 255.544 100.907 249.558L98.5768 243.135L95.9863 248.12C92.3426 255.131 85.0976 259.531 77.1951 259.531C84.6912 237.172 88.9782 219.222 90.0563 205.682C91.1344 192.141 89.9018 171.727 86.3587 144.438H118.19L175.583 178.838L222.526 173.533Z" fill="#7C84FF"/>
</g>
<path d="M184.308 121.586C182.602 119.879 181.32 119.041 180.583 119.041H157.272C156.917 119.041 156.629 118.753 156.629 118.398C156.629 118.043 156.917 117.755 157.272 117.755H180.583C181.776 117.755 183.281 118.739 185.218 120.676C185.469 120.927 185.469 121.335 185.218 121.586C184.967 121.837 184.56 121.837 184.308 121.586Z" fill="#7C84FF"/>
<mask id="mask6_711_3777" style="mask-type:alpha" maskUnits="userSpaceOnUse" x="170" y="100" width="16" height="10">
<path d="M170.417 102.807H185.289C184.511 101.461 183.056 100.556 181.39 100.556H174.316C172.65 100.556 171.195 101.461 170.417 102.807V102.807ZM170.622 107.629C171.435 108.795 172.787 109.558 174.316 109.558H181.39C182.92 109.558 184.271 108.795 185.084 107.629H170.622Z" fill="white"/>
</mask>
<g mask="url(#mask6_711_3777)">
<path d="M170.417 102.806H185.289C184.511 101.461 183.056 100.556 181.39 100.556H174.316C172.65 100.556 171.195 101.461 170.417 102.806V102.806ZM170.622 107.628C171.435 108.794 172.787 109.557 174.316 109.557H181.39C182.92 109.557 184.271 108.794 185.084 107.628H170.622Z" fill="#7C84FF"/>
</g>
<path fill-rule="evenodd" clip-rule="evenodd" d="M88.0146 128.208L115.247 145.18L75.8626 152.406L58.4794 139.526C54.7859 136.789 51.8456 133.177 49.9378 129.032L45.1638 118.662C43.5908 115.245 43.7283 111.322 45.5349 108.078L48.1572 103.368L48.289 103.451C48.7746 100.616 49.3523 97.2438 50.022 93.3343C50.3913 91.1788 51.7176 89.3149 53.6393 88.2507L55.4381 87.2546L58.555 85.8025L58.8167 83.0457L77.2808 66.9506C77.3351 66.9032 77.3905 66.857 77.4468 66.812C79.6716 65.0335 82.9656 65.3985 84.8042 67.6271C86.4554 69.6287 86.5683 72.3844 85.2294 74.4339C86.6661 74.7305 87.9602 75.6655 88.652 77.0754C88.752 77.2791 88.8373 77.4893 88.9074 77.7044C89.8783 80.6854 88.4232 83.8705 85.5378 85.0806L69.761 91.697C68.8798 101.093 68.4393 105.791 68.4393 105.791C68.4393 105.791 84.468 117.699 89.162 118.556C92.2913 119.127 94.6745 118.432 96.3116 116.47L89.5173 96.9518C89.4977 96.8954 89.479 96.8388 89.4613 96.782C88.5431 93.8441 90.1972 90.7678 93.1557 89.9109C96.2491 89.015 99.5453 90.7232 100.597 93.7671C106.851 111.878 109.693 122.608 109.123 125.958C108.184 131.469 115.513 145.272 115.513 145.272L88.0146 128.208Z" fill="#9CA4FF"/>
<mask id="mask7_711_3777" style="mask-type:alpha" maskUnits="userSpaceOnUse" x="156" y="100" width="5" height="10">
<path d="M156.952 102.807H160.852C160.073 101.461 158.619 100.556 156.952 100.556V102.807ZM156.952 109.558C158.482 109.558 159.833 108.795 160.647 107.629H156.952V109.558Z" fill="white"/>
</mask>
<g mask="url(#mask7_711_3777)">
<path d="M156.952 102.806H160.852C160.073 101.461 158.619 100.556 156.952 100.556V102.806ZM156.952 109.557C158.482 109.557 159.833 108.794 160.647 107.628H156.952V109.557Z" fill="#7C84FF"/>
</g>
<path fill-rule="evenodd" clip-rule="evenodd" d="M73.051 59.2594L94.4089 58.6268C96.6966 58.559 98.671 60.2184 98.9975 62.4834L105.854 110.039L79.1538 113.371L74.9673 110.471L68.7236 64.3621C68.3901 61.8989 70.1168 59.6317 72.5804 59.2981C72.7365 59.277 72.8936 59.2641 73.051 59.2594Z" fill="#2B2B2B"/>
<path d="M89.8954 109.236C91.76 109.236 93.2715 107.725 93.2715 105.861C93.2715 103.996 91.76 102.485 89.8954 102.485C88.0309 102.485 86.5194 103.996 86.5194 105.861C86.5194 107.725 88.0309 109.236 89.8954 109.236ZM89.8954 107.95C88.7412 107.95 87.8055 107.015 87.8055 105.861C87.8055 104.706 88.7412 103.771 89.8954 103.771C91.0497 103.771 91.9854 104.706 91.9854 105.861C91.9854 107.015 91.0497 107.95 89.8954 107.95ZM80.9364 61.2851C80.8435 61.2884 80.7911 61.2841 80.7679 61.278C80.7691 61.2784 80.7699 61.2783 80.7602 61.2703C80.7239 61.2404 80.6842 61.1795 80.6497 61.0844C80.599 60.9443 80.5773 60.8015 80.5638 60.4152L80.562 60.3654L80.1753 58.7893L79.2385 59.0191L79.6017 60.4991C79.6191 60.944 79.6556 61.1721 79.7428 61.4127C79.8325 61.6605 79.9666 61.866 80.1463 62.0142C80.3677 62.1969 80.5988 62.2619 80.9701 62.249L87.3557 62.026C87.727 62.0131 87.953 61.932 88.1611 61.7344C88.3301 61.574 88.4495 61.3596 88.5217 61.1062C88.5945 60.851 88.6138 60.613 88.5971 60.1347L88.5954 60.0849L88.2086 58.5088L87.2718 58.7386L87.6348 60.2176C87.6455 60.5673 87.6331 60.7049 87.5941 60.8419C87.5664 60.9392 87.531 61.0027 87.4969 61.035C87.4877 61.0438 87.4886 61.0438 87.4902 61.043C87.4677 61.0509 87.4156 61.0589 87.3221 61.0621L80.9364 61.2851Z" fill="#FBF6F7"/>
<mask id="mask8_711_3777" style="mask-type:alpha" maskUnits="userSpaceOnUse" x="163" y="255" width="88" height="32">
<path d="M231.769 266.32L250.5 286.857H163.366L172.218 271.739C177.987 261.888 188.548 255.834 199.965 255.834H208.012C217.053 255.834 225.677 259.64 231.769 266.32Z" fill="white"/>
</mask>
<g mask="url(#mask8_711_3777)">
<path d="M231.769 266.32L250.5 286.857H163.366L172.218 271.739C177.987 261.888 188.548 255.834 199.965 255.834H208.012C217.053 255.834 225.677 259.64 231.769 266.32Z" fill="#9CA4FF"/>
<path d="M240.043 272.318L238.998 271.192C231.477 278.249 223.577 281.76 215.276 281.76C208.615 281.76 201.221 278.548 196.387 273.133C190.64 266.695 188.812 257.804 192.021 247.093L190.554 246.649C187.195 257.866 189.137 267.316 195.247 274.161C200.377 279.907 208.186 283.299 215.276 283.299C223.989 283.299 232.252 279.627 240.043 272.318ZM172.981 268.588L172.399 270.086C181.706 273.705 185.548 279.619 184.116 288.008L185.701 288.279C187.269 279.094 182.966 272.47 172.981 268.588Z" fill="#FBF6F7"/>
<path d="M237.793 266.123C231.287 272.204 224.379 275.261 217.093 275.261C211.155 275.261 204.62 272.434 200.327 267.643C195.213 261.936 193.587 254.058 196.395 244.72L197.866 245.159C195.209 253.997 196.72 261.322 201.473 266.625C205.471 271.086 211.587 273.733 217.093 273.733C223.964 273.733 230.506 270.837 236.742 265.009L237.793 266.123Z" fill="#FBF6F7"/>
</g>
<path fill-rule="evenodd" clip-rule="evenodd" d="M155.345 78.8556C153.898 84.6423 155.345 87.375 160.168 87.375C163.383 87.375 166.599 85.8747 169.814 82.8742C168.099 85.8747 169.064 87.375 172.708 87.375C178.174 87.375 178.978 83.9804 178.978 83.6779C178.978 83.3753 179.175 78.21 178.013 77.0874C177.416 76.5104 174.68 76.5104 169.805 77.0874C161.13 74.4083 156.31 74.9977 155.345 78.8556Z" fill="#DFE0FF"/>
<path fill-rule="evenodd" clip-rule="evenodd" d="M194.058 94.6476C192.611 100.434 194.058 103.167 198.881 103.167C202.096 103.167 205.312 101.667 208.527 98.6662C206.812 101.667 207.777 103.167 211.421 103.167C216.887 103.167 217.69 99.7724 217.69 99.4699C217.69 99.1673 217.888 94.002 216.726 92.8794C216.129 92.3024 213.393 92.3024 208.518 92.8794C199.843 90.2003 195.023 90.7897 194.058 94.6476Z" fill="#DFE0FF"/>
<path fill-rule="evenodd" clip-rule="evenodd" d="M85.394 53.9398L89.0916 45.2596H89.5739C97.0321 45.2596 103.078 39.2144 103.078 31.7572V16.1651C103.078 8.70785 97.0321 2.6626 89.5739 2.6626H47.7751C40.3169 2.6626 34.2708 8.70785 34.2708 16.1651V31.7572C34.2708 39.2144 40.3169 45.2596 47.7751 45.2596H78.9634L85.394 53.9398Z" fill="#9CA4FF"/>
<path fill-rule="evenodd" clip-rule="evenodd" d="M116.479 143.275C116.479 143.275 108.464 129.85 109.121 124.28C109.52 120.894 106.14 110.303 98.9786 92.5056C97.775 89.5144 94.3985 87.9822 91.3564 89.0469C88.2527 90.1331 86.4881 93.3538 87.2474 96.5463L91.3415 113.759C91.7866 115.63 90.6188 117.486 88.7331 117.903C88.4015 117.976 88.0603 118.001 87.7202 117.977" fill="#9CA4FF"/>
<path fill-rule="evenodd" clip-rule="evenodd" d="M174.079 97.2657L184.725 99.1764C184.9 99.2078 185.067 99.0915 185.098 98.9168C185.108 98.866 185.104 98.8139 185.089 98.7647L184.522 96.9391C184.077 95.5044 182.877 94.4321 181.402 94.15L177.637 93.4304L175.922 94.2868L175.968 93.1114L175.079 92.9415C174.032 92.7412 173.02 93.428 172.82 94.4754C172.801 94.5723 172.79 94.6704 172.787 94.769L172.756 95.6262C172.727 96.4256 173.291 97.1244 174.079 97.2657ZM159.987 93.5256C160.666 93.3097 161.121 92.6732 161.107 91.9614L161.078 90.5073C161.075 90.3688 161.051 90.2316 161.006 90.1004C160.767 89.393 159.999 89.0138 159.291 89.2536L159.317 90.4289L158.35 89.5726L157.115 89.9909C155.733 90.4592 154.717 91.6442 154.466 93.0812L154.149 94.8893C154.14 94.9404 154.144 94.9928 154.159 95.0422C154.213 95.2114 154.394 95.3049 154.563 95.2511L159.987 93.5256Z" fill="#DFE0FF"/>
<path fill-rule="evenodd" clip-rule="evenodd" d="M166.022 129.759L160.574 126.863L159.915 132.109C159.787 133.129 160.109 134.154 160.797 134.917C162.105 136.368 164.341 136.484 165.792 135.177L167.015 134.075L167.669 136.917C167.989 138.307 168.871 139.502 170.107 140.217C172.566 141.639 175.713 140.799 177.135 138.339L179.753 133.815L183.21 140.974C183.889 142.38 185.17 143.401 186.691 143.751C189.46 144.387 192.221 142.658 192.857 139.89L194.375 133.284L196.897 137.192C197.742 138.501 199.134 139.356 200.683 139.519C203.508 139.816 206.04 137.766 206.336 134.941L206.979 128.829C201.748 128.361 198.094 128.367 196.018 128.847C195.475 128.972 195.017 129.135 194.643 129.336C193.431 128.783 191.746 128.62 189.588 128.847C187.636 129.052 184.994 129.607 181.662 130.514L181.981 129.963L165.467 127.348L166.022 129.759Z" fill="#DFE0FF"/>
<path d="M193.436 140.089C192.72 143.204 189.615 145.148 186.5 144.433C184.788 144.039 183.348 142.89 182.584 141.309L179.654 135.243L177.645 138.717C176.044 141.483 172.504 142.429 169.737 140.828C168.348 140.025 167.354 138.681 166.995 137.117L166.586 135.339L166.175 135.709C165.911 135.947 165.505 135.926 165.267 135.662C165.029 135.398 165.05 134.992 165.314 134.754L166.537 133.652C166.901 133.324 167.484 133.508 167.594 133.986L168.248 136.828C168.528 138.045 169.3 139.09 170.381 139.715C172.533 140.96 175.287 140.224 176.531 138.073L179.149 133.548C179.407 133.101 180.06 133.126 180.285 133.591L183.742 140.75C184.336 141.98 185.456 142.873 186.788 143.179C189.211 143.736 191.626 142.223 192.183 139.801L193.701 133.195C193.828 132.641 194.56 132.513 194.868 132.99L197.39 136.899C198.129 138.044 199.347 138.792 200.702 138.935C203.175 139.195 205.39 137.401 205.649 134.929L206.292 128.817C206.329 128.464 206.645 128.208 206.998 128.245C207.351 128.282 207.608 128.598 207.571 128.951L206.929 135.063C206.595 138.242 203.747 140.548 200.568 140.214C198.825 140.031 197.26 139.068 196.31 137.596L194.613 134.967L193.436 140.089Z" fill="#9CA4FF"/>
<path fill-rule="evenodd" clip-rule="evenodd" d="M205.53 72.1778L220.294 74.3168L226.658 58.1385C226.853 57.6428 227.413 57.399 227.909 57.5939C228.306 57.75 228.553 58.1483 228.517 58.5732L226.864 78.0061C226.698 79.9521 224.986 81.3955 223.04 81.2299C223.024 81.2286 223.008 81.2271 222.992 81.2256L205.465 79.4966C203.275 79.2805 201.656 77.3579 201.816 75.1629C201.946 73.3698 203.506 72.0221 205.3 72.1528C205.377 72.1584 205.453 72.1668 205.53 72.1778Z" fill="#9CA4FF"/>
<path fill-rule="evenodd" clip-rule="evenodd" d="M213.372 127.804L177.51 177.391L116.705 127.805C115.979 127.214 115.222 126.662 114.438 126.152L108.843 122.516C107.132 121.404 104.897 121.526 103.317 122.818C101.6 124.223 100.411 126.17 99.9464 128.339L99.7 129.489L95.3736 127.37C93.221 126.316 90.6212 127.207 89.5669 129.359C88.9753 130.567 88.9771 131.98 89.5718 133.186L84.2108 132.271C83.3932 132.132 82.5624 132.086 81.7344 132.134L68.6779 132.895C66.3733 133.03 64.6141 135.007 64.7485 137.311C64.763 137.558 64.7994 137.804 64.8573 138.045L66.5077 144.906C66.6621 145.548 66.9788 146.14 67.4274 146.624L79.5843 159.758C80.3471 160.582 81.1624 161.356 82.0252 162.074L176.629 240.9C179.175 243.022 182.885 242.982 185.385 240.806L214.693 215.299C218.544 211.946 220.756 207.091 220.756 201.985L222.278 203.212C224.284 204.83 227.159 204.787 229.115 203.11C231.18 201.34 232.052 198.546 231.36 195.917L230.08 191.054L231.697 192.41C233.55 193.964 236.314 193.722 237.868 191.868C237.871 191.865 237.874 191.861 237.877 191.858C239.629 189.756 240.183 186.904 239.346 184.299L237.797 179.48L239.838 180.841C241.73 182.102 244.251 181.834 245.835 180.204C247.481 178.51 247.91 175.976 246.914 173.835L226.07 129.019C224.347 125.316 219.949 123.711 216.246 125.433C215.101 125.965 214.111 126.781 213.372 127.804Z" fill="#DFE0FF"/>
<path d="M192.407 155.978C192.604 155.682 193.003 155.601 193.299 155.798C193.594 155.994 193.675 156.393 193.478 156.689L179.492 177.747C179.287 178.056 178.863 178.127 178.567 177.903L170.529 171.795C170.246 171.58 170.191 171.176 170.406 170.894C170.621 170.611 171.024 170.556 171.307 170.771L178.8 176.464L192.407 155.978Z" fill="#9CA4FF"/>
<path d="M83.8087 235.245C83.8348 235.153 84.0753 234.353 84.1609 234.064C84.3859 233.304 84.6094 232.521 84.8475 231.649C85.5199 229.187 86.1736 226.504 86.7864 223.579C89.2374 211.878 90.376 199.665 89.4884 187.658C89.4622 187.304 89.7281 186.995 90.0823 186.969C90.4365 186.943 90.7448 187.209 90.771 187.563C91.6685 199.703 90.519 212.033 88.0452 223.842C87.4269 226.794 86.7672 229.502 86.0882 231.988C85.8476 232.869 85.6216 233.66 85.3942 234.429C85.3055 234.728 85.0692 235.514 85.0467 235.594C84.9504 235.936 84.5952 236.135 84.2534 236.038C83.9115 235.942 83.7124 235.587 83.8087 235.245Z" fill="#DFE0FF"/>
<path d="M189.21 23.991L184.038 39.0363C183.922 39.3721 183.556 39.5507 183.22 39.4353C182.885 39.3198 182.706 38.954 182.821 38.6182L187.994 23.5729C188.11 23.2371 188.475 23.0584 188.811 23.1739C189.147 23.2893 189.326 23.6551 189.21 23.991Z" fill="#7C84FF"/>
<mask id="mask9_711_3777" style="mask-type:alpha" maskUnits="userSpaceOnUse" x="198" y="94" width="14" height="18">
<path d="M201.214 111.784C208.134 111.497 211.594 108.645 211.594 103.23C211.594 97.6594 207.933 94.7374 200.611 94.4639C200.794 94.806 200.929 95.2698 200.983 95.8943C201.165 97.9697 200.183 98.9907 198.038 98.9573C201.766 101.88 203.658 104.502 203.716 106.825C203.767 108.862 202.876 110.697 201.214 111.784Z" fill="white"/>
</mask>
<g mask="url(#mask9_711_3777)">
<path d="M201.214 111.784C208.134 111.497 211.594 108.645 211.594 103.23C211.594 97.6594 207.933 94.7374 200.611 94.4639C200.794 94.806 200.929 95.2698 200.983 95.8943C201.165 97.9697 200.183 98.9907 198.038 98.9573C201.766 101.88 203.658 104.502 203.716 106.825C203.767 108.862 202.876 110.697 201.214 111.784Z" fill="#9CA4FF"/>
</g>
<path d="M59.9837 84.1067C60.0432 83.7566 59.8076 83.4246 59.4574 83.3651C59.1073 83.3057 58.7752 83.5413 58.7158 83.8914L55.1572 104.844C54.6338 107.926 55.7471 111.059 58.098 113.12L66.321 120.328C66.588 120.562 66.9943 120.536 67.2285 120.269C67.4626 120.002 67.4359 119.595 67.1689 119.361L58.9459 112.153C56.9308 110.387 55.9765 107.701 56.4252 105.06L59.9837 84.1067ZM49.2137 104.032C49.2691 103.681 49.0296 103.352 48.6788 103.296C48.328 103.241 47.9987 103.48 47.9433 103.831L47.0033 109.784C46.6522 112.007 47.1468 114.281 48.3895 116.158L54.4729 125.344C54.669 125.64 55.068 125.721 55.3641 125.525C55.6603 125.329 55.7413 124.93 55.5453 124.634L49.4619 115.448C48.3967 113.839 47.9727 111.89 48.2736 109.985L49.2137 104.032ZM69.5006 91.0633C69.4071 91.4059 69.6091 91.7594 69.9518 91.8528C70.2944 91.9462 70.6479 91.7443 70.7414 91.4017L71.706 87.8653C71.7994 87.5227 71.5974 87.1692 71.2548 87.0758C70.9121 86.9824 70.5586 87.1844 70.4652 87.527L69.5006 91.0633ZM95.6821 89.28C95.6691 88.9251 95.3708 88.648 95.0159 88.661C94.661 88.6741 94.3839 88.9723 94.3969 89.3272C94.6211 95.4358 96.9398 99.0293 101.345 99.9004C101.694 99.9693 102.032 99.7428 102.101 99.3944C102.17 99.0461 101.943 98.7078 101.595 98.6389C97.855 97.8994 95.8866 94.8488 95.6821 89.28Z" fill="#7C84FF"/>
<path d="M59.6468 25.8191V28.8488H56.8637V31.1211H53.2853V28.8488H43.4648V25.8191L53.2853 17.1686H56.8637V25.8191H59.6468ZM47.3215 25.8191H53.2853V20.7564L47.3215 25.8191ZM68.7317 31.3204C63.2052 31.3204 60.5811 28.7691 60.5811 24.1249C60.5811 19.5006 63.2052 16.9692 68.7317 16.9692C74.2384 16.9692 76.8823 19.5206 76.8823 24.1249C76.8823 28.7492 74.2384 31.3204 68.7317 31.3204ZM68.7317 28.3107C71.8727 28.3107 73.304 26.736 73.304 24.1249C73.304 21.5337 71.8727 19.979 68.7317 19.979C65.5908 19.979 64.1594 21.5138 64.1594 24.1249C64.1594 26.756 65.5908 28.3107 68.7317 28.3107ZM94.2372 25.8191V28.8488H91.454V31.1211H87.8757V28.8488H78.0552V25.8191L87.8757 17.1686H91.454V25.8191H94.2372ZM81.9119 25.8191H87.8757V20.7564L81.9119 25.8191Z" fill="#FBF6F7"/>
</svg>
