<svg width="250" height="256" viewBox="0 0 250 256" fill="none" xmlns="http://www.w3.org/2000/svg">
<path d="M232.928 158.325C220.264 179.276 204.278 195.723 186.799 212.838C168.937 229.71 149.342 247.634 126.354 253.509C103.296 259.072 76.6741 253.283 56.931 238.702C37.5713 224.362 24.8483 201.614 16.8559 179.436C8.79255 156.945 5.38886 134.711 2.4262 110.076C-0.294848 85.0577 -2.64582 57.3261 10.2152 41.5887C23.0762 25.8513 51.2202 22.4207 76.2538 15.4235C101.287 8.42634 123.523 -2.20845 142.801 1.63238C162.39 5.40226 178.879 23.0226 198.423 39.621C218.279 56.1483 240.565 71.7956 247.436 91.928C254.065 112.444 245.35 137.758 232.928 158.325Z" fill="#FFD7EF"/>
</svg>
