<svg width="628" height="741" viewBox="0 0 628 741" fill="none" xmlns="http://www.w3.org/2000/svg">
<path d="M228.232 646.578C168.852 593.635 127.42 534.505 85.0296 470.526C43.7778 405.618 0.489216 334.863 0.496388 263.531C1.61209 192.234 43.8365 119.329 109.639 73.1853C174.302 27.9704 261.465 8.52041 342.664 2.37943C424.971 -3.72695 502.423 3.51033 587.545 13.8788C673.746 25.2449 768.726 39.7769 810.458 89.2767C852.191 138.777 839.568 223.21 841.568 301.351C843.568 379.493 860.16 452.307 830.761 505.37C801.333 559.396 728.131 593.741 655.737 637.751C583.314 682.724 511.758 735.435 438.38 739.892C363.923 743.352 286.534 698.523 228.232 646.578Z" fill="#FFD7EF"/>
</svg>
