<svg width="673" height="534" viewBox="0 0 673 534" fill="none" xmlns="http://www.w3.org/2000/svg">
<path d="M806.314 32.6819C812.886 111.964 802.186 183.368 788.839 258.947C774.028 334.415 756.665 415.524 707.521 467.226C657.597 518.138 576.766 541.898 497.281 530.017C419.26 518.247 342.679 472.301 279.59 420.816C215.721 368.542 164.563 309.941 110.003 243.786C55.348 176.165 -3.48943 100.202 0.359001 35.5715C4.20747 -29.0585 71.5216 -81.5665 123.902 -139.587C176.283 -197.608 214.416 -261.818 272.281 -280.03C330.83 -298.92 407.552 -273.389 490.346 -255.42C573.825 -238.128 662.005 -227.044 718.266 -179.726C774.621 -130.941 799.836 -45.1346 806.314 32.6819Z" fill="#FFD7EF"/>
</svg>
