<svg width="224" height="254" viewBox="0 0 224 254" fill="none" xmlns="http://www.w3.org/2000/svg">
<path d="M9.76765 103.442C18.3542 82.1166 30.3789 65.0662 43.6285 47.2809C57.242 29.7143 72.2462 11.0219 91.6426 4.0456C111.138 -2.62588 135.093 1.7231 154.077 15.1012C172.697 28.2605 186.513 50.0581 196.126 71.5361C205.838 93.3189 211.447 115.087 216.955 139.247C222.298 163.797 227.638 191.045 218.261 207.235C208.884 223.425 184.691 228.253 163.639 236.441C142.588 244.629 124.412 256.264 107.108 253.461C89.5384 250.744 73.0385 234.2 53.9897 218.821C34.6762 203.528 13.3433 189.228 4.9529 169.712C-3.27179 149.805 1.34689 124.376 9.76765 103.442Z" fill="#FFD7EF"/>
</svg>
