<?xml version="1.0" encoding="UTF-8" standalone="no"?>
<!DOCTYPE svg PUBLIC "-//W3C//DTD SVG 1.1//EN" "http://www.w3.org/Graphics/SVG/1.1/DTD/svg11.dtd">
<svg xmlns="http://www.w3.org/2000/svg" version="1.1" viewBox="0 0 512 512">
<path fill="rgb(225,153,116)" fill-opacity="1.000" d="M 368.44 11.06 Q 371.09 13.78 370.45 17.30 Q 369.96 19.98 367.17 22.23 Q 364.42 24.46 360.06 27.06 Q 344.09 36.61 343.25 56.25 Q 343.28 61.00 343.21 65.75 L 343.02 66.10 A 0.62 0.58 17.4 0 1 342.42 66.39 Q 336.86 65.73 331.29 66.25 L 327.50 66.21 Q 327.78 63.52 327.75 57.75 Q 327.62 32.27 347.81 16.81 Q 350.15 15.02 354.00 12.62 Q 359.62 9.12 360.42 8.83 Q 364.73 7.27 368.44 11.06 Z"/>
<path fill="rgb(238,97,97)" fill-opacity="1.000" d="M 343.21 65.75 Q 343.11 66.44 343.94 66.56 Q 372.12 70.61 389.76 92.73 Q 391.19 94.52 393.25 95.54 Q 391.84 95.29 392.39 96.14 Q 402.66 111.95 403.80 130.26 Q 404.42 140.25 402.14 150.11 Q 396.75 173.42 377.25 188.79 Q 347.50 189.09 327.44 169.81 Q 307.20 150.37 306.00 123.50 Q 304.54 90.76 329.44 68.44 Q 330.72 67.29 331.29 66.25 Q 336.86 65.73 342.42 66.39 A 0.62 0.58 17.4 0 0 343.02 66.10 L 343.21 65.75 Z"/>
<path fill="rgb(233,68,68)" fill-opacity="1.000" d="M 331.29 66.25 Q 330.72 67.29 329.44 68.44 Q 304.54 90.76 306.00 123.50 Q 307.20 150.37 327.44 169.81 Q 347.50 189.09 377.25 188.79 Q 362.74 200.22 345.00 202.50 Q 321.84 205.48 302.21 194.60 Q 293.48 189.76 286.40 182.49 Q 267.55 163.14 266.71 134.50 Q 267.28 106.53 285.69 87.19 Q 302.32 69.72 327.50 66.21 L 331.29 66.25 Z"/>
<path fill="rgb(247,149,149)" fill-opacity="1.000" d="M 393.25 95.54 Q 398.31 98.44 403.31 101.44 Q 440.53 122.25 467.43 155.31 Q 498.00 192.87 510.31 240.44 Q 511.34 244.42 511.46 247.25 Q 476.10 247.49 440.75 247.25 Q 439.44 247.44 438.25 247.96 Q 437.40 247.10 436.25 247.50 Q 324.38 247.50 212.50 247.61 Q 201.50 247.62 190.50 247.25 Q 189.79 247.31 189.50 247.96 Q 187.85 247.91 186.25 247.50 Q 120.50 247.04 54.75 247.54 Q 8.53 247.40 7.75 247.50 Q 5.65 247.78 3.75 246.96 Q 6.20 243.78 10.31 242.06 Q 102.49 203.58 266.71 134.50 Q 267.55 163.14 286.40 182.49 Q 293.48 189.76 302.21 194.60 Q 321.84 205.48 345.00 202.50 Q 362.74 200.22 377.25 188.79 Q 396.75 173.42 402.14 150.11 Q 404.42 140.25 403.80 130.26 Q 402.66 111.95 392.39 96.14 Q 391.84 95.29 393.25 95.54 Z"/>
<path fill="rgb(250,226,192)" fill-opacity="1.000" d="M 3.75 246.96 Q 5.65 247.78 7.75 247.50 Q 8.53 247.40 54.75 247.54 Q 55.07 251.38 54.75 258.50 Q 54.31 268.16 55.00 309.82 Q 55.00 310.01 55.07 310.15 Q 55.15 310.31 55.25 310.46 L 54.50 310.54 Q 27.25 310.33 0.00 310.69 Q 0.00 282.56 0.00 254.44 Q 0.90 250.19 3.75 246.96 Z"/>
<path fill="rgb(254,241,218)" fill-opacity="1.000" d="M 186.25 247.50 Q 187.85 247.91 189.50 247.96 Q 217.56 252.01 232.06 276.94 Q 241.48 293.13 242.71 310.50 L 55.25 310.46 Q 55.15 310.31 55.07 310.15 Q 55.00 310.01 55.00 309.82 Q 54.31 268.16 54.75 258.50 Q 55.07 251.38 54.75 247.54 Q 120.50 247.04 186.25 247.50 Z"/>
<path fill="rgb(243,124,124)" fill-opacity="1.000" d="M 190.50 247.25 Q 201.50 247.62 212.50 247.61 Q 324.38 247.50 436.25 247.50 Q 437.40 247.10 438.25 247.96 Q 408.65 261.72 405.81 263.31 Q 394.93 269.43 389.31 278.56 Q 380.81 292.40 379.54 310.50 L 379.29 391.50 L 379.29 427.50 Q 379.26 440.34 379.19 453.19 Q 378.80 453.71 379.54 454.00 Q 379.03 470.75 379.25 487.50 Q 377.73 501.55 363.75 503.50 Q 352.37 503.47 341.00 503.54 Q 340.17 503.06 340.57 502.52 A 1.44 0.64 -42.7 0 0 340.93 501.69 Q 340.61 473.60 340.75 445.50 Q 340.70 436.12 334.06 430.94 Q 324.72 423.65 314.94 428.60 Q 310.79 430.70 308.14 434.12 Q 305.15 437.96 304.75 442.50 Q 304.18 449.04 304.50 503.54 Q 258.36 503.76 256.50 503.25 Q 243.11 499.59 243.00 485.50 Q 243.03 469.75 242.96 454.00 L 242.96 427.00 L 242.96 391.50 Q 243.03 358.00 243.00 324.50 Q 243.17 317.49 242.71 310.50 Q 241.48 293.13 232.06 276.94 Q 217.56 252.01 189.50 247.96 Q 189.79 247.31 190.50 247.25 Z M 290.69 359.31 Q 299.60 365.61 308.66 361.47 Q 313.50 359.26 316.27 355.25 Q 319.20 351.04 319.50 345.50 Q 319.50 345.50 319.68 305.50 Q 319.71 298.54 315.56 293.44 Q 311.14 288.00 304.76 286.89 Q 298.72 285.84 293.08 288.72 Q 285.07 292.82 283.50 303.00 Q 283.50 321.82 283.50 340.64 Q 283.50 347.96 284.39 350.77 Q 286.05 356.04 290.69 359.31 Z"/>
<path fill="rgb(254,241,218)" fill-opacity="1.000" d="M 440.75 247.25 Q 476.10 247.49 511.46 247.25 Q 511.77 248.64 512.00 250.06 Q 512.00 280.44 512.00 310.81 Q 510.60 310.95 509.25 310.50 Q 444.40 310.50 379.54 310.50 Q 380.81 292.40 389.31 278.56 Q 394.93 269.43 405.81 263.31 Q 408.65 261.72 438.25 247.96 Q 439.44 247.44 440.75 247.25 Z"/>
<path fill="rgb(238,97,97)" fill-opacity="1.000" d="M 315.56 293.44 Q 319.71 298.54 319.68 305.50 Q 319.50 345.50 319.50 345.50 Q 319.20 351.04 316.27 355.25 Q 313.50 359.26 308.66 361.47 Q 299.60 365.61 290.69 359.31 Q 286.05 356.04 284.39 350.77 Q 283.50 347.96 283.50 340.64 Q 283.50 321.82 283.50 303.00 Q 285.07 292.82 293.08 288.72 Q 298.72 285.84 304.76 286.89 Q 311.14 288.00 315.56 293.44 Z"/>
<path fill="rgb(254,193,101)" fill-opacity="1.000" d="M 54.50 310.54 Q 54.65 329.88 55.06 333.94 Q 58.34 365.80 78.69 390.31 Q 79.19 390.91 79.00 391.71 Q 41.00 391.78 3.00 391.75 Q 1.48 391.82 0.00 391.44 Q 0.00 351.06 0.00 310.69 Q 27.25 310.33 54.50 310.54 Z"/>
<path fill="rgb(254,206,133)" fill-opacity="1.000" d="M 54.50 310.54 L 55.25 310.46 L 242.71 310.50 Q 243.17 317.49 243.00 324.50 Q 243.03 358.00 242.96 391.50 Q 241.64 391.75 241.50 391.75 Q 160.75 391.78 80.00 391.71 L 79.00 391.71 Q 79.19 390.91 78.69 390.31 Q 58.34 365.80 55.06 333.94 Q 54.65 329.88 54.50 310.54 Z"/>
<path fill="rgb(254,206,133)" fill-opacity="1.000" d="M 379.54 310.50 Q 444.40 310.50 509.25 310.50 Q 510.60 310.95 512.00 310.81 Q 512.00 351.19 512.00 391.56 Q 511.87 391.55 511.75 391.54 Q 445.52 392.09 379.29 391.50 L 379.54 310.50 Z"/>
<path fill="rgb(250,226,192)" fill-opacity="1.000" d="M 0.00 391.44 Q 1.48 391.82 3.00 391.75 Q 41.00 391.78 79.00 391.71 L 80.00 391.71 Q 108.27 422.89 150.50 426.75 Q 156.74 427.32 242.96 427.00 L 242.96 454.00 Q 25.52 454.00 25.50 454.00 Q 3.96 452.07 0.00 430.94 Q 0.00 411.19 0.00 391.44 Z"/>
<path fill="rgb(254,241,218)" fill-opacity="1.000" d="M 241.50 391.75 Q 241.64 391.75 242.96 391.50 L 242.96 427.00 Q 156.74 427.32 150.50 426.75 Q 108.27 422.89 80.00 391.71 Q 160.75 391.78 241.50 391.75 Z"/>
<path fill="rgb(254,241,218)" fill-opacity="1.000" d="M 379.29 391.50 Q 445.52 392.09 511.75 391.54 L 511.75 425.33 A 0.91 0.91 -12.0 0 1 511.21 426.16 Q 509.09 427.09 507.00 427.00 Q 507.00 427.00 381.24 427.00 A 1.50 0.57 -43.5 0 0 380.41 427.35 Q 379.96 427.67 379.29 427.50 L 379.29 391.50 Z"/>
<path fill="rgb(250,226,192)" fill-opacity="1.000" d="M 511.75 391.54 Q 511.87 391.55 512.00 391.56 Q 512.00 411.44 512.00 431.31 Q 508.03 451.11 488.00 454.00 Q 433.77 454.00 379.54 454.00 Q 378.80 453.71 379.19 453.19 Q 379.26 440.34 379.29 427.50 Q 379.96 427.67 380.41 427.35 A 1.50 0.57 -43.5 0 1 381.24 427.00 Q 507.00 427.00 507.00 427.00 Q 509.09 427.09 511.21 426.16 A 0.91 0.91 -12.0 0 0 511.75 425.33 L 511.75 391.54 Z"/>
<path fill="rgb(238,97,97)" fill-opacity="1.000" d="M 334.06 430.94 Q 340.70 436.12 340.75 445.50 Q 340.61 473.60 340.93 501.69 A 1.44 0.64 -42.7 0 1 340.57 502.52 Q 340.17 503.06 341.00 503.54 Q 322.75 504.06 304.50 503.54 Q 304.18 449.04 304.75 442.50 Q 305.15 437.96 308.14 434.12 Q 310.79 430.70 314.94 428.60 Q 324.72 423.65 334.06 430.94 Z"/>
</svg>