<svg width="240" height="240" viewBox="0 0 240 240" fill="none" xmlns="http://www.w3.org/2000/svg">
<g clip-path="url(#clip0_535_1599)">
<path d="M172.706 5.18438C173.534 6.03438 173.848 7.00938 173.648 8.10938C173.495 8.94688 172.983 9.71719 172.111 10.4203C171.252 11.1172 170.141 11.8719 168.778 12.6844C163.787 15.6688 161.161 20.2297 160.898 26.3672C160.908 27.8516 160.902 29.3359 160.88 30.8203L160.791 30.9844C160.764 31.0313 160.723 31.0693 160.673 31.0935C160.623 31.1177 160.566 31.127 160.509 31.1203C158.772 30.9141 157.033 30.8922 155.292 31.0547L153.516 31.0359C153.603 30.1953 153.642 28.8734 153.633 27.0703C153.592 19.1078 156.727 12.7109 163.036 7.87969C163.767 7.32032 164.734 6.66563 165.938 5.91563C167.694 4.82188 168.697 4.22969 168.947 4.13907C170.294 3.65157 171.547 4 172.706 5.18438Z" fill="#E19974" stroke="#E19974"/>
<path d="M160.88 30.8203C160.848 31.0359 160.962 31.1625 161.222 31.2C170.028 32.4656 177.187 36.5547 182.7 43.4672C183.147 44.0266 183.692 44.4656 184.336 44.7844C183.895 44.7063 183.761 44.8 183.933 45.0656C187.142 50.0062 188.925 55.3375 189.281 61.0594C189.475 64.1812 189.215 67.2828 188.503 70.3641C186.819 77.6484 182.93 83.6922 176.836 88.4953C167.539 88.5891 159.756 85.6234 153.487 79.5984C147.162 73.5234 143.812 66.2875 143.437 57.8906C142.981 47.6594 146.644 39.0563 154.425 32.0813C154.825 31.7219 155.114 31.3797 155.292 31.0547C157.033 30.8922 158.772 30.9141 160.509 31.1203C160.566 31.127 160.623 31.1177 160.673 31.0935C160.723 31.0693 160.764 31.0313 160.79 30.9844L160.88 30.8203Z" fill="#EE6161" stroke="#EE6161"/>
<path d="M155.292 31.0547C155.114 31.3797 154.825 31.7219 154.425 32.0812C146.644 39.0562 142.981 47.6594 143.438 57.8906C143.813 66.2875 147.163 73.5234 153.488 79.5984C159.756 85.6234 167.539 88.5891 176.836 88.4953C172.302 92.0672 167.263 94.2094 161.719 94.9219C154.481 95.8531 147.796 94.6188 141.661 91.2188C138.933 89.7063 136.463 87.8141 134.25 85.5422C128.36 79.4953 125.283 71.9969 125.021 63.0469C125.199 54.3062 128.164 46.9141 133.917 40.8703C139.114 35.4109 145.647 32.1328 153.516 31.0359L155.292 31.0547Z" fill="#E94444" stroke="#E94444"/>
<path d="M184.336 44.7844C185.917 45.6906 187.489 46.6125 189.052 47.55C200.683 54.0531 210.702 62.4703 219.108 72.8016C228.661 84.5391 235.361 97.8406 239.208 112.706C239.53 113.95 239.709 115.014 239.747 115.898C228.697 115.973 217.648 115.973 206.602 115.898C206.192 115.958 205.802 116.069 205.43 116.231C205.164 115.963 204.852 115.891 204.492 116.016C169.533 116.016 134.572 116.033 99.6094 116.067C96.1719 116.07 92.7344 116.014 89.2969 115.898C89.075 115.917 88.9187 116.028 88.8281 116.231C88.3125 116.216 87.8047 116.144 87.3047 116.016C66.7578 115.872 46.2109 115.878 25.6641 116.034C11.2203 115.991 3.87656 115.984 3.63281 116.016C2.97656 116.103 2.35156 116.019 1.75781 115.763C2.52344 114.769 3.54844 114.003 4.83281 113.466C33.6391 101.441 73.7016 84.6344 125.02 63.0469C125.283 71.9969 128.359 79.4953 134.25 85.5422C136.462 87.8141 138.933 89.7063 141.661 91.2188C147.795 94.6188 154.481 95.8531 161.719 94.9219C167.263 94.2094 172.302 92.0672 176.836 88.4953C182.93 83.6922 186.819 77.6484 188.503 70.3641C189.216 67.2828 189.475 64.1813 189.281 61.0594C188.925 55.3375 187.142 50.0063 183.933 45.0656C183.761 44.8 183.895 44.7063 184.336 44.7844Z" fill="#F79595" stroke="#F79595"/>
<path d="M1.75781 115.763C2.35156 116.019 2.97656 116.103 3.63281 116.016C3.87656 115.984 11.2203 115.991 25.6641 116.034C25.7641 117.234 25.7641 118.947 25.6641 121.172C25.5266 124.191 25.5656 132.209 25.7812 145.228C25.7812 145.288 25.7922 145.339 25.8141 145.383C25.8391 145.433 25.8672 145.481 25.8984 145.528L25.5469 145.566C17.0313 145.5 8.51562 145.523 0 145.636C0 136.845 0 128.056 0 119.269C0.28125 117.941 0.867188 116.772 1.75781 115.763Z" fill="#FAE2C0" stroke="#FAE2C0"/>
<path d="M87.3049 116.016C87.8049 116.144 88.3127 116.216 88.8284 116.231C97.5971 117.497 104.247 122.025 108.778 129.816C111.722 134.875 113.386 140.119 113.771 145.547L25.8987 145.528C25.8674 145.481 25.8393 145.433 25.8143 145.383C25.7924 145.339 25.7815 145.288 25.7815 145.228C25.5659 132.209 25.5268 124.191 25.6643 121.172C25.7643 118.947 25.7643 117.234 25.6643 116.034C46.2112 115.878 66.758 115.872 87.3049 116.016Z" fill="#FEF1DA" stroke="#FEF1DA"/>
<path d="M89.2969 115.898C92.7344 116.014 96.1719 116.07 99.6094 116.067C134.572 116.033 169.533 116.016 204.492 116.016C204.852 115.891 205.164 115.963 205.43 116.231C196.18 120.531 191.111 122.93 190.223 123.427C186.823 125.339 184.245 127.722 182.489 130.575C179.833 134.9 178.306 139.891 177.909 145.547L177.792 183.516V200.391C177.783 204.403 177.767 208.417 177.745 212.433C177.623 212.595 177.678 212.722 177.909 212.812C177.75 218.047 177.705 223.281 177.773 228.516C177.298 232.906 174.877 235.406 170.508 236.016C166.952 236.006 163.397 236.013 159.844 236.034C159.584 235.884 159.517 235.725 159.642 235.556C159.697 235.486 159.74 235.414 159.769 235.347C159.798 235.28 159.812 235.219 159.811 235.167C159.711 226.389 159.683 217.609 159.727 208.828C159.711 205.897 158.666 203.622 156.591 202.003C153.672 199.725 150.684 199.359 147.628 200.906C146.331 201.563 145.269 202.425 144.441 203.494C143.506 204.694 142.977 206.003 142.852 207.422C142.673 209.466 142.634 219.003 142.734 236.034C128.316 236.103 120.816 236.058 120.234 235.898C116.05 234.755 113.941 231.981 113.906 227.578C113.916 222.656 113.909 217.734 113.888 212.812V200.156V183.516C113.909 173.047 113.916 162.578 113.906 152.109C113.959 149.919 113.914 147.731 113.77 145.547C113.386 140.119 111.722 134.875 108.778 129.816C104.247 122.025 97.5969 117.497 88.8281 116.231C88.9187 116.028 89.075 115.917 89.2969 115.898ZM136.261 168.427C139.045 170.395 141.853 170.733 144.684 169.439C146.197 168.748 147.386 167.777 148.252 166.523C149.167 165.208 149.672 163.684 149.766 161.953C149.766 161.953 149.794 155.703 149.85 143.203C149.859 141.028 149.216 139.144 147.919 137.55C146.537 135.85 144.85 134.827 142.856 134.48C140.969 134.152 139.144 134.438 137.381 135.338C134.878 136.619 133.381 138.85 132.891 142.031C132.891 147.913 132.891 153.794 132.891 159.675C132.891 161.963 133.03 163.545 133.308 164.423C133.827 166.07 134.811 167.405 136.261 168.427Z" fill="#F37C7C" stroke="#F37C7C"/>
<path d="M206.601 115.898C217.648 115.973 228.697 115.973 239.747 115.898C239.844 116.333 239.928 116.772 240 117.216C240 126.709 240 136.202 240 145.692C239.562 145.736 239.133 145.688 238.711 145.547C218.445 145.547 198.178 145.547 177.909 145.547C178.306 139.891 179.833 134.9 182.489 130.575C184.245 127.722 186.823 125.339 190.223 123.427C191.111 122.93 196.179 120.531 205.429 116.231C205.801 116.069 206.192 115.958 206.601 115.898Z" fill="#FEF1DA" stroke="#FEF1DA"/>
<path d="M147.919 137.55C149.216 139.144 149.859 141.028 149.85 143.203C149.794 155.703 149.766 161.953 149.766 161.953C149.672 163.684 149.167 165.208 148.252 166.523C147.386 167.777 146.197 168.748 144.684 169.439C141.853 170.733 139.045 170.395 136.261 168.427C134.811 167.405 133.827 166.07 133.308 164.423C133.03 163.545 132.891 161.963 132.891 159.675C132.891 153.794 132.891 147.912 132.891 142.031C133.381 138.85 134.878 136.619 137.381 135.337C139.144 134.437 140.969 134.152 142.856 134.48C144.85 134.827 146.537 135.85 147.919 137.55Z" fill="#EE6161" stroke="#EE6161"/>
<path d="M25.5469 145.566C25.5937 151.609 25.6812 155.266 25.8094 156.534C26.8344 166.491 30.5266 175.298 36.8859 182.958C37.0422 183.145 37.0906 183.364 37.0312 183.614C25.1562 183.636 13.2812 183.642 1.40625 183.633C0.93125 183.655 0.4625 183.606 0 183.487C0 170.869 0 158.252 0 145.636C8.51562 145.523 17.0312 145.5 25.5469 145.566Z" fill="#FEC165" stroke="#FEC165"/>
<path d="M25.5469 145.566L25.8984 145.528L113.77 145.547C113.914 147.731 113.959 149.919 113.906 152.109C113.916 162.578 113.909 173.047 113.888 183.516C113.475 183.594 113.247 183.633 113.203 183.633C87.9688 183.642 62.7344 183.636 37.5 183.614H37.0312C37.0906 183.364 37.0422 183.145 36.8859 182.958C30.5266 175.298 26.8344 166.491 25.8094 156.534C25.6813 155.266 25.5938 151.609 25.5469 145.566Z" fill="#FECE85" stroke="#FECE85"/>
<path d="M177.909 145.547C198.178 145.547 218.445 145.547 238.711 145.547C239.133 145.687 239.562 145.736 240 145.692C240 158.311 240 170.928 240 183.544C239.959 183.541 239.92 183.538 239.883 183.534C219.186 183.706 198.489 183.7 177.792 183.516L177.909 145.547Z" fill="#FECE85" stroke="#FECE85"/>
<path d="M0 183.488C0.4625 183.606 0.93125 183.655 1.40625 183.633C13.2813 183.642 25.1562 183.636 37.0312 183.614H37.5C46.3344 193.358 57.35 198.833 70.5469 200.039C72.4969 200.217 86.9438 200.256 113.888 200.156V212.813C45.9375 212.813 11.9594 212.813 11.9531 212.813C5.22188 212.209 1.2375 208.606 0 202.003C0 195.831 0 189.659 0 183.488Z" fill="#FAE2C0" stroke="#FAE2C0"/>
<path d="M113.203 183.633C113.247 183.633 113.475 183.594 113.888 183.516V200.156C86.9438 200.256 72.4969 200.217 70.5469 200.039C57.35 198.833 46.3344 193.358 37.5 183.614C62.7344 183.636 87.9688 183.642 113.203 183.633Z" fill="#FEF1DA" stroke="#FEF1DA"/>
<path d="M177.792 183.516C198.489 183.7 219.186 183.706 239.883 183.534V199.373C239.882 199.456 239.859 199.536 239.814 199.605C239.769 199.674 239.705 199.729 239.629 199.763C238.967 200.053 238.309 200.184 237.656 200.156C237.656 200.156 218.006 200.156 178.706 200.156C178.657 200.156 178.597 200.171 178.53 200.199C178.463 200.227 178.391 200.269 178.317 200.32C178.176 200.42 178.001 200.444 177.792 200.391V183.516Z" fill="#FEF1DA" stroke="#FEF1DA"/>
<path d="M239.883 183.534C239.921 183.538 239.96 183.541 240 183.544C240 189.756 240 195.967 240 202.177C238.76 208.364 235.01 211.909 228.75 212.813C211.804 212.813 194.857 212.813 177.91 212.813C177.679 212.722 177.624 212.595 177.746 212.433C177.768 208.417 177.783 204.403 177.793 200.391C178.002 200.444 178.177 200.42 178.318 200.32C178.391 200.269 178.464 200.227 178.531 200.199C178.598 200.171 178.657 200.156 178.707 200.156C218.007 200.156 237.657 200.156 237.657 200.156C238.31 200.184 238.968 200.053 239.63 199.763C239.705 199.729 239.769 199.674 239.814 199.605C239.859 199.536 239.883 199.456 239.883 199.373V183.534Z" fill="#FAE2C0" stroke="#FAE2C0"/>
<path d="M156.591 202.003C158.666 203.622 159.711 205.897 159.727 208.828C159.683 217.609 159.711 226.389 159.811 235.167C159.813 235.219 159.798 235.28 159.769 235.347C159.74 235.414 159.697 235.486 159.642 235.556C159.517 235.725 159.585 235.884 159.844 236.034C154.141 236.197 148.438 236.197 142.735 236.034C142.635 219.003 142.674 209.466 142.852 207.422C142.977 206.003 143.506 204.694 144.441 203.494C145.269 202.425 146.331 201.563 147.628 200.906C150.685 199.359 153.672 199.725 156.591 202.003Z" fill="#EE6161" stroke="#EE6161" stroke-width="0.15"/>
</g>
<defs>
<clipPath id="clip0_535_1599">
<rect width="240" height="240" fill="white"/>
</clipPath>
</defs>
</svg>
