<svg width="240" height="240" viewBox="0 0 240 240" fill="none" xmlns="http://www.w3.org/2000/svg">
<g clip-path="url(#clip0_535_1401)">
<path d="M117.45 0C119.169 0 120.887 0 122.606 0C133.84 0.20625 144.642 1.34844 155.011 3.42656C163.617 5.15469 172.265 7.80156 180.956 11.3672L181.069 11.8031C181.091 11.8889 181.121 11.9662 181.159 12.0299C181.196 12.0937 181.238 12.1426 181.284 12.1734C190.275 18.0891 198.064 25.3031 204.651 33.8156C209.192 39.6812 212.747 46.0938 215.315 53.0531C217.387 58.6562 218.545 64.4109 218.789 70.3172C218.92 73.5703 218.714 76.6781 218.17 79.6406C216.992 86.0437 214.512 91.9672 210.731 97.4109C205.834 104.464 199.876 110.467 192.858 115.42C187.642 119.098 182.155 122.316 176.395 125.072C169.342 128.444 162.062 131.231 154.556 133.434C141.6 137.238 128.398 139.589 114.951 140.489C111.889 140.692 108.769 140.841 105.59 140.934C84.1436 141.553 63.167 138.633 42.6608 132.173C40.0858 131.361 37.7795 130.506 35.742 129.609C35.4108 129.463 35.1374 129.495 34.9217 129.708C26.4561 124.683 19.3561 118.781 13.6217 112.003C8.85298 106.363 5.41548 100.002 3.30923 92.9203C2.7061 90.8922 2.34829 88.8234 2.23579 86.7141C2.22987 86.587 2.16669 86.4473 2.05766 86.3203C1.92329 86.1672 1.82954 85.9875 1.77641 85.7812C1.42329 73.0781 4.61079 61.2719 11.3389 50.3625C15.3358 43.8781 19.9452 38.1766 25.167 33.2578C35.6858 23.3547 47.8045 15.7453 61.5233 10.4297C70.2483 7.04844 78.9624 4.56406 87.6655 2.97656C97.5124 1.17656 107.44 0.184375 117.45 0ZM46.9452 43.725C48.1702 44.1844 49.4795 44.175 50.8733 43.6969C51.5327 43.475 52.417 43.0016 53.5264 42.2766C58.6983 38.8984 64.4717 35.9812 70.8467 33.525C83.7561 28.5531 97.1327 25.7969 110.976 25.2563C113.589 25.1531 115.181 24.9672 115.753 24.6984C119.222 23.0672 120.542 20.6016 119.714 17.3016C119.339 15.8047 118.651 14.6687 117.651 13.8937C116.539 13.0312 115.173 12.6188 113.555 12.6562C97.4045 13.0313 81.867 16.0094 66.942 21.5906C59.6795 24.3094 52.7061 27.9156 46.0217 32.4094C44.9217 33.15 44.1311 33.9312 43.6499 34.7531C42.2749 37.1156 42.4014 39.3453 44.0295 41.4422C44.9014 42.5609 45.8733 43.3219 46.9452 43.725ZM116.09 52.5891C116.09 51.6741 115.727 50.7965 115.08 50.1495C114.433 49.5025 113.555 49.1391 112.64 49.1391H112.35C111.435 49.1391 110.557 49.5025 109.91 50.1495C109.263 50.7965 108.9 51.6741 108.9 52.5891V63.8578C108.9 64.7728 109.263 65.6503 109.91 66.2973C110.557 66.9443 111.435 67.3078 112.35 67.3078H112.64C113.555 67.3078 114.433 66.9443 115.08 66.2973C115.727 65.6503 116.09 64.7728 116.09 63.8578V52.5891ZM131.095 52.5937C131.095 51.6788 130.732 50.8012 130.085 50.1542C129.438 49.5072 128.56 49.1437 127.645 49.1437H127.355C126.44 49.1437 125.562 49.5072 124.915 50.1542C124.268 50.8012 123.905 51.6788 123.905 52.5937V63.8531C123.905 64.7681 124.268 65.6456 124.915 66.2926C125.562 66.9396 126.44 67.3031 127.355 67.3031H127.645C128.56 67.3031 129.438 66.9396 130.085 66.2926C130.732 65.6456 131.095 64.7681 131.095 63.8531V52.5937ZM31.0124 56.175C29.603 54.7594 28.0155 54.1594 26.2499 54.375C24.5842 54.5781 23.242 55.2922 22.2233 56.5172C21.8483 56.9641 21.1217 58.2109 20.0436 60.2578C17.9592 64.2203 16.403 68.3812 15.3749 72.7406C14.9155 74.6969 14.7749 76.1594 14.953 77.1281C15.2467 78.7156 16.1389 80.0109 17.6295 81.0141C19.2139 82.0828 20.8374 82.3828 22.4999 81.9141C25.153 81.1672 26.742 79.4688 27.267 76.8188C27.5545 75.3719 27.703 74.6344 27.7124 74.6063C28.5749 71.4656 29.7639 68.4516 31.2795 65.5641C31.2889 65.5422 31.5686 65.0672 32.1186 64.1391C33.8123 61.2641 33.4436 58.6094 31.0124 56.175ZM132.98 76.8469C131.473 78.2438 129.625 79.3 127.434 80.0156C121.453 81.9719 115.645 81.5984 110.011 78.8953C107.183 77.5391 105.408 75.4547 104.686 72.6422C104.683 72.6328 104.617 72.1688 104.489 71.25C104.38 70.4562 104.051 69.8219 103.505 69.3469C101.667 67.7531 99.8655 67.8453 98.0999 69.6234C96.4999 71.2359 94.8999 72.8453 93.2999 74.4516C92.3655 75.3891 91.7905 76.1078 91.5749 76.6078C91.1499 77.5859 91.2108 78.5734 91.7577 79.5703C92.7139 81.3078 94.1061 81.8797 95.9342 81.2859C96.4811 81.1078 96.9967 80.8109 97.4811 80.3953C97.9342 80.0078 98.3514 79.5734 98.7327 79.0922C98.7792 79.0326 98.839 78.9847 98.9074 78.9524C98.9758 78.9201 99.051 78.9043 99.1269 78.9061C99.2028 78.9079 99.2774 78.9274 99.3449 78.9629C99.4123 78.9985 99.4707 79.0491 99.5155 79.1109C102.169 82.7891 105.719 85.3516 110.165 86.7984C116.981 89.0141 123.762 88.9281 130.509 86.5406C134.737 85.0469 137.958 82.6953 140.17 79.4859C140.576 78.8953 141.025 78.8594 141.515 79.3781C143.122 81.0625 144.672 81.6688 146.165 81.1969C147.253 80.85 148.006 80.1422 148.425 79.0734C148.859 77.9672 148.672 76.8141 147.862 75.6141C145.909 73.6609 143.969 71.6953 142.04 69.7172C140.487 68.1234 138.89 67.825 137.25 68.8219C136.556 69.2406 136.058 69.8141 135.755 70.5422C135.448 71.2734 135.314 72.0563 135.351 72.8906C134.861 74.5156 134.07 75.8344 132.98 76.8469Z" fill="#EAB14D" stroke="#EAB14D"/>
<path d="M180.956 11.3672C192.519 16.0703 202.933 22.4859 212.198 30.6141C217.464 35.2359 222.155 40.5078 226.27 46.4297C230.752 52.8797 234.009 59.6594 236.044 66.7688C237.866 73.1313 238.592 79.8594 238.223 86.9531C238.042 87.1563 237.892 87.625 237.773 88.3594C236.523 95.9938 233.367 103.072 228.305 109.594C225.427 113.3 222.248 116.73 218.77 119.883C209.945 127.311 200.2 133.228 189.534 137.634C181.778 140.837 174.372 143.309 167.316 145.05C144.484 150.672 121.131 152.148 97.2562 149.48C84.1969 148.017 71.4563 145.152 59.0344 140.883C50.6094 137.989 42.5719 134.264 34.9219 129.708C35.1375 129.495 35.4109 129.463 35.7422 129.609C37.7797 130.506 40.0859 131.361 42.6609 132.173C63.1672 138.633 84.1437 141.553 105.591 140.934C108.769 140.841 111.889 140.692 114.952 140.489C128.398 139.589 141.6 137.238 154.556 133.434C162.063 131.231 169.342 128.444 176.395 125.072C182.155 122.316 187.642 119.098 192.858 115.42C199.877 110.467 205.834 104.464 210.731 97.4109C214.512 91.9672 216.992 86.0437 218.17 79.6406C218.714 76.6781 218.92 73.5703 218.789 70.3172C218.545 64.4109 217.387 58.6562 215.316 53.0531C212.747 46.0938 209.192 39.6812 204.652 33.8156C198.064 25.3031 190.275 18.0891 181.284 12.1734C181.239 12.1426 181.196 12.0937 181.159 12.0299C181.122 11.9662 181.091 11.8889 181.069 11.8031L180.956 11.3672Z" fill="#E7A52E" stroke="#E7A52E"/>
<path d="M113.555 12.6562C115.174 12.6187 116.539 13.0312 117.652 13.8937C118.652 14.6687 119.339 15.8047 119.714 17.3016C120.543 20.6016 119.222 23.0672 115.754 24.6984C115.182 24.9672 113.589 25.1531 110.977 25.2562C97.1332 25.7969 83.7566 28.5531 70.8473 33.525C64.4723 35.9812 58.6988 38.8984 53.5269 42.2766C52.4176 43.0016 51.5332 43.475 50.8738 43.6969C49.4801 44.175 48.1707 44.1844 46.9457 43.725C45.8738 43.3219 44.9019 42.5609 44.0301 41.4422C42.4019 39.3453 42.2754 37.1156 43.6504 34.7531C44.1316 33.9312 44.9223 33.15 46.0223 32.4094C52.7066 27.9156 59.6801 24.3094 66.9426 21.5906C81.8676 16.0094 97.4051 13.0312 113.555 12.6562Z" fill="#ECBE6B" stroke="#ECBE6B"/>
<path d="M112.641 49.1391H112.35C110.445 49.1391 108.9 50.6837 108.9 52.5891V63.8578C108.9 65.7632 110.445 67.3078 112.35 67.3078H112.641C114.546 67.3078 116.091 65.7632 116.091 63.8578V52.5891C116.091 50.6837 114.546 49.1391 112.641 49.1391Z" fill="#E7A52E" stroke="#E7A52E"/>
<path d="M127.645 49.1438H127.354C125.449 49.1438 123.904 50.6884 123.904 52.5938V63.8531C123.904 65.7585 125.449 67.3031 127.354 67.3031H127.645C129.55 67.3031 131.095 65.7585 131.095 63.8531V52.5938C131.095 50.6884 129.55 49.1438 127.645 49.1438Z" fill="#E7A52E" stroke="#E7A52E"/>
<path d="M26.2504 54.375C28.0161 54.1594 29.6036 54.7594 31.0129 56.175C33.4442 58.6094 33.8129 61.2641 32.1192 64.1391C31.5692 65.0672 31.2895 65.5422 31.2801 65.5641C29.7645 68.4516 28.5754 71.4656 27.7129 74.6062C27.7036 74.6344 27.5551 75.3719 27.2676 76.8187C26.7426 79.4687 25.1536 81.1672 22.5004 81.9141C20.8379 82.3828 19.2145 82.0828 17.6301 81.0141C16.1395 80.0109 15.2473 78.7156 14.9536 77.1281C14.7754 76.1594 14.9161 74.6969 15.3754 72.7406C16.4036 68.3812 17.9598 64.2203 20.0442 60.2578C21.1223 58.2109 21.8489 56.9641 22.2239 56.5172C23.2426 55.2922 24.5848 54.5781 26.2504 54.375Z" fill="#ECBE6B" stroke="#ECBE6B"/>
<path d="M103.504 69.3469C104.051 69.8219 104.379 70.4562 104.489 71.25C104.617 72.1687 104.682 72.6328 104.686 72.6422C105.407 75.4547 107.182 77.5391 110.011 78.8953C115.645 81.5984 121.453 81.9719 127.434 80.0156C129.625 79.3 131.473 78.2437 132.979 76.8469C134.07 75.8344 134.861 74.5156 135.351 72.8906C135.314 72.0562 135.448 71.2734 135.754 70.5422C136.057 69.8141 136.556 69.2406 137.25 68.8219C138.89 67.825 140.487 68.1234 142.04 69.7172C143.968 71.6953 145.909 73.6609 147.862 75.6141C148.672 76.8141 148.859 77.9672 148.425 79.0734C148.006 80.1422 147.253 80.85 146.165 81.1969C144.672 81.6687 143.122 81.0625 141.515 79.3781C141.025 78.8594 140.576 78.8953 140.17 79.4859C137.957 82.6953 134.737 85.0469 130.509 86.5406C123.762 88.9281 116.981 89.0141 110.165 86.7984C105.718 85.3516 102.168 82.7891 99.5153 79.1109C99.4705 79.0491 99.4121 78.9985 99.3447 78.9629C99.2773 78.9274 99.2026 78.9079 99.1267 78.9061C99.0508 78.9043 98.9756 78.9201 98.9072 78.9524C98.8388 78.9847 98.779 79.0326 98.7325 79.0922C98.3512 79.5734 97.9341 80.0078 97.4809 80.3953C96.9966 80.8109 96.4809 81.1078 95.9341 81.2859C94.1059 81.8797 92.7137 81.3078 91.7575 79.5703C91.2106 78.5734 91.1497 77.5859 91.5747 76.6078C91.7903 76.1078 92.3653 75.3891 93.2997 74.4516C94.8997 72.8453 96.4997 71.2359 98.0997 69.6234C99.8653 67.8453 101.667 67.7531 103.504 69.3469Z" fill="#E7A52E" stroke="#E7A52E"/>
<path d="M1.77676 85.7812C1.82988 85.9875 1.92363 86.1672 2.05801 86.3203C2.16703 86.4473 2.23021 86.587 2.23613 86.7141C2.34863 88.8234 2.70645 90.8922 3.30957 92.9203C5.41582 100.002 8.85332 106.363 13.6221 112.003C19.3564 118.781 26.4564 124.683 34.9221 129.708C42.5721 134.264 50.6096 137.989 59.0346 140.883C71.4565 145.152 84.1971 148.017 97.2564 149.48C121.131 152.148 144.485 150.672 167.316 145.05C174.372 143.309 181.778 140.838 189.535 137.634C200.2 133.228 209.946 127.311 218.771 119.883C218.896 120.361 218.941 120.947 218.906 121.641C218.875 122.263 218.881 134.059 218.925 157.031L218.771 157.617C218.242 157.605 217.858 157.839 217.617 158.32C215.739 160.177 214.022 162.173 212.466 164.311C211.563 165.552 210.547 166.689 209.419 167.723C209.4 167.739 208.88 168.128 207.858 168.891C206.633 169.8 206.127 170.953 206.339 172.35C206.53 173.609 207.146 174.527 208.186 175.102C209.399 175.767 210.722 175.611 212.156 174.633C214.3 173.167 216.185 171.345 217.81 169.167C218.119 168.755 218.225 168.802 218.128 169.308C217.544 172.348 216.639 175.269 215.414 178.069C212.446 184.847 208.333 190.839 203.077 196.045C199.061 200.023 194.677 203.539 189.924 206.592C189.892 206.612 189.856 206.656 189.819 206.719C189.782 206.782 189.746 206.863 189.713 206.953L189.628 207.188L186.68 208.341C178.033 211.778 169.391 214.392 160.753 216.183C139.131 220.661 117.225 221.541 95.0346 218.822C82.5814 217.297 70.4361 214.469 58.5986 210.338C51.6486 207.909 44.8205 204.858 38.1143 201.183C30.4986 197.005 23.658 191.931 17.5924 185.963C13.0518 181.491 9.32676 176.422 6.41738 170.756C4.22988 166.491 2.82988 161.981 2.21738 157.228C2.20488 157.138 2.16426 157.128 2.09551 157.2C1.97988 157.316 1.9377 157.181 1.96895 156.797C2.01895 156.203 1.98145 155.617 1.85645 155.039L1.73926 143.555L1.77676 85.7812ZM13.6877 149.437C15.6971 151.25 18.0018 152.556 20.6018 153.356C22.6549 153.991 24.1564 154.738 25.1064 155.597C25.8846 156.297 27.1221 157.869 28.8189 160.313C30.4689 162.688 32.5971 164.395 35.2033 165.436C35.9346 165.727 36.9361 165.986 38.208 166.214C40.0893 166.548 41.1127 166.72 41.2783 166.73C43.3346 166.845 44.9174 167.216 46.0268 167.841C46.9205 168.347 48.3064 169.502 50.1846 171.305C51.4814 172.552 52.9236 173.578 54.5111 174.384C55.458 174.866 56.2783 175.122 56.9721 175.153C58.0033 175.203 58.8549 174.886 59.5268 174.202C60.3799 173.327 60.7111 172.256 60.5205 170.991C60.3518 169.881 59.7518 169.03 58.7205 168.436C57.5736 167.777 56.9939 167.442 56.9814 167.433C55.1408 166.095 53.4033 164.63 51.769 163.036C49.3064 161.133 46.6205 160.03 43.7111 159.727C41.808 159.527 40.1033 159.244 38.5971 158.878C37.6846 158.656 36.908 158.25 36.2674 157.659C35.1486 156.628 34.0846 155.355 33.0752 153.839C30.7471 150.333 27.4658 147.892 23.2314 146.517C20.9908 145.789 19.6627 145.222 19.2471 144.816C18.3064 143.894 17.5549 143.395 16.9924 143.32C15.1143 143.077 13.7799 143.656 12.9893 145.059C12.5736 145.8 12.4143 146.545 12.5111 147.295C12.6205 148.114 13.0127 148.828 13.6877 149.437ZM120.792 177.684C121.524 177.644 123.469 177.93 126.628 178.542C126.65 178.545 127.614 178.761 129.521 179.189C133.921 180.18 138.316 180.063 142.706 178.838C145.269 178.125 147.544 177.341 149.531 176.484C153.691 174.694 157.989 173.938 162.427 174.216C166.911 174.494 170.621 174.234 173.555 173.438C174.964 173.056 175.824 172.23 176.133 170.958C176.414 169.805 176.238 168.766 175.603 167.841C174.9 166.819 173.788 166.341 172.266 166.406C169.091 167.041 165.886 167.255 162.652 167.048C157.202 166.698 151.975 167.581 146.972 169.697C146.05 170.088 145.116 170.445 144.169 170.77C141.535 172.027 138.811 172.664 135.999 172.683C134.911 172.689 132.549 172.334 128.911 171.619C126.046 171.053 123.388 170.683 120.938 170.508C118.481 170.33 117.039 171.205 116.611 173.133C116.333 174.389 116.56 175.464 117.291 176.358C118.085 177.33 119.252 177.772 120.792 177.684Z" fill="#F6E7C6" stroke="#F6E7C6"/>
<path d="M238.224 86.9531L238.341 128.086C238.225 128.427 238.18 128.78 238.205 129.145C238.233 129.567 238.125 129.636 237.881 129.352C237.865 129.332 237.844 129.316 237.82 129.305C237.797 129.295 237.771 129.29 237.746 129.291C237.721 129.292 237.697 129.299 237.676 129.311C237.654 129.323 237.636 129.34 237.624 129.361C235.099 133.417 233.391 137.797 232.5 142.5C232.291 143.609 232.017 144.703 231.68 145.781C231.258 147.722 230.467 149.275 229.308 150.441C228.202 151.55 226.658 152.623 224.677 153.661C222.771 154.802 220.853 155.925 218.925 157.031C218.881 134.059 218.875 122.263 218.906 121.641C218.941 120.947 218.896 120.361 218.771 119.883C222.249 116.73 225.427 113.3 228.305 109.594C233.367 103.072 236.524 95.9938 237.774 88.3594C237.892 87.625 238.042 87.1563 238.224 86.9531Z" fill="#F4D8A5" stroke="#F4D8A5"/>
<path d="M238.341 128.086L238.223 157.383C238.117 157.083 238.078 156.77 238.106 156.445C238.128 154.608 238.134 152.772 238.125 150.938C238.166 150.4 238.009 150.322 237.656 150.703C236.159 154.044 233.842 156.659 230.705 158.55C228.57 159.834 226.972 160.764 225.909 161.339C223.562 162.602 221.308 164.677 219.145 167.564C218.661 168.211 218.469 168.134 218.569 167.334C218.934 164.369 219.001 161.13 218.77 157.617L218.925 157.031C220.853 155.925 222.77 154.802 224.676 153.661C226.658 152.623 228.201 151.55 229.308 150.441C230.467 149.275 231.258 147.722 231.68 145.781C232.017 144.703 232.291 143.609 232.5 142.5C233.391 137.797 235.098 133.417 237.623 129.361C237.636 129.34 237.654 129.323 237.675 129.311C237.697 129.299 237.721 129.292 237.746 129.291C237.771 129.29 237.796 129.295 237.82 129.305C237.843 129.316 237.864 129.332 237.881 129.352C238.125 129.636 238.233 129.567 238.205 129.145C238.18 128.78 238.225 128.427 238.341 128.086Z" fill="#F1CB86" stroke="#F1CB86"/>
<path d="M16.9921 143.32C17.5546 143.395 18.3062 143.894 19.2468 144.816C19.6624 145.222 20.9906 145.789 23.2312 146.517C27.4656 147.892 30.7468 150.333 33.0749 153.839C34.0843 155.355 35.1484 156.628 36.2671 157.659C36.9077 158.25 37.6843 158.656 38.5968 158.878C40.1031 159.244 41.8077 159.527 43.7109 159.727C46.6202 160.03 49.3062 161.133 51.7687 163.036C53.4031 164.63 55.1406 166.095 56.9812 167.433C56.9937 167.442 57.5734 167.777 58.7202 168.436C59.7515 169.03 60.3515 169.881 60.5202 170.991C60.7109 172.256 60.3796 173.327 59.5265 174.202C58.8546 174.886 58.0031 175.203 56.9718 175.153C56.2781 175.122 55.4577 174.866 54.5109 174.384C52.9234 173.578 51.4812 172.552 50.1843 171.305C48.3062 169.502 46.9202 168.347 46.0265 167.841C44.9171 167.216 43.3343 166.845 41.2781 166.73C41.1124 166.72 40.089 166.548 38.2077 166.214C36.9359 165.986 35.9343 165.727 35.2031 165.436C32.5968 164.395 30.4687 162.687 28.8187 160.312C27.1218 157.869 25.8843 156.297 25.1062 155.597C24.1562 154.737 22.6546 153.991 20.6015 153.356C18.0015 152.556 15.6968 151.25 13.6874 149.437C13.0124 148.828 12.6202 148.114 12.5109 147.295C12.414 146.545 12.5734 145.8 12.989 145.059C13.7796 143.656 15.114 143.077 16.9921 143.32Z" fill="#F4D8A5" stroke="#F4D8A5"/>
<path d="M238.125 150.938C238.134 152.772 238.128 154.608 238.106 156.445C237.369 161.48 235.998 166.041 233.995 170.128C230.679 176.884 226.054 182.922 220.12 188.241C211.076 196.347 200.912 202.663 189.628 207.188L189.712 206.953C189.745 206.863 189.782 206.782 189.819 206.719C189.856 206.656 189.892 206.612 189.923 206.592C194.676 203.539 199.061 200.023 203.076 196.045C208.333 190.839 212.445 184.847 215.414 178.069C216.639 175.269 217.544 172.348 218.128 169.308C218.225 168.802 218.119 168.755 217.809 169.167C216.184 171.345 214.3 173.167 212.156 174.633C210.722 175.611 209.398 175.767 208.186 175.102C207.145 174.527 206.529 173.609 206.339 172.35C206.126 170.953 206.633 169.8 207.858 168.891C208.879 168.128 209.4 167.739 209.419 167.723C210.547 166.689 211.562 165.552 212.465 164.311C214.022 162.173 215.739 160.177 217.617 158.32C217.858 157.839 218.242 157.605 218.77 157.617C219.001 161.13 218.934 164.369 218.569 167.334C218.469 168.134 218.661 168.211 219.145 167.564C221.308 164.677 223.562 162.602 225.909 161.339C226.972 160.764 228.57 159.834 230.704 158.55C233.842 156.659 236.159 154.044 237.656 150.703C238.009 150.322 238.165 150.4 238.125 150.938Z" fill="#F4D8A5" stroke="#F4D8A5"/>
<path d="M1.85649 155.039C1.98149 155.617 2.01899 156.203 1.96899 156.797C1.93774 157.181 1.97992 157.316 2.09555 157.2C2.1643 157.128 2.20492 157.138 2.21742 157.228C2.82992 161.981 4.22992 166.491 6.41742 170.756C9.3268 176.422 13.0518 181.491 17.5924 185.963C23.658 191.931 30.4987 197.005 38.1143 201.183C44.8206 204.858 51.6487 207.909 58.5987 210.338C70.4362 214.469 82.5815 217.297 95.0346 218.822C117.225 221.541 139.131 220.661 160.753 216.183C169.391 214.392 178.033 211.778 186.68 208.341C187.361 208.197 187.441 208.284 186.919 208.603C179.485 213.137 171.666 216.87 163.463 219.802C149.835 224.673 135.819 227.845 121.416 229.317C96.3002 231.889 71.6096 229.786 47.344 223.008C44.0002 222.073 40.2846 220.775 36.1971 219.113C36.139 219.089 36.0723 219.082 36.0024 219.091C35.9324 219.1 35.861 219.125 35.794 219.164C35.6721 219.236 35.5377 219.273 35.3909 219.277C26.4471 214.117 18.7362 207.528 12.258 199.509C5.17992 190.747 1.67211 180.689 1.73461 169.336C1.75961 164.805 1.76117 160.273 1.7393 155.742C1.71117 155.492 1.75024 155.258 1.85649 155.039Z" fill="#AA8080" stroke="#AA8080"/>
<path d="M238.106 156.445C238.078 156.77 238.117 157.083 238.223 157.383C238.245 161.445 238.252 165.508 238.242 169.57C238.464 178.064 236.43 185.948 232.139 193.223C229.286 198.058 225.837 202.425 221.794 206.325C217.141 210.813 212.052 214.736 206.527 218.095C194.198 225.586 180.834 231.061 166.434 234.52C153.197 237.702 140.053 239.528 127.003 240C122.431 240 117.861 240 113.292 240C107.702 239.781 100.797 239.156 92.5781 238.125C75.0312 235.925 58.3234 230.952 42.4547 223.205C40.0297 222.02 37.675 220.711 35.3906 219.277C35.5375 219.273 35.6719 219.236 35.7938 219.164C35.8608 219.125 35.9321 219.1 36.0021 219.091C36.0721 219.082 36.1388 219.089 36.1969 219.113C40.2844 220.775 44 222.073 47.3437 223.008C71.6094 229.786 96.3 231.889 121.416 229.317C135.819 227.845 149.834 224.673 163.462 219.802C171.666 216.87 179.484 213.137 186.919 208.603C187.441 208.284 187.361 208.197 186.68 208.341L189.628 207.188C200.912 202.662 211.077 196.347 220.12 188.241C226.055 182.922 230.68 176.884 233.995 170.128C235.998 166.041 237.369 161.48 238.106 156.445Z" fill="#9D6B6B" stroke="#9D6B6B"/>
<path d="M172.266 166.406C173.788 166.341 174.9 166.819 175.603 167.841C176.238 168.766 176.414 169.805 176.133 170.958C175.824 172.23 174.964 173.056 173.555 173.438C170.62 174.234 166.911 174.494 162.427 174.216C157.989 173.938 153.691 174.694 149.531 176.484C147.544 177.341 145.269 178.125 142.706 178.837C138.316 180.062 133.92 180.18 129.52 179.189C127.614 178.761 126.65 178.545 126.628 178.542C123.469 177.93 121.524 177.644 120.792 177.684C119.252 177.772 118.084 177.33 117.291 176.358C116.559 175.464 116.333 174.389 116.611 173.133C117.039 171.205 118.481 170.33 120.938 170.508C123.388 170.683 126.045 171.053 128.911 171.619C132.549 172.334 134.911 172.689 135.999 172.683C138.811 172.664 141.534 172.027 144.169 170.77C145.116 170.445 146.05 170.087 146.972 169.697C151.975 167.581 157.202 166.698 162.652 167.048C165.886 167.255 169.091 167.041 172.266 166.406Z" fill="#F4D8A5" stroke="#F4D8A5"/>
</g>
<defs>
<clipPath id="clip0_535_1401">
<rect width="240" height="240" fill="white"/>
</clipPath>
</defs>
</svg>
