<?xml version="1.0" encoding="UTF-8" standalone="no"?>
<!DOCTYPE svg PUBLIC "-//W3C//DTD SVG 1.1//EN" "http://www.w3.org/Graphics/SVG/1.1/DTD/svg11.dtd">
<svg xmlns="http://www.w3.org/2000/svg" version="1.1" viewBox="0 0 512 512">
<path fill="rgb(77,88,47)" fill-opacity="0.000" d="M 0.00 0.00 Q 125.28 0.00 250.56 0.00 Q 218.53 0.59 187.02 6.35 Q 159.17 11.43 131.25 22.25 Q 87.35 39.26 53.69 70.95 Q 36.98 86.69 24.19 107.44 Q 2.66 142.35 3.79 183.00 L 3.71 306.25 Q 3.38 305.87 3.25 306.25 Q 3.18 306.47 3.25 331.00 Q 3.25 332.14 3.71 332.25 Q 3.78 346.75 3.70 361.25 Q 3.50 397.58 26.15 425.62 Q 46.88 451.28 75.50 467.79 Q 82.81 472.38 90.57 476.17 Q 141.35 500.96 197.50 508.00 Q 223.80 511.30 241.69 512.00 Q 120.84 512.00 0.00 512.00 Q 0.00 256.00 0.00 0.00 Z"/>
<path fill="rgb(234,177,77)" fill-opacity="1.000" d="M 250.56 0.00 Q 256.06 0.00 261.56 0.00 Q 297.51 0.66 330.69 7.31 Q 358.23 12.84 386.04 24.25 L 386.28 25.18 A 1.43 0.72 86.6 0 0 386.74 25.97 Q 415.51 44.90 436.59 72.14 Q 451.12 90.91 459.34 113.18 Q 465.97 131.11 466.75 150.01 Q 467.17 160.42 465.43 169.90 Q 461.66 190.39 449.56 207.81 Q 433.89 230.38 411.43 246.23 Q 394.74 258.00 376.31 266.82 Q 353.74 277.61 329.72 284.66 Q 288.26 296.83 245.23 299.71 Q 235.43 300.36 225.26 300.66 Q 156.63 302.64 91.01 281.97 Q 82.77 279.37 76.25 276.50 Q 75.19 276.03 74.50 276.71 Q 47.41 260.63 29.06 238.94 Q 13.80 220.89 7.06 198.23 Q 5.13 191.74 4.77 184.99 A 1.58 1.02 32.8 0 0 4.39 184.15 Q 3.96 183.66 3.79 183.00 Q 2.66 142.35 24.19 107.44 Q 36.98 86.69 53.69 70.95 Q 87.35 39.26 131.25 22.25 Q 159.17 11.43 187.02 6.35 Q 218.53 0.59 250.56 0.00 Z M 100.15 93.28 Q 104.07 94.75 108.53 93.22 Q 110.64 92.51 114.19 90.19 Q 130.74 79.38 151.14 71.52 Q 192.45 55.61 236.75 53.88 Q 245.11 53.55 246.94 52.69 Q 258.04 47.47 255.39 36.91 Q 254.19 32.12 250.99 29.64 Q 247.43 26.88 242.25 27.00 Q 190.57 28.20 142.81 46.06 Q 119.57 54.76 98.18 69.14 Q 94.66 71.51 93.12 74.14 Q 88.72 81.70 93.93 88.41 Q 96.72 91.99 100.15 93.28 Z M 247.66 112.19 A 7.36 7.36 0 0 0 240.30 104.83 L 239.68 104.83 A 7.36 7.36 0 0 0 232.32 112.19 L 232.32 136.23 A 7.36 7.36 0 0 0 239.68 143.59 L 240.30 143.59 A 7.36 7.36 0 0 0 247.66 136.23 L 247.66 112.19 Z M 279.67 112.20 A 7.36 7.36 0 0 0 272.31 104.84 L 271.69 104.84 A 7.36 7.36 0 0 0 264.33 112.20 L 264.33 136.22 A 7.36 7.36 0 0 0 271.69 143.58 L 272.31 143.58 A 7.36 7.36 0 0 0 279.67 136.22 L 279.67 112.20 Z M 66.16 119.84 Q 61.65 115.31 56.00 116.00 Q 50.67 116.65 47.41 120.57 Q 46.21 122.00 42.76 128.55 Q 36.09 141.23 32.80 155.18 Q 31.33 161.44 31.90 164.54 Q 32.84 169.62 37.61 172.83 Q 42.68 176.25 48.00 174.75 Q 56.49 172.36 58.17 163.88 Q 59.09 159.25 59.12 159.16 Q 61.88 149.11 66.73 139.87 Q 66.76 139.80 68.52 136.83 Q 73.94 127.63 66.16 119.84 Z M 283.69 163.94 Q 278.87 168.41 271.86 170.70 Q 252.72 176.96 234.69 168.31 Q 225.64 163.97 223.33 154.97 Q 223.32 154.94 222.91 152.00 Q 222.56 149.46 220.81 147.94 Q 214.93 142.84 209.28 148.53 Q 204.16 153.69 199.04 158.83 Q 196.05 161.83 195.36 163.43 Q 194.00 166.56 195.75 169.75 Q 198.81 175.31 204.66 173.41 Q 206.41 172.84 207.96 171.51 Q 209.41 170.27 210.63 168.73 A 1.05 1.04 46.3 0 1 212.30 168.77 Q 220.79 180.54 235.02 185.17 Q 256.83 192.26 278.42 184.62 Q 291.95 179.84 299.03 169.57 Q 300.33 167.68 301.90 169.34 Q 307.04 174.73 311.82 173.22 Q 315.30 172.11 316.64 168.69 Q 318.03 165.15 315.44 161.31 Q 309.19 155.06 303.02 148.73 Q 298.05 143.63 292.80 146.82 Q 290.58 148.16 289.61 150.49 Q 288.63 152.83 288.75 155.50 Q 287.18 160.70 283.69 163.94 Z"/>
<path fill="rgb(77,88,47)" fill-opacity="0.000" d="M 261.56 0.00 Q 386.78 0.00 512.00 0.00 Q 512.00 256.00 512.00 512.00 Q 391.47 512.00 270.94 512.00 Q 312.70 510.49 355.06 500.31 Q 401.14 489.24 440.59 465.27 Q 458.27 454.52 473.16 440.16 Q 486.10 427.68 495.23 412.21 Q 508.96 388.93 508.25 361.75 Q 508.28 348.75 508.21 335.75 L 508.46 273.25 L 508.21 185.50 Q 509.39 162.80 503.56 142.44 Q 497.05 119.69 482.71 99.05 Q 469.54 80.10 452.69 65.31 Q 423.04 39.30 386.04 24.25 Q 358.23 12.84 330.69 7.31 Q 297.51 0.66 261.56 0.00 Z"/>
<path fill="rgb(231,165,46)" fill-opacity="1.000" d="M 386.04 24.25 Q 423.04 39.30 452.69 65.31 Q 469.54 80.10 482.71 99.05 Q 497.05 119.69 503.56 142.44 Q 509.39 162.80 508.21 185.50 Q 507.63 186.15 507.25 188.50 Q 503.25 212.93 487.05 233.80 Q 477.84 245.66 466.71 255.75 Q 438.47 279.52 404.34 293.62 Q 379.52 303.87 356.94 309.44 Q 283.88 327.43 207.48 318.89 Q 165.69 314.21 125.94 300.55 Q 98.98 291.29 74.50 276.71 Q 75.19 276.03 76.25 276.50 Q 82.77 279.37 91.01 281.97 Q 156.63 302.64 225.26 300.66 Q 235.43 300.36 245.23 299.71 Q 288.26 296.83 329.72 284.66 Q 353.74 277.61 376.31 266.82 Q 394.74 258.00 411.43 246.23 Q 433.89 230.38 449.56 207.81 Q 461.66 190.39 465.43 169.90 Q 467.17 160.42 466.75 150.01 Q 465.97 131.11 459.34 113.18 Q 451.12 90.91 436.59 72.14 Q 415.51 44.90 386.74 25.97 A 1.43 0.72 86.6 0 1 386.28 25.18 L 386.04 24.25 Z"/>
<path fill="rgb(236,190,107)" fill-opacity="1.000" d="M 242.25 27.00 Q 247.43 26.88 250.99 29.64 Q 254.19 32.12 255.39 36.91 Q 258.04 47.47 246.94 52.69 Q 245.11 53.55 236.75 53.88 Q 192.45 55.61 151.14 71.52 Q 130.74 79.38 114.19 90.19 Q 110.64 92.51 108.53 93.22 Q 104.07 94.75 100.15 93.28 Q 96.72 91.99 93.93 88.41 Q 88.72 81.70 93.12 74.14 Q 94.66 71.51 98.18 69.14 Q 119.57 54.76 142.81 46.06 Q 190.57 28.20 242.25 27.00 Z"/>
<rect fill="rgb(231,165,46)" fill-opacity="1.000" x="-7.67" y="-19.38" width="15.34" height="38.76" rx="7.36" transform="translate(239.99,124.21) rotate(0.0)"/>
<rect fill="rgb(231,165,46)" fill-opacity="1.000" x="-7.67" y="-19.37" width="15.34" height="38.74" rx="7.36" transform="translate(272.00,124.21) rotate(0.0)"/>
<path fill="rgb(236,190,107)" fill-opacity="1.000" d="M 56.00 116.00 Q 61.65 115.31 66.16 119.84 Q 73.94 127.63 68.52 136.83 Q 66.76 139.80 66.73 139.87 Q 61.88 149.11 59.12 159.16 Q 59.09 159.25 58.17 163.88 Q 56.49 172.36 48.00 174.75 Q 42.68 176.25 37.61 172.83 Q 32.84 169.62 31.90 164.54 Q 31.33 161.44 32.80 155.18 Q 36.09 141.23 42.76 128.55 Q 46.21 122.00 47.41 120.57 Q 50.67 116.65 56.00 116.00 Z"/>
<path fill="rgb(231,165,46)" fill-opacity="1.000" d="M 220.81 147.94 Q 222.56 149.46 222.91 152.00 Q 223.32 154.94 223.33 154.97 Q 225.64 163.97 234.69 168.31 Q 252.72 176.96 271.86 170.70 Q 278.87 168.41 283.69 163.94 Q 287.18 160.70 288.75 155.50 Q 288.63 152.83 289.61 150.49 Q 290.58 148.16 292.80 146.82 Q 298.05 143.63 303.02 148.73 Q 309.19 155.06 315.44 161.31 Q 318.03 165.15 316.64 168.69 Q 315.30 172.11 311.82 173.22 Q 307.04 174.73 301.90 169.34 Q 300.33 167.68 299.03 169.57 Q 291.95 179.84 278.42 184.62 Q 256.83 192.26 235.02 185.17 Q 220.79 180.54 212.30 168.77 A 1.05 1.04 46.3 0 0 210.63 168.73 Q 209.41 170.27 207.96 171.51 Q 206.41 172.84 204.66 173.41 Q 198.81 175.31 195.75 169.75 Q 194.00 166.56 195.36 163.43 Q 196.05 161.83 199.04 158.83 Q 204.16 153.69 209.28 148.53 Q 214.93 142.84 220.81 147.94 Z"/>
<path fill="rgb(246,231,198)" fill-opacity="1.000" d="M 3.79 183.00 Q 3.96 183.66 4.39 184.15 A 1.58 1.02 32.8 0 1 4.77 184.99 Q 5.13 191.74 7.06 198.23 Q 13.80 220.89 29.06 238.94 Q 47.41 260.63 74.50 276.71 Q 98.98 291.29 125.94 300.55 Q 165.69 314.21 207.48 318.89 Q 283.88 327.43 356.94 309.44 Q 379.52 303.87 404.34 293.62 Q 438.47 279.52 466.71 255.75 Q 467.11 257.28 467.00 259.50 Q 466.90 261.49 467.04 335.00 L 466.71 336.25 Q 465.02 336.21 464.25 337.75 Q 458.24 343.69 453.26 350.53 Q 450.37 354.50 446.76 357.81 Q 446.70 357.86 443.43 360.30 Q 439.51 363.21 440.19 367.68 Q 440.80 371.71 444.13 373.55 Q 448.01 375.68 452.60 372.55 Q 459.46 367.86 464.66 360.89 Q 465.65 359.57 465.34 361.19 Q 463.47 370.92 459.55 379.88 Q 450.05 401.57 433.23 418.23 Q 420.38 430.96 405.17 440.73 A 1.27 0.33 -74.3 0 0 404.72 441.50 L 404.54 442.00 L 398.25 444.46 Q 370.58 455.46 342.94 461.19 Q 273.75 475.52 202.74 466.82 Q 162.89 461.94 125.01 448.72 Q 102.77 440.95 81.31 429.19 Q 56.94 415.82 37.53 396.72 Q 23.00 382.41 13.69 364.28 Q 6.69 350.63 4.73 335.42 Q 4.69 335.13 4.47 335.36 Q 4.10 335.73 4.20 334.50 Q 4.36 332.60 3.96 330.75 L 3.71 306.25 L 3.79 183.00 Z M 29.20 318.80 Q 35.63 324.60 43.95 327.16 Q 50.52 329.19 53.56 331.94 Q 56.05 334.18 61.48 342.00 Q 66.76 349.60 75.10 352.93 Q 77.44 353.86 81.51 354.59 Q 87.53 355.66 88.06 355.69 Q 94.64 356.06 98.19 358.06 Q 101.05 359.68 107.06 365.45 Q 111.21 369.44 116.29 372.02 Q 119.32 373.56 121.54 373.66 Q 124.84 373.82 126.99 371.63 Q 129.72 368.83 129.11 364.78 Q 128.57 361.23 125.27 359.33 Q 121.60 357.22 121.56 357.19 Q 115.67 352.91 110.44 347.81 Q 102.56 341.72 93.25 340.75 Q 87.16 340.11 82.34 338.94 Q 79.42 338.23 77.37 336.34 Q 73.79 333.04 70.56 328.19 Q 63.11 316.97 49.56 312.57 Q 42.39 310.24 41.06 308.94 Q 38.05 305.99 36.25 305.75 Q 30.24 304.97 27.71 309.46 Q 26.38 311.83 26.69 314.23 Q 27.04 316.85 29.20 318.80 Z M 257.69 379.06 Q 260.03 378.93 270.14 380.89 Q 270.21 380.90 276.31 382.27 Q 290.39 385.44 304.44 381.52 Q 312.64 379.24 319.00 376.50 Q 332.31 370.77 346.51 371.66 Q 360.86 372.55 370.25 370.00 Q 374.76 368.78 375.75 364.71 Q 376.65 361.02 374.62 358.06 Q 372.37 354.79 367.50 355.00 Q 357.34 357.03 346.99 356.37 Q 329.55 355.25 313.54 362.02 Q 310.59 363.27 307.56 364.31 Q 299.13 368.33 290.13 368.39 Q 286.65 368.41 275.01 366.12 Q 265.84 364.31 258.00 363.75 Q 250.14 363.18 248.77 369.35 Q 247.88 373.37 250.22 376.23 Q 252.76 379.34 257.69 379.06 Z"/>
<path fill="rgb(244,216,165)" fill-opacity="1.000" d="M 508.21 185.50 L 508.46 273.25 Q 508.09 274.34 508.17 275.51 Q 508.26 276.86 507.48 275.95 A 0.35 0.33 41.3 0 0 506.93 275.97 Q 498.85 288.95 496.00 304.00 Q 495.33 307.55 494.25 311.00 Q 492.90 317.21 489.19 320.94 Q 485.65 324.49 479.31 327.81 Q 473.21 331.46 467.04 335.00 Q 466.90 261.49 467.00 259.50 Q 467.11 257.28 466.71 255.75 Q 477.84 245.66 487.05 233.80 Q 503.25 212.93 507.25 188.50 Q 507.63 186.15 508.21 185.50 Z"/>
<path fill="rgb(241,203,134)" fill-opacity="1.000" d="M 508.46 273.25 L 508.21 335.75 Q 507.87 334.79 507.96 333.75 Q 508.03 327.87 508.00 322.00 Q 508.13 320.28 507.00 321.50 Q 502.21 332.19 492.17 338.24 Q 485.34 342.35 481.94 344.19 Q 474.43 348.23 467.51 357.47 Q 465.96 359.54 466.28 356.98 Q 467.45 347.49 466.71 336.25 L 467.04 335.00 Q 473.21 331.46 479.31 327.81 Q 485.65 324.49 489.19 320.94 Q 492.90 317.21 494.25 311.00 Q 495.33 307.55 496.00 304.00 Q 498.85 288.95 506.93 275.97 A 0.35 0.33 41.3 0 1 507.48 275.95 Q 508.26 276.86 508.17 275.51 Q 508.09 274.34 508.46 273.25 Z"/>
<path fill="rgb(244,216,165)" fill-opacity="1.000" d="M 36.25 305.75 Q 38.05 305.99 41.06 308.94 Q 42.39 310.24 49.56 312.57 Q 63.11 316.97 70.56 328.19 Q 73.79 333.04 77.37 336.34 Q 79.42 338.23 82.34 338.94 Q 87.16 340.11 93.25 340.75 Q 102.56 341.72 110.44 347.81 Q 115.67 352.91 121.56 357.19 Q 121.60 357.22 125.27 359.33 Q 128.57 361.23 129.11 364.78 Q 129.72 368.83 126.99 371.63 Q 124.84 373.82 121.54 373.66 Q 119.32 373.56 116.29 372.02 Q 111.21 369.44 107.06 365.45 Q 101.05 359.68 98.19 358.06 Q 94.64 356.06 88.06 355.69 Q 87.53 355.66 81.51 354.59 Q 77.44 353.86 75.10 352.93 Q 66.76 349.60 61.48 342.00 Q 56.05 334.18 53.56 331.94 Q 50.52 329.19 43.95 327.16 Q 35.63 324.60 29.20 318.80 Q 27.04 316.85 26.69 314.23 Q 26.38 311.83 27.71 309.46 Q 30.24 304.97 36.25 305.75 Z"/>
<path fill="rgb(77,88,47)" fill-opacity="0.000" d="M 3.71 306.25 L 3.96 330.75 Q 3.62 331.45 3.71 332.25 Q 3.25 332.14 3.25 331.00 Q 3.18 306.47 3.25 306.25 Q 3.38 305.87 3.71 306.25 Z"/>
<path fill="rgb(244,216,165)" fill-opacity="1.000" d="M 508.00 322.00 Q 508.03 327.87 507.96 333.75 Q 505.60 349.86 499.19 362.94 Q 488.58 384.56 469.59 401.58 Q 440.65 427.52 404.54 442.00 L 404.72 441.50 A 1.27 0.33 -74.3 0 1 405.17 440.73 Q 420.38 430.96 433.23 418.23 Q 450.05 401.57 459.55 379.88 Q 463.47 370.92 465.34 361.19 Q 465.65 359.57 464.66 360.89 Q 459.46 367.86 452.60 372.55 Q 448.01 375.68 444.13 373.55 Q 440.80 371.71 440.19 367.68 Q 439.51 363.21 443.43 360.30 Q 446.70 357.86 446.76 357.81 Q 450.37 354.50 453.26 350.53 Q 458.24 343.69 464.25 337.75 Q 465.02 336.21 466.71 336.25 Q 467.45 347.49 466.28 356.98 Q 465.96 359.54 467.51 357.47 Q 474.43 348.23 481.94 344.19 Q 485.34 342.35 492.17 338.24 Q 502.21 332.19 507.00 321.50 Q 508.13 320.28 508.00 322.00 Z"/>
<path fill="rgb(170,128,128)" fill-opacity="1.000" d="M 3.96 330.75 Q 4.36 332.60 4.20 334.50 Q 4.10 335.73 4.47 335.36 Q 4.69 335.13 4.73 335.42 Q 6.69 350.63 13.69 364.28 Q 23.00 382.41 37.53 396.72 Q 56.94 415.82 81.31 429.19 Q 102.77 440.95 125.01 448.72 Q 162.89 461.94 202.74 466.82 Q 273.75 475.52 342.94 461.19 Q 370.58 455.46 398.25 444.46 Q 400.43 444.00 398.76 445.02 Q 374.97 459.53 348.72 468.91 Q 305.11 484.50 259.02 489.21 Q 178.65 497.44 101.00 475.75 Q 90.30 472.76 77.22 467.44 A 1.09 0.83 -44.7 0 0 76.36 467.55 Q 75.97 467.78 75.50 467.79 Q 46.88 451.28 26.15 425.62 Q 3.50 397.58 3.70 361.25 Q 3.78 346.75 3.71 332.25 Q 3.62 331.45 3.96 330.75 Z"/>
<path fill="rgb(157,107,107)" fill-opacity="1.000" d="M 507.96 333.75 Q 507.87 334.79 508.21 335.75 Q 508.28 348.75 508.25 361.75 Q 508.96 388.93 495.23 412.21 Q 486.10 427.68 473.16 440.16 Q 458.27 454.52 440.59 465.27 Q 401.14 489.24 355.06 500.31 Q 312.70 510.49 270.94 512.00 Q 256.31 512.00 241.69 512.00 Q 223.80 511.30 197.50 508.00 Q 141.35 500.96 90.57 476.17 Q 82.81 472.38 75.50 467.79 Q 75.97 467.78 76.36 467.55 A 1.09 0.83 -44.7 0 1 77.22 467.44 Q 90.30 472.76 101.00 475.75 Q 178.65 497.44 259.02 489.21 Q 305.11 484.50 348.72 468.91 Q 374.97 459.53 398.76 445.02 Q 400.43 444.00 398.25 444.46 L 404.54 442.00 Q 440.65 427.52 469.59 401.58 Q 488.58 384.56 499.19 362.94 Q 505.60 349.86 507.96 333.75 Z"/>
<path fill="rgb(244,216,165)" fill-opacity="1.000" d="M 367.50 355.00 Q 372.37 354.79 374.62 358.06 Q 376.65 361.02 375.75 364.71 Q 374.76 368.78 370.25 370.00 Q 360.86 372.55 346.51 371.66 Q 332.31 370.77 319.00 376.50 Q 312.64 379.24 304.44 381.52 Q 290.39 385.44 276.31 382.27 Q 270.21 380.90 270.14 380.89 Q 260.03 378.93 257.69 379.06 Q 252.76 379.34 250.22 376.23 Q 247.88 373.37 248.77 369.35 Q 250.14 363.18 258.00 363.75 Q 265.84 364.31 275.01 366.12 Q 286.65 368.41 290.13 368.39 Q 299.13 368.33 307.56 364.31 Q 310.59 363.27 313.54 362.02 Q 329.55 355.25 346.99 356.37 Q 357.34 357.03 367.50 355.00 Z"/>
</svg>