<?xml version="1.0" encoding="UTF-8" standalone="no"?>
<!DOCTYPE svg PUBLIC "-//W3C//DTD SVG 1.1//EN" "http://www.w3.org/Graphics/SVG/1.1/DTD/svg11.dtd">
<svg xmlns="http://www.w3.org/2000/svg" version="1.1" viewBox="0 0 512 512">
<path fill="rgb(62,74,104)" fill-opacity="1.000" d="M 249.06 0.00 Q 256.06 0.00 263.06 0.00 Q 347.66 3.11 412.69 53.56 Q 478.96 104.98 502.75 187.50 Q 511.25 216.98 512.00 252.06 Q 512.00 256.19 512.00 260.31 Q 511.00 301.62 497.75 340.71 Q 495.24 340.45 492.75 340.00 Q 472.38 340.03 452.00 339.96 Q 489.51 301.89 491.85 247.99 Q 492.04 243.46 491.50 236.25 Q 489.88 214.80 479.19 196.81 Q 471.01 183.06 456.00 174.71 Q 456.51 173.11 455.75 171.25 Q 453.52 165.82 449.10 162.68 Q 439.07 155.55 426.57 152.91 A 0.94 0.94 23.8 0 1 426.00 151.45 Q 432.47 142.36 436.62 131.20 Q 439.01 124.77 439.00 118.75 Q 438.99 112.99 435.38 109.43 Q 432.38 106.46 427.25 105.89 Q 422.69 105.37 418.09 106.65 Q 404.82 110.33 393.37 118.67 A 0.97 0.96 66.0 0 1 391.86 118.09 Q 389.43 106.64 382.66 96.33 Q 381.04 93.84 378.49 91.91 A 1.08 1.08 -59.3 0 1 378.16 90.60 Q 380.81 84.80 382.19 78.34 Q 383.20 73.65 382.65 69.01 Q 382.04 63.81 379.49 60.49 Q 375.67 55.50 368.50 55.04 Q 362.15 54.63 357.06 56.06 Q 345.17 59.41 334.14 66.28 A 0.67 0.67 -21.0 0 1 333.12 65.83 Q 330.68 52.19 325.71 40.38 Q 321.12 29.46 312.44 23.56 Q 308.94 21.19 304.62 21.41 Q 301.02 21.60 297.35 23.79 Q 293.84 25.89 291.44 28.94 Q 284.32 37.97 280.72 49.87 Q 278.29 57.90 277.00 65.78 A 0.70 0.70 -69.5 0 1 275.94 66.27 Q 265.46 59.72 253.72 56.36 Q 248.86 54.97 243.81 55.01 Q 227.96 55.14 227.25 71.00 Q 226.97 77.20 229.78 85.47 A 0.47 0.47 -17.0 0 1 229.46 86.07 Q 219.23 89.04 210.18 94.69 A 0.64 0.64 -20.5 0 1 209.21 94.25 Q 207.22 81.67 201.32 70.12 Q 198.25 64.10 195.06 61.44 Q 187.46 55.10 180.31 59.03 Q 176.59 61.07 172.94 66.26 Q 169.93 70.54 167.99 75.50 Q 164.35 84.82 162.79 94.07 A 0.79 0.79 -69.0 0 1 161.59 94.61 Q 153.62 89.58 144.94 86.79 Q 138.39 84.67 131.54 85.50 Q 128.37 67.98 126.25 50.29 Q 134.83 49.42 138.94 42.94 Q 143.23 36.17 139.75 28.04 Q 191.15 1.79 249.06 0.00 Z"/>
<path fill="rgb(123,60,71)" fill-opacity="1.000" d="M 63.50 20.04 Q 85.12 20.41 106.75 20.15 Q 108.96 20.13 107.42 21.23 A 1.62 1.09 20.5 0 1 106.50 21.45 Q 104.96 21.37 103.56 22.31 Q 96.38 27.16 96.47 35.02 Q 96.53 39.53 98.83 43.09 Q 101.24 46.82 105.54 48.79 Q 105.85 48.94 106.51 48.97 Q 107.49 49.01 108.00 49.96 L 72.32 50.06 A 0.43 0.30 -72.9 0 0 72.00 50.31 Q 71.94 50.45 71.79 50.50 Q 71.23 49.85 69.75 50.00 Q 59.13 51.09 54.16 43.95 Q 49.83 37.71 51.96 30.46 Q 54.24 22.70 63.50 20.04 Z"/>
<path fill="rgb(140,79,92)" fill-opacity="1.000" d="M 63.50 20.04 Q 93.00 19.97 122.50 20.00 Q 133.73 18.85 139.75 28.04 Q 143.23 36.17 138.94 42.94 Q 134.83 49.42 126.25 50.29 L 111.75 50.04 L 108.00 49.96 Q 107.49 49.01 106.51 48.97 Q 105.85 48.94 105.54 48.79 Q 101.24 46.82 98.83 43.09 Q 96.53 39.53 96.47 35.02 Q 96.38 27.16 103.56 22.31 Q 104.96 21.37 106.50 21.45 A 1.62 1.09 20.5 0 0 107.42 21.23 Q 108.96 20.13 106.75 20.15 Q 85.12 20.41 63.50 20.04 Z"/>
<path fill="rgb(133,174,17)" fill-opacity="1.000" d="M 312.44 23.56 Q 321.12 29.46 325.71 40.38 Q 330.68 52.19 333.12 65.83 A 0.67 0.67 -21.0 0 0 334.14 66.28 Q 345.17 59.41 357.06 56.06 Q 362.15 54.63 368.50 55.04 Q 375.67 55.50 379.49 60.49 Q 382.04 63.81 382.65 69.01 Q 383.20 73.65 382.19 78.34 Q 380.81 84.80 378.16 90.60 A 1.08 1.08 -59.3 0 0 378.49 91.91 Q 381.04 93.84 382.66 96.33 Q 389.43 106.64 391.86 118.09 A 0.97 0.96 66.0 0 0 393.37 118.67 Q 404.82 110.33 418.09 106.65 Q 422.69 105.37 427.25 105.89 Q 432.38 106.46 435.38 109.43 Q 438.99 112.99 439.00 118.75 Q 439.01 124.77 436.62 131.20 Q 432.47 142.36 426.00 151.45 A 0.94 0.94 23.8 0 0 426.57 152.91 Q 439.07 155.55 449.10 162.68 Q 453.52 165.82 455.75 171.25 Q 456.51 173.11 456.00 174.71 Q 429.37 162.65 402.44 174.69 Q 389.31 180.55 378.75 189.29 Q 378.45 189.14 378.44 188.81 Q 378.15 178.78 378.21 168.75 Q 378.28 160.75 378.25 152.75 Q 378.79 142.55 370.94 137.81 Q 363.39 133.26 355.04 138.00 Q 354.76 137.40 354.75 136.75 Q 357.07 127.76 355.98 118.74 Q 355.18 112.13 352.51 108.27 Q 349.19 103.49 343.20 101.38 Q 337.37 99.33 329.75 99.75 Q 321.59 100.20 313.27 102.64 A 3.15 3.14 48.6 0 1 311.10 102.50 Q 293.07 94.47 273.74 93.97 Q 242.05 93.15 214.50 108.54 Q 213.98 108.40 213.64 108.69 Q 213.21 109.07 213.16 109.10 Q 174.80 131.29 157.71 172.25 Q 146.50 147.24 139.19 119.06 Q 134.34 100.38 131.54 85.50 Q 138.39 84.67 144.94 86.79 Q 153.62 89.58 161.59 94.61 A 0.79 0.79 -69.0 0 0 162.79 94.07 Q 164.35 84.82 167.99 75.50 Q 169.93 70.54 172.94 66.26 Q 176.59 61.07 180.31 59.03 Q 187.46 55.10 195.06 61.44 Q 198.25 64.10 201.32 70.12 Q 207.22 81.67 209.21 94.25 A 0.64 0.64 -20.5 0 0 210.18 94.69 Q 219.23 89.04 229.46 86.07 A 0.47 0.47 -17.0 0 0 229.78 85.47 Q 226.97 77.20 227.25 71.00 Q 227.96 55.14 243.81 55.01 Q 248.86 54.97 253.72 56.36 Q 265.46 59.72 275.94 66.27 A 0.70 0.70 -69.5 0 0 277.00 65.78 Q 278.29 57.90 280.72 49.87 Q 284.32 37.97 291.44 28.94 Q 293.84 25.89 297.35 23.79 Q 301.02 21.60 304.62 21.41 Q 308.94 21.19 312.44 23.56 Z"/>
<path fill="rgb(255,207,17)" fill-opacity="1.000" d="M 72.32 50.06 L 108.00 49.96 L 111.75 50.04 Q 105.75 117.91 118.71 184.75 Q 117.05 182.57 115.94 180.06 Q 103.63 160.66 82.40 156.06 Q 72.59 153.94 62.55 155.70 Q 39.56 159.74 26.81 180.56 Q 23.34 186.24 21.49 193.83 Q 21.47 193.89 21.34 195.32 Q 21.24 196.51 20.04 197.00 Q 20.23 171.76 25.00 148.75 Q 25.54 146.13 25.46 144.75 Q 27.68 137.40 29.72 129.99 Q 41.97 85.54 71.79 50.50 Q 71.94 50.45 72.00 50.31 A 0.43 0.30 -72.9 0 1 72.32 50.06 Z"/>
<path fill="rgb(255,158,0)" fill-opacity="1.000" d="M 111.75 50.04 L 126.25 50.29 Q 128.37 67.98 131.54 85.50 Q 134.34 100.38 139.19 119.06 Q 146.50 147.24 157.71 172.25 Q 166.19 192.24 179.44 211.06 Q 195.60 234.02 218.50 248.96 Q 217.26 249.20 216.20 248.75 Q 214.63 248.08 214.59 248.07 Q 195.41 242.68 181.19 255.44 Q 169.26 266.13 169.46 283.25 Q 145.20 260.04 132.44 228.31 Q 123.61 206.36 118.71 184.75 Q 105.75 117.91 111.75 50.04 Z"/>
<path fill="rgb(179,225,53)" fill-opacity="1.000" d="M 273.74 93.97 Q 293.07 94.47 311.10 102.50 A 3.15 3.14 48.6 0 0 313.27 102.64 Q 321.59 100.20 329.75 99.75 Q 337.37 99.33 343.20 101.38 Q 349.19 103.49 352.51 108.27 Q 355.18 112.13 355.98 118.74 Q 357.07 127.76 354.75 136.75 Q 354.76 137.40 355.04 138.00 Q 350.11 141.75 348.50 147.75 Q 348.02 149.54 348.21 169.00 L 347.96 189.25 Q 347.52 189.34 347.06 188.94 Q 336.35 179.64 322.54 174.00 Q 296.66 162.90 272.83 173.77 Q 263.68 177.95 256.48 185.06 Q 247.80 193.64 242.75 204.75 Q 238.70 213.67 236.29 224.75 Q 236.14 224.52 235.91 224.47 A 1.06 0.23 8.4 0 1 235.20 224.20 Q 209.44 199.02 205.25 163.96 Q 204.05 153.90 204.90 144.01 Q 206.43 126.28 213.81 110.56 Q 214.50 109.09 214.50 108.54 Q 242.05 93.15 273.74 93.97 Z"/>
<path fill="rgb(148,212,0)" fill-opacity="1.000" d="M 214.50 108.54 Q 214.50 109.09 213.81 110.56 Q 206.43 126.28 204.90 144.01 Q 204.05 153.90 205.25 163.96 Q 209.44 199.02 235.20 224.20 A 1.06 0.23 8.4 0 0 235.91 224.47 Q 236.14 224.52 236.29 224.75 Q 233.23 241.03 234.96 257.50 Q 234.28 257.78 233.76 257.39 Q 233.08 256.88 233.02 256.85 Q 225.65 253.11 218.50 248.96 Q 195.60 234.02 179.44 211.06 Q 166.19 192.24 157.71 172.25 Q 174.80 131.29 213.16 109.10 Q 213.21 109.07 213.64 108.69 Q 213.98 108.40 214.50 108.54 Z"/>
<path fill="rgb(140,79,92)" fill-opacity="1.000" d="M 370.94 137.81 Q 378.79 142.55 378.25 152.75 Q 378.28 160.75 378.21 168.75 Q 377.28 169.29 377.06 170.22 Q 376.73 171.67 376.70 171.72 Q 373.44 179.20 365.75 180.25 Q 353.67 181.89 349.36 170.53 A 1.84 0.78 28.1 0 0 348.77 169.80 Q 348.38 169.50 348.21 169.00 Q 348.02 149.54 348.50 147.75 Q 350.11 141.75 355.04 138.00 Q 363.39 133.26 370.94 137.81 Z"/>
<path fill="rgb(62,74,104)" fill-opacity="1.000" d="M 25.46 144.75 Q 25.54 146.13 25.00 148.75 Q 20.23 171.76 20.04 197.00 Q 19.22 256.38 43.56 309.19 Q 50.29 323.78 60.79 339.75 Q 40.77 340.19 20.75 339.96 Q 17.50 339.92 14.29 340.50 Q 1.27 302.57 0.00 262.44 Q 0.00 256.56 0.00 250.69 Q 1.37 194.90 25.46 144.75 Z"/>
<path fill="rgb(255,232,84)" fill-opacity="1.000" d="M 82.40 156.06 Q 103.63 160.66 115.94 180.06 Q 117.05 182.57 118.71 184.75 Q 123.61 206.36 132.44 228.31 Q 145.20 260.04 169.46 283.25 Q 194.52 304.92 223.09 321.72 Q 238.26 330.64 254.00 338.50 Q 254.75 338.97 255.25 339.71 Q 253.39 340.05 251.50 340.05 Q 185.75 339.97 120.00 340.04 L 60.79 339.75 Q 50.29 323.78 43.56 309.19 Q 19.22 256.38 20.04 197.00 Q 21.24 196.51 21.34 195.32 Q 21.47 193.89 21.49 193.83 Q 23.34 186.24 26.81 180.56 Q 39.56 159.74 62.55 155.70 Q 72.59 153.94 82.40 156.06 Z"/>
<path fill="rgb(227,40,40)" fill-opacity="1.000" d="M 322.54 174.00 Q 322.14 175.19 320.75 176.00 Q 308.29 183.23 300.23 195.96 Q 293.82 206.09 291.00 216.25 Q 282.97 245.13 290.56 274.99 Q 291.12 277.19 291.25 279.46 Q 263.12 271.22 236.69 258.56 Q 235.57 258.36 234.96 257.50 Q 233.23 241.03 236.29 224.75 Q 238.70 213.67 242.75 204.75 Q 247.80 193.64 256.48 185.06 Q 263.68 177.95 272.83 173.77 Q 296.66 162.90 322.54 174.00 Z"/>
<path fill="rgb(123,60,71)" fill-opacity="1.000" d="M 378.21 168.75 Q 378.15 178.78 378.44 188.81 Q 378.45 189.14 378.75 189.29 Q 370.72 196.52 363.58 204.63 A 0.46 0.45 44.2 0 1 362.92 204.63 L 347.96 189.25 L 348.21 169.00 Q 348.38 169.50 348.77 169.80 A 1.84 0.78 28.1 0 1 349.36 170.53 Q 353.67 181.89 365.75 180.25 Q 373.44 179.20 376.70 171.72 Q 376.73 171.67 377.06 170.22 Q 377.28 169.29 378.21 168.75 Z"/>
<path fill="rgb(255,51,69)" fill-opacity="1.000" d="M 456.00 174.71 Q 471.01 183.06 479.19 196.81 Q 489.88 214.80 491.50 236.25 Q 492.04 243.46 491.85 247.99 Q 489.51 301.89 452.00 339.96 L 423.25 339.79 Q 426.27 337.73 429.50 336.00 Q 435.72 332.16 437.52 325.83 Q 439.26 319.72 436.57 313.86 Q 433.21 306.57 424.25 304.50 Q 372.38 300.04 321.76 287.97 Q 306.34 284.29 291.25 279.46 Q 291.12 277.19 290.56 274.99 Q 282.97 245.13 291.00 216.25 Q 293.82 206.09 300.23 195.96 Q 308.29 183.23 320.75 176.00 Q 322.14 175.19 322.54 174.00 Q 336.35 179.64 347.06 188.94 Q 347.52 189.34 347.96 189.25 L 362.92 204.63 A 0.46 0.45 44.2 0 0 363.58 204.63 Q 370.72 196.52 378.75 189.29 Q 389.31 180.55 402.44 174.69 Q 429.37 162.65 456.00 174.71 Z"/>
<path fill="rgb(255,207,17)" fill-opacity="1.000" d="M 216.20 248.75 Q 217.26 249.20 218.50 248.96 Q 225.65 253.11 233.02 256.85 Q 233.08 256.88 233.76 257.39 Q 234.28 257.78 234.96 257.50 Q 235.57 258.36 236.69 258.56 Q 263.12 271.22 291.25 279.46 Q 306.34 284.29 321.76 287.97 Q 372.38 300.04 424.25 304.50 Q 433.21 306.57 436.57 313.86 Q 439.26 319.72 437.52 325.83 Q 435.72 332.16 429.50 336.00 Q 426.27 337.73 423.25 339.79 Q 341.50 340.16 259.75 340.00 Q 257.47 340.17 255.25 339.71 Q 254.75 338.97 254.00 338.50 Q 238.26 330.64 223.09 321.72 Q 194.52 304.92 169.46 283.25 Q 169.26 266.13 181.19 255.44 Q 195.41 242.68 214.59 248.07 Q 214.63 248.08 216.20 248.75 Z"/>
<path fill="rgb(206,221,247)" fill-opacity="1.000" d="M 60.79 339.75 L 120.00 340.04 Q 120.82 340.41 121.75 340.25 Q 122.50 340.12 122.47 340.45 A 0.72 0.42 -10.3 0 1 121.93 340.91 Q 112.51 343.50 109.00 352.00 Q 105.47 360.56 109.06 368.19 Q 114.55 379.82 128.25 380.00 Q 302.63 380.00 477.01 380.00 A 0.93 0.67 70.6 0 1 477.69 380.47 Q 478.15 381.27 479.25 380.79 Q 456.32 422.31 419.81 452.56 Q 360.56 501.67 283.75 510.54 Q 282.58 510.39 283.68 510.12 Q 283.84 510.08 283.68 510.08 Q 283.17 510.08 282.90 509.75 A 1.11 0.67 61.8 0 0 282.18 509.32 Q 279.36 509.34 276.57 508.88 Q 202.22 496.73 146.45 447.67 Q 138.84 440.98 131.99 433.86 Q 108.95 409.91 92.31 380.48 A 0.97 0.96 74.7 0 0 91.48 380.00 Q 62.91 379.95 34.08 380.06 Q 34.03 380.06 33.31 379.96 Q 32.64 379.87 32.29 380.50 Q 31.77 379.73 30.75 380.00 Q 26.25 380.00 21.76 380.00 Q 16.17 380.00 12.93 378.77 Q 2.41 374.78 0.00 362.69 Q 0.00 359.94 0.00 357.19 Q 2.48 344.83 14.29 340.50 Q 17.50 339.92 20.75 339.96 Q 40.77 340.19 60.79 339.75 Z"/>
<path fill="rgb(235,240,243)" fill-opacity="1.000" d="M 255.25 339.71 Q 257.47 340.17 259.75 340.00 Q 341.50 340.16 423.25 339.79 L 452.00 339.96 Q 472.38 340.03 492.75 340.00 Q 495.24 340.45 497.75 340.71 Q 510.45 345.47 512.00 359.06 Q 512.00 360.06 512.00 361.06 Q 509.73 377.59 493.25 380.00 Q 486.84 379.95 480.42 380.06 Q 480.01 380.06 479.75 380.25 Q 479.46 380.47 479.25 380.79 Q 478.15 381.27 477.69 380.47 A 0.93 0.67 70.6 0 0 477.01 380.00 Q 302.63 380.00 128.25 380.00 Q 114.55 379.82 109.06 368.19 Q 105.47 360.56 109.00 352.00 Q 112.51 343.50 121.93 340.91 A 0.72 0.42 -10.3 0 0 122.47 340.45 Q 122.50 340.12 121.75 340.25 Q 120.82 340.41 120.00 340.04 Q 185.75 339.97 251.50 340.05 Q 253.39 340.05 255.25 339.71 Z"/>
<path fill="rgb(170,197,238)" fill-opacity="1.000" d="M 34.08 380.06 Q 62.91 379.95 91.48 380.00 A 0.97 0.96 74.7 0 1 92.31 380.48 Q 108.95 409.91 131.99 433.86 Q 138.84 440.98 146.45 447.67 Q 202.22 496.73 276.57 508.88 Q 279.36 509.34 282.18 509.32 A 1.11 0.67 61.8 0 1 282.90 509.75 Q 283.17 510.08 283.68 510.08 Q 283.84 510.08 283.68 510.12 Q 282.58 510.39 283.75 510.54 Q 275.61 511.43 267.44 512.00 Q 256.06 512.00 244.69 512.00 Q 182.33 508.80 129.50 478.75 Q 67.69 443.58 32.29 380.50 Q 32.64 379.87 33.31 379.96 Q 34.03 380.06 34.08 380.06 Z"/>
</svg>