<svg width="241" height="241" viewBox="0 0 241 241" fill="none" xmlns="http://www.w3.org/2000/svg">
<g clip-path="url(#clip0_540_1196)">
<path d="M117.494 0.117065C119.681 0.117065 121.869 0.117065 124.056 0.117065C150.494 1.08894 173.874 9.45769 194.196 25.2233C214.905 41.2921 228.977 62.2202 236.411 88.0077C239.067 97.2202 240.513 107.308 240.747 118.27C240.747 119.561 240.747 120.85 240.747 122.137C240.435 135.047 238.208 147.609 234.067 159.825C233.283 159.744 232.502 159.633 231.724 159.492C225.358 159.501 218.991 159.495 212.622 159.473C224.344 147.576 230.571 133.206 231.302 116.362C231.361 114.947 231.306 113.112 231.138 110.859C230.631 104.156 228.708 97.9936 225.367 92.3718C222.811 88.0749 219.188 84.6218 214.497 82.0124C214.656 81.5124 214.617 80.9718 214.38 80.3905C213.683 78.6936 212.644 77.3546 211.263 76.3733C208.128 74.1452 204.608 72.6186 200.702 71.7936C200.631 71.7783 200.564 71.7455 200.509 71.6983C200.454 71.6511 200.411 71.591 200.384 71.5232C200.358 71.4554 200.349 71.3821 200.357 71.3099C200.366 71.2377 200.393 71.1687 200.435 71.1093C202.456 68.2686 204.116 65.1046 205.413 61.6171C206.16 59.6077 206.531 57.6624 206.528 55.7811C206.525 53.9811 205.96 52.5249 204.831 51.4124C203.894 50.4843 202.624 49.9311 201.021 49.753C199.596 49.5905 198.164 49.7093 196.727 50.1093C192.58 51.2593 188.717 53.1374 185.139 55.7436C185.079 55.7881 185.008 55.8165 184.934 55.8264C184.86 55.8364 184.784 55.8274 184.714 55.8004C184.643 55.7734 184.581 55.7292 184.531 55.6718C184.482 55.6144 184.448 55.5456 184.431 55.4718C183.672 51.8936 182.235 48.4936 180.119 45.2718C179.613 44.4936 178.961 43.803 178.164 43.1999C178.072 43.1304 178.007 43.0316 177.979 42.92C177.951 42.8084 177.962 42.6905 178.01 42.5858C178.838 40.7733 179.467 38.8577 179.899 36.8389C180.214 35.3733 180.286 33.9155 180.114 32.4655C179.924 30.8405 179.43 29.5093 178.633 28.4718C177.439 26.9124 175.722 26.0608 173.481 25.9171C171.497 25.7889 169.71 25.9483 168.119 26.3952C164.403 27.4421 160.822 29.0389 157.375 31.1858C157.332 31.2136 157.282 31.2302 157.23 31.2341C157.179 31.238 157.127 31.2291 157.08 31.2083C157.032 31.1874 156.991 31.1552 156.959 31.1145C156.927 31.0738 156.906 31.0258 156.897 30.9749C156.135 26.7124 154.977 22.7358 153.424 19.0452C151.989 15.6327 149.916 13.0046 147.203 11.1608C146.11 10.4202 144.888 10.0843 143.538 10.153C142.413 10.2124 141.277 10.5843 140.13 11.2686C139.033 11.9249 138.11 12.7296 137.36 13.6827C135.135 16.5046 133.46 19.7749 132.335 23.4936C131.575 26.003 130.994 28.4889 130.591 30.9514C130.583 31.005 130.561 31.0558 130.529 31.0991C130.496 31.1425 130.453 31.1771 130.404 31.1998C130.355 31.2226 130.301 31.2328 130.247 31.2295C130.193 31.2263 130.14 31.2096 130.094 31.1811C126.819 29.1343 123.347 27.5858 119.678 26.5358C118.16 26.1014 116.611 25.8905 115.033 25.903C110.08 25.9436 107.492 28.4421 107.271 33.3983C107.183 35.3358 107.578 37.5968 108.456 40.1811C108.466 40.2094 108.469 40.2393 108.467 40.269C108.464 40.2987 108.456 40.3276 108.442 40.3538C108.428 40.3801 108.408 40.4033 108.385 40.422C108.362 40.4406 108.335 40.4544 108.306 40.4624C105.11 41.3905 102.097 42.7374 99.2689 44.503C99.227 44.5291 99.1793 44.5445 99.13 44.5477C99.0807 44.551 99.0314 44.542 98.9864 44.5216C98.9414 44.5012 98.9022 44.47 98.8721 44.4307C98.8421 44.3915 98.8222 44.3455 98.8143 44.2968C98.1924 40.3655 96.9596 36.5952 95.1158 32.9858C94.1564 31.1046 93.1783 29.7483 92.1814 28.9171C89.8064 26.9358 87.5018 26.5593 85.2674 27.7874C84.1049 28.4249 82.9533 29.5546 81.8127 31.1764C80.8721 32.5139 80.0986 33.9577 79.4924 35.5077C78.3549 38.4202 77.5424 41.3218 77.0549 44.2124C77.0449 44.2726 77.0202 44.3295 76.983 44.3778C76.9458 44.4262 76.8972 44.4647 76.8415 44.4897C76.7858 44.5148 76.7248 44.5257 76.6639 44.5215C76.603 44.5172 76.5441 44.498 76.4924 44.4655C74.0018 42.8936 71.4002 41.6718 68.6877 40.7999C66.6408 40.1374 64.5471 39.9358 62.4064 40.1952C61.4158 34.7202 60.5893 29.2186 59.9268 23.6905C62.608 23.4186 64.5908 22.2702 65.8752 20.2452C67.2158 18.1296 67.3424 15.8014 66.2549 13.2608C82.3174 5.05769 99.3971 0.67644 117.494 0.117065Z" fill="#3E4A68" stroke="#3E4A68"/>
<path d="M30.513 9.51081C37.2692 9.62644 44.0271 9.64363 50.7864 9.56238C51.4771 9.55613 51.5817 9.72488 51.1005 10.0686C50.9916 10.1444 50.8389 10.1809 50.6692 10.1718C50.188 10.1468 49.7286 10.2811 49.2911 10.5749C47.0474 12.0905 45.9396 14.0764 45.9677 16.5327C45.9864 17.9421 46.3552 19.203 47.0739 20.3155C47.8271 21.4811 48.8755 22.3718 50.2192 22.9874C50.3161 23.0343 50.4677 23.0624 50.6739 23.0718C50.9802 23.0843 51.213 23.2389 51.3724 23.5358L34.6474 23.5827C34.6194 23.5825 34.5903 23.5934 34.5637 23.6143C34.537 23.6351 34.514 23.6648 34.4974 23.6999C34.4786 23.7436 34.4458 23.7733 34.3989 23.7889C34.2239 23.5858 33.9052 23.5077 33.4427 23.5546C30.1239 23.8952 27.688 22.9499 26.1349 20.7186C24.7817 18.7686 24.438 16.6608 25.1036 14.3952C25.8161 11.9702 27.6192 10.3421 30.513 9.51081Z" fill="#7B3C47" stroke="#7B3C47"/>
<path d="M30.5127 9.51082C39.7314 9.48894 48.9502 9.48269 58.1689 9.49207C61.6783 9.13269 64.3736 10.3889 66.2549 13.2608C67.3424 15.8014 67.2158 18.1296 65.8752 20.2452C64.5908 22.2702 62.608 23.4186 59.9268 23.6905L53.1299 23.5733L51.3721 23.5358C51.2127 23.2389 50.9799 23.0843 50.6736 23.0718C50.4674 23.0624 50.3158 23.0343 50.2189 22.9874C48.8752 22.3718 47.8268 21.4811 47.0736 20.3155C46.3549 19.203 45.9861 17.9421 45.9674 16.5327C45.9393 14.0764 47.0471 12.0905 49.2908 10.5749C49.7283 10.2811 50.1877 10.1468 50.6689 10.1718C50.8386 10.1809 50.9913 10.1444 51.1002 10.0686C51.5814 9.72488 51.4768 9.55613 50.7861 9.56238C44.0268 9.64363 37.2689 9.62644 30.5127 9.51082Z" fill="#8C4F5C" stroke="#8C4F5C"/>
<path d="M147.203 11.1608C149.916 13.0046 151.989 15.6327 153.423 19.0452C154.977 22.7358 156.134 26.7124 156.897 30.9749C156.906 31.0258 156.927 31.0738 156.959 31.1145C156.991 31.1552 157.032 31.1874 157.08 31.2083C157.127 31.2291 157.179 31.238 157.23 31.2341C157.282 31.2302 157.331 31.2136 157.375 31.1858C160.822 29.0389 164.403 27.4421 168.119 26.3952C169.709 25.9483 171.497 25.7889 173.481 25.9171C175.722 26.0608 177.439 26.9124 178.633 28.4718C179.43 29.5093 179.923 30.8405 180.114 32.4655C180.286 33.9155 180.214 35.3733 179.898 36.8389C179.467 38.8577 178.837 40.7733 178.009 42.5858C177.961 42.6905 177.951 42.8084 177.979 42.92C178.007 43.0316 178.072 43.1304 178.164 43.1999C178.961 43.803 179.612 44.4936 180.119 45.2718C182.234 48.4936 183.672 51.8936 184.431 55.4718C184.448 55.5456 184.482 55.6144 184.531 55.6718C184.58 55.7292 184.643 55.7734 184.713 55.8004C184.784 55.8274 184.859 55.8364 184.934 55.8264C185.008 55.8165 185.079 55.7881 185.139 55.7436C188.717 53.1374 192.58 51.2593 196.727 50.1093C198.164 49.7093 199.595 49.5905 201.02 49.753C202.623 49.9311 203.894 50.4843 204.831 51.4124C205.959 52.5249 206.525 53.9811 206.528 55.7811C206.531 57.6624 206.159 59.6077 205.412 61.6171C204.116 65.1046 202.456 68.2686 200.434 71.1093C200.392 71.1687 200.366 71.2377 200.357 71.3099C200.348 71.3821 200.358 71.4554 200.384 71.5232C200.411 71.591 200.453 71.6511 200.509 71.6983C200.564 71.7455 200.63 71.7783 200.702 71.7936C204.608 72.6186 208.128 74.1452 211.262 76.3733C212.644 77.3546 213.683 78.6936 214.38 80.3905C214.617 80.9718 214.656 81.5124 214.497 82.0124C206.175 78.2436 197.806 78.2405 189.391 82.003C185.288 83.8343 181.586 86.1155 178.286 88.8468C178.192 88.7999 178.144 88.7249 178.141 88.6218C178.05 85.4874 178.014 82.353 178.033 79.2186C178.055 76.7186 178.061 74.2186 178.052 71.7186C178.22 68.5311 177.078 66.1968 174.625 64.7155C172.266 63.2936 169.781 63.3233 167.172 64.8046C167.084 64.6171 167.039 64.4218 167.036 64.2186C167.761 61.4093 167.953 58.5952 167.613 55.7764C167.363 53.7108 166.82 52.0749 165.986 50.8686C164.948 49.3749 163.494 48.2983 161.622 47.6389C159.8 46.9983 157.698 46.7436 155.317 46.8749C152.767 47.0155 150.192 47.4671 147.592 48.2296C147.256 48.3294 146.896 48.3061 146.575 48.1639C140.941 45.6546 135.103 44.3218 129.062 44.1655C119.159 43.9093 109.903 46.1858 101.294 50.9952C101.131 50.9514 100.997 50.9749 100.891 51.0655C100.756 51.1843 100.681 51.2483 100.666 51.2577C88.6781 58.1921 80.0141 68.0593 74.6734 80.8593C71.1703 73.0436 68.2766 64.7327 65.9922 55.9264C64.4766 50.0889 63.2812 44.8452 62.4062 40.1952C64.5469 39.9358 66.6406 40.1374 68.6875 40.7999C71.4 41.6718 74.0016 42.8936 76.4922 44.4655C76.5439 44.498 76.6028 44.5172 76.6637 44.5215C76.7246 44.5257 76.7856 44.5148 76.8413 44.4897C76.897 44.4647 76.9456 44.4262 76.9828 44.3778C77.02 44.3295 77.0447 44.2726 77.0547 44.2124C77.5422 41.3218 78.3547 38.4202 79.4922 35.5077C80.0984 33.9577 80.8719 32.5139 81.8125 31.1764C82.9531 29.5546 84.1047 28.4249 85.2672 27.7874C87.5016 26.5593 89.8063 26.9358 92.1813 28.9171C93.1781 29.7483 94.1563 31.1046 95.1156 32.9858C96.9594 36.5952 98.1922 40.3655 98.8141 44.2968C98.822 44.3455 98.8419 44.3915 98.8719 44.4307C98.902 44.47 98.9412 44.5012 98.9862 44.5216C99.0312 44.542 99.0805 44.551 99.1298 44.5477C99.1791 44.5445 99.2268 44.5291 99.2687 44.503C102.097 42.7374 105.109 41.3905 108.306 40.4624C108.335 40.4544 108.362 40.4406 108.385 40.422C108.408 40.4033 108.427 40.3801 108.441 40.3538C108.455 40.3276 108.464 40.2987 108.467 40.269C108.469 40.2393 108.466 40.2094 108.456 40.1811C107.578 37.5968 107.183 35.3358 107.27 33.3983C107.492 28.4421 110.08 25.9436 115.033 25.903C116.611 25.8905 118.159 26.1014 119.678 26.5358C123.347 27.5858 126.819 29.1343 130.094 31.1811C130.14 31.2096 130.192 31.2263 130.246 31.2295C130.301 31.2328 130.355 31.2226 130.404 31.1998C130.453 31.1771 130.496 31.1425 130.529 31.0991C130.561 31.0558 130.582 31.005 130.591 30.9514C130.994 28.4889 131.575 26.003 132.334 23.4936C133.459 19.7749 135.134 16.5046 137.359 13.6827C138.109 12.7296 139.033 11.9249 140.13 11.2686C141.277 10.5843 142.412 10.2124 143.537 10.153C144.887 10.0843 146.109 10.4202 147.203 11.1608Z" fill="#85AE11" stroke="#85AE11"/>
<path d="M34.6469 23.5827L51.3719 23.5358L53.1297 23.5733C51.2547 44.7827 52.3422 65.8311 56.3922 86.7186C55.8734 86.0374 55.4406 85.3046 55.0938 84.5202C51.2469 78.4577 46.0063 74.7077 39.3719 73.2702C36.3063 72.6077 33.2047 72.5514 30.0672 73.1014C22.8828 74.3639 17.2984 78.2483 13.3141 84.7546C12.2297 86.5296 11.3984 88.603 10.8203 90.9749C10.8141 90.9936 10.7906 91.2264 10.75 91.6733C10.7187 92.0452 10.5156 92.3077 10.1406 92.4608C10.2 84.5733 10.975 77.0343 12.4656 69.8436C12.6344 69.0249 12.7062 68.3999 12.6812 67.9686C13.375 65.6718 14.0406 63.3655 14.6781 61.0499C18.5062 47.1593 25.0797 34.7389 34.3984 23.7889C34.4453 23.7733 34.4781 23.7436 34.4969 23.6999C34.5135 23.6648 34.5366 23.6351 34.5632 23.6143C34.5898 23.5935 34.6189 23.5825 34.6469 23.5827Z" fill="#FFCF11" stroke="#FFCF11"/>
<path d="M53.1303 23.5733L59.9271 23.6905C60.5896 29.2186 61.4162 34.7202 62.4068 40.1952C63.2818 44.8452 64.4771 50.0889 65.9928 55.9264C68.2771 64.7327 71.1709 73.0436 74.674 80.8593C77.324 87.1061 80.7193 93.1702 84.86 99.0514C89.91 106.226 96.0131 112.148 103.169 116.817C102.782 116.892 102.422 116.859 102.091 116.719C101.601 116.509 101.349 116.403 101.337 116.4C95.3428 114.716 90.124 115.867 85.6803 119.855C81.9521 123.195 80.1193 127.541 80.1818 132.891C72.6006 125.637 66.8162 117.053 62.8287 107.137C60.0693 100.278 57.924 93.4718 56.3928 86.7186C52.3428 65.8311 51.2553 44.7827 53.1303 23.5733Z" fill="#FF9E00" stroke="#FF9E00"/>
<path d="M129.063 44.1655C135.103 44.3218 140.941 45.6546 146.575 48.1639C146.896 48.3061 147.257 48.3294 147.593 48.2296C150.193 47.4671 152.768 47.0155 155.318 46.8749C157.699 46.7436 159.8 46.9983 161.622 47.6389C163.494 48.2983 164.949 49.3749 165.986 50.8686C166.821 52.0749 167.363 53.7108 167.613 55.7764C167.953 58.5952 167.761 61.4093 167.036 64.2186C167.039 64.4218 167.085 64.6171 167.172 64.8046C165.632 65.9764 164.61 67.4999 164.107 69.3749C163.957 69.9343 163.911 73.2546 163.971 79.3358L163.853 88.828C163.716 88.8561 163.575 88.8077 163.432 88.6827C160.085 85.7764 156.253 83.4421 151.938 81.6796C143.85 78.2108 136.083 78.1749 128.636 81.5718C125.777 82.878 123.222 84.6421 120.972 86.8639C118.26 89.5452 116.114 92.6218 114.536 96.0936C113.271 98.8811 112.261 102.006 111.508 105.469C111.461 105.397 111.402 105.353 111.33 105.337C111.248 105.32 111.174 105.299 111.116 105.277C111.057 105.255 111.016 105.232 110.997 105.211C102.947 97.3421 98.2676 87.9296 96.9582 76.9733C96.5832 73.8296 96.5285 70.7124 96.7941 67.6218C97.2722 62.0811 98.6644 56.8546 100.971 51.9421C101.186 51.4827 101.294 51.1671 101.294 50.9952C109.903 46.1858 119.16 43.9093 129.063 44.1655Z" fill="#B3E135" stroke="#B3E135"/>
<path d="M101.294 50.9952C101.294 51.1671 101.186 51.4827 100.971 51.9421C98.6644 56.8546 97.2723 62.0811 96.7941 67.6218C96.5285 70.7124 96.5832 73.8296 96.9582 76.9733C98.2676 87.9296 102.947 97.3421 110.997 105.211C111.016 105.232 111.057 105.255 111.116 105.277C111.174 105.299 111.248 105.32 111.33 105.337C111.402 105.353 111.461 105.397 111.508 105.469C110.552 110.556 110.344 115.673 110.885 120.82C110.672 120.908 110.485 120.891 110.322 120.769C110.11 120.609 109.994 120.525 109.975 120.516C107.672 119.347 105.404 118.114 103.169 116.817C96.0129 112.148 89.9098 106.226 84.8598 99.0514C80.7191 93.1702 77.3238 87.1061 74.6738 80.8593C80.0145 68.0593 88.6785 58.1921 100.666 51.2577C100.682 51.2483 100.757 51.1843 100.891 51.0655C100.997 50.9749 101.132 50.9514 101.294 50.9952Z" fill="#94D400" stroke="#94D400"/>
<path d="M174.625 64.7155C177.078 66.1968 178.221 68.5311 178.052 71.7186C178.061 74.2186 178.055 76.7186 178.033 79.2186C177.742 79.3874 177.563 79.6171 177.494 79.9077C177.391 80.3608 177.335 80.5952 177.325 80.6108C176.307 82.9483 174.596 84.2811 172.192 84.6093C168.417 85.1218 165.857 83.603 164.51 80.053C164.47 79.9467 164.372 79.826 164.233 79.7108C164.111 79.6171 164.024 79.4921 163.971 79.3358C163.911 73.2546 163.957 69.9343 164.107 69.3749C164.61 67.4999 165.632 65.9764 167.172 64.8046C169.782 63.3233 172.266 63.2936 174.625 64.7155Z" fill="#8C4F5C" stroke="#8C4F5C"/>
<path d="M12.6814 67.9686C12.7064 68.3999 12.6346 69.0249 12.4658 69.8436C10.9752 77.0343 10.2002 84.5733 10.1408 92.4608C9.88457 111.017 13.5596 128.547 21.1658 145.05C23.2689 149.609 25.9611 154.384 29.2424 159.375C22.9861 159.512 16.7299 159.545 10.4736 159.473C9.45801 159.461 8.44863 159.545 7.44551 159.726C3.37676 147.873 1.14395 135.676 0.74707 123.136C0.74707 121.298 0.74707 119.462 0.74707 117.628C1.1752 100.194 5.15332 83.6405 12.6814 67.9686Z" fill="#3E4A68" stroke="#3E4A68"/>
<path d="M39.3717 73.2702C46.0061 74.7077 51.2467 78.4577 55.0936 84.5202C55.4405 85.3046 55.8733 86.0374 56.392 86.7186C57.9233 93.4717 60.0686 100.278 62.828 107.137C66.8155 117.053 72.5998 125.637 80.1811 132.891C88.0123 139.662 96.392 145.673 105.32 150.923C110.061 153.711 114.89 156.333 119.809 158.789C120.044 158.936 120.239 159.125 120.395 159.356C119.814 159.462 119.228 159.515 118.637 159.515C98.0905 159.49 77.5436 159.489 56.9967 159.511L29.242 159.375C25.9608 154.384 23.2686 149.609 21.1655 145.05C13.5592 128.547 9.88421 111.017 10.1405 92.4608C10.5155 92.3077 10.7186 92.0452 10.7498 91.6733C10.7905 91.2264 10.8139 90.9936 10.8201 90.9749C11.3983 88.603 12.2295 86.5296 13.3139 84.7546C17.2983 78.2483 22.8826 74.3639 30.067 73.1014C33.2045 72.5514 36.3061 72.6077 39.3717 73.2702Z" fill="#FFE854" stroke="#FFE854"/>
<path d="M151.938 81.6796C151.813 82.0514 151.533 82.3639 151.099 82.6171C147.205 84.8764 143.999 87.9952 141.48 91.9733C139.477 95.1389 138.035 98.3093 137.153 101.484C134.644 110.509 134.575 119.687 136.947 129.019C137.122 129.706 137.23 130.405 137.271 131.114C128.48 128.539 119.955 125.273 111.696 121.317C111.346 121.255 111.075 121.089 110.885 120.82C110.344 115.673 110.552 110.556 111.508 105.469C112.261 102.006 113.271 98.8811 114.536 96.0936C116.114 92.6218 118.26 89.5452 120.972 86.8639C123.222 84.6421 125.777 82.878 128.636 81.5718C136.083 78.1749 143.85 78.2108 151.938 81.6796Z" fill="#E32828" stroke="#E32828"/>
<path d="M178.033 79.2186C178.014 82.353 178.05 85.4874 178.141 88.6218C178.144 88.7249 178.193 88.7999 178.286 88.8467C175.777 91.1061 173.407 93.503 171.175 96.0374C171.156 96.0584 171.132 96.0751 171.106 96.0865C171.08 96.0979 171.051 96.1038 171.022 96.1038C170.993 96.1038 170.964 96.0979 170.938 96.0865C170.911 96.0751 170.886 96.0584 170.866 96.0374L163.854 88.828L163.971 79.3358C164.024 79.4921 164.111 79.6171 164.233 79.7108C164.373 79.826 164.47 79.9467 164.51 80.053C165.857 83.603 168.418 85.1218 172.193 84.6093C174.596 84.2811 176.307 82.9483 177.325 80.6108C177.335 80.5952 177.391 80.3608 177.494 79.9077C177.563 79.6171 177.743 79.3874 178.033 79.2186Z" fill="#7B3C47" stroke="#7B3C47"/>
<path d="M214.498 82.0124C219.188 84.6218 222.812 88.0749 225.368 92.3718C228.708 97.9936 230.632 104.156 231.138 110.859C231.307 113.112 231.362 114.947 231.302 116.362C230.571 133.206 224.344 147.576 212.623 159.473L199.146 159.394C200.09 158.75 201.066 158.158 202.076 157.617C204.019 156.417 205.273 154.828 205.835 152.85C206.379 150.94 206.23 149.07 205.39 147.239C204.34 144.961 202.415 143.498 199.615 142.851C183.405 141.458 167.391 138.875 151.573 135.103C146.754 133.953 141.987 132.623 137.271 131.114C137.23 130.405 137.123 129.706 136.948 129.019C134.576 119.687 134.644 110.509 137.154 101.484C138.035 98.3093 139.477 95.1389 141.48 91.9733C143.999 87.9952 147.205 84.8764 151.099 82.6171C151.533 82.3639 151.813 82.0514 151.938 81.6796C156.254 83.4421 160.085 85.7764 163.432 88.6827C163.576 88.8077 163.716 88.8561 163.854 88.828L170.866 96.0374C170.887 96.0584 170.911 96.0751 170.938 96.0865C170.965 96.0979 170.994 96.1038 171.022 96.1038C171.051 96.1038 171.08 96.0979 171.106 96.0865C171.133 96.0751 171.156 96.0584 171.176 96.0374C173.407 93.503 175.777 91.1061 178.287 88.8467C181.587 86.1155 185.288 83.8343 189.391 82.003C197.807 78.2405 206.176 78.2436 214.498 82.0124Z" fill="#FF3345" stroke="#FF3345"/>
<path d="M102.091 116.719C102.422 116.859 102.781 116.892 103.169 116.817C105.403 118.114 107.672 119.347 109.975 120.516C109.994 120.525 110.109 120.609 110.322 120.769C110.484 120.891 110.672 120.908 110.884 120.82C111.075 121.089 111.345 121.255 111.695 121.317C119.955 125.273 128.48 128.539 137.27 131.114C141.986 132.623 146.753 133.953 151.572 135.103C167.391 138.875 183.405 141.458 199.614 142.851C202.414 143.498 204.339 144.961 205.389 147.239C206.23 149.07 206.378 150.941 205.834 152.85C205.272 154.828 204.019 156.417 202.075 157.617C201.066 158.158 200.089 158.75 199.145 159.394C173.598 159.509 148.052 159.542 122.505 159.492C121.792 159.545 121.089 159.5 120.395 159.356C120.239 159.125 120.044 158.936 119.809 158.789C114.891 156.333 110.061 153.711 105.32 150.923C96.3922 145.673 88.0125 139.662 80.1812 132.891C80.1187 127.541 81.9515 123.195 85.6797 119.855C90.1234 115.867 95.3422 114.716 101.336 116.4C101.348 116.403 101.6 116.509 102.091 116.719Z" fill="#FFCF11" stroke="#FFCF11"/>
<path d="M29.2424 159.375L56.9971 159.511C57.2533 159.626 57.5268 159.659 57.8174 159.609C58.0518 159.569 58.1643 159.6 58.1549 159.703C58.1522 159.746 58.126 159.791 58.0803 159.83C58.0347 159.869 57.972 159.9 57.9018 159.919C54.958 160.728 52.9377 162.461 51.8408 165.117C50.7377 167.792 50.7471 170.322 51.8689 172.706C53.5846 176.341 56.583 178.186 60.8643 178.242C115.358 178.242 169.852 178.242 224.346 178.242C224.403 178.242 224.464 178.262 224.52 178.301C224.576 178.34 224.626 178.396 224.664 178.462C224.808 178.712 225.052 178.762 225.396 178.612C218.23 191.587 208.942 202.801 197.533 212.255C179.017 227.601 157.758 236.661 133.755 239.433C133.389 239.386 133.378 239.32 133.722 239.236C133.772 239.223 133.772 239.217 133.722 239.217C133.563 239.217 133.441 239.166 133.356 239.062C133.306 239 133.249 238.949 133.19 238.914C133.132 238.879 133.073 238.861 133.019 238.861C132.138 238.867 131.261 238.798 130.389 238.655C107.155 234.858 86.8236 225.294 69.3955 209.962C67.0174 207.872 64.758 205.714 62.6174 203.489C55.4174 196.005 49.2174 187.664 44.0174 178.467C43.9774 178.399 43.9205 178.342 43.8522 178.303C43.784 178.263 43.7068 178.242 43.6283 178.242C34.7002 178.226 25.7314 178.236 16.7221 178.27C16.7064 178.27 16.5861 178.255 16.3611 178.223C16.1518 178.195 15.9924 178.28 15.883 178.476C15.7205 178.236 15.4799 178.158 15.1611 178.242C13.7549 178.242 12.3502 178.242 10.9471 178.242C9.2002 178.242 7.82051 178.05 6.80801 177.665C3.52051 176.419 1.5002 173.906 0.74707 170.128C0.74707 169.269 0.74707 168.409 0.74707 167.55C1.52207 163.687 3.75488 161.08 7.44551 159.726C8.44863 159.545 9.45801 159.461 10.4736 159.473C16.7299 159.545 22.9861 159.512 29.2424 159.375Z" fill="#CEDDF7" stroke="#CEDDF7"/>
<path d="M120.396 159.356C121.089 159.5 121.792 159.545 122.505 159.492C148.052 159.542 173.599 159.509 199.146 159.394L212.622 159.473C218.991 159.495 225.358 159.501 231.724 159.492C232.502 159.633 233.283 159.744 234.067 159.825C238.036 161.312 240.263 164.18 240.747 168.426C240.747 168.739 240.747 169.051 240.747 169.364C240.038 174.53 237.108 177.489 231.958 178.242C229.955 178.226 227.95 178.236 225.944 178.27C225.816 178.27 225.711 178.3 225.63 178.359C225.539 178.428 225.461 178.512 225.396 178.612C225.052 178.762 224.808 178.712 224.664 178.462C224.626 178.396 224.576 178.34 224.52 178.301C224.464 178.262 224.404 178.242 224.346 178.242C169.852 178.242 115.358 178.242 60.8643 178.242C56.5831 178.186 53.5846 176.341 51.869 172.706C50.7471 170.322 50.7378 167.792 51.8409 165.117C52.9378 162.461 54.9581 160.728 57.9018 159.919C57.9721 159.9 58.0347 159.869 58.0804 159.83C58.1261 159.791 58.1522 159.746 58.1549 159.703C58.1643 159.6 58.0518 159.569 57.8174 159.609C57.5268 159.659 57.2534 159.626 56.9971 159.511C77.544 159.489 98.0909 159.49 118.638 159.515C119.228 159.515 119.814 159.462 120.396 159.356Z" fill="#EBF0F3" stroke="#EBF0F3"/>
<path d="M16.7219 178.27C25.7313 178.236 34.7 178.226 43.6281 178.242C43.7066 178.242 43.7838 178.263 43.852 178.303C43.9203 178.342 43.9772 178.399 44.0172 178.467C49.2172 187.664 55.4172 196.005 62.6172 203.489C64.7578 205.714 67.0172 207.872 69.3953 209.962C86.8234 225.294 107.155 234.858 130.389 238.655C131.261 238.798 132.137 238.867 133.019 238.861C133.073 238.861 133.131 238.879 133.19 238.914C133.249 238.949 133.306 239 133.356 239.062C133.441 239.165 133.562 239.217 133.722 239.217C133.772 239.217 133.772 239.223 133.722 239.236C133.378 239.32 133.389 239.386 133.755 239.433C131.211 239.711 128.662 239.939 126.109 240.117C122.553 240.117 118.998 240.117 115.445 240.117C95.9578 239.117 77.9594 233.922 61.45 224.531C42.1344 213.54 26.9453 198.189 15.8828 178.476C15.9922 178.28 16.1516 178.195 16.3609 178.223C16.5859 178.255 16.7063 178.27 16.7219 178.27Z" fill="#AAC5EE" stroke="#AAC5EE"/>
</g>
<defs>
<clipPath id="clip0_540_1196">
<rect width="240" height="240" fill="white" transform="translate(0.74707 0.117065)"/>
</clipPath>
</defs>
</svg>
