<svg width="241" height="241" viewBox="0 0 241 241" fill="none" xmlns="http://www.w3.org/2000/svg">
<g clip-path="url(#clip0_547_3821)">
<path d="M169.615 0.475887C212.412 8.98274 234.004 13.2861 234.391 13.3861C237.676 14.2511 239.794 16.32 240.748 19.5929C240.748 54.96 240.748 90.3271 240.748 125.694C239.444 126.088 238.116 126.355 236.763 126.495C232.954 126.892 229.727 125.743 227.083 123.048C224.805 120.727 222.691 118.266 220.741 115.665C219.76 114.356 218.729 113.089 217.648 111.861C213.723 107.392 208.829 104.771 202.966 103.996C201.635 103.821 200.965 103.734 200.955 103.734C199.352 103.484 198.124 103.261 197.271 103.064C196.105 102.795 194.955 102.36 193.821 101.757C192.646 101.129 191.69 100.386 190.952 99.5273C189.518 97.8565 188.773 95.8735 188.716 93.5781C188.635 90.2335 188.987 86.6811 189.771 82.9211C190.202 80.2011 190.519 77.4685 190.723 74.7234C190.976 71.3007 190.337 68.0701 188.805 65.0314C187.271 61.996 184.771 59.1463 181.305 56.4824C176.474 52.7724 170.507 49.3996 163.404 46.3642V46.2845C163.557 46.2876 163.579 46.0565 163.469 45.5912C163.426 45.407 163.402 45.2212 163.399 45.0338C163.274 38.8473 163.248 32.895 163.319 27.1769C163.373 23.2045 163.391 20.0816 163.376 17.8081C163.319 7.14646 163.29 1.79845 163.287 1.76409C163.262 1.2207 163.301 0.680439 163.404 0.143296C165.404 -0.0596944 167.474 0.0511691 169.615 0.475887ZM223.315 34.522C223.26 34.4686 223.217 34.4046 223.188 34.334C223.16 34.2634 223.145 34.1877 223.147 34.1115C223.148 34.0352 223.165 33.96 223.196 33.8905C223.227 33.8209 223.273 33.7585 223.329 33.7069C225.069 32.1174 226.601 30.545 227.923 28.9898C228.601 28.1934 228.968 27.4189 229.024 26.6663C229.102 25.5639 228.777 24.6333 228.049 23.8744C227.33 23.1218 226.471 22.7096 225.471 22.6377C224.415 22.5628 223.443 22.9344 222.555 23.7526C220.93 25.2485 219.313 26.8256 217.704 28.4838C217.655 28.5334 217.589 28.5617 217.52 28.5626C217.45 28.5634 217.383 28.5368 217.333 28.4885C215.924 27.1051 214.518 25.731 213.115 24.3663C212.362 23.6324 211.744 23.1593 211.263 22.9469C210.46 22.594 209.651 22.53 208.835 22.7548C207.769 23.0484 206.96 23.7183 206.407 24.7644C205.838 25.8356 205.819 26.9255 206.351 28.0341C206.616 28.5838 207.263 29.3739 208.291 30.4044C209.335 31.4444 210.469 32.578 211.694 33.8053C211.744 33.8551 211.784 33.9146 211.81 33.9802C211.836 34.0457 211.849 34.1159 211.847 34.1864C211.845 34.257 211.829 34.3265 211.8 34.3906C211.77 34.4547 211.728 34.5122 211.676 34.5595C209.979 36.0772 208.501 37.6059 207.241 39.1455C206.457 40.1043 206.033 40.9802 205.971 41.7735C205.883 42.9258 206.313 43.9064 207.26 44.7153C208.416 45.699 209.623 45.9738 210.879 45.5397C211.548 45.3055 212.441 44.6294 213.56 43.5114C214.707 42.3684 215.926 41.152 217.216 39.8622C217.256 39.8222 217.304 39.7906 217.356 39.7695C217.409 39.7484 217.465 39.7382 217.522 39.7396C217.578 39.7409 217.634 39.7537 217.685 39.7772C217.737 39.8007 217.783 39.8344 217.821 39.8763C219.437 41.6782 221.074 43.2522 222.733 44.5981C223.555 45.2633 224.343 45.6162 225.096 45.6568C226.112 45.7099 226.988 45.4132 227.726 44.7668C228.479 44.1078 228.929 43.2803 229.076 42.2841C229.235 41.1817 228.907 40.2057 228.091 39.3563C226.448 37.6449 224.855 36.0335 223.315 34.522ZM198.019 33.9411C198.034 32.9995 197.674 32.0905 197.018 31.4143C196.363 30.738 195.465 30.3498 194.523 30.335L190.304 30.2687C189.362 30.254 188.453 30.6138 187.776 31.2692C187.099 31.9245 186.711 32.8217 186.696 33.7633L186.688 34.2504C186.673 35.192 187.033 36.1009 187.689 36.7772C188.345 37.4535 189.243 37.8417 190.185 37.8565L194.403 37.9227C194.87 37.9301 195.333 37.8455 195.767 37.6738C196.201 37.5022 196.597 37.2468 196.932 36.9223C197.267 36.5978 197.535 36.2106 197.72 35.7826C197.905 35.3547 198.004 34.8944 198.012 34.4282L198.019 33.9411ZM164.43 38.8598C163.38 40.39 163.438 41.9124 164.604 43.427C165.648 44.7793 167.113 45.1306 169.001 44.481C170.776 43.3412 172.588 42.2684 174.438 41.2629C176.088 40.3728 177.099 39.7061 177.471 39.2626C178.421 38.1384 178.488 36.7737 177.673 35.1685C177.232 34.3034 176.537 33.7132 175.587 33.3978C174.868 33.1604 174.024 33.2104 173.055 33.5477C171.033 34.2503 169.14 35.2138 167.374 36.4379C167.371 36.4411 166.957 36.7081 166.132 37.239C165.426 37.6918 164.858 38.2321 164.43 38.8598Z" fill="#A0D755"/>
<path d="M163.403 0.14328C163.3 0.680423 163.261 1.22069 163.286 1.76408C163.289 1.79843 163.319 7.14644 163.375 17.8081C163.391 20.0816 163.372 23.2045 163.319 27.1769C163.247 32.895 163.274 38.8473 163.399 45.0338C163.402 45.2211 163.425 45.407 163.469 45.5912C163.578 46.0565 163.557 46.2876 163.403 46.2845C154.572 42.2996 149.446 40.0387 148.024 39.5015C142.018 37.2343 137.707 33.3978 135.091 27.992C133.725 25.1688 132.98 22.3613 132.855 19.5694C132.721 16.4996 133.333 13.5703 134.693 10.7815C134.908 10.3381 134.947 9.98049 134.81 9.7088C141.172 7.26667 147.569 4.92136 154 2.67285C157.016 1.38933 160.15 0.546137 163.403 0.14328Z" fill="#B4E66E"/>
<path d="M134.809 9.7088C134.947 9.9805 134.908 10.3381 134.692 10.7815C133.333 13.5703 132.72 16.4996 132.854 19.5694C132.979 22.3613 133.725 25.1688 135.09 27.992C137.706 33.3978 142.017 37.2343 148.023 39.5015C149.445 40.0387 154.572 42.2996 163.403 46.2845V46.3641C163.265 53.981 163.25 61.5993 163.356 69.2193C163.375 70.5621 163.351 72.4359 163.286 74.8405C163.195 78.1571 163.225 85.0759 163.375 95.5971C163.234 114.178 163.2 132.76 163.272 151.341C163.3 157.999 163.314 161.338 163.314 161.357C163.376 161.787 163.25 162.142 162.934 162.42C161.462 162.676 160.017 163.034 158.598 163.493C140.658 170.073 122.695 176.592 104.711 183.05C105.151 182.213 105.301 181.588 105.161 181.176C102.095 172.191 95.8044 167.206 86.2888 166.219C84.07 165.988 81.845 165.905 79.6138 165.971L78.3528 165.933C78.2902 165.932 78.2306 165.906 78.1868 165.86C78.143 165.815 78.1184 165.753 78.1185 165.69V140.099C78.1187 140.045 78.1366 139.985 78.1707 139.924C78.2048 139.863 78.2543 139.803 78.3153 139.747C78.4216 139.654 78.47 139.527 78.4606 139.368C80.3575 141.31 82.3763 143.111 84.5169 144.769C85.2825 145.362 85.9044 145.723 86.3825 145.851C87.1263 146.048 87.8778 145.995 88.6372 145.692C90.4216 144.98 91.2481 143.723 91.1169 141.921C91.07 141.268 90.8888 140.691 90.5732 140.188C90.2607 139.688 89.8403 139.229 89.3122 138.811C88.0122 137.783 86.5075 136.398 84.7981 134.655C82.7794 132.604 80.6669 132.496 78.4606 134.332C78.4294 134.17 78.3685 134.023 78.2778 133.892C78.1749 133.753 78.1184 133.608 78.1185 133.484C78.1091 99.8318 78.1091 82.968 78.1185 82.893C78.2341 82.1466 78.1419 81.4455 77.8419 80.7897C77.8202 80.7408 77.8141 80.6802 77.8239 80.6132C77.8337 80.5462 77.8592 80.4749 77.8981 80.4056C77.9575 80.2994 77.9435 80.1948 77.856 80.0917L79.9653 79.895C82.4591 79.8388 84.92 79.5202 87.3482 78.9394C89.8669 78.2305 92.3935 77.545 94.9278 76.8829C97.3466 76.249 99.1075 76.9438 100.211 78.9675C102.601 83.3521 106.283 85.4897 111.254 85.3804C115.289 85.2898 118.025 83.5285 119.462 80.0964C119.89 79.0752 120.133 77.8838 120.189 76.5222C120.248 75.1013 120.161 73.8771 119.926 72.8497C118.939 68.5494 117.02 64.6707 114.17 61.2137C112.289 58.9339 110.033 56.7822 107.401 54.7586C102.279 50.8143 96.445 48.4221 89.8982 47.5821C86.3482 47.1261 82.5685 47.123 78.5591 47.5727C78.2591 47.5665 78.1107 47.3947 78.1138 47.0574C78.1357 41.255 78.1278 35.4542 78.0903 29.6549C79.731 29.4925 81.3247 29.1303 82.8716 28.5681C100.178 22.263 117.49 15.9765 134.809 9.7088ZM154.586 50.9221C153.186 52.9582 152.009 55.4331 151.056 58.3468C150.647 59.5991 150.465 60.5407 150.512 61.1715C150.593 62.3082 151.15 63.1858 152.181 63.8041C154.259 65.0439 156.037 64.6536 157.515 62.633C158.372 60.6219 159.251 58.6216 160.154 56.6323C160.795 55.2208 161.145 54.2121 161.204 53.6062C161.336 52.3039 160.901 51.2468 159.901 50.4349C159.111 49.7947 158.239 49.4699 157.286 49.4605C156.158 49.4543 155.258 49.9415 154.586 50.9221ZM154.071 76.683C154.148 76.212 154.132 75.7303 154.022 75.2655C153.913 74.8008 153.714 74.362 153.435 73.9744C153.156 73.5867 152.804 73.2577 152.398 73.0061C151.992 72.7546 151.54 72.5854 151.069 72.5083L150.708 72.4493C150.237 72.3721 149.755 72.3885 149.29 72.4975C148.825 72.6065 148.386 72.806 147.998 73.0845C147.61 73.3631 147.28 73.7153 147.029 74.121C146.777 74.5267 146.608 74.978 146.531 75.4491L145.191 83.6222C145.114 84.0933 145.13 84.575 145.24 85.0397C145.349 85.5045 145.548 85.9432 145.827 86.3309C146.106 86.7186 146.458 87.0476 146.864 87.2991C147.27 87.5507 147.722 87.7198 148.193 87.797L148.554 87.856C149.025 87.9332 149.507 87.9168 149.972 87.8078C150.437 87.6988 150.876 87.4993 151.264 87.2207C151.652 86.9422 151.981 86.59 152.233 86.1843C152.485 85.7786 152.654 85.3273 152.731 84.8562L154.071 76.683ZM150.804 100.423C150.861 99.9496 150.825 99.4696 150.696 99.0104C150.568 98.5512 150.35 98.1218 150.056 97.7466C149.762 97.3714 149.396 97.0579 148.981 96.8238C148.565 96.5898 148.107 96.4399 147.634 96.3826L147.271 96.3387C146.314 96.223 145.351 96.4918 144.593 97.0859C143.834 97.68 143.343 98.5508 143.228 99.5067L142.233 107.719C142.176 108.193 142.212 108.673 142.341 109.132C142.469 109.591 142.687 110.02 142.981 110.396C143.275 110.771 143.641 111.084 144.056 111.318C144.472 111.552 144.93 111.702 145.403 111.76L145.766 111.804C146.723 111.919 147.686 111.65 148.444 111.056C149.202 110.462 149.693 109.591 149.809 108.636L150.804 100.423ZM99.2732 124.172C100.279 124.999 101.476 125.587 102.864 125.933C103.942 126.202 105.245 126.377 106.773 126.458C110.533 126.658 113.814 125.643 116.617 123.413C119.108 121.43 120.061 118.838 119.476 115.637C118.986 112.957 117.973 110.67 116.439 108.774C113.854 105.579 110.433 104.382 106.173 105.181C104.448 105.503 103.008 106.388 101.851 107.837C99.7419 110.476 98.32 113.346 97.5856 116.447C97.3669 117.375 97.2747 118.535 97.3091 119.928C97.3528 121.717 98.0075 123.132 99.2732 124.172ZM138.793 134.562C139.793 135.389 140.839 135.655 141.929 135.358C143.429 134.949 144.448 133.915 144.986 132.257C145.711 130.012 146.334 127.738 146.856 125.437C147.078 124.459 147.115 123.669 146.968 123.066C146.759 122.192 146.32 121.486 145.651 120.949C144.77 120.243 143.725 120.02 142.515 120.279C140.903 120.626 139.868 121.677 139.412 123.432C139.172 124.35 139.048 124.82 139.042 124.842C138.52 126.5 138.037 128.171 137.593 129.854C136.89 131.753 137.29 133.322 138.793 134.562ZM123.292 151.697C124.333 152.478 125.478 152.665 126.728 152.259C129.715 151.288 132.439 149.831 134.898 147.889C135.723 147.236 136.178 146.387 136.262 145.341C136.337 144.429 136.1 143.562 135.55 142.741C134.693 141.47 133.528 140.956 132.053 141.2C131.415 141.306 130.375 141.815 128.931 142.727C127.493 143.629 125.978 144.39 124.384 145.008C122.937 145.567 122.076 146.537 121.801 147.917C121.495 149.46 121.992 150.72 123.292 151.697ZM100.984 153.449C103.125 154.108 105.611 154.528 108.442 154.709C111.37 154.9 112.995 153.818 113.317 151.463C113.448 150.486 113.284 149.644 112.825 148.938C112.315 148.154 111.558 147.619 110.551 147.331C108.692 147.091 106.837 146.829 104.987 146.544C102.85 146.217 101.714 146.054 101.579 146.057C100.183 146.095 99.131 146.755 98.4247 148.039C98.0778 148.673 97.9138 149.322 97.9325 149.988C97.9544 150.74 98.1731 151.405 98.5888 151.983C99.0356 152.608 99.8341 153.096 100.984 153.449Z" fill="#00C3FF"/>
<path d="M10.2955 16.7213C20.2205 18.5795 30.1236 20.5422 40.0049 22.6096C51.508 24.855 63.0018 27.1488 74.4861 29.491C75.6924 29.4566 76.8939 29.5113 78.0908 29.6549C78.1283 35.4542 78.1361 41.2551 78.1143 47.0574C78.1111 47.3947 78.2596 47.5665 78.5596 47.5727L77.7393 47.7695C71.1893 48.6189 66.1314 51.5076 62.5658 56.4356C60.7752 58.9121 59.683 61.4307 59.2893 63.9915C58.8111 67.0832 59.3783 69.9079 60.9908 72.4656C62.5658 74.9639 64.9424 76.9095 68.1205 78.3023C71.1361 79.6233 74.3814 80.2198 77.8564 80.0918C77.9439 80.1948 77.958 80.2994 77.8986 80.4056C77.8597 80.4749 77.8342 80.5462 77.8243 80.6132C77.8145 80.6802 77.8207 80.7409 77.8424 80.7897C78.1424 81.4455 78.2346 82.1466 78.1189 82.893C78.1096 82.968 78.1096 99.8318 78.1189 133.484C78.1189 133.608 78.1754 133.753 78.2783 133.892C78.3689 134.023 78.4299 134.17 78.4611 134.332C77.3268 136.016 77.3268 137.694 78.4611 139.368C78.4705 139.527 78.4221 139.654 78.3158 139.747C78.2547 139.803 78.2053 139.863 78.1712 139.924C78.137 139.985 78.1192 140.045 78.1189 140.099V165.69C78.1189 165.753 78.1434 165.815 78.1873 165.86C78.2311 165.906 78.2907 165.932 78.3533 165.933L79.6143 165.971L78.3252 166.088C75.7971 166.219 73.2721 166.233 70.7502 166.13C68.0814 166.021 66.1658 165.615 65.0033 164.912C62.8064 163.594 61.8721 161.322 62.2002 158.096C62.4502 155.62 62.7768 153.154 63.1799 150.7C63.6174 143.648 62.0486 137.112 58.4736 131.091C56.733 128.161 54.4533 125.563 51.6346 123.296C47.8408 120.242 43.5924 118.765 38.8893 118.864C38.1018 118.88 36.8283 119.056 35.0689 119.394C33.4408 119.703 32.1564 119.842 31.2158 119.811C25.9408 119.636 22.2393 117.167 20.1111 112.405C18.3924 108.557 17.1721 104.741 16.4502 100.956C15.3439 95.1661 12.5221 90.5301 7.98457 87.0481C6.10645 85.6084 3.69395 84.7309 0.74707 84.4154C0.74707 79.222 0.74707 74.0302 0.74707 68.8399C1.94707 68.7399 3.40176 68.4464 5.11113 67.9592C6.73613 67.497 7.73301 66.6054 8.10176 65.2844C8.45488 64.0321 8.24395 62.886 7.46895 61.8461C6.6252 60.7187 5.32207 60.2487 3.55957 60.4361C2.6252 60.6765 1.6877 60.9014 0.74707 61.1106C0.74707 48.4628 0.74707 35.8149 0.74707 23.1671C1.5627 19.5976 3.60957 17.4302 6.8877 16.6651C7.81582 16.4496 8.95176 16.4684 10.2955 16.7213ZM24.133 61.7149C23.2299 61.3901 22.3096 61.1184 21.3721 60.8998C20.6596 60.7343 19.9768 60.7484 19.3236 60.942C18.7143 61.1262 18.1643 61.4807 17.6736 62.0053C16.6736 63.0859 16.4064 64.3475 16.8721 65.7903C17.0846 66.4399 17.4236 66.9661 17.8893 67.369C18.3611 67.7781 18.9268 68.0919 19.5861 68.3105C21.5549 68.9663 23.7002 69.8798 26.0221 71.0509C26.9908 71.5412 27.9799 71.5943 28.9893 71.2102C30.5643 70.6137 31.433 69.58 31.5955 68.1091C31.7018 67.1628 31.5002 66.3072 30.9908 65.542C30.4721 64.7551 29.7268 64.1851 28.7549 63.8322C27.2736 62.9922 25.733 62.2864 24.133 61.7149ZM43.1467 75.0251C42.4996 74.2967 41.5894 73.8551 40.6165 73.7973C39.6435 73.7396 38.6875 74.0704 37.9586 74.7171L37.7343 74.9161C37.3734 75.2363 37.0791 75.6244 36.8683 76.0583C36.6575 76.4921 36.5343 76.9632 36.5057 77.4447C36.477 77.9261 36.5436 78.4085 36.7015 78.8642C36.8594 79.3199 37.1056 79.7401 37.4261 80.1008L42.835 86.1889C43.4821 86.9173 44.3922 87.359 45.3652 87.4167C46.3381 87.4745 47.2942 87.1437 48.023 86.497L48.2474 86.2979C48.9762 85.6512 49.4182 84.7417 49.476 83.7694C49.5338 82.7971 49.2027 81.8417 48.5556 81.1133L43.1467 75.0251ZM58.4171 94.3855C57.8913 93.5639 57.0604 92.9847 56.1073 92.7752C55.1542 92.5658 54.1568 92.7434 53.3346 93.2688L53.0819 93.4303C52.6748 93.6905 52.323 94.0282 52.0465 94.4243C51.77 94.8204 51.5743 95.267 51.4705 95.7386C51.3668 96.2103 51.357 96.6977 51.4417 97.1731C51.5265 97.6486 51.7041 98.1026 51.9644 98.5095L56.3739 105.4C56.8997 106.221 57.7306 106.801 58.6837 107.01C59.6369 107.22 60.6342 107.042 61.4564 106.517L61.7091 106.355C62.5313 105.83 63.1109 104.999 63.3205 104.047C63.53 103.094 63.3524 102.098 62.8266 101.276L58.4171 94.3855ZM70.6475 115.214C70.3946 114.803 70.0632 114.446 69.6723 114.163C69.2814 113.881 68.8385 113.678 68.3691 113.566C67.8996 113.454 67.4127 113.436 66.9362 113.512C66.4596 113.588 66.0028 113.758 65.5917 114.01L65.3362 114.167C64.9252 114.42 64.568 114.751 64.285 115.142C64.002 115.533 63.7988 115.975 63.6869 116.444C63.5751 116.914 63.5568 117.4 63.6331 117.876C63.7094 118.353 63.8789 118.809 64.1318 119.22L68.4154 126.178C68.6683 126.589 68.9996 126.946 69.3906 127.229C69.7815 127.511 70.2244 127.715 70.6938 127.826C71.1633 127.938 71.6502 127.956 72.1267 127.88C72.6033 127.804 73.0601 127.634 73.4711 127.382L73.7267 127.225C74.5568 126.714 75.1501 125.895 75.3759 124.948C75.6018 124 75.4418 123.002 74.9311 122.172L70.6475 115.214Z" fill="#00AAF0"/>
<path d="M213.114 24.3663C214.517 25.731 215.923 27.1051 217.333 28.4885C217.382 28.5368 217.449 28.5634 217.519 28.5626C217.588 28.5617 217.654 28.5334 217.703 28.4838C219.312 26.8256 220.929 25.2485 222.554 23.7526C223.442 22.9344 224.414 22.5628 225.47 22.6377C226.47 22.7095 227.329 23.1218 228.048 23.8744C228.776 24.6333 229.101 25.5639 229.023 26.6663C228.967 27.4189 228.6 28.1934 227.922 28.9898C226.6 30.545 225.069 32.1174 223.328 33.7069C223.272 33.7585 223.227 33.8209 223.195 33.8905C223.164 33.96 223.147 34.0352 223.146 34.1115C223.144 34.1877 223.159 34.2634 223.188 34.334C223.216 34.4046 223.259 34.4686 223.314 34.522C224.854 36.0335 226.447 37.6449 228.09 39.3563C228.906 40.2057 229.234 41.1817 229.075 42.284C228.928 43.2803 228.478 44.1078 227.725 44.7668C226.987 45.4132 226.111 45.7099 225.095 45.6568C224.342 45.6162 223.554 45.2633 222.733 44.5981C221.073 43.2522 219.436 41.6782 217.82 39.8763C217.782 39.8344 217.736 39.8007 217.684 39.7772C217.633 39.7537 217.577 39.7409 217.521 39.7396C217.464 39.7382 217.408 39.7484 217.355 39.7695C217.303 39.7906 217.255 39.8221 217.215 39.8622C215.925 41.152 214.706 42.3684 213.559 43.5114C212.44 44.6294 211.547 45.3055 210.878 45.5397C209.622 45.9738 208.415 45.699 207.259 44.7152C206.312 43.9064 205.883 42.9258 205.97 41.7734C206.033 40.9802 206.456 40.1042 207.24 39.1455C208.5 37.6059 209.978 36.0772 211.675 34.5595C211.727 34.5122 211.769 34.4547 211.799 34.3906C211.828 34.3264 211.845 34.257 211.846 34.1864C211.848 34.1159 211.835 34.0457 211.809 33.9802C211.783 33.9146 211.744 33.8551 211.694 33.8053C210.469 32.578 209.334 31.4444 208.29 30.4044C207.262 29.3739 206.615 28.5838 206.35 28.0341C205.819 26.9255 205.837 25.8356 206.406 24.7644C206.959 23.7183 207.769 23.0484 208.834 22.7548C209.65 22.53 210.459 22.594 211.262 22.9469C211.744 23.1592 212.361 23.6324 213.114 24.3663Z" fill="#FFDC64"/>
<path d="M194.522 30.335L190.304 30.2688C188.342 30.238 186.726 31.8025 186.695 33.7633L186.688 34.2504C186.657 36.2112 188.222 37.8257 190.184 37.8565L194.403 37.9227C196.365 37.9536 197.98 36.389 198.011 34.4282L198.019 33.9411C198.05 31.9803 196.484 30.3658 194.522 30.335Z" fill="#FFDC64"/>
<path d="M175.586 33.3978C176.536 33.7132 177.232 34.3034 177.672 35.1685C178.488 36.7737 178.421 38.1384 177.471 39.2626C177.099 39.7061 176.088 40.3728 174.438 41.2629C172.588 42.2685 170.775 43.3412 169 44.481C167.113 45.1306 165.647 44.7793 164.603 43.4271C163.438 41.9124 163.38 40.39 164.43 38.8598C164.858 38.2321 165.425 37.6918 166.132 37.239C166.957 36.7081 167.371 36.4411 167.374 36.438C169.139 35.2138 171.033 34.2503 173.055 33.5477C174.024 33.2104 174.867 33.1604 175.586 33.3978Z" fill="#FFDC64"/>
<path d="M163.403 46.3642C170.506 49.3996 176.474 52.7724 181.305 56.4824C184.771 59.1463 187.271 61.996 188.805 65.0315C190.336 68.0701 190.975 71.3007 190.722 74.7234C190.519 77.4685 190.202 80.2011 189.771 82.9211C188.986 86.6811 188.635 90.2335 188.716 93.5781C188.772 95.8735 189.517 97.8565 190.952 99.5273C191.689 100.386 192.646 101.129 193.821 101.757C194.955 102.36 196.105 102.795 197.271 103.064C198.124 103.261 199.352 103.484 200.955 103.734C200.964 103.734 201.635 103.821 202.966 103.996C208.828 104.771 213.722 107.392 217.647 111.861C218.728 113.089 219.76 114.356 220.741 115.665C222.691 118.266 224.805 120.727 227.083 123.048C229.727 125.743 232.953 126.892 236.763 126.495C238.116 126.355 239.444 126.088 240.747 125.694C240.747 137.249 240.747 148.804 240.747 160.359C240.356 160.096 240.186 159.736 240.236 159.277C240.255 159.102 240.237 158.946 240.185 158.827C237.978 153.936 234.672 150.2 230.266 147.617C227.428 145.956 224.677 145.017 222.011 144.802C218.98 144.558 216.025 145.194 213.147 146.708C211.45 147.598 209.781 148.538 208.141 149.528C205.485 150.999 202.688 151.744 199.75 151.763C198.472 151.772 196.533 151.468 193.933 150.849C190.905 150.131 188.971 149.739 188.13 149.674C184.261 149.377 181.136 150.548 178.755 153.187C176.105 156.126 174.731 159.756 174.635 164.078C172.597 163.744 170.572 163.354 168.56 162.907C166.697 162.617 164.822 162.454 162.935 162.42C163.25 162.142 163.377 161.787 163.314 161.357C163.314 161.338 163.3 157.999 163.272 151.341C163.2 132.76 163.235 114.178 163.375 95.5971C163.225 85.0759 163.196 78.1571 163.286 74.8406C163.352 72.4359 163.375 70.5622 163.356 69.2193C163.25 61.5994 163.266 53.981 163.403 46.3642Z" fill="#00AAF0"/>
<path d="M89.8986 47.5821C96.4455 48.4222 102.28 50.8143 107.402 54.7586C110.033 56.7823 112.289 58.934 114.171 61.2137C117.021 64.6708 118.939 68.5494 119.927 72.8497C120.161 73.8771 120.249 75.1013 120.189 76.5223C120.133 77.8839 119.891 79.0753 119.463 80.0965C118.025 83.5285 115.289 85.2899 111.255 85.3804C106.283 85.4897 102.602 83.3521 100.211 78.9675C99.108 76.9439 97.3471 76.249 94.9283 76.883C92.3939 77.545 89.8674 78.2305 87.3486 78.9394C84.9205 79.5203 82.4596 79.8388 79.9658 79.895C78.8377 80.2042 78.2518 79.8857 78.208 78.9394C78.2205 69.1397 78.2111 59.3399 78.1799 49.5402C78.1799 49.5183 78.208 49.2701 78.2643 48.7954C78.3205 48.3425 78.1455 48.0006 77.7393 47.7695L78.5596 47.5727C82.5689 47.123 86.3486 47.1262 89.8986 47.5821Z" fill="#B4E66E"/>
<path d="M77.739 47.7695C78.1453 48.0006 78.3203 48.3425 78.264 48.7953C78.2078 49.27 78.1796 49.5183 78.1796 49.5402C78.2109 59.3399 78.2203 69.1396 78.2078 78.9394C78.2515 79.8856 78.8375 80.2042 79.9656 79.895L77.8562 80.0918C74.3812 80.2198 71.1359 79.6233 68.1203 78.3023C64.9421 76.9095 62.5656 74.9639 60.9906 72.4656C59.3781 69.9079 58.8109 67.0832 59.289 63.9915C59.6828 61.4307 60.775 58.9121 62.5656 56.4356C66.1312 51.5076 71.189 48.6189 77.739 47.7695Z" fill="#A0D755"/>
<path d="M159.902 50.4349C160.902 51.2468 161.337 52.304 161.205 53.6062C161.146 54.2121 160.796 55.2208 160.155 56.6323C159.252 58.6216 158.372 60.6219 157.516 62.633C156.038 64.6536 154.26 65.0439 152.182 63.8041C151.151 63.1858 150.594 62.3083 150.513 61.1715C150.466 60.5407 150.647 59.5991 151.057 58.3468C152.01 55.4331 153.187 52.9582 154.587 50.9221C155.258 49.9415 156.158 49.4543 157.287 49.4605C158.24 49.4699 159.112 49.7947 159.902 50.4349Z" fill="#FFF082"/>
<path d="M3.55957 60.4361C5.32207 60.2487 6.6252 60.7187 7.46895 61.8461C8.24395 62.886 8.45488 64.0321 8.10176 65.2844C7.73301 66.6054 6.73613 67.497 5.11113 67.9592C3.40176 68.4464 1.94707 68.7399 0.74707 68.8398C0.74707 66.2634 0.74707 63.687 0.74707 61.1106C1.6877 60.9014 2.6252 60.6765 3.55957 60.4361Z" fill="#FFDC64"/>
<path d="M21.3723 60.8998C22.3098 61.1184 23.2301 61.3901 24.1332 61.7149C25.7332 62.2864 27.2738 62.9922 28.7551 63.8322C29.727 64.1851 30.4723 64.7551 30.991 65.542C31.5004 66.3072 31.702 67.1628 31.5957 68.1091C31.4332 69.58 30.5645 70.6137 28.9895 71.2102C27.9801 71.5943 26.991 71.5412 26.0223 71.0509C23.7004 69.8798 21.5551 68.9663 19.5863 68.3105C18.927 68.0919 18.3613 67.7781 17.8895 67.369C17.4238 66.9661 17.0848 66.4399 16.8723 65.7903C16.4067 64.3475 16.6738 63.0859 17.6738 62.0053C18.1645 61.4807 18.7145 61.1262 19.3238 60.942C19.977 60.7484 20.6598 60.7343 21.3723 60.8998Z" fill="#FFDC64"/>
<path d="M151.07 72.5083L150.709 72.4493C148.726 72.1248 146.856 73.4679 146.531 75.4491L145.192 83.6223C144.867 85.6035 146.211 87.4726 148.194 87.797L148.555 87.8561C150.537 88.1805 152.408 86.8374 152.732 84.8562L154.072 76.6831C154.396 74.7018 153.052 72.8327 151.07 72.5083Z" fill="#FFF082"/>
<path d="M37.9588 74.7171L37.7345 74.9161C36.2167 76.2628 36.0787 78.584 37.4263 80.1008L42.8352 86.1889C44.1827 87.7057 46.5055 87.8436 48.0233 86.497L48.2476 86.2979C49.7654 84.9513 49.9034 82.63 48.5558 81.1133L43.1469 75.0251C41.7994 73.5083 39.4766 73.3704 37.9588 74.7171Z" fill="#FFDC64"/>
<path d="M0.74707 84.4154C3.69395 84.7309 6.10645 85.6084 7.98457 87.0481C12.5221 90.5301 15.3439 95.1661 16.4502 100.956C17.1721 104.741 18.3924 108.557 20.1111 112.405C22.2393 117.167 25.9408 119.636 31.2158 119.811C32.1564 119.842 33.4408 119.703 35.0689 119.394C36.8283 119.056 38.1018 118.88 38.8893 118.864C43.5924 118.764 47.8408 120.242 51.6346 123.296C54.4533 125.563 56.733 128.161 58.4736 131.091C62.0486 137.112 63.6174 143.648 63.1799 150.7C62.7768 153.154 62.4502 155.62 62.2002 158.096C61.8721 161.322 62.8064 163.594 65.0033 164.912C66.1658 165.615 68.0814 166.021 70.7502 166.13C73.2721 166.233 75.7971 166.219 78.3252 166.088L77.983 180.595C77.9798 180.734 77.9162 180.876 77.8049 180.993C76.7549 182.105 76.3424 183.454 76.5674 185.041C76.5955 185.228 76.6018 185.906 76.5861 187.074C76.5768 187.645 76.6939 188.298 76.9377 189.032C77.1908 189.791 77.3471 190.571 77.4064 191.374C77.4094 191.428 77.4276 191.481 77.4594 191.53C77.4913 191.579 77.5358 191.622 77.5893 191.655C77.7799 191.774 77.7189 191.872 77.4064 191.95C75.1471 192.106 72.9143 191.911 70.708 191.365C49.7611 187.239 28.8283 183.042 7.90957 178.773C6.21582 178.43 4.95332 177.963 4.12207 177.372C2.4377 176.183 1.3127 174.513 0.74707 172.365C0.74707 143.047 0.74707 113.73 0.74707 84.4154Z" fill="#A0D755"/>
<path d="M53.3341 93.2688L53.0814 93.4303C51.3693 94.5245 50.869 96.7985 51.964 98.5094L56.3735 105.4C57.4684 107.111 59.7439 107.611 61.4559 106.517L61.7087 106.355C63.4207 105.261 63.921 102.987 62.8261 101.276L58.4166 94.3855C57.3217 92.6746 55.0462 92.1746 53.3341 93.2688Z" fill="#FFDC64"/>
<path d="M147.635 96.3826L147.272 96.3387C145.28 96.0979 143.47 97.5162 143.229 99.5067L142.234 107.719C141.993 109.71 143.412 111.519 145.404 111.76L145.767 111.804C147.759 112.044 149.569 110.626 149.81 108.636L150.805 100.423C151.046 98.4324 149.626 96.6235 147.635 96.3826Z" fill="#FFF082"/>
<path d="M116.439 108.774C117.974 110.67 118.986 112.957 119.477 115.637C120.061 118.838 119.108 121.43 116.618 123.413C113.814 125.643 110.533 126.658 106.774 126.458C105.246 126.377 103.943 126.202 102.864 125.933C101.477 125.587 100.28 124.999 99.2738 124.172C98.0082 123.132 97.3535 121.717 97.3097 119.928C97.2754 118.535 97.3675 117.375 97.5863 116.447C98.3207 113.346 99.7426 110.476 101.852 107.837C103.008 106.388 104.449 105.503 106.174 105.181C110.433 104.382 113.855 105.579 116.439 108.774Z" fill="#B4E66E"/>
<path d="M65.5917 114.01L65.3362 114.167C63.6074 115.23 63.0682 117.492 64.1317 119.22L68.4153 126.178C69.4788 127.906 71.7423 128.445 73.471 127.382L73.7265 127.225C75.4553 126.162 75.9945 123.9 74.931 122.172L70.6474 115.214C69.5839 113.486 67.3204 112.948 65.5917 114.01Z" fill="#FFDC64"/>
<path d="M145.652 120.949C146.321 121.486 146.76 122.192 146.969 123.066C147.116 123.669 147.078 124.459 146.856 125.437C146.335 127.738 145.711 130.012 144.986 132.257C144.449 133.915 143.43 134.949 141.93 135.358C140.839 135.655 139.794 135.389 138.794 134.562C137.291 133.322 136.891 131.753 137.594 129.854C138.038 128.171 138.52 126.5 139.042 124.842C139.049 124.82 139.172 124.35 139.413 123.432C139.869 121.677 140.903 120.626 142.516 120.279C143.725 120.02 144.771 120.243 145.652 120.949Z" fill="#FFF082"/>
<path d="M84.7986 134.656C86.508 136.398 88.0127 137.783 89.3127 138.811C89.8408 139.229 90.2611 139.688 90.5736 140.188C90.8893 140.691 91.0705 141.268 91.1174 141.921C91.2486 143.723 90.4221 144.98 88.6377 145.692C87.8783 145.995 87.1268 146.048 86.383 145.851C85.9049 145.723 85.283 145.362 84.5174 144.769C82.3768 143.111 80.358 141.31 78.4611 139.368C77.3268 137.694 77.3268 136.016 78.4611 134.332C80.6674 132.496 82.7799 132.604 84.7986 134.656Z" fill="#FFF082"/>
<path d="M136.262 145.341C136.178 146.387 135.723 147.236 134.898 147.889C132.439 149.831 129.716 151.288 126.728 152.259C125.478 152.665 124.333 152.478 123.292 151.697C121.992 150.72 121.495 149.46 121.801 147.917C122.076 146.537 122.937 145.567 124.384 145.008C125.978 144.39 127.494 143.629 128.931 142.727C130.375 141.815 131.416 141.306 132.053 141.2C133.528 140.956 134.694 141.47 135.55 142.741C136.1 143.562 136.337 144.429 136.262 145.341Z" fill="#FFF082"/>
<path d="M230.266 147.617C234.672 150.2 237.979 153.936 240.185 158.827C240.237 158.946 240.255 159.102 240.236 159.277C240.186 159.736 240.357 160.096 240.747 160.359C240.747 163.288 240.747 166.216 240.747 169.142C239.432 174.017 236.219 176.125 231.11 175.466C213.894 172.015 196.677 168.57 179.458 165.132C177.264 164.695 175.657 164.344 174.635 164.078C174.732 159.756 176.105 156.126 178.755 153.187C181.136 150.548 184.261 149.377 188.13 149.674C188.971 149.739 190.905 150.131 193.933 150.849C196.533 151.468 198.472 151.772 199.75 151.763C202.688 151.744 205.485 150.999 208.141 149.528C209.782 148.538 211.45 147.598 213.147 146.708C216.025 145.194 218.98 144.558 222.011 144.802C224.677 145.017 227.429 145.956 230.266 147.617Z" fill="#A0D755"/>
<path d="M104.988 146.544C106.838 146.829 108.692 147.091 110.552 147.331C111.558 147.619 112.316 148.154 112.825 148.938C113.285 149.644 113.449 150.486 113.317 151.463C112.996 153.818 111.371 154.9 108.442 154.709C105.611 154.528 103.125 154.108 100.985 153.449C99.8346 153.096 99.0362 152.608 98.5893 151.983C98.1737 151.405 97.955 150.74 97.9331 149.988C97.9143 149.322 98.0784 148.673 98.4253 148.039C99.1315 146.755 100.183 146.095 101.58 146.057C101.714 146.054 102.85 146.217 104.988 146.544Z" fill="#FFF082"/>
<path d="M79.6142 165.971C81.8455 165.905 84.0705 165.988 86.2892 166.219C95.8049 167.206 102.095 172.192 105.161 181.176C105.302 181.588 105.152 182.213 104.711 183.05C98.6861 185.392 91.883 187.89 84.3017 190.545C81.9799 191.357 79.6814 191.825 77.4064 191.95C77.7189 191.872 77.7799 191.774 77.5892 191.655C77.5358 191.622 77.4913 191.579 77.4594 191.53C77.4276 191.481 77.4094 191.428 77.4064 191.374C77.3471 190.571 77.1908 189.791 76.9377 189.032C76.6939 188.298 76.5767 187.645 76.5861 187.074C76.6017 185.906 76.5955 185.228 76.5674 185.041C76.3424 183.454 76.7549 182.105 77.8049 180.993C77.9162 180.876 77.9798 180.734 77.983 180.595L78.3252 166.088L79.6142 165.971Z" fill="#B4E66E"/>
</g>
<g clip-path="url(#clip1_547_3821)">
<path d="M81.2173 53.1165C108.988 53.1165 136.759 53.1165 164.53 53.1165C164.523 53.1409 164.516 53.1666 164.508 53.1934L81.1807 53.2081C81.1929 53.1763 81.2051 53.1458 81.2173 53.1165Z" fill="#255D7F" fill-opacity="0.988"/>
<path d="M81.1807 53.2081L164.508 53.1934C167.577 53.3154 170.255 54.334 172.543 56.2493C175.895 59.0599 177.571 62.7122 177.571 67.2063C177.591 173.032 177.6 225.945 177.6 225.945C177.7 229.397 176.778 232.409 174.832 234.981C172.285 238.343 168.806 240.18 164.395 240.492C136.685 240.492 108.975 240.492 81.2649 240.492C76.8044 240.153 73.3096 238.285 70.7803 234.889C68.898 232.359 68.0056 229.378 68.1033 225.945C68.2107 222.21 68.1851 206.229 68.0264 178.003L71.3992 181.128L73.5195 183.035L73.6111 214.142C73.5818 220.679 73.5769 224.735 73.5964 226.311C73.6453 230.149 75.3311 232.825 78.6538 234.34C79.6646 234.799 80.8779 235.02 82.2939 235.003C82.2939 235.003 107.776 235.003 158.74 235.003C159.483 235.003 160.062 234.967 160.48 234.896C162.594 235.111 164.12 235.116 165.058 234.911C169.286 233.982 171.636 231.359 172.107 227.043C172.249 225.755 172.213 221.454 172.001 214.142C172.116 213.947 172.151 213.734 172.107 213.502C172.115 198.832 172.11 184.162 172.093 169.494L172.085 157.015C172.086 156.995 172.075 156.97 172.054 156.943C172.034 156.915 172.004 156.885 171.968 156.857C171.927 156.826 171.912 156.773 171.924 156.7C172.073 156.71 172.134 156.644 172.107 156.502C172.107 156.502 172.107 154.795 172.107 151.379C172.107 151.237 172.046 151.172 171.924 151.181C172.105 150.847 172.166 150.486 172.107 150.098C172.115 146.468 172.11 142.838 172.093 139.211C172.11 115.452 172.115 91.6945 172.107 67.9383C172.232 64.0053 170.739 61.2228 167.628 59.5905C166.666 59.0855 165.519 58.7756 164.186 58.661C162.987 58.5585 161.782 58.5451 160.572 58.6207H151.508L94.4631 58.628C94.4583 58.628 94.4229 58.6427 94.3569 58.672L94.302 58.6976C90.4836 58.5902 86.6641 58.5597 82.8433 58.6061C80.5264 58.4768 78.522 59.0599 76.8301 60.3554C75.79 61.1508 74.9966 62.1169 74.4497 63.2539C73.8931 64.4128 73.6147 65.6693 73.6147 67.0233C73.6025 75.8017 73.5964 84.58 73.5964 93.3584L72.1316 93.7244L68.1033 94.4563C68.1033 85.3413 68.1094 76.2274 68.1216 67.1148C68.1265 63.0404 69.562 59.632 72.4282 56.8897C74.8379 54.5841 77.7554 53.3569 81.1807 53.2081Z" fill="#2B6181"/>
<path d="M82.8425 58.606C86.6633 58.5597 90.4829 58.5902 94.3013 58.6975C94.2695 62.7842 94.2646 64.919 94.2866 65.102C94.6577 68.0492 96.2751 69.8791 99.1389 70.5915C100.579 70.6451 102.019 70.7061 103.457 70.7745L103.42 105.772C103.42 105.809 103.399 105.874 103.358 105.97C103.341 106.006 103.333 106.046 103.336 106.09C96.1311 97.3901 86.8171 93.1473 75.3938 93.362C75.3743 93.362 75.0959 93.3986 74.5588 93.4718C74.2366 93.5133 73.9155 93.4754 73.5957 93.3583C73.5957 84.58 73.6018 75.8016 73.614 67.0233C73.614 65.6692 73.8923 64.4127 74.449 63.2538C74.9959 62.1169 75.7893 61.1507 76.8293 60.3553C78.5212 59.0598 80.5256 58.4767 82.8425 58.606Z" fill="#6DE470"/>
<path d="M94.4627 58.628L151.507 58.6207C151.4 60.6579 151.369 62.6963 151.416 64.736C151.133 68.2102 149.271 70.1926 145.831 70.683C141.71 70.6293 137.59 70.6647 133.471 70.7891C133.025 70.6647 132.567 70.6293 132.098 70.683C122.55 70.6366 113.003 70.6671 103.457 70.7745C102.019 70.7061 100.58 70.6451 99.1392 70.5915C96.2754 69.8791 94.658 68.0492 94.2869 65.102C94.2649 64.919 94.2698 62.7842 94.3016 58.6975L94.3565 58.6719C94.4224 58.6426 94.4578 58.628 94.4627 58.628Z" fill="#4380A0"/>
<path d="M151.508 58.6207H160.571C160.51 58.9134 160.579 59.144 160.776 59.3123C161.035 59.5295 161.171 59.6454 161.183 59.66C162.975 61.8265 163.871 64.342 163.871 67.2063C163.868 70.9879 163.867 74.7696 163.867 78.5513C163.867 78.9734 163.801 79.2783 163.669 79.4662C163.064 79.21 162.428 79.0819 161.761 79.0819C158.8 79.0868 155.84 79.0978 152.881 79.1149C150.439 79.0978 147.998 79.0929 145.557 79.1002C144.033 78.9392 143.301 79.6101 143.359 81.1131C143.359 86.6318 143.372 92.1519 143.396 97.6731C143.398 98.5148 143.722 99.0028 144.366 99.137C145.131 99.2956 147.938 99.3212 152.789 99.2138C156.42 99.3065 160.046 99.2504 163.669 99.0455C163.882 99.7286 163.948 100.43 163.867 101.15C163.918 103.926 163.883 106.702 163.761 109.476C163.6 109.066 163.361 108.852 163.043 108.835C160.673 108.703 157.285 108.678 152.881 108.758L144.854 108.744C144.089 108.744 143.627 109.118 143.466 109.867C143.373 110.306 143.337 110.908 143.359 111.671C143.359 111.671 143.362 116.856 143.367 127.225C143.367 127.742 143.528 128.151 143.85 128.451C144.084 128.668 144.462 128.785 144.982 128.802C147.614 128.897 150.247 128.916 152.881 128.857C155.933 128.874 158.984 128.879 162.036 128.872C162.659 128.952 163.203 128.8 163.669 128.414C163.782 128.834 163.848 129.261 163.867 129.695C163.86 132.867 163.865 136.039 163.882 139.21C163.867 139.267 163.832 139.302 163.776 139.317L133.834 139.302C133.787 139.302 133.739 139.293 133.695 139.274C133.652 139.256 133.612 139.229 133.578 139.196C133.544 139.162 133.517 139.122 133.499 139.078C133.481 139.034 133.472 138.987 133.472 138.94V70.7891C137.59 70.6647 141.71 70.6293 145.831 70.683C149.271 70.1926 151.133 68.2102 151.416 64.736C151.37 62.6963 151.4 60.6579 151.508 58.6207Z" fill="#6DE470"/>
<path d="M160.571 58.6207C161.782 58.5451 162.987 58.5585 164.186 58.6609C165.519 58.7756 166.666 59.0855 167.628 59.5905C170.739 61.2227 172.232 64.0053 172.107 67.9382C172.114 91.6944 172.109 115.452 172.092 139.21H163.882C163.865 136.039 163.86 132.867 163.867 129.695C163.848 129.261 163.782 128.834 163.67 128.414C163.862 127.08 163.928 125.738 163.867 124.389C163.919 119.416 163.883 114.445 163.761 109.476C163.883 106.702 163.919 103.926 163.867 101.15C163.948 100.43 163.882 99.7286 163.67 99.0455C163.84 97.1595 163.906 95.2687 163.867 93.373C163.867 93.373 163.867 89.6828 163.867 82.3025C163.867 81.5242 163.801 80.5788 163.67 79.4662C163.801 79.2784 163.867 78.9734 163.867 78.5513C163.867 74.7696 163.869 70.988 163.871 67.2063C163.871 64.342 162.975 61.8266 161.183 59.66C161.171 59.6454 161.035 59.5295 160.776 59.3124C160.579 59.144 160.51 58.9135 160.571 58.6207Z" fill="#45D987"/>
<path d="M132.098 70.683C132.567 70.6293 133.025 70.6647 133.472 70.7891V138.94C133.472 138.987 133.481 139.034 133.499 139.078C133.517 139.122 133.544 139.162 133.578 139.196C133.612 139.229 133.652 139.256 133.695 139.274C133.739 139.293 133.787 139.302 133.834 139.302L163.776 139.317C164 141.054 163.97 142.787 163.684 144.517C163.958 152.807 163.988 161.098 163.776 169.388L133.732 169.381C133.663 169.381 133.597 169.408 133.548 169.456C133.499 169.504 133.472 169.569 133.472 169.637V214.036C132.527 214.124 131.581 214.19 130.634 214.234C129.32 214.083 128.008 214.083 126.697 214.234C125.078 213.897 123.447 213.652 121.804 213.498C120.908 213.415 119.36 213.368 117.161 213.356C115.608 213.346 114.056 213.303 112.506 213.227C109.554 214.116 106.538 214.39 103.457 214.051L103.42 169.611C103.42 169.587 103.416 169.564 103.406 169.541C103.397 169.519 103.384 169.499 103.367 169.482C103.35 169.465 103.33 169.452 103.307 169.442C103.285 169.433 103.261 169.428 103.237 169.428L93.5547 169.297C97.4805 164.229 100.902 158.842 103.82 153.136C106.256 148.373 108.062 143.403 109.236 138.226C109.844 135.542 110.251 133.138 110.459 131.013C111.353 121.871 108.978 113.563 103.336 106.09C103.334 106.046 103.341 106.006 103.358 105.97C103.4 105.874 103.42 105.809 103.42 105.772L103.457 70.7745C113.003 70.6671 122.55 70.6366 132.098 70.683ZM121.368 80.0847C121.368 79.3936 121.094 78.7309 120.605 78.2422C120.116 77.7535 119.453 77.479 118.761 77.479H118.519C117.828 77.479 117.165 77.7535 116.676 78.2422C116.187 78.7309 115.912 79.3936 115.912 80.0847V87.5431C115.912 88.2342 116.187 88.897 116.676 89.3856C117.165 89.8743 117.828 90.1488 118.519 90.1488H118.761C119.453 90.1488 120.116 89.8743 120.605 89.3856C121.094 88.897 121.368 88.2342 121.368 87.5431V80.0847ZM121.357 100.963C121.357 100.274 121.083 99.6131 120.596 99.1258C120.108 98.6386 119.447 98.3648 118.757 98.3648H118.523C117.833 98.3648 117.172 98.6386 116.684 99.1258C116.197 99.6131 115.923 100.274 115.923 100.963V108.473C115.923 109.162 116.197 109.823 116.684 110.31C117.172 110.797 117.833 111.071 118.523 111.071H118.757C119.447 111.071 120.108 110.797 120.596 110.31C121.083 109.823 121.357 109.162 121.357 108.473V100.963ZM121.557 124.215C121.56 123.526 121.288 122.864 120.802 122.375C120.316 121.886 119.656 121.61 118.966 121.608L118.725 121.607C118.035 121.605 117.373 121.876 116.883 122.362C116.394 122.847 116.118 123.507 116.115 124.196L116.089 131.699C116.087 132.388 116.358 133.05 116.844 133.539C117.33 134.028 117.991 134.304 118.68 134.306L118.922 134.307C119.611 134.309 120.274 134.038 120.763 133.552C121.252 133.067 121.529 132.407 121.531 131.718L121.557 124.215ZM155.573 153.846C155.574 153.505 155.508 153.166 155.378 152.851C155.249 152.535 155.058 152.248 154.818 152.006C154.577 151.764 154.291 151.571 153.976 151.44C153.661 151.308 153.323 151.239 152.982 151.238L145.475 151.212C144.785 151.21 144.123 151.481 143.633 151.967C143.144 152.452 142.868 153.112 142.865 153.801L142.865 154.036C142.863 154.377 142.93 154.715 143.059 155.031C143.189 155.346 143.379 155.633 143.62 155.876C143.86 156.118 144.146 156.31 144.461 156.442C144.776 156.573 145.114 156.642 145.456 156.643L152.963 156.669C153.652 156.672 154.315 156.4 154.804 155.915C155.293 155.429 155.57 154.769 155.572 154.08L155.573 153.846ZM121.557 175.085C121.56 174.396 121.288 173.734 120.802 173.245C120.316 172.756 119.656 172.48 118.966 172.477L118.725 172.477C118.035 172.474 117.373 172.746 116.883 173.231C116.394 173.717 116.118 174.377 116.115 175.066L116.089 182.568C116.087 183.257 116.358 183.919 116.844 184.408C117.33 184.897 117.991 185.173 118.68 185.176L118.922 185.176C119.611 185.179 120.274 184.907 120.763 184.422C121.252 183.936 121.529 183.276 121.531 182.587L121.557 175.085ZM121.541 197.27C121.54 196.579 121.264 195.917 120.774 195.429C120.285 194.941 119.621 194.668 118.929 194.669L118.695 194.669C118.003 194.671 117.341 194.946 116.853 195.436C116.364 195.925 116.091 196.589 116.092 197.28L116.105 204.723C116.106 205.415 116.382 206.077 116.872 206.565C117.362 207.052 118.026 207.326 118.717 207.325L118.951 207.324C119.643 207.323 120.306 207.047 120.794 206.558C121.282 206.068 121.556 205.405 121.554 204.714L121.541 197.27Z" fill="#5297BA"/>
<path d="M118.761 77.479H118.52C117.079 77.479 115.912 78.6456 115.912 80.0847V87.5431C115.912 88.9822 117.079 90.1488 118.52 90.1488H118.761C120.201 90.1488 121.369 88.9822 121.369 87.5431V80.0847C121.369 78.6456 120.201 77.479 118.761 77.479Z" fill="#F3F3F3"/>
<path d="M145.557 79.1002C147.998 79.0929 150.44 79.0978 152.881 79.1149L152.79 99.2138C147.939 99.3212 145.131 99.2955 144.367 99.137C143.722 99.0028 143.399 98.5148 143.396 97.6731C143.372 92.1518 143.36 86.6318 143.36 81.113C143.301 79.6101 144.034 78.9392 145.557 79.1002Z" fill="#F3F3F3"/>
<path d="M152.881 79.1149C155.84 79.0978 158.8 79.0868 161.761 79.0819C162.428 79.0819 163.064 79.21 163.669 79.4662C163.801 80.5787 163.867 81.5242 163.867 82.3025C163.867 89.6828 163.867 93.373 163.867 93.373C163.906 95.2687 163.84 97.1595 163.669 99.0455C160.046 99.2504 156.419 99.3065 152.789 99.2138L152.881 79.1149Z" fill="#E4E4E4"/>
<path d="M73.5957 93.3583C73.9155 93.4755 74.2366 93.5133 74.5588 93.4718C75.0959 93.3986 75.3743 93.362 75.3938 93.362C86.8171 93.1473 96.1311 97.3901 103.336 106.09C108.978 113.563 111.352 121.871 110.458 131.013C110.251 133.138 109.843 135.542 109.235 138.226C108.061 143.403 106.256 148.373 103.819 153.136C100.902 158.842 97.48 164.229 93.5542 169.297C90.229 173.432 86.6121 177.293 82.7034 180.88C81.2556 182.209 79.7065 183.406 78.0561 184.47C77.2822 184.97 76.5046 184.972 75.7234 184.477C74.9983 183.984 74.2634 183.504 73.5188 183.035L71.3984 181.128C77.9292 175.212 83.5322 168.543 88.2075 161.121C89.6309 158.859 90.8625 156.755 91.9026 154.808C94.1609 150.587 95.9785 146.171 97.3555 141.56C98.8179 136.661 99.5649 131.974 99.5967 127.499C99.6479 120.405 97.7046 113.961 93.7666 108.169C92.3799 106.129 90.7991 104.275 89.0242 102.606C84.488 98.3343 79.0913 95.4907 72.834 94.0756C72.7942 94.0668 72.7548 94.0415 72.72 94.0022C72.6852 93.9629 72.6562 93.9111 72.6362 93.8524C72.5801 93.6914 72.4116 93.6487 72.1309 93.7243L73.5957 93.3583Z" fill="#E33629"/>
<path d="M72.131 93.7243C72.4117 93.6487 72.5802 93.6914 72.6364 93.8524C72.6564 93.9111 72.6853 93.9629 72.7201 94.0022C72.7549 94.0415 72.7943 94.0668 72.8341 94.0756C79.0914 95.4907 84.4882 98.3343 89.0243 102.606C90.7992 104.275 92.38 106.129 93.7667 108.169C97.7047 113.961 99.6481 120.405 99.5968 127.499C99.5651 131.974 98.818 136.661 97.3556 141.56C95.9786 146.171 94.161 150.587 91.9027 154.808C90.8627 156.755 89.631 158.859 88.2076 161.121C83.5323 168.543 77.9293 175.212 71.3986 181.128L68.0258 178.003C62.225 172.094 57.1932 165.591 52.9305 158.493C50.1156 153.804 47.8109 148.787 46.0165 143.441C44.6005 139.228 43.7106 134.982 43.3468 130.705C42.5948 121.866 44.7164 114.037 49.7115 107.218C51.1764 105.219 52.8134 103.416 54.6224 101.809C58.265 98.5783 62.3995 96.2617 67.026 94.8588C67.6022 94.6856 67.9611 94.5514 68.1027 94.4562L72.131 93.7243ZM93.3383 127.042C93.3383 122.683 91.6055 118.503 88.5212 115.42C85.4369 112.338 81.2536 110.606 76.8917 110.606C72.5298 110.606 68.3466 112.338 65.2623 115.42C62.1779 118.503 60.4452 122.683 60.4452 127.042C60.4452 131.401 62.1779 135.581 65.2623 138.664C68.3466 141.746 72.5298 143.478 76.8917 143.478C81.2536 143.478 85.4369 141.746 88.5212 138.664C91.6055 135.581 93.3383 131.401 93.3383 127.042Z" fill="#F75632"/>
<path d="M118.757 98.3648H118.523C117.087 98.3648 115.923 99.5281 115.923 100.963V108.473C115.923 109.908 117.087 111.071 118.523 111.071H118.757C120.193 111.071 121.357 109.908 121.357 108.473V100.963C121.357 99.5281 120.193 98.3648 118.757 98.3648Z" fill="#F3F3F3"/>
<path d="M144.854 108.744L152.881 108.758V128.857C150.247 128.916 147.614 128.897 144.982 128.802C144.462 128.785 144.085 128.668 143.851 128.451C143.528 128.151 143.367 127.742 143.367 127.225C143.362 116.856 143.36 111.671 143.36 111.671C143.338 110.908 143.373 110.306 143.466 109.867C143.627 109.118 144.09 108.744 144.854 108.744Z" fill="#FFD54F"/>
<path d="M152.881 108.758C157.285 108.678 160.673 108.703 163.043 108.835C163.361 108.852 163.6 109.066 163.761 109.476C163.883 114.445 163.918 119.416 163.867 124.389C163.928 125.738 163.862 127.08 163.669 128.414C163.203 128.8 162.659 128.952 162.036 128.872C158.984 128.879 155.933 128.874 152.881 128.857V108.758Z" fill="#FFC328"/>
<path d="M76.8918 143.478C85.975 143.478 93.3384 136.119 93.3384 127.042C93.3384 117.965 85.975 110.606 76.8918 110.606C67.8087 110.606 60.4453 117.965 60.4453 127.042C60.4453 136.119 67.8087 143.478 76.8918 143.478Z" fill="#F3F3F3"/>
<path d="M118.966 121.608L118.724 121.607C117.288 121.602 116.12 122.761 116.115 124.196L116.089 131.699C116.084 133.134 117.244 134.301 118.68 134.306L118.921 134.307C120.357 134.312 121.526 133.153 121.531 131.718L121.557 124.215C121.562 122.78 120.402 121.613 118.966 121.608Z" fill="#F3F3F3"/>
<path d="M163.881 139.21H172.092C172.109 142.838 172.114 146.468 172.106 150.098C172.165 150.486 172.104 150.847 171.923 151.181C170.249 151.135 169.249 151.178 168.924 151.309C166.837 152.166 166.33 153.58 167.404 155.551C167.768 156.219 168.295 156.567 168.986 156.594L171.923 156.7C171.911 156.773 171.926 156.826 171.967 156.857C172.003 156.885 172.033 156.915 172.054 156.942C172.074 156.97 172.085 156.995 172.084 157.015L172.092 169.494L163.867 169.417L163.775 169.388C163.988 161.098 163.957 152.807 163.684 144.517C163.969 142.787 164 141.054 163.775 139.317C163.831 139.302 163.867 139.267 163.881 139.21Z" fill="#4380A0"/>
<path d="M152.981 151.238L145.474 151.212C144.038 151.207 142.87 152.366 142.865 153.801L142.864 154.036C142.859 155.471 144.019 156.638 145.455 156.643L152.962 156.669C154.398 156.674 155.567 155.515 155.572 154.08L155.572 153.846C155.577 152.411 154.417 151.243 152.981 151.238Z" fill="#F3F3F3"/>
<path d="M171.924 151.181C172.046 151.171 172.107 151.237 172.107 151.379C172.107 154.795 172.107 156.502 172.107 156.502C172.134 156.644 172.073 156.71 171.924 156.7L168.987 156.594C168.296 156.567 167.769 156.219 167.405 155.551C166.331 153.58 166.837 152.166 168.925 151.309C169.249 151.178 170.249 151.135 171.924 151.181Z" fill="#F3F3F3"/>
<path d="M93.5549 169.297L103.238 169.428C103.286 169.428 103.333 169.448 103.367 169.482C103.401 169.516 103.421 169.563 103.421 169.611L103.457 214.051L73.6111 214.142L73.5195 183.035C74.2642 183.504 74.999 183.984 75.7241 184.477C76.5054 184.972 77.283 184.97 78.0569 184.47C79.7073 183.406 81.2563 182.209 82.7041 180.88C86.6128 177.293 90.2297 173.432 93.5549 169.297Z" fill="#29CEF6"/>
<path d="M133.732 169.381L163.776 169.388L163.867 169.417C163.867 184.129 163.867 198.842 163.867 213.557C163.867 213.564 163.853 213.65 163.823 213.813C163.801 213.933 163.846 214.037 163.959 214.128L163.867 214.157C149.221 214.13 139.211 214.125 133.838 214.142C133.669 214.142 133.547 214.107 133.472 214.036V169.637C133.472 169.569 133.499 169.504 133.548 169.456C133.597 169.408 133.663 169.381 133.732 169.381Z" fill="#F78E36"/>
<path d="M163.867 169.417L172.092 169.494C172.109 184.162 172.114 198.831 172.106 213.502C172.15 213.734 172.115 213.947 172 214.142L163.958 214.128C163.846 214.037 163.801 213.933 163.823 213.813C163.852 213.65 163.867 213.564 163.867 213.557C163.867 198.842 163.867 184.129 163.867 169.417Z" fill="#F86F1B"/>
<path d="M118.966 172.477L118.724 172.477C117.288 172.472 116.12 173.631 116.115 175.066L116.089 182.568C116.084 184.003 117.244 185.171 118.68 185.176L118.921 185.176C120.357 185.181 121.526 184.022 121.531 182.587L121.557 175.085C121.562 173.65 120.402 172.482 118.966 172.477Z" fill="#F3F3F3"/>
<path d="M118.93 194.669L118.695 194.669C117.255 194.672 116.09 195.841 116.092 197.28L116.105 204.723C116.108 206.163 117.277 207.327 118.717 207.325L118.952 207.324C120.392 207.322 121.557 206.153 121.555 204.714L121.542 197.27C121.539 195.831 120.37 194.667 118.93 194.669Z" fill="#F3F3F3"/>
<path d="M112.506 213.227C114.056 213.303 115.607 213.346 117.16 213.356C119.36 213.368 120.908 213.415 121.804 213.498C123.447 213.652 125.078 213.897 126.696 214.234C128.007 214.083 129.32 214.083 130.633 214.234C131.58 214.19 132.526 214.124 133.471 214.036C133.547 214.107 133.669 214.142 133.837 214.142C139.211 214.125 149.221 214.13 163.867 214.157L163.951 215.877C163.958 215.994 163.926 216.113 163.859 216.217C163.203 217.276 162.968 218.416 163.156 219.636C163.232 220.126 163.244 220.611 163.193 221.092C163.1 221.98 163.217 222.828 163.544 223.636C163.764 224.172 163.875 224.641 163.878 225.041C163.895 226.417 163.861 227.42 163.775 228.049C163.453 230.465 162.53 232.501 161.007 234.157C160.714 234.477 160.538 234.723 160.479 234.896C160.062 234.967 159.482 235.003 158.74 235.003C107.775 235.003 82.2932 235.003 82.2932 235.003C80.8772 235.02 79.6638 234.799 78.6531 234.34C75.3303 232.825 73.6445 230.149 73.5957 226.311C73.5762 224.735 73.5811 220.679 73.6103 214.142L103.457 214.051C106.538 214.39 109.554 214.116 112.506 213.227ZM123.034 223.017C121.401 222.905 119.302 222.872 116.739 222.918C116.739 222.918 116.48 222.912 115.963 222.9C114.974 222.878 114.172 223.198 113.557 223.859C113.173 224.269 112.929 224.741 112.824 225.275C112.705 225.873 112.789 226.424 113.077 226.929C113.704 228.025 114.735 228.52 116.168 228.415C120.697 228.457 125.224 228.433 129.75 228.346C130.571 228.328 131.192 228.193 131.614 227.939C132.264 227.551 132.659 226.998 132.801 226.278C132.977 225.373 132.745 224.564 132.105 223.851C131.265 222.917 130.073 222.639 128.527 223.017C127.729 223.212 125.898 223.212 123.034 223.017Z" fill="#4380A0"/>
<path d="M163.867 214.157L163.958 214.128L172 214.142C172.213 221.454 172.248 225.755 172.107 227.043C171.635 231.359 169.286 233.981 165.057 234.911C164.12 235.116 162.594 235.111 160.479 234.896C160.538 234.723 160.714 234.477 161.007 234.157C162.53 232.501 163.453 230.465 163.775 228.049C163.861 227.42 163.895 226.417 163.878 225.041C163.875 224.641 163.764 224.172 163.545 223.636C163.218 222.828 163.1 221.98 163.193 221.092C163.244 220.611 163.232 220.126 163.156 219.636C162.969 218.416 163.203 217.276 163.86 216.217C163.926 216.113 163.958 215.994 163.951 215.877L163.867 214.157Z" fill="#3B7191"/>
<path d="M116.74 222.918C119.303 222.872 121.402 222.905 123.035 223.017C125.899 223.212 127.73 223.212 128.528 223.017C130.074 222.639 131.266 222.917 132.106 223.851C132.746 224.564 132.978 225.373 132.802 226.278C132.66 226.998 132.265 227.551 131.615 227.939C131.193 228.193 130.572 228.328 129.751 228.346C125.225 228.433 120.697 228.457 116.169 228.415C114.736 228.52 113.705 228.025 113.078 226.929C112.79 226.424 112.705 225.873 112.825 225.275C112.93 224.741 113.174 224.269 113.558 223.859C114.173 223.198 114.975 222.878 115.964 222.9C116.481 222.912 116.74 222.918 116.74 222.918Z" fill="#2B6181"/>
</g>
<defs>
<clipPath id="clip0_547_3821">
<rect width="241" height="193" fill="white"/>
</clipPath>
<clipPath id="clip1_547_3821">
<rect width="187.5" height="187.376" fill="white" transform="translate(16.6504 53.1165)"/>
</clipPath>
</defs>
</svg>
