<svg width="188" height="196" viewBox="0 0 188 196" fill="none" xmlns="http://www.w3.org/2000/svg">
<path d="M187.819 97.7734C187.819 123.614 177.969 148.396 160.436 166.668C142.903 184.94 119.122 195.205 94.3267 195.205C69.5309 195.205 45.7506 184.94 28.2174 166.668C10.6841 148.396 0.833984 123.614 0.833984 97.7734C0.833984 71.9329 10.6841 47.1508 28.2174 28.8788C45.7506 10.6068 69.5309 0.341675 94.3267 0.341675C119.122 0.341675 142.903 10.6068 160.436 28.8788C177.969 47.1508 187.819 71.9329 187.819 97.7734ZM178.692 97.7556C178.692 86.2092 176.509 74.7759 172.269 64.1085C168.029 53.4411 161.815 43.7484 153.98 35.5839C146.146 27.4194 136.845 20.943 126.609 16.5244C116.373 12.1058 105.402 9.83161 94.3224 9.83161C71.9462 9.83161 50.4866 19.095 34.6643 35.5839C18.842 52.0729 9.95312 74.4367 9.95312 97.7556C9.95312 121.074 18.842 143.438 34.6643 159.927C50.4866 176.416 71.9462 185.68 94.3224 185.68C105.402 185.68 116.373 183.405 126.609 178.987C136.845 174.568 146.146 168.092 153.98 159.927C161.815 151.763 168.029 142.07 172.269 131.403C176.509 120.735 178.692 109.302 178.692 97.7556Z" fill="#0A0A8E"/>
<path d="M103.549 26.1314C107.387 27.4916 110.447 30.0598 112.728 33.8361C112.755 33.8811 112.79 33.92 112.832 33.9505C112.873 33.981 112.921 34.0025 112.971 34.0137C113.021 34.025 113.072 34.0258 113.123 34.016C113.173 34.0062 113.221 33.9861 113.265 33.9569L122.736 27.4602C122.8 27.4151 122.879 27.3969 122.953 27.4094C123.028 27.422 123.093 27.4644 123.135 27.5274L124.629 29.8316C124.941 30.3118 124.832 30.725 124.303 31.071L116.94 35.8764C116.869 35.9233 116.81 35.9879 116.77 36.0644C116.729 36.141 116.707 36.227 116.706 36.3149C116.705 36.4027 116.725 36.4896 116.765 36.5677C116.804 36.6458 116.861 36.7126 116.931 36.7623C121.473 39.9479 123.447 44.5773 122.852 50.6504C122.841 50.768 122.869 50.886 122.931 50.9846C122.994 51.0832 123.087 51.1564 123.195 51.1918C126.636 52.3282 128.804 54.4148 129.7 57.4513C130.452 60.0076 130.273 62.455 129.163 64.7936C127.995 67.2514 125.934 68.8816 122.98 69.684C122.5 69.8152 120.317 69.933 116.433 70.0374C102.408 70.0165 88.383 70.0106 74.3579 70.0195C73.8627 69.9837 73.3976 70.0896 72.9626 70.3372C72.3987 70.3611 71.8921 70.546 71.4427 70.892C69.6366 72.282 68.8495 73.9673 69.0814 75.9479C69.2645 77.502 69.9 78.7652 70.9876 79.7376C72.1297 80.7578 73.5751 81.1679 75.3239 80.9681C75.6817 80.9293 75.9379 80.7473 76.0924 80.4222C76.1869 80.8965 76.4674 81.0829 76.9339 80.9815C76.9339 80.9815 87.9178 80.9815 109.886 80.9815C110.91 81.2171 111.942 81.4036 112.981 81.5408C113.734 82.2238 114.518 82.8667 115.334 83.4692C117.793 85.8614 118.767 88.6862 118.258 91.9435C117.525 96.6176 114.806 99.3022 110.1 99.9972C108.858 99.9196 107.636 100.031 106.434 100.333C98.9976 100.201 91.5615 100.164 84.1254 100.221C83.2209 100.209 82.4338 100.501 81.764 101.098L81.6051 101.116C81.4773 101.133 81.3738 101.17 81.3132 101.219C80.1483 102.161 79.4556 103.329 79.2352 104.722C79.0291 106.025 79.261 107.281 79.9307 108.489C80.7093 109.888 81.867 110.746 83.4041 111.062C83.7962 111.143 85.14 111.183 87.4356 111.183C93.2373 111.183 99.0391 111.183 104.841 111.183C107.457 110.664 109.007 109.02 109.491 106.252C109.517 106.098 109.595 105.958 109.71 105.857C109.825 105.757 109.971 105.702 110.122 105.702H112.822C112.874 105.702 112.926 105.713 112.974 105.734C113.022 105.755 113.065 105.785 113.102 105.824C113.138 105.863 113.167 105.909 113.186 105.959C113.205 106.01 113.214 106.064 113.213 106.118C113.161 108.096 112.535 109.875 111.333 111.456C110.168 112.989 108.755 114.04 107.095 114.61C106.176 114.926 104.512 115.11 102.102 115.16C96.7894 115.268 91.4771 115.247 86.1647 115.098C83.5343 115.342 81.2803 114.764 79.4026 113.362C77.5508 111.981 76.3286 110.121 75.7361 107.782C75.0635 105.143 75.5615 102.576 77.2302 100.082C78.0345 98.8801 79.2595 97.7645 80.9053 96.7354C82.7973 96.1597 84.7293 95.942 86.7014 96.0822C93.9944 96.0404 101.287 96.0672 108.58 96.1627C108.611 96.1639 108.641 96.1551 108.665 96.1378C108.688 96.1206 108.704 96.0961 108.709 96.0687L108.722 95.9703C111.364 96.2089 113.174 95.1933 114.153 92.9233C115.344 90.1552 114.717 87.8435 112.273 85.9882C112.09 85.848 111.944 85.8197 111.835 85.9032C111.205 85.408 110.484 85.147 109.671 85.1202C109.671 85.1202 99.3311 85.1202 78.6513 85.1202C78.3393 85.1202 78.1246 85.1634 78.0073 85.2499C77.1543 85.0859 76.2971 84.98 75.4356 84.9323C74.0302 84.8488 73.1729 84.7772 72.8638 84.7175C69.2288 84.0076 66.8731 81.7466 65.7969 77.9345C65.2932 76.1478 65.3647 74.2641 66.0116 72.2835C66.9418 69.4379 68.9311 67.3782 71.9794 66.1045C72.778 66.0986 73.5708 66.024 74.3579 65.8808C103.124 65.8808 117.506 65.8808 117.506 65.8808C117.672 65.9107 117.75 65.8361 117.738 65.6571C118.723 65.9315 120.005 66.0061 121.585 65.8808C123.391 65.7376 124.728 64.9666 125.595 63.5676C126.792 61.6347 126.913 59.6929 125.96 57.7421C125.31 56.4177 124.346 55.5229 123.066 55.0576C122.399 54.813 121.183 54.6951 119.417 54.7041C102.358 54.8055 85.2989 54.8025 68.2399 54.6951C66.242 54.7757 64.9268 54.7294 64.2942 54.5564C61.4806 53.7809 59.686 52.1791 58.9103 49.7511C58.189 47.4871 58.3923 45.3156 59.52 43.2365C60.725 41.0113 62.7772 39.7705 65.6767 39.5139C65.691 39.5109 65.9672 39.5214 66.5053 39.5453C67.0091 39.5661 67.4127 39.3633 67.7161 38.9368C68.0137 38.5192 68.1683 38.3029 68.1797 38.288C72.1125 33.8853 77.0327 32.0837 82.9404 32.8831C83.1009 32.9048 83.2639 32.8823 83.4131 32.818C83.5623 32.7536 83.6924 32.6495 83.7905 32.5162C86.7958 28.4565 90.5611 26.0687 95.0864 25.3529C97.9744 24.8995 100.795 25.159 103.549 26.1314ZM110.706 38.1672C109.584 35.25 107.839 32.9785 105.472 31.3529C103.254 29.8256 100.705 29.0441 97.8255 29.0083C92.8767 28.9427 88.9239 31.2514 85.9672 35.9345C85.9586 35.9494 85.8398 36.1821 85.6109 36.6325C85.296 37.2589 84.8123 37.4558 84.1597 37.2231C83.6416 37.0412 83.3812 36.9487 83.3783 36.9457C78.2921 35.7019 74.0774 37.0784 70.7343 41.0755C68.8624 43.3186 67.915 46.0046 67.8921 49.1336C67.8921 49.1515 67.8821 49.3365 67.862 49.6884C67.8191 50.4312 68.1568 50.7742 68.8753 50.7175C69.3075 50.6817 69.5279 50.6638 69.5365 50.6638C85.8484 50.5475 102.086 50.549 118.249 50.6683C118.873 50.6713 119.222 50.3491 119.297 49.7018C119.709 46.0896 118.618 43.1649 116.025 40.9278C114.648 39.7436 113.074 38.9919 111.302 38.6728C111.17 38.648 111.045 38.5886 110.941 38.5002C110.836 38.4117 110.755 38.2971 110.706 38.1672ZM63.5429 50.0956C63.9522 50.4893 64.1583 50.3954 64.1611 49.8137C64.1697 48.0359 64.3858 46.2537 64.8094 44.467C65.0585 43.423 64.7737 43.2291 63.9551 43.8853C61.462 45.8898 61.3246 47.9599 63.5429 50.0956Z" fill="#0B0B9C"/>
<path d="M73.2842 58.9234C85.841 58.9592 98.3991 58.9234 110.959 58.816C113.678 58.7921 116.441 58.8369 119.249 58.9502C119.296 58.9526 119.341 58.9652 119.382 58.9872C119.423 59.0092 119.459 59.04 119.486 59.0772C119.514 59.1143 119.532 59.1569 119.54 59.2016C119.548 59.2463 119.546 59.2919 119.533 59.335L117.738 65.6571C117.749 65.8361 117.672 65.9107 117.506 65.8809C117.506 65.8809 103.123 65.8809 74.3576 65.8809C73.5705 66.024 72.7776 66.0986 71.9791 66.1046C72.0191 65.7586 71.9447 65.3574 71.7558 64.901C71.0517 63.2037 70.5508 61.3887 70.2531 59.4558C70.2459 59.4071 70.2482 59.3574 70.2601 59.3098C70.2719 59.2621 70.2929 59.2174 70.3218 59.1785C70.3507 59.1395 70.387 59.1071 70.4283 59.0833C70.4696 59.0594 70.5152 59.0446 70.5622 59.0397C71.4095 58.9592 72.3168 58.9204 73.2842 58.9234Z" fill="#FFC4E8"/>
<path d="M74.3582 70.0195C88.3833 70.0106 102.408 70.0166 116.433 70.0374C115.034 73.7928 113.883 77.6273 112.981 81.5408C111.942 81.4036 110.911 81.2172 109.886 80.9815C87.9182 80.9815 76.9343 80.9815 76.9343 80.9815C76.4677 81.0829 76.1872 80.8965 76.0928 80.4222C75.194 77.0098 74.1507 73.6482 72.9629 70.3372C73.398 70.0896 73.8631 69.9837 74.3582 70.0195Z" fill="#FFC4E8"/>
<path d="M78.6508 85.1202C99.3306 85.1202 109.671 85.1202 109.671 85.1202C110.483 85.1471 111.205 85.4081 111.834 85.9032C110.472 88.8026 109.429 91.8227 108.705 94.9636C108.53 95.3096 108.536 95.6452 108.722 95.9704L108.709 96.0688C108.704 96.0961 108.688 96.1206 108.664 96.1379C108.641 96.1551 108.611 96.1639 108.58 96.1627C101.287 96.0673 93.994 96.0404 86.7009 96.0822C84.7288 95.942 82.7968 96.1598 80.9049 96.7355C80.9993 96.2582 80.9278 95.6676 80.6902 94.9636C79.9403 92.7384 79.2204 90.5028 78.5306 88.2567C78.2301 87.2783 78.0555 86.2761 78.0068 85.25C78.1242 85.1635 78.3389 85.1202 78.6508 85.1202Z" fill="#FFC4E8"/>
<path d="M84.125 100.221C91.5612 100.164 98.9973 100.202 106.433 100.333C106.499 100.989 106.398 101.809 106.129 102.794C105.442 105.302 105.004 106.673 104.815 106.905C104.148 107.723 103.288 108.085 102.235 107.993C101.719 107.948 101.453 107.926 101.436 107.926C96.7046 107.773 91.9719 107.782 87.2377 107.952C86.3018 107.985 85.4102 107.815 84.563 107.442C84.439 107.388 84.3389 107.282 84.2839 107.147C83.5969 105.465 82.963 103.762 82.3819 102.037C82.2302 101.685 82.0241 101.372 81.7637 101.098C82.4334 100.501 83.2206 100.209 84.125 100.221Z" fill="#FFC4E8"/>
<path d="M33.3518 119.509C35.7647 119.39 38.1332 119.881 40.4574 120.981C40.6239 121.061 40.7679 121.183 40.8754 121.337C40.983 121.491 41.0505 121.67 41.0713 121.858C41.1629 122.649 40.9182 123.568 40.3371 124.615C40.3184 124.649 40.293 124.678 40.2626 124.701C40.2322 124.725 40.1976 124.741 40.1608 124.749C40.124 124.758 40.0859 124.758 40.049 124.75C40.0121 124.742 39.9772 124.727 39.9465 124.704C36.921 122.5 33.8556 121.702 30.75 122.31C29.8713 122.483 29.1371 122.852 28.5475 123.415C28.0638 123.881 28.0194 124.386 28.4144 124.932C28.8781 125.58 29.4334 126.119 30.0803 126.552C31.5486 127.539 33.0856 128.395 34.6914 129.12C35.9049 129.669 37.15 130.43 38.4266 131.402C39.5801 132.279 40.1654 133.444 40.1826 134.896C40.2141 137.769 39.2795 139.788 37.379 140.955C35.8849 141.873 34.003 142.161 31.7332 141.818C29.4291 141.469 27.3554 140.518 25.5121 138.964C24.6105 138.203 24.0638 137.45 23.872 136.704C23.6144 135.684 23.8992 134.723 24.7264 133.823C24.7436 133.803 24.765 133.788 24.7889 133.779C24.8127 133.769 24.8385 133.766 24.8641 133.768C24.8898 133.771 24.9147 133.779 24.937 133.794C24.9592 133.808 24.9783 133.827 24.9926 133.849C26.959 136.889 29.8184 138.543 33.5708 138.811C34.6298 138.886 35.5901 138.786 36.4516 138.512C37.4134 138.204 38.1733 137.645 38.7314 136.834C39.7733 135.319 39.198 134.039 37.0055 132.995C35.5171 132.231 34.0216 131.48 32.5189 130.74C32.5103 130.734 32.1139 130.555 31.3296 130.203C30.0359 129.624 28.9611 128.782 28.1053 127.675C27.4155 126.777 27.1049 125.818 27.1736 124.798C27.271 123.31 27.9493 122.069 29.2087 121.075C30.4309 120.109 31.8119 119.587 33.3518 119.509Z" fill="#080A99" fill-opacity="0.997"/>
<path d="M138.222 119.572C140.3 119.778 142.383 120.486 144.473 121.697C144.533 121.732 144.599 121.749 144.664 121.745C144.729 121.742 144.79 121.719 144.838 121.679L145.812 120.87C145.868 120.824 145.931 120.794 145.995 120.783C146.059 120.772 146.12 120.78 146.173 120.807C146.8 121.114 147.317 121.681 147.723 122.507C147.758 122.578 147.769 122.66 147.753 122.738C147.737 122.816 147.696 122.886 147.637 122.937C145.324 124.885 143.553 127.177 142.322 129.814C142.293 129.877 142.277 129.945 142.276 130.015C142.274 130.084 142.287 130.154 142.314 130.218C142.34 130.282 142.38 130.339 142.429 130.386C142.479 130.433 142.537 130.468 142.601 130.489C143.557 130.808 144.363 131.338 145.018 132.078C145.39 132.501 145.303 132.644 144.756 132.507L141.777 131.769C141.681 131.744 141.579 131.759 141.488 131.81C141.397 131.862 141.325 131.947 141.283 132.051C140.069 135.075 139.272 138.113 138.891 141.165C138.881 141.249 138.853 141.33 138.811 141.401C138.768 141.472 138.712 141.532 138.646 141.575C138.581 141.618 138.509 141.644 138.435 141.65C138.361 141.655 138.288 141.641 138.222 141.608L136.084 140.543C135.918 140.459 135.784 140.308 135.703 140.112C135.622 139.916 135.597 139.686 135.633 139.456C136.034 136.902 136.824 134.501 138.003 132.252C138.269 131.748 138.123 131.509 137.565 131.536L135.023 131.657C134.977 131.659 134.932 131.65 134.89 131.63C134.849 131.61 134.813 131.579 134.784 131.541C134.756 131.503 134.737 131.458 134.729 131.411C134.72 131.363 134.722 131.314 134.735 131.268C134.982 130.415 135.464 129.909 136.182 129.751C136.832 129.608 137.755 129.591 138.952 129.702C139.015 129.707 139.079 129.695 139.136 129.666C139.194 129.636 139.243 129.592 139.278 129.536C140.609 127.401 142.037 125.338 143.563 123.348C143.846 122.728 143.689 122.372 143.09 122.279C142.652 122.21 142.351 122.148 142.185 122.091C140.215 121.432 138.581 121.914 137.281 123.536C137.238 123.592 137.183 123.635 137.122 123.663C137.062 123.691 136.997 123.703 136.934 123.697C135.76 123.578 135.056 122.908 134.821 121.688C134.796 121.551 134.824 121.405 134.899 121.281C135.674 119.999 136.782 119.429 138.222 119.572Z" fill="#080A99" fill-opacity="0.997"/>
<path d="M129.67 119.867L131.67 121.214C131.991 121.429 131.964 121.621 131.589 121.791C127.61 123.593 124.446 126.349 122.096 130.06C121.887 130.122 121.824 130.251 121.907 130.445C121.924 130.482 121.949 130.515 121.981 130.54C122.013 130.565 122.05 130.582 122.09 130.588C122.129 130.595 122.169 130.591 122.207 130.578C122.245 130.565 122.279 130.542 122.306 130.512C123.509 129.152 124.807 128.237 126.2 127.769C126.707 127.599 127.187 127.663 127.639 127.961C129.027 128.886 129.874 129.96 130.18 131.183C130.398 132.054 130.212 133.067 129.622 134.221C128.354 136.715 126.56 138.683 124.238 140.127C123.096 140.837 122.05 141.125 121.1 140.99C119.978 140.835 118.95 140.267 118.017 139.286C117.244 138.477 116.864 137.574 116.875 136.574C116.89 135.465 117.063 134.383 117.395 133.331C118.419 130.076 120.018 127.207 122.19 124.722C123.192 123.571 124.115 122.64 124.96 121.93C125.973 121.071 127.081 120.37 128.283 119.827C128.809 119.589 129.272 119.602 129.67 119.867ZM121.31 139.975C121.38 140.024 121.462 140.051 121.546 140.053C121.63 140.054 121.712 140.03 121.783 139.984C124.648 138.116 126.697 135.506 127.931 132.154C128.266 131.244 128.271 130.386 127.948 129.581C127.699 128.964 127.271 128.768 126.664 128.995C124.729 129.717 123.081 130.873 121.718 132.462C120.788 133.551 120.167 134.697 119.855 135.899C119.632 136.752 119.632 137.496 119.855 138.131C120.107 138.853 120.592 139.468 121.31 139.975Z" fill="#080A99" fill-opacity="0.997"/>
<path d="M156.147 119.796C157.669 119.677 158.934 120.111 159.942 121.098C161.032 122.16 161.442 123.477 161.17 125.049C160.849 126.895 160.061 128.491 158.804 129.836C157.144 131.617 155.405 133.31 153.588 134.914C152.474 135.893 151.434 137.135 150.466 138.641C150.237 138.999 150.328 139.152 150.737 139.098C153.273 138.767 155.485 137.972 157.375 136.713C157.395 136.701 157.548 136.573 157.834 136.328C158.272 135.955 158.602 136.203 158.826 137.071C158.914 137.411 158.986 137.756 159.04 138.105C159.249 139.474 158.713 140.222 157.43 140.351C155.504 140.545 153.573 140.658 151.639 140.691C150.545 140.712 149.502 140.949 148.509 141.402C148.443 141.432 148.373 141.447 148.305 141.447C148.237 141.447 148.172 141.432 148.114 141.402C147.332 140.996 146.84 140.354 146.637 139.474C146.606 139.337 146.618 139.189 146.671 139.049C147.215 137.611 148.075 136.404 149.251 135.429C151.493 133.562 153.656 131.603 155.743 129.554C157.314 128.2 158.371 126.691 158.912 125.026C159.055 124.588 159.099 124.043 159.045 123.393C158.996 122.803 158.84 122.295 158.577 121.872C157.996 120.938 157.19 120.546 156.16 120.695C155.381 120.809 154.658 121.174 153.991 121.791C152.609 123.074 152.178 124.898 152.699 127.263C152.822 127.83 152.62 128.018 152.094 127.827C150.582 127.275 149.812 126.361 149.784 125.084C149.761 124.115 150.162 123.166 150.986 122.239C152.283 120.777 154.003 119.963 156.147 119.796Z" fill="#080A99" fill-opacity="0.997"/>
<path d="M96.1644 121.098C97.1232 121.313 97.9289 121.745 98.5815 122.395C98.6727 122.485 98.7282 122.607 98.7369 122.737C98.7457 122.867 98.7071 122.996 98.6288 123.098L96.0828 126.404C95.7794 126.798 95.5604 126.75 95.4259 126.261C94.9393 124.513 95.0838 122.844 95.8595 121.254C95.8872 121.196 95.9323 121.149 95.9876 121.12C96.0429 121.092 96.1051 121.084 96.1644 121.098Z" fill="#080A99" fill-opacity="0.997"/>
<path d="M88.1523 122.977L89.8654 123.541C89.9235 123.56 89.9762 123.593 90.0192 123.638C90.0622 123.684 90.0944 123.74 90.1132 123.802C90.1319 123.864 90.1368 123.93 90.1273 123.996C90.1178 124.062 90.0943 124.125 90.0586 124.181L87.899 127.559C87.7101 127.848 87.7831 127.984 88.118 127.966L89.7022 127.872C89.785 127.868 89.8632 127.878 89.9294 127.9C89.9955 127.923 90.0474 127.958 90.0801 128.002C90.2003 128.154 90.1974 128.313 90.0715 128.48C89.9971 128.576 89.8797 128.644 89.7194 128.686C89.0239 128.868 88.2225 129.014 87.3151 129.125C87.2215 129.136 87.1318 129.171 87.0539 129.227C86.976 129.283 86.9124 129.359 86.8686 129.447C85.4776 132.251 84.5988 135.074 84.2325 137.917C84.1266 138.743 84.2325 139.384 84.5502 139.841C84.5888 139.896 84.6406 139.942 84.7016 139.975C84.7626 140.007 84.8312 140.026 84.9022 140.028C85.7781 140.058 86.5824 139.818 87.3151 139.308C87.4039 139.248 87.4826 139.204 87.5513 139.174C88.035 138.968 88.0679 139.105 87.65 139.586C85.8611 141.641 84.0064 141.662 82.0858 139.648C81.5448 139.081 81.3344 138.403 81.4547 137.612C81.8554 134.996 82.5595 132.439 83.567 129.939C83.5963 129.866 83.6075 129.786 83.5997 129.706C83.5919 129.627 83.5652 129.551 83.5222 129.486C83.4791 129.42 83.421 129.366 83.3531 129.33C83.2853 129.293 83.2097 129.275 83.1334 129.277C82.1659 129.298 81.8053 128.828 82.0514 127.867C82.0652 127.81 82.1004 127.76 82.1503 127.727C82.2002 127.694 82.2613 127.68 82.3219 127.688L83.9277 127.917C84.0667 127.937 84.2088 127.91 84.3332 127.84C84.4576 127.769 84.5577 127.658 84.6189 127.523C85.2858 126.043 86.1659 124.624 87.2593 123.263C87.3686 123.127 87.5119 123.027 87.671 122.976C87.83 122.925 87.9976 122.926 88.1523 122.977Z" fill="#080A99" fill-opacity="0.997"/>
<path d="M113.986 126.028C114.959 126.726 115.739 127.603 116.326 128.659C116.398 128.787 116.43 128.935 116.416 129.08C116.324 129.972 116.05 130.8 115.592 131.563C115.257 132.127 115.025 132.166 114.896 131.679C114.863 131.558 114.878 131.407 114.939 131.254C115.102 130.828 115.167 130.324 115.132 129.742C115.092 129.095 114.787 128.902 114.218 129.165C113.534 129.478 113.079 129.961 112.853 130.615C112.346 132.061 112.18 133.487 112.354 134.892C112.364 134.967 112.4 135.035 112.456 135.083C112.512 135.131 112.583 135.156 112.655 135.152C114.121 135.071 114.477 135.25 113.724 135.688C113.618 135.75 113.477 135.779 113.321 135.773C112.611 135.75 112.277 136.1 112.32 136.825C112.34 137.225 112.35 137.43 112.35 137.442C112.284 140.219 111.075 141.943 108.722 142.615C107.958 142.832 107.257 142.753 106.619 142.377C105.004 141.429 104.853 139.951 106.163 137.943C107.174 136.398 108.549 135.562 110.289 135.433C110.357 135.429 110.423 135.41 110.484 135.378C110.545 135.346 110.598 135.302 110.642 135.247C110.685 135.193 110.718 135.129 110.737 135.061C110.756 134.993 110.761 134.922 110.753 134.852C110.633 133.826 110.457 132.832 110.225 131.872C109.61 129.325 110.395 127.362 112.582 125.984C113.06 125.682 113.528 125.697 113.986 126.028ZM107.282 141.449C107.491 141.619 107.871 141.543 108.338 141.238C108.805 140.932 109.321 140.422 109.773 139.82C109.996 139.522 110.197 139.21 110.364 138.902C110.531 138.595 110.66 138.297 110.745 138.027C110.83 137.756 110.869 137.518 110.859 137.326C110.848 137.134 110.79 136.992 110.686 136.908C110.583 136.823 110.436 136.799 110.255 136.835C110.074 136.871 109.862 136.968 109.63 137.119C109.399 137.27 109.153 137.473 108.907 137.716C108.661 137.96 108.419 138.238 108.196 138.537C107.972 138.835 107.771 139.147 107.604 139.454C107.438 139.762 107.308 140.06 107.223 140.33C107.138 140.601 107.1 140.839 107.11 141.031C107.12 141.223 107.178 141.365 107.282 141.449Z" fill="#080A99" fill-opacity="0.997"/>
<path d="M59.0044 126.874C59.0411 126.877 59.0769 126.887 59.1098 126.905C59.1426 126.922 59.1718 126.946 59.1957 126.975C59.2197 127.004 59.2379 127.038 59.2493 127.074C59.2606 127.111 59.265 127.149 59.262 127.187C59.1103 129.072 58.6066 130.771 57.7508 132.284C57.2527 133.163 56.2223 134.533 54.6595 136.391C53.5433 137.715 52.3383 138.952 51.0445 140.1C50.598 140.497 50.1844 140.674 49.8037 140.633C49.1912 140.564 48.852 140.115 48.7862 139.286C48.6746 137.952 48.8663 136.512 49.3615 134.964C49.4388 134.719 49.4846 134.521 49.4989 134.369C49.5533 133.805 49.3987 133.642 49.0352 133.881C48.9293 133.949 48.8105 134.063 48.6789 134.221C47.0445 136.196 45.5404 138.278 44.1665 140.467C44.1151 140.549 44.0476 140.618 43.9685 140.671C43.8894 140.724 43.8005 140.758 43.7077 140.773C43.6148 140.787 43.5201 140.781 43.4297 140.754C43.3394 140.728 43.2554 140.682 43.1833 140.619C42.8313 140.315 42.5937 139.932 42.4706 139.469C42.3905 139.165 42.3762 138.725 42.4277 138.149C42.6452 135.721 43.0688 133.335 43.6985 130.99C44.0277 129.77 44.4241 128.944 44.8878 128.512C45.6291 127.82 46.608 127.645 47.8245 127.988C47.8839 128.005 47.9387 128.037 47.9843 128.08C48.03 128.123 48.0653 128.177 48.0874 128.237C48.1096 128.297 48.1179 128.362 48.1117 128.426C48.1056 128.49 48.0851 128.551 48.052 128.606C46.7182 130.762 45.964 133.24 45.7894 136.037C45.7579 136.577 45.9053 136.638 46.2316 136.221C47.2392 134.935 48.2252 133.73 49.1898 132.606C50.0656 131.589 50.7111 130.419 51.1261 129.098C51.4581 128.036 52.2066 127.781 53.3715 128.333C53.4697 128.379 53.5475 128.462 53.5897 128.565C53.6318 128.668 53.6352 128.783 53.5991 128.888C52.5286 132.023 51.8545 135.026 51.5769 137.899C51.5111 138.579 51.69 138.658 52.1136 138.136C52.7232 137.381 53.3028 136.636 53.8524 135.899C54.505 135.025 55.0087 134.225 55.3637 133.501C56.1908 131.803 56.7418 129.997 57.0166 128.082C57.1425 127.187 57.8052 126.785 59.0044 126.874Z" fill="#080A99" fill-opacity="0.997"/>
<path d="M68.1663 127.926C68.4725 128.292 68.5927 128.716 68.5269 129.196C68.2435 131.323 67.4493 132.944 66.1441 134.06C64.9448 135.08 63.6725 135.832 62.3273 136.315C61.7863 136.509 61.523 136.904 61.5373 137.501C61.5859 139.302 62.2271 139.997 63.4607 139.586C64.8289 139.129 66.1083 138.209 67.299 136.825C67.5566 136.53 67.7355 136.515 67.8357 136.78C67.858 136.838 67.8638 136.905 67.8526 136.974C67.8413 137.044 67.8134 137.114 67.7713 137.178C66.4775 139.108 64.9162 140.361 63.0872 140.937C62.4518 141.137 61.7205 140.971 60.8933 140.44C59.2847 139.408 58.6321 137.884 58.9355 135.867C59.5137 132.046 61.4228 129.228 64.6629 127.411C66.0596 126.627 67.2274 126.798 68.1663 127.926ZM61.9282 135.363C62.0301 135.454 62.1926 135.467 62.4065 135.403C62.6204 135.339 62.8815 135.199 63.1748 134.991C63.4681 134.783 63.7879 134.51 64.116 134.19C64.4441 133.869 64.774 133.506 65.0868 133.122C65.7187 132.345 66.243 131.528 66.5443 130.85C66.8456 130.173 66.8992 129.69 66.6934 129.508C66.5915 129.418 66.429 129.404 66.2151 129.468C66.0012 129.532 65.7401 129.672 65.4468 129.88C65.1535 130.089 64.8337 130.361 64.5056 130.682C64.1776 131.002 63.8477 131.365 63.5348 131.75C62.9029 132.526 62.3786 133.343 62.0773 134.021C61.776 134.699 61.7224 135.182 61.9282 135.363Z" fill="#080A99" fill-opacity="0.997"/>
<path d="M78.4368 127.402C79.3069 127.921 79.639 128.698 79.4329 129.733C78.9578 132.105 77.7041 133.873 75.6719 135.04C74.6844 135.606 73.6755 136.134 72.645 136.624C72.5832 136.653 72.5285 136.695 72.4848 136.748C72.441 136.801 72.4092 136.862 72.3917 136.928C72.0282 138.27 72.4018 139.205 73.5123 139.733C73.6398 139.791 73.784 139.8 73.9202 139.76C75.5717 139.286 76.9642 138.367 78.0976 137.004C78.464 136.562 78.6715 136.559 78.7202 136.995C78.7283 137.061 78.7215 137.13 78.7 137.198C78.6786 137.266 78.643 137.331 78.5957 137.389C77.7713 138.424 76.8239 139.302 75.7535 140.024C74.9349 140.576 74.1506 140.855 73.4007 140.861C72.4075 140.873 71.5831 140.531 70.9277 139.836C70.1606 139.022 69.7899 137.926 69.8157 136.547C69.8415 135.336 70.1306 134.069 70.683 132.744C71.7134 130.269 73.3864 128.443 75.7019 127.268C76.6035 126.811 77.5152 126.856 78.4368 127.402ZM72.7722 135.366C72.8744 135.457 73.0375 135.471 73.2522 135.407C73.4668 135.343 73.7289 135.204 74.0234 134.996C74.3178 134.788 74.639 134.515 74.9684 134.195C75.2979 133.874 75.6292 133.511 75.9434 133.126C76.5781 132.349 77.1048 131.531 77.4077 130.852C77.7105 130.173 77.7647 129.688 77.5583 129.505C77.4561 129.415 77.293 129.401 77.0784 129.464C76.8637 129.528 76.6016 129.668 76.3072 129.876C76.0127 130.084 75.6916 130.356 75.3621 130.677C75.0327 130.997 74.7014 131.361 74.3871 131.745C73.7524 132.523 73.2257 133.341 72.9229 134.02C72.62 134.699 72.5658 135.183 72.7722 135.366Z" fill="#080A99" fill-opacity="0.997"/>
<path d="M103.793 126.955C104.466 127.068 105.068 127.427 105.601 128.033C105.708 128.157 105.789 128.302 105.838 128.461C105.887 128.619 105.903 128.786 105.884 128.95C105.752 130.206 105.44 131.299 104.948 132.23C104.502 133.077 103.76 133.864 102.724 134.592C101.662 135.344 100.421 136.03 99.0017 136.65C98.922 136.685 98.8531 136.743 98.8031 136.816C98.753 136.89 98.7236 136.977 98.7184 137.067C98.6754 137.824 98.8214 138.556 99.1563 139.263C99.4025 139.794 99.7974 139.978 100.341 139.814C101.95 139.333 103.302 138.436 104.399 137.12C104.519 136.977 104.629 136.867 104.729 136.789C105.196 136.44 105.337 136.565 105.154 137.165C105.111 137.305 105.04 137.438 104.939 137.563C103.494 139.302 101.986 140.418 100.414 140.91C99.5613 141.175 98.6611 140.901 97.7137 140.087C96.5087 139.049 96.015 137.69 96.2325 136.011C96.5245 133.767 97.4347 131.69 98.9631 129.778C99.8332 128.692 100.805 127.879 101.878 127.339C102.585 126.987 103.224 126.859 103.793 126.955ZM99.207 135.435C99.4132 135.616 99.8651 135.477 100.464 135.047C101.062 134.617 101.758 133.932 102.398 133.142C102.715 132.752 103.009 132.347 103.262 131.951C103.516 131.556 103.725 131.177 103.877 130.837C104.029 130.497 104.121 130.203 104.148 129.97C104.175 129.737 104.136 129.571 104.034 129.481C103.828 129.3 103.376 129.439 102.778 129.869C102.179 130.299 101.484 130.984 100.844 131.774C100.527 132.164 100.233 132.569 99.979 132.965C99.7252 133.36 99.5164 133.739 99.3644 134.079C99.2124 134.419 99.1203 134.714 99.0933 134.946C99.0663 135.179 99.1049 135.345 99.207 135.435Z" fill="#080A99" fill-opacity="0.997"/>
<path d="M95.7346 129.823C95.7927 129.89 95.8282 129.975 95.836 130.064C95.8437 130.154 95.8232 130.244 95.7776 130.319C94.0945 133.189 92.8323 136.431 91.9908 140.046C91.9801 140.093 91.9588 140.137 91.9287 140.173C91.8987 140.21 91.8607 140.239 91.818 140.257C91.7752 140.275 91.7289 140.283 91.6828 140.279C91.6367 140.275 91.5921 140.26 91.5529 140.234C91.0291 139.903 90.6498 139.518 90.4151 139.08C90.2291 138.728 90.169 138.215 90.2348 137.541C90.5124 134.689 91.052 132.316 91.8534 130.422C92.8122 128.152 94.106 127.952 95.7346 129.823Z" fill="#080A99" fill-opacity="0.997"/>
</svg>
