<svg width="241" height="241" viewBox="0 0 241 241" fill="none" xmlns="http://www.w3.org/2000/svg">
<g clip-path="url(#clip0_544_3530)">
<rect x="89.0127" y="9.43356" width="99.2764" height="123.321" fill="#AC6BAD"/>
<path d="M96.0721 0.117065C124.472 0.117065 152.871 0.117065 181.267 0.117065C181.258 0.148315 181.249 0.181128 181.239 0.215503H96.0439C96.0533 0.181128 96.0627 0.148315 96.0721 0.117065Z" fill="#424242"/>
<path d="M96.0438 0.2155H181.239C186.052 0.49675 189.948 2.4655 192.93 6.12175C195.63 9.4405 196.85 13.2983 196.591 17.6952C196.45 20.0983 196.489 26.2764 196.708 36.2296C196.57 48.3327 196.531 60.4358 196.591 72.5389C196.525 72.9858 196.57 73.4155 196.727 73.828L196.591 79.7858C193.634 80.4546 190.867 81.5936 188.289 83.203C188.177 76.6874 188.161 68.4546 188.242 58.5046C188.317 49.2264 188.281 35.3499 188.134 16.8749C188.169 16.3218 188.092 15.7827 187.905 15.2577C186.392 10.9858 183.311 9.06394 178.661 9.49206C178.661 9.49206 151.777 9.49206 98.0078 9.49206C96.2641 9.49206 94.9078 9.69831 93.9391 10.1108C91.1328 11.2983 89.5297 13.5936 89.1297 16.9967C89.0516 17.6561 89.0125 18.3171 89.0125 18.9796C89.0125 56.9514 89.0125 94.9218 89.0125 132.891C89.0125 134.915 89.0844 136.4 89.2281 137.344C89.2719 171.809 89.2781 189.387 89.2469 190.078C89.0406 194.55 91.0031 197.509 95.1344 198.956C95.8344 199.2 96.9969 199.287 98.6219 199.219C114.209 199.228 129.795 199.222 145.38 199.2C146.755 202.465 148.389 205.597 150.283 208.594C117.72 208.594 101.438 208.594 101.434 208.594C100.859 208.5 100.319 208.578 99.8125 208.828C99.7125 208.641 99.4719 208.562 99.0906 208.594C93.3969 209.078 88.5984 207.203 84.6953 202.969C82.3828 200.269 81.0875 197.183 80.8094 193.711C80.6844 192.164 80.6453 190.328 80.6922 188.203C80.6922 188.203 80.6922 135.078 80.6922 28.828C80.6922 28.3311 80.6594 27.9796 80.5938 27.7733C80.8 27.6483 80.8688 27.4827 80.8 27.2764C80.7281 27.0639 80.6922 26.9186 80.6922 26.8405C80.6922 20.1186 80.6922 16.7577 80.6922 16.7577C80.7547 10.9858 83.05 6.44519 87.5781 3.13581C90.0344 1.33581 92.8563 0.362375 96.0438 0.2155Z" fill="#424242"/>
<path d="M188.135 16.8749C188.282 35.3499 188.317 49.2264 188.242 58.5046C188.161 68.4546 188.177 76.6874 188.289 83.203C188.277 83.2843 188.232 83.3171 188.153 83.3014C187.997 83.1202 187.919 82.7749 187.919 82.2655C187.919 60.703 187.919 39.1405 187.919 17.578C187.838 17.2686 187.91 17.0343 188.135 16.8749Z" fill="#BC90BF"/>
<path d="M80.5935 27.7733C80.6591 27.9796 80.6919 28.3311 80.6919 28.828C80.6919 135.078 80.6919 188.203 80.6919 188.203C80.645 190.328 80.6841 192.164 80.8091 193.711C81.0872 197.183 82.3825 200.269 84.695 202.969C84.5669 203.287 84.3653 203.326 84.0903 203.086C78.3497 200.789 73.0575 197.772 68.2138 194.034C65.6825 192.081 63.3763 189.98 61.295 187.73C57.2138 183.317 53.9232 178.426 51.4232 173.058C46.2169 161.864 44.6747 150.067 46.7966 137.667C46.9466 136.508 47.1122 135.351 47.2935 134.198C47.356 134.126 47.4153 134.051 47.4716 133.973C47.5278 133.898 47.5669 133.814 47.5888 133.72C48.5138 129.908 49.8216 125.959 51.5122 121.875C58.2778 105.547 59.7528 88.9546 55.9372 72.0983C50.5028 48.1014 47.7388 35.7874 47.645 35.1561C47.2263 32.3655 47.656 29.8264 48.9341 27.5389C50.8028 24.1921 53.706 22.1889 57.6435 21.5296C66.3403 20.0702 73.9903 22.1514 80.5935 27.7733Z" fill="#FFC5AB"/>
<path d="M231.133 24.7546C236.758 27.3733 239.97 31.9046 240.77 38.3483C240.77 39.2483 240.77 40.1467 240.77 41.0436C240.089 46.6405 237.384 50.9186 232.656 53.878C231.778 54.428 219.802 61.078 196.727 73.828C196.57 73.4155 196.525 72.9858 196.591 72.5389C196.531 60.4358 196.57 48.3327 196.708 36.2296C210.214 28.6733 217.411 24.7311 218.298 24.403C222.786 22.7467 227.064 22.8639 231.133 24.7546Z" fill="#FFC5AB"/>
<path d="M196.591 79.7858C201.619 79.5046 205.633 81.2389 208.633 84.9889C209.899 86.5733 210.722 88.5171 211.104 90.8202C210.766 90.6952 210.469 90.7436 210.213 90.9655C209.966 91.3811 209.635 91.7139 209.219 91.9639C203.982 94.8514 198.763 97.7702 193.563 100.72C191.304 102.005 189.608 102.797 188.477 103.097C183.924 104.3 179.979 103.576 176.641 100.926C174.275 99.0514 172.722 96.8546 171.982 94.3358C171.791 93.6889 171.629 93.2983 171.494 93.1639C171.869 92.7514 172.275 92.3702 172.713 92.0202C172.832 91.9264 177.979 89.0202 188.154 83.3014C188.232 83.3171 188.277 83.2842 188.289 83.203C190.868 81.5936 193.635 80.4546 196.591 79.7858Z" fill="#FFC5AB"/>
<path d="M211.104 90.8202C211.754 96.3764 209.876 100.781 205.469 104.034C202.657 105.622 199.854 107.226 197.06 108.848C189.926 112.739 185.971 114.845 185.196 115.167C184.546 115.436 183.383 115.725 181.708 116.034C178.471 116.141 175.502 115.32 172.802 113.573L170.341 111.309C165.944 104.894 166.329 98.8452 171.494 93.1639C171.629 93.2983 171.791 93.6889 171.982 94.3358C172.722 96.8546 174.276 99.0514 176.641 100.926C179.979 103.576 183.924 104.3 188.477 103.097C189.608 102.797 191.304 102.005 193.563 100.72C198.763 97.7702 203.982 94.8514 209.219 91.9639C209.635 91.7139 209.966 91.3811 210.213 90.9655C210.469 90.7436 210.766 90.6952 211.104 90.8202Z" fill="#F2AEA0"/>
<path d="M197.06 108.848C200.722 108.698 203.932 109.794 206.688 112.134C209.097 114.178 210.569 116.761 211.104 119.883C210.929 119.842 210.768 119.847 210.621 119.897C210.524 119.931 210.413 120.028 210.288 120.187C210.022 120.534 209.685 120.794 209.275 120.966C203.891 124.006 198.485 127.008 193.057 129.97C190.429 131.405 188.382 132.258 186.916 132.53C183.75 133.114 180.735 132.561 177.869 130.87C174.869 129.095 172.838 126.409 171.775 122.812C171.763 122.769 171.731 122.731 171.683 122.704C171.636 122.677 171.576 122.662 171.513 122.662C171.385 122.662 171.339 122.556 171.377 122.344C172.318 121.397 173.388 120.625 174.588 120.028C176.938 118.656 179.311 117.325 181.708 116.034C183.383 115.725 184.546 115.436 185.196 115.167C185.971 114.845 189.925 112.739 197.06 108.848Z" fill="#FFC5AB"/>
<path d="M149.733 110.264C150.06 109.235 158.504 110.502 159.299 111.018C160.095 111.535 161.33 112.74 161.33 112.74C161.714 113.914 161.383 114.85 160.335 115.546C159.075 116.384 157.899 116.977 156.806 117.324C153.675 118.314 150.481 118.95 147.221 119.231C144.399 119.475 141.931 119.619 139.817 119.663C137.744 119.704 135.665 119.67 133.578 119.561C129.373 119.339 125.223 118.675 121.129 117.568C119.694 117.181 118.376 116.558 117.172 115.697C116.411 115.153 115.964 114.58 115.831 113.978C115.634 113.089 116.042 112.315 117.057 111.656C118.57 110.672 125.035 109.959 126.424 109.68C127.268 111.175 123.38 112.283 124.789 112.838C125.577 113.148 126.986 113.303 129.017 113.303C142.452 113.303 149.17 113.303 149.17 113.303C152.134 113.505 149.405 111.293 149.733 110.264Z" fill="#913E98"/>
<path d="M211.103 119.883C211.781 125.948 209.591 130.548 204.531 133.683C201.891 135.13 199.277 136.623 196.689 138.164L191.2 141.075C184.913 140.356 178.747 140.909 172.703 142.734C170.969 141.116 169.511 139.28 168.33 137.226C166.355 131.567 167.37 126.606 171.377 122.344C171.339 122.556 171.384 122.662 171.513 122.662C171.575 122.662 171.635 122.677 171.683 122.704C171.73 122.731 171.763 122.769 171.775 122.812C172.838 126.409 174.869 129.095 177.869 130.87C180.734 132.561 183.75 133.114 186.916 132.53C188.381 132.258 190.428 131.405 193.056 129.97C198.484 127.008 203.891 124.006 209.275 120.966C209.684 120.794 210.022 120.534 210.288 120.187C210.413 120.028 210.524 119.931 210.62 119.897C210.767 119.847 210.928 119.842 211.103 119.883Z" fill="#F2AEA0"/>
<path d="M47.2939 134.198C47.1127 135.351 46.9471 136.508 46.7971 137.667C44.6752 150.067 46.2174 161.864 51.4236 173.058C53.9236 178.426 57.2143 183.317 61.2955 187.73C63.3768 189.98 65.683 192.081 68.2143 194.034C73.058 197.772 78.3502 200.789 84.0908 203.086C84.3658 203.326 84.5674 203.287 84.6955 202.969C88.5986 207.203 93.3971 209.078 99.0908 208.594C99.4721 208.562 99.7127 208.64 99.8127 208.828C94.9252 214.025 90.0361 219.22 85.1455 224.414C76.0486 234.314 64.7111 239.548 51.133 240.117C50.3518 240.117 49.5705 240.117 48.7893 240.117C33.2736 239.173 21.0721 232.775 12.1846 220.922C10.2096 218.284 8.48301 215.68 7.00488 213.108C3.32676 206.701 1.24863 199.719 0.770508 192.159C0.770508 190.597 0.770508 189.034 0.770508 187.472C1.87051 172.681 8.24707 160.825 19.9002 151.903C21.0189 151.047 30.1502 145.145 47.2939 134.198Z" fill="#F2A98C"/>
<path d="M89.5984 137.226C89.5984 137.226 115.845 137.226 168.33 137.226C169.511 139.28 170.969 141.116 172.703 142.734C164.641 145.447 157.838 150.023 152.294 156.464C152.078 156.276 151.848 156.205 151.605 156.248C151.295 156.301 151.125 156.328 151.094 156.328C136.963 156.328 122.831 156.328 108.7 156.328C105.781 156.934 103.802 158.428 102.761 160.809C102.292 161.884 102.045 163.639 102.02 166.073C101.983 169.433 101.983 171.223 102.02 171.445C102.808 176.308 105.698 178.73 110.692 178.711C121.43 178.77 132.166 178.731 142.9 178.594C142.134 185.672 142.961 192.541 145.38 199.2C129.795 199.222 114.209 199.228 98.6219 199.219C96.9969 199.287 95.8344 199.2 95.1344 198.956C91.0031 197.509 89.0406 194.55 89.2469 190.078C89.2781 189.387 89.2719 171.809 89.2281 137.344C89.2609 137.295 89.3242 137.267 89.3893 137.25C89.4917 137.224 89.5984 137.226 89.5984 137.226Z" fill="white"/>
<path d="M89.5984 137.226H168.33C167.811 136.223 167.48 133.829 167.379 132.757H89.0101C88.9569 133.555 89.1045 136.142 89.2281 137.344C89.2609 137.295 89.3242 137.267 89.3893 137.25C89.4714 137.224 89.553 137.222 89.5984 137.226Z" fill="white"/>
<path d="M196.689 138.164C196.517 139.486 196.524 140.808 196.708 142.13L191.2 141.075L196.689 138.164Z" fill="#424242"/>
<path d="M191.2 141.075L196.708 142.13C207.88 145.32 216.464 151.742 222.461 161.395C225.33 166.014 227.227 171.055 228.152 176.517C228.667 179.561 228.852 182.673 228.705 185.855C228.245 195.808 224.719 204.589 218.125 212.198C214.178 216.751 209.464 220.311 203.983 222.876C201.177 224.189 198.222 225.189 195.119 225.876C186.863 227.698 178.783 227.164 170.88 224.273C167.895 223.183 165.097 221.803 162.485 220.134C158.075 217.322 154.317 213.836 151.211 209.676C150.795 209.12 150.486 208.759 150.283 208.594C148.389 205.597 146.755 202.466 145.38 199.2C142.961 192.541 142.135 185.672 142.9 178.594C144.047 170.362 147.178 162.986 152.294 156.464C157.838 150.023 164.641 145.447 172.703 142.734C178.747 140.909 184.913 140.356 191.2 141.075ZM180.456 191.93C176.06 186.87 171.583 181.889 167.027 176.986C165.48 175.323 163.694 174.766 161.669 175.312C159.581 175.878 158.253 177.089 157.685 178.945C156.963 181.301 157.558 183.362 159.47 185.128C165.008 191.381 170.594 197.592 176.228 203.761C177.741 205.414 179.52 205.975 181.567 205.444C182.439 205.216 183.424 204.617 184.52 203.648C194.63 194.701 204.652 185.655 214.586 176.508C215.545 175.626 216.18 174.894 216.489 174.309C216.983 173.378 217.188 172.398 217.103 171.37C216.994 170.008 216.403 168.795 215.331 167.733C213.875 166.292 212.133 165.88 210.105 166.495C209.177 166.78 208.11 167.461 206.903 168.539C198.2 176.342 189.549 184.15 180.949 191.962C180.914 191.993 180.874 192.016 180.831 192.031C180.787 192.046 180.741 192.052 180.696 192.049C180.65 192.046 180.605 192.034 180.564 192.013C180.523 191.993 180.486 191.964 180.456 191.93Z" fill="#09CC66"/>
<path d="M152.294 156.464C147.178 162.986 144.047 170.362 142.9 178.594C132.166 178.731 121.43 178.77 110.692 178.711C105.698 178.73 102.808 176.308 102.02 171.445C101.983 171.223 101.983 169.433 102.02 166.073C102.045 163.639 102.292 161.884 102.761 160.809C103.802 158.428 105.781 156.934 108.7 156.328C122.831 156.328 136.962 156.328 151.094 156.328C151.125 156.328 151.295 156.301 151.605 156.248C151.848 156.205 152.078 156.276 152.294 156.464Z" fill="#AC6BAD"/>
<path d="M217.103 171.37C217.188 172.398 216.983 173.378 216.489 174.309C216.18 174.894 215.545 175.626 214.586 176.508C204.652 185.655 194.63 194.701 184.52 203.648C183.423 204.617 182.439 205.215 181.567 205.444C179.52 205.975 177.741 205.414 176.228 203.761C170.594 197.592 165.008 191.381 159.47 185.128C157.558 183.362 156.963 181.301 157.684 178.945C158.253 177.089 159.581 175.878 161.669 175.312C163.694 174.766 165.48 175.323 167.027 176.986C171.583 181.889 176.059 186.87 180.456 191.93C180.486 191.964 180.523 191.993 180.564 192.013C180.605 192.034 180.65 192.046 180.696 192.049C180.741 192.052 180.787 192.046 180.831 192.031C180.874 192.016 180.914 191.993 180.948 191.962C189.548 184.15 198.2 176.342 206.903 168.539C208.109 167.461 209.177 166.78 210.105 166.495C212.133 165.88 213.875 166.292 215.331 167.733C216.403 168.795 216.994 170.008 217.103 171.37Z" fill="white"/>
<path d="M161.665 17.6567L166.138 19.1313C166.158 19.1379 166.175 19.1524 166.185 19.1718C166.195 19.1911 166.197 19.2138 166.19 19.2348L164.825 23.9535C164.755 23.9614 164.692 23.9451 164.638 23.9047C163.566 22.7524 162.466 21.6274 161.337 20.5297C161.332 20.5232 161.283 20.4653 161.19 20.3559C161.075 20.2153 160.924 20.1775 160.739 20.2426L161.46 17.768C161.466 17.747 161.476 17.7274 161.49 17.7104C161.504 17.6934 161.52 17.6793 161.54 17.6689C161.559 17.6585 161.58 17.6521 161.601 17.65C161.623 17.6479 161.644 17.6502 161.665 17.6567Z" fill="#F68741"/>
<path d="M139.036 17.6664C142.867 19.4216 145.104 22.3963 145.749 26.5903C143.819 27.7192 143.169 29.3761 143.798 31.561C143.801 31.5722 143.801 31.5839 143.799 31.5953C143.797 31.6067 143.792 31.6174 143.786 31.6266C143.779 31.6359 143.77 31.6434 143.76 31.6486C143.75 31.6538 143.739 31.6566 143.728 31.6567C142.652 31.671 141.754 31.9887 141.032 32.6098C140.32 33.2257 139.881 34.0271 139.714 35.0141C139.486 36.3722 139.949 37.5818 141.103 38.643L134.315 38.6918C134.727 38.1046 135.201 37.5727 135.739 37.0961C136.306 36.5935 136.549 36.031 136.47 35.4086C136.415 34.9855 136.149 34.5024 135.671 33.9594C135.201 33.4269 134.761 33.0252 134.353 32.7543C133.768 32.3689 133.125 32.3689 132.423 32.7543C132.183 32.8871 131.722 33.3051 131.038 34.0082C130.33 34.7387 129.915 35.2003 129.794 35.393C129.234 36.2836 129.435 37.1619 130.397 38.0278C130.631 38.2387 130.748 38.4601 130.751 38.6918H125.038C125.064 38.5056 125.174 38.3253 125.368 38.1508C125.604 37.9373 125.819 37.669 126.015 37.3461C126.222 37.005 126.327 36.684 126.331 36.3832C126.338 35.9158 126.171 35.4796 125.831 35.0746C125.599 34.7973 125.416 34.6033 125.282 34.4926C125.784 33.9861 126.379 33.5759 127.067 33.2621C127.096 33.2495 127.121 33.2301 127.14 33.2056C127.159 33.1811 127.173 33.1523 127.179 33.1215C127.448 31.7582 128.039 30.574 128.952 29.5688C129.978 30.0714 130.952 30.2179 131.874 30.0082C133.229 29.6996 134.152 28.923 134.642 27.6782C134.873 27.0857 134.961 26.4789 134.903 25.8578C134.843 25.2302 134.661 24.628 134.356 24.0512C135.105 22.9223 136.097 22.072 137.331 21.5004C137.618 21.3663 137.888 21.0538 138.142 20.5629C138.603 19.6697 138.84 18.742 138.854 17.7797C138.855 17.7586 138.86 17.738 138.871 17.7196C138.881 17.7012 138.896 17.6857 138.914 17.6744C138.932 17.6632 138.953 17.6566 138.974 17.6552C138.995 17.6538 139.017 17.6577 139.036 17.6664ZM141.879 23.3856C141.967 23.2108 141.982 23.0081 141.921 22.8221C141.86 22.6361 141.728 22.482 141.553 22.3937L139.959 21.5888C139.873 21.5451 139.779 21.5189 139.682 21.5116C139.585 21.5044 139.488 21.5162 139.396 21.5465C139.304 21.5768 139.219 21.6249 139.145 21.6881C139.072 21.7513 139.011 21.8284 138.968 21.915L138.939 21.9707C138.851 22.1455 138.836 22.3482 138.897 22.5342C138.958 22.7202 139.091 22.8743 139.266 22.9626L140.859 23.7675C140.945 23.8112 141.04 23.8374 141.136 23.8447C141.233 23.852 141.33 23.8401 141.422 23.8098C141.514 23.7796 141.6 23.7314 141.673 23.6682C141.747 23.605 141.807 23.5279 141.851 23.4414L141.879 23.3856ZM141.85 25.8248C141.762 25.6524 141.609 25.522 141.425 25.4625C141.24 25.4029 141.04 25.419 140.867 25.5073L139.278 26.3205C139.106 26.4088 138.975 26.5619 138.916 26.7463C138.856 26.9306 138.872 27.1311 138.961 27.3035L138.987 27.3557C139.076 27.5282 139.229 27.6585 139.413 27.7181C139.598 27.7776 139.798 27.7615 139.97 27.6732L141.56 26.86C141.732 26.7718 141.862 26.6186 141.922 26.4343C141.982 26.2499 141.965 26.0495 141.877 25.877L141.85 25.8248ZM139.547 30.4227C139.634 30.2492 139.649 30.0481 139.588 29.8637C139.527 29.6793 139.395 29.5266 139.221 29.4393L137.62 28.6337C137.534 28.5905 137.44 28.5646 137.344 28.5576C137.248 28.5505 137.152 28.5624 137.061 28.5926C136.969 28.6229 136.885 28.6707 136.812 28.7336C136.739 28.7964 136.679 28.873 136.636 28.9589L136.612 29.0078C136.524 29.1813 136.51 29.3824 136.571 29.5669C136.632 29.7513 136.763 29.9039 136.937 29.9912L138.539 30.7968C138.625 30.84 138.718 30.8659 138.814 30.873C138.91 30.88 139.006 30.8681 139.098 30.8379C139.189 30.8077 139.273 30.7598 139.346 30.6969C139.419 30.6341 139.479 30.5575 139.522 30.4716L139.547 30.4227Z" fill="#F1F2F2"/>
<path d="M161.337 20.5297C162.465 21.6274 163.566 22.7524 164.637 23.9047C164.692 23.9451 164.755 23.9614 164.825 23.9535L163.962 26.9321C163.523 26.6091 163.061 26.1899 162.575 25.6742C162.209 25.2875 161.451 24.5362 160.301 23.4203C160.183 23.3058 160.109 23.1873 160.081 23.0649C160.047 22.9229 160.036 22.7771 160.047 22.6274L160.739 20.2426C160.924 20.1775 161.074 20.2153 161.19 20.3559C161.283 20.4653 161.331 20.5232 161.337 20.5297Z" fill="#FC9F4B"/>
<path d="M141.553 22.3937L139.96 21.5889C139.596 21.405 139.152 21.551 138.968 21.915L138.94 21.9707C138.756 22.3347 138.902 22.7788 139.266 22.9626L140.859 23.7675C141.223 23.9513 141.667 23.8053 141.851 23.4414L141.879 23.3856C142.063 23.0217 141.917 22.5776 141.553 22.3937Z" fill="#FFB749"/>
<path d="M132.329 22.5356C133.13 22.8234 133.806 23.3286 134.356 24.0512C134.661 24.628 134.843 25.2303 134.903 25.8579C134.961 26.479 134.873 27.0857 134.641 27.6782C134.152 28.923 133.229 29.6997 131.874 30.0082C130.952 30.2179 129.978 30.0714 128.952 29.5688L128.946 29.5258C128.944 29.5142 128.939 29.502 128.93 29.4902C128.921 29.4784 128.909 29.4672 128.895 29.4575C128.027 28.852 127.49 28.1079 127.284 27.225C126.939 25.7485 127.277 24.4913 128.298 23.4536C128.846 22.8963 129.488 22.5388 130.225 22.3813C130.926 22.2329 131.627 22.2843 132.329 22.5356Z" fill="#D24850"/>
<path d="M160.048 22.6274C160.036 22.7771 160.047 22.923 160.081 23.0649C160.11 23.1873 160.183 23.3058 160.302 23.4203C161.451 24.5362 162.209 25.2875 162.575 25.6743C163.061 26.1899 163.523 26.6092 163.962 26.9321L163.067 30.0082H163.022C163.008 30.0082 162.994 30.0054 162.981 30.0001C162.968 29.9947 162.956 29.9869 162.946 29.977C161.767 28.7687 160.576 27.5707 159.376 26.3832C159.297 26.2543 159.181 26.1769 159.03 26.1508L160.048 22.6274Z" fill="#F68741"/>
<path d="M140.867 25.5073L139.278 26.3205C138.919 26.5043 138.777 26.9444 138.961 27.3036L138.987 27.3557C139.171 27.7149 139.611 27.857 139.97 27.6732L141.56 26.86C141.919 26.6762 142.061 26.2361 141.877 25.877L141.85 25.8248C141.667 25.4657 141.227 25.3235 140.867 25.5073Z" fill="#FB7B51"/>
<path d="M159.03 26.1508C159.181 26.1769 159.297 26.2543 159.376 26.3832C160.576 27.5707 161.767 28.7687 162.946 29.977C162.956 29.9869 162.968 29.9947 162.981 30.0001C162.994 30.0054 163.008 30.0082 163.022 30.0082H163.067L162.188 33.0356C162.005 33.072 161.908 33.0226 161.897 32.8871C161.892 32.8182 161.87 32.7601 161.835 32.725C160.688 31.6052 159.551 30.4757 158.425 29.3364C158.335 29.2804 158.244 29.2276 158.151 29.1782L159.03 26.1508Z" fill="#FC9F4B"/>
<path d="M148.329 26.2973C149.854 26.7231 150.814 27.6345 151.21 29.0317C151.544 30.2166 151.33 31.3884 150.567 32.5473C149.666 33.4913 148.562 33.9946 147.255 34.0571C147.243 34.0577 147.233 34.0609 147.223 34.0664C147.213 34.072 147.205 34.0798 147.198 34.0892C147.192 34.0986 147.188 34.1094 147.186 34.1207C147.184 34.1321 147.185 34.1437 147.188 34.1547C147.753 35.9451 147.336 37.4412 145.936 38.643C144.326 38.7381 142.714 38.7381 141.102 38.643C139.949 37.5818 139.486 36.3722 139.714 35.0141C139.88 34.0271 140.32 33.2257 141.032 32.6098C141.753 31.9887 142.652 31.671 143.727 31.6567C143.739 31.6566 143.75 31.6538 143.76 31.6486C143.77 31.6434 143.779 31.6359 143.785 31.6266C143.792 31.6174 143.797 31.6067 143.799 31.5953C143.801 31.5839 143.801 31.5722 143.798 31.561C143.169 29.3761 143.819 27.7192 145.749 26.5903C146.662 26.1697 147.522 26.072 148.329 26.2973Z" fill="#D24850"/>
<path d="M139.221 29.4393L137.619 28.6337C137.258 28.452 136.818 28.5976 136.636 28.959L136.611 29.0078C136.429 29.3692 136.575 29.8095 136.936 29.9912L138.538 30.7968C138.9 30.9786 139.34 30.833 139.522 30.4716L139.546 30.4227C139.728 30.0614 139.582 29.6211 139.221 29.4393Z" fill="#A1AC37"/>
<path d="M158.151 29.1782C158.244 29.2276 158.335 29.2804 158.425 29.3364C159.551 30.4757 160.688 31.6052 161.835 32.725C161.87 32.7601 161.892 32.8182 161.897 32.8871C161.908 33.0226 162.005 33.072 162.188 33.0356L161.31 35.9653C161.267 35.9353 161.221 35.9177 161.173 35.9125C161.098 35.9038 161.037 35.8799 161.003 35.8461L157.313 32.1L158.151 29.1782Z" fill="#F68741"/>
<path d="M157.313 32.1L161.003 35.8461C161.037 35.8799 161.098 35.9038 161.173 35.9125C161.221 35.9177 161.267 35.9353 161.31 35.9653L160.479 38.9438C160.418 38.8344 160.342 38.7869 160.251 38.8012C160.217 38.8065 160.184 38.8061 160.155 38.8C160.127 38.7938 160.103 38.7822 160.087 38.7661L156.427 35.1352L157.313 32.1Z" fill="#FC9F4B"/>
<path d="M123.219 32.6567C123.844 32.9965 124.532 33.6085 125.282 34.4926C125.416 34.6033 125.599 34.7973 125.831 35.0747C126.17 35.4796 126.337 35.9158 126.331 36.3832C126.327 36.684 126.221 37.005 126.014 37.3461C125.819 37.6691 125.603 37.9373 125.368 38.1508C125.174 38.3253 125.064 38.5056 125.038 38.6918C124.086 38.7062 123.161 38.8715 122.262 39.1879C121.405 38.447 120.599 37.656 119.842 36.8149C119.629 36.5766 119.481 36.3097 119.399 36.0141C119.321 35.7368 119.329 35.4451 119.422 35.1391C119.579 34.6222 119.876 34.1853 120.313 33.8286C120.542 33.589 120.778 33.3572 121.02 33.1332C121.322 32.8533 121.591 32.6678 121.827 32.5766C122.308 32.3878 122.773 32.4145 123.219 32.6567Z" fill="#F3E9DB"/>
<path d="M134.353 32.7543C134.762 33.0252 135.201 33.4269 135.671 33.9594C136.149 34.5024 136.415 34.9855 136.47 35.4086C136.549 36.031 136.306 36.5935 135.74 37.0961C135.202 37.5727 134.727 38.1046 134.316 38.6918H130.751C130.749 38.4601 130.631 38.2387 130.398 38.0278C129.436 37.1619 129.234 36.2836 129.794 35.393C129.915 35.2003 130.33 34.7387 131.038 34.0082C131.722 33.3051 132.184 32.8871 132.423 32.7543C133.125 32.3689 133.768 32.3689 134.353 32.7543Z" fill="#F5EBDE"/>
<path d="M150.567 32.5473L150.583 33.1215C150.584 33.1501 150.594 33.1779 150.611 33.2018C150.628 33.2257 150.651 33.2446 150.679 33.2563C153.041 34.2315 154.048 36.0434 153.7 38.6918L145.937 38.643C147.336 37.4412 147.754 35.9451 147.188 34.1547C147.185 34.1437 147.184 34.1321 147.186 34.1207C147.188 34.1094 147.192 34.0986 147.198 34.0892C147.205 34.0798 147.213 34.072 147.223 34.0665C147.233 34.0609 147.244 34.0577 147.255 34.0571C148.562 33.9946 149.666 33.4913 150.567 32.5473Z" fill="#F1F2F2"/>
<path d="M156.427 35.1352L160.087 38.7661C160.103 38.7822 160.127 38.7938 160.155 38.8C160.184 38.8061 160.217 38.8065 160.251 38.8012C160.342 38.7869 160.418 38.8344 160.479 38.9438L159.128 43.4848C159.14 43.4106 159.124 43.3624 159.081 43.3403C159.048 43.3224 159.019 43.3031 158.997 43.2842C158.976 43.2653 158.962 43.2475 158.958 43.2329C158.34 41.2901 157.091 39.9119 155.214 39.0981C155.302 39.0278 155.354 38.9399 155.37 38.8344C155.391 38.6873 155.404 38.6072 155.409 38.5942C155.756 37.4431 156.095 36.2901 156.427 35.1352Z" fill="#F68741"/>
<path d="M141.103 38.643C142.715 38.7381 144.326 38.7381 145.937 38.643L153.7 38.6918L155.214 39.0981C157.092 39.9119 158.34 41.2901 158.958 43.2329C158.962 43.2475 158.976 43.2653 158.997 43.2842C159.019 43.3031 159.048 43.3224 159.081 43.3403C159.124 43.3624 159.14 43.4106 159.128 43.4848L159.112 43.9243C158.99 43.9529 158.875 43.9243 158.767 43.8383C158.068 43.2901 157.327 43.2576 156.544 43.7407C156.124 44.0011 155.338 44.7647 154.189 46.0317C153.426 45.477 152.579 45.1345 151.65 45.0043C151.087 44.9262 150.55 44.992 150.038 45.2016C149.485 44.5805 148.897 43.9965 148.275 43.4496C147.734 42.9757 147.255 42.7114 146.837 42.6567C146.182 42.5707 145.601 42.8266 145.095 43.4243C144.56 43.8943 144.092 44.4216 143.691 45.0063C142.855 44.88 142.103 45.0694 141.435 45.5746C140.103 46.5812 138.719 46.7732 137.284 46.1508C137.198 46.1131 136.844 45.8898 136.22 45.4809C135.142 44.7739 134.015 44.8045 132.839 45.5727C131.538 46.669 130.245 46.7914 128.958 45.9399C128.372 45.5519 128.006 45.3286 127.86 45.27C126.633 44.7726 125.455 44.8572 124.327 45.5239C123.631 45.9353 123.23 46.1612 123.126 46.2016C121.502 46.8253 120.04 46.4731 118.739 45.145C118.687 45.0916 118.636 45.1078 118.585 45.1938C118.487 44.2953 118.618 43.4314 118.976 42.602C119.642 41.0538 120.738 39.9158 122.263 39.1879C123.161 38.8715 124.086 38.7062 125.038 38.6918H130.751H134.316L141.103 38.643ZM126.329 41.8286C126.329 41.6265 126.249 41.4328 126.106 41.2899C125.963 41.1471 125.77 41.0668 125.568 41.0668C125.467 41.0668 125.368 41.0865 125.276 41.1248C125.184 41.1631 125.1 41.2192 125.029 41.2899C124.958 41.3607 124.902 41.4446 124.864 41.5371C124.826 41.6295 124.806 41.7285 124.806 41.8286C124.806 41.9286 124.826 42.0276 124.864 42.12C124.902 42.2125 124.958 42.2964 125.029 42.3672C125.1 42.4379 125.184 42.494 125.276 42.5323C125.368 42.5706 125.467 42.5903 125.568 42.5903C125.77 42.5903 125.963 42.51 126.106 42.3672C126.249 42.2243 126.329 42.0306 126.329 41.8286ZM135.698 41.8325C135.698 41.6315 135.619 41.4387 135.476 41.2966C135.334 41.1545 135.142 41.0746 134.941 41.0746C134.74 41.0746 134.547 41.1545 134.405 41.2966C134.263 41.4387 134.183 41.6315 134.183 41.8325C134.183 42.0334 134.263 42.2262 134.405 42.3683C134.547 42.5104 134.74 42.5903 134.941 42.5903C135.142 42.5903 135.334 42.5104 135.476 42.3683C135.619 42.2262 135.698 42.0334 135.698 41.8325ZM143.513 41.8305C143.513 41.6295 143.433 41.4368 143.291 41.2947C143.149 41.1525 142.956 41.0727 142.755 41.0727C142.554 41.0727 142.361 41.1525 142.219 41.2947C142.077 41.4368 141.997 41.6295 141.997 41.8305C141.997 42.0315 142.077 42.2242 142.219 42.3664C142.361 42.5085 142.554 42.5883 142.755 42.5883C142.956 42.5883 143.149 42.5085 143.291 42.3664C143.433 42.2242 143.513 42.0315 143.513 41.8305ZM152.892 41.8325C152.892 41.631 152.812 41.4377 152.669 41.2952C152.527 41.1527 152.333 41.0727 152.132 41.0727C152.032 41.0727 151.933 41.0923 151.841 41.1305C151.749 41.1687 151.665 41.2247 151.595 41.2952C151.524 41.3658 151.468 41.4495 151.43 41.5417C151.392 41.6339 151.372 41.7327 151.372 41.8325C151.372 41.9322 151.392 42.031 151.43 42.1232C151.468 42.2154 151.524 42.2991 151.595 42.3697C151.665 42.4402 151.749 42.4962 151.841 42.5344C151.933 42.5726 152.032 42.5922 152.132 42.5922C152.333 42.5922 152.527 42.5122 152.669 42.3697C152.812 42.2272 152.892 42.034 152.892 41.8325ZM122.419 43.3871C122.419 43.1856 122.339 42.9924 122.197 42.8499C122.054 42.7074 121.861 42.6274 121.659 42.6274C121.458 42.6274 121.265 42.7074 121.122 42.8499C120.98 42.9924 120.9 43.1856 120.9 43.3871C120.9 43.5886 120.98 43.7819 121.122 43.9244C121.265 44.0669 121.458 44.1469 121.659 44.1469C121.861 44.1469 122.054 44.0669 122.197 43.9244C122.339 43.7819 122.419 43.5886 122.419 43.3871ZM131.013 43.3891C131.013 43.1881 130.933 42.9954 130.791 42.8532C130.649 42.7111 130.456 42.6313 130.255 42.6313C130.054 42.6313 129.861 42.7111 129.719 42.8532C129.577 42.9954 129.497 43.1881 129.497 43.3891C129.497 43.5901 129.577 43.7828 129.719 43.925C129.861 44.0671 130.054 44.1469 130.255 44.1469C130.456 44.1469 130.649 44.0671 130.791 43.925C130.933 43.7828 131.013 43.5901 131.013 43.3891ZM139.607 43.3891C139.607 43.1886 139.527 42.9964 139.385 42.8546C139.243 42.7129 139.051 42.6332 138.851 42.6332C138.751 42.6332 138.653 42.6528 138.561 42.6908C138.47 42.7288 138.386 42.7844 138.316 42.8546C138.246 42.9248 138.19 43.0081 138.152 43.0998C138.114 43.1916 138.095 43.2898 138.095 43.3891C138.095 43.4884 138.114 43.5866 138.152 43.6784C138.19 43.7701 138.246 43.8534 138.316 43.9236C138.386 43.9938 138.47 44.0494 138.561 44.0874C138.653 44.1254 138.751 44.145 138.851 44.145C139.051 44.145 139.243 44.0653 139.385 43.9236C139.527 43.7818 139.607 43.5896 139.607 43.3891Z" fill="#FFB749"/>
<path d="M125.567 42.5903C125.988 42.5903 126.329 42.2492 126.329 41.8286C126.329 41.4079 125.988 41.0668 125.567 41.0668C125.147 41.0668 124.806 41.4079 124.806 41.8286C124.806 42.2492 125.147 42.5903 125.567 42.5903Z" fill="#F47E3E"/>
<path d="M134.94 42.5903C135.359 42.5903 135.698 42.251 135.698 41.8325C135.698 41.4139 135.359 41.0746 134.94 41.0746C134.522 41.0746 134.183 41.4139 134.183 41.8325C134.183 42.251 134.522 42.5903 134.94 42.5903Z" fill="#F47E3E"/>
<path d="M142.755 42.5883C143.173 42.5883 143.513 42.249 143.513 41.8305C143.513 41.412 143.173 41.0727 142.755 41.0727C142.336 41.0727 141.997 41.412 141.997 41.8305C141.997 42.249 142.336 42.5883 142.755 42.5883Z" fill="#F47E3E"/>
<path d="M152.132 42.5922C152.551 42.5922 152.892 42.2521 152.892 41.8325C152.892 41.4129 152.551 41.0727 152.132 41.0727C151.712 41.0727 151.372 41.4129 151.372 41.8325C151.372 42.2521 151.712 42.5922 152.132 42.5922Z" fill="#F47E3E"/>
<path d="M121.659 44.1469C122.079 44.1469 122.419 43.8068 122.419 43.3871C122.419 42.9675 122.079 42.6274 121.659 42.6274C121.24 42.6274 120.899 42.9675 120.899 43.3871C120.899 43.8068 121.24 44.1469 121.659 44.1469Z" fill="#F47E3E"/>
<path d="M148.274 43.4496C148.897 43.9965 149.485 44.5805 150.038 45.2016C150.663 45.9503 150.744 46.6964 150.282 47.4399C149.806 48.2081 149.041 48.9217 147.987 49.5805C147.578 49.6508 147.171 49.6398 146.767 49.5473C145.773 48.7517 144.859 47.8728 144.024 46.9106C143.539 46.3507 143.427 45.7159 143.69 45.0063C144.091 44.4217 144.559 43.8943 145.095 43.4243C145.601 42.8266 146.182 42.5707 146.837 42.6567C147.255 42.7114 147.734 42.9757 148.274 43.4496Z" fill="#F3E9DB"/>
<path d="M130.255 44.1469C130.673 44.1469 131.013 43.8076 131.013 43.3891C131.013 42.9706 130.673 42.6313 130.255 42.6313C129.836 42.6313 129.497 42.9706 129.497 43.3891C129.497 43.8076 129.836 44.1469 130.255 44.1469Z" fill="#F47E3E"/>
<path d="M138.851 44.145C139.268 44.145 139.606 43.8065 139.606 43.3891C139.606 42.9716 139.268 42.6332 138.851 42.6332C138.433 42.6332 138.095 42.9716 138.095 43.3891C138.095 43.8065 138.433 44.145 138.851 44.145Z" fill="#F47E3E"/>
<path d="M158.767 43.8383C158.875 43.9243 158.99 43.9529 159.112 43.9243C159.244 44.2459 159.487 44.559 159.841 44.8637C160.947 45.8182 161.013 46.852 160.036 47.9653C159.44 48.5291 158.871 49.1189 158.331 49.7348C157.621 49.632 156.908 49.602 156.19 49.645C155.828 49.6671 155.47 49.6456 155.116 49.5805C154.884 49.2198 154.604 48.9008 154.274 48.6235C153.549 47.7823 153.52 46.9184 154.188 46.0317C155.338 44.7648 156.123 44.0011 156.544 43.7407C157.326 43.2576 158.067 43.2902 158.767 43.8383Z" fill="#F5EBDE"/>
<path d="M128.958 45.9399C130.244 46.7915 131.538 46.6691 132.839 45.5727C134.015 44.8045 135.142 44.7739 136.22 45.4809C136.843 45.8898 137.198 46.1131 137.284 46.1508C138.719 46.7732 140.103 46.5812 141.435 45.5747C142.103 45.0695 142.854 44.88 143.69 45.0063C143.427 45.7159 143.539 46.3507 144.024 46.9106C144.859 47.8728 145.773 48.7517 146.767 49.5473L146.278 49.645C129.769 49.6267 121.403 49.6241 121.181 49.6372C120.95 49.6515 120.757 49.6352 120.603 49.5883C119.341 48.4021 118.668 46.9373 118.585 45.1938C118.636 45.1079 118.687 45.0916 118.739 45.145C120.04 46.4731 121.502 46.8253 123.126 46.2016C123.23 46.1612 123.631 45.9353 124.327 45.5239C125.455 44.8572 126.632 44.7726 127.86 45.27C128.006 45.3286 128.372 45.5519 128.958 45.9399Z" fill="#D6A379"/>
<path d="M151.649 45.0043C152.579 45.1345 153.425 45.477 154.188 46.0317C153.521 46.9184 153.549 47.7823 154.274 48.6235C154.604 48.9008 154.884 49.2198 155.116 49.5805C152.74 49.6755 150.364 49.6755 147.987 49.5805C149.041 48.9216 149.806 48.2081 150.282 47.4399C150.744 46.6964 150.663 45.9503 150.038 45.2016C150.55 44.9919 151.087 44.9262 151.649 45.0043Z" fill="#D6A379"/>
<path d="M146.767 49.5473C147.172 49.6398 147.578 49.6508 147.987 49.5805C150.364 49.6756 152.74 49.6756 155.116 49.5805C155.47 49.6456 155.828 49.6671 156.19 49.645C156.908 49.602 157.621 49.6319 158.331 49.7348C159.006 50.1072 159.285 50.6931 159.169 51.4926C159.173 53.2335 159.17 54.975 159.161 56.7172C158.979 56.7602 158.806 56.8279 158.642 56.9203C157.793 57.3943 156.894 57.5245 155.946 57.311C155.263 57.0232 154.67 56.6313 154.169 56.1352C154.015 55.9842 153.83 55.9119 153.614 55.9184C153.024 55.9366 152.559 56.1013 152.218 56.4125C151.957 56.6508 151.756 57.061 151.612 57.643C151.349 58.7003 151.309 59.7791 151.491 60.8793C151.68 62.9757 151.879 65.0714 152.089 67.1664C152.184 68.1196 152.056 68.9874 151.704 69.77C151.475 70.2804 151.172 70.6684 150.796 70.934C150.391 71.2205 149.91 71.3969 149.354 71.4633C148.81 71.5284 148.338 71.4431 147.937 71.2075C147.597 71.0069 147.321 70.6547 147.11 70.1508C146.761 69.3214 146.631 68.4405 146.718 67.5082C146.922 64.8715 147.149 62.2374 147.397 59.6059C147.439 59.1697 147.393 58.8181 147.259 58.5512C146.932 57.9067 146.361 57.5421 145.546 57.4575C145.813 57.4913 145.934 57.3969 145.909 57.1743C145.894 57.0297 145.886 56.9516 145.886 56.9399C145.864 54.587 145.88 52.2511 145.935 49.9321C145.935 49.9125 145.939 49.8933 145.948 49.8756C145.956 49.8579 145.968 49.8421 145.983 49.8292C145.998 49.8164 146.015 49.8067 146.034 49.8009C146.053 49.7951 146.073 49.7932 146.093 49.7953C146.306 49.8214 146.368 49.7713 146.278 49.645L146.767 49.5473ZM150.483 54.6406C150.526 54.5547 150.552 54.4611 150.559 54.3652C150.566 54.2692 150.554 54.1729 150.524 54.0816C150.494 53.9902 150.446 53.9058 150.383 53.833C150.32 53.7601 150.244 53.7004 150.158 53.6572L148.552 52.8498C148.379 52.7626 148.178 52.7478 147.993 52.8088C147.809 52.8698 147.656 53.0015 147.569 53.1751L147.543 53.2274C147.499 53.3133 147.473 53.4069 147.466 53.5029C147.459 53.5988 147.471 53.6952 147.502 53.7865C147.532 53.8778 147.58 53.9623 147.642 54.0351C147.705 54.1079 147.782 54.1676 147.868 54.2108L149.473 55.0182C149.647 55.1055 149.848 55.1202 150.032 55.0592C150.217 54.9983 150.369 54.8665 150.456 54.693L150.483 54.6406Z" fill="#8E5E47"/>
<path d="M120.603 49.5883C120.758 49.6352 120.951 49.6515 121.181 49.6371C121.404 49.6241 129.77 49.6267 146.279 49.645C146.368 49.7713 146.307 49.8214 146.093 49.7953C146.073 49.7932 146.053 49.7951 146.035 49.8009C146.016 49.8067 145.998 49.8164 145.983 49.8292C145.968 49.8421 145.956 49.8579 145.948 49.8756C145.94 49.8933 145.935 49.9125 145.935 49.9321C145.88 52.2511 145.864 54.587 145.886 56.9399C145.886 56.9516 145.894 57.0297 145.91 57.1743C145.934 57.3969 145.813 57.4913 145.546 57.4575C144.124 57.4809 143.457 58.2107 143.544 59.6469C143.592 60.4373 143.583 62.061 143.517 64.518C143.497 65.2472 143.444 65.7726 143.357 66.0942C143.215 66.6137 142.977 67.0942 142.642 67.5356C142.159 68.1723 141.592 68.4451 140.941 68.3539C140.404 68.2797 139.942 67.9822 139.554 67.4614C139.141 66.9067 138.91 66.2556 138.861 65.5082C138.827 64.9861 138.874 64.4321 139.003 63.8461C139.231 62.8136 139.423 61.6743 139.579 60.4282C139.626 60.0519 139.619 59.727 139.558 59.4536C139.486 59.128 139.376 58.8175 139.228 58.5219C138.973 58.0141 138.643 57.6736 138.238 57.5004C137.702 57.27 137.135 57.3383 136.535 57.7055C136.343 57.8227 136.039 58.0265 135.622 58.3168C134.802 58.8871 133.866 59.0987 132.814 58.9516C131.736 58.8006 130.704 58.3637 129.718 57.6411C129.041 57.145 128.629 56.8559 128.482 56.7739C128 56.5082 127.532 56.3142 127.077 56.1918C125.911 55.8793 124.82 56.0831 123.806 56.8032C123.306 57.1573 122.626 57.3754 121.767 57.4575C120.594 57.3038 119.584 56.8136 118.738 55.9868C118.686 55.936 118.624 55.919 118.552 55.936C118.534 52.6065 118.531 50.9138 118.544 50.8578C118.76 49.9425 119.346 49.5356 120.302 49.6371C120.428 49.6502 120.529 49.6339 120.603 49.5883ZM126.236 52.3898C126.149 52.2161 125.997 52.0841 125.812 52.0228C125.628 51.9615 125.427 51.9759 125.253 52.0629L123.65 52.8657C123.564 52.9087 123.487 52.9683 123.424 53.041C123.361 53.1137 123.313 53.1981 123.283 53.2894C123.252 53.3807 123.24 53.477 123.247 53.5729C123.254 53.6689 123.28 53.7625 123.323 53.8485L123.353 53.9079C123.44 54.0816 123.592 54.2136 123.776 54.2749C123.961 54.3362 124.162 54.3218 124.335 54.2349L125.939 53.432C126.025 53.389 126.101 53.3294 126.164 53.2567C126.227 53.184 126.275 53.0996 126.306 53.0083C126.336 52.9171 126.348 52.8207 126.341 52.7248C126.334 52.6288 126.309 52.5352 126.266 52.4492L126.236 52.3898ZM143.422 52.3916C143.335 52.2174 143.182 52.085 142.997 52.0236C142.813 51.9621 142.611 51.9765 142.437 52.0637L140.837 52.8648C140.663 52.952 140.531 53.1048 140.469 53.2896C140.408 53.4745 140.422 53.6761 140.509 53.8503L140.537 53.9062C140.625 54.0803 140.777 54.2127 140.962 54.2742C141.147 54.3356 141.349 54.3212 141.523 54.234L143.122 53.4329C143.297 53.3457 143.429 53.1929 143.49 53.0081C143.552 52.8233 143.538 52.6216 143.45 52.4474L143.422 52.3916ZM134.863 54.6318C134.906 54.5459 134.932 54.4525 134.938 54.3568C134.945 54.2611 134.933 54.165 134.902 54.0741C134.872 53.9831 134.824 53.899 134.761 53.8266C134.698 53.7542 134.621 53.6949 134.536 53.6521L132.924 52.8486C132.751 52.7622 132.55 52.7482 132.366 52.8096C132.183 52.8711 132.031 53.003 131.944 53.1764L131.917 53.2323C131.874 53.3182 131.848 53.4116 131.842 53.5073C131.835 53.603 131.847 53.6991 131.878 53.7901C131.908 53.881 131.956 53.9651 132.019 54.0375C132.082 54.1099 132.158 54.1692 132.244 54.212L133.856 55.0155C134.029 55.1019 134.23 55.116 134.414 55.0545C134.597 54.993 134.749 54.8611 134.836 54.6877L134.863 54.6318Z" fill="#895740"/>
<path d="M125.253 52.0629L123.65 52.8657C123.288 53.0468 123.142 53.4868 123.323 53.8485L123.353 53.9079C123.534 54.2696 123.974 54.416 124.336 54.2349L125.939 53.432C126.301 53.2509 126.447 52.8109 126.266 52.4492L126.236 52.3898C126.055 52.0281 125.615 51.8817 125.253 52.0629Z" fill="#A1AC37"/>
<path d="M142.437 52.0637L140.837 52.8648C140.475 53.0464 140.328 53.4876 140.509 53.8503L140.537 53.9062C140.719 54.2688 141.16 54.4156 141.523 54.234L143.123 53.4329C143.485 53.2513 143.632 52.8101 143.45 52.4474L143.422 52.3916C143.241 52.0289 142.8 51.8821 142.437 52.0637Z" fill="#A1AC37"/>
<path d="M134.535 53.6521L132.923 52.8486C132.562 52.6686 132.124 52.8154 131.944 53.1764L131.916 53.2324C131.736 53.5934 131.882 54.032 132.243 54.212L133.855 55.0155C134.216 55.1955 134.655 55.0488 134.835 54.6877L134.863 54.6318C135.043 54.2708 134.896 53.8322 134.535 53.6521Z" fill="#F47E3E"/>
<path d="M150.158 53.6572L148.553 52.8498C148.191 52.6681 147.751 52.8137 147.569 53.1751L147.543 53.2274C147.361 53.5888 147.507 54.0291 147.868 54.2108L149.474 55.0182C149.835 55.2 150.275 55.0544 150.457 54.693L150.483 54.6406C150.665 54.2793 150.519 53.839 150.158 53.6572Z" fill="#F47E3E"/>
<path d="M154.169 56.1352C154.67 56.6313 155.263 57.0232 155.946 57.311C155.679 63.4321 155.058 69.5167 154.083 75.5649C153.619 75.6756 153.081 75.8995 152.468 76.2368C150.752 77.1808 149.049 77.2309 147.358 76.3871C146.465 75.9418 146.019 75.7192 146.019 75.7192C144.543 75.1788 143.12 75.3103 141.749 76.1137C140.056 77.1059 138.375 77.2322 136.706 76.4926C136.705 76.4913 136.426 76.3435 135.87 76.0493C134.163 75.1469 132.477 75.1684 130.812 76.1137C128.879 77.2114 126.991 77.2361 125.147 76.1879C124.716 75.9431 124.266 75.7433 123.796 75.5883C123.768 75.5793 123.74 75.5779 123.716 75.5845C123.692 75.591 123.674 75.6049 123.667 75.6235C123.658 75.6482 123.657 75.6775 123.663 75.7114C122.671 69.6645 122.039 63.5799 121.767 57.4575C122.626 57.3754 123.306 57.1573 123.806 56.8032C124.82 56.0831 125.91 55.8793 127.077 56.1918C127.532 56.3142 128 56.5082 128.481 56.7739C128.629 56.8559 129.041 57.145 129.718 57.6411C130.703 58.3637 131.735 58.8006 132.813 58.9516C133.866 59.0987 134.802 58.8872 135.622 58.3168C136.039 58.0265 136.343 57.8227 136.534 57.7055C137.134 57.3383 137.702 57.27 138.237 57.5004C138.642 57.6736 138.972 58.0141 139.228 58.5219C139.376 58.8175 139.486 59.128 139.558 59.4536C139.619 59.727 139.626 60.0519 139.579 60.4282C139.423 61.6743 139.231 62.8136 139.003 63.8461C138.874 64.4321 138.826 64.9861 138.86 65.5082C138.91 66.2556 139.141 66.9067 139.554 67.4614C139.942 67.9822 140.404 68.2797 140.94 68.3539C141.591 68.4451 142.159 68.1723 142.642 67.5356C142.976 67.0942 143.215 66.6137 143.356 66.0942C143.444 65.7726 143.497 65.2472 143.517 64.518C143.583 62.061 143.592 60.4373 143.544 59.6469C143.457 58.2107 144.124 57.4809 145.546 57.4575C146.361 57.5421 146.932 57.9067 147.259 58.5512C147.393 58.8181 147.439 59.1697 147.397 59.6059C147.149 62.2374 146.922 64.8715 146.718 67.5082C146.631 68.4405 146.761 69.3214 147.11 70.1508C147.321 70.6547 147.597 71.0069 147.937 71.2075C148.338 71.4431 148.81 71.5284 149.354 71.4633C149.91 71.3969 150.391 71.2205 150.796 70.934C151.172 70.6684 151.475 70.2804 151.704 69.77C152.056 68.9874 152.184 68.1196 152.089 67.1664C151.879 65.0714 151.68 62.9757 151.491 60.8793C151.309 59.7791 151.349 58.7003 151.612 57.643C151.756 57.061 151.957 56.6508 152.218 56.4125C152.559 56.1013 153.024 55.9366 153.614 55.9184C153.83 55.9119 154.015 55.9842 154.169 56.1352Z" fill="#EB7D6F"/>
<path d="M118.552 55.936C118.623 55.919 118.685 55.936 118.737 55.9868C119.584 56.8136 120.593 57.3038 121.767 57.4575C122.039 63.5799 122.671 69.6645 123.663 75.7114C123.91 77.3884 124.241 79.0486 124.655 80.6918C125.245 83.4145 125.972 86.1 126.837 88.7485C127.332 90.3162 127.923 91.8461 128.61 93.3383C129.389 95.1065 130.282 96.8155 131.288 98.4653C131.645 99.3832 132.328 99.7739 133.339 99.6371C133.339 99.6371 136.971 99.6371 144.235 99.6371C144.838 99.6371 145.19 99.6241 145.292 99.5981C145.649 99.5043 145.941 99.2693 146.169 98.893C147.364 96.9138 148.328 95.0812 149.062 93.395C149.778 91.8898 150.382 90.3409 150.876 88.7485C151.737 86.0987 152.464 83.4132 153.058 80.6918C153.476 78.9978 153.817 77.2888 154.083 75.5649C155.058 69.5167 155.679 63.4321 155.946 57.311C156.894 57.5245 157.793 57.3943 158.642 56.9203C158.806 56.8279 158.979 56.7602 159.161 56.7172C158.886 65.2641 157.82 73.7088 155.962 82.0512C155.013 86.3155 153.696 90.462 152.013 94.4907C150.824 97.337 149.328 100.053 147.526 102.637C147.518 102.649 147.513 102.662 147.512 102.677C147.51 102.691 147.513 102.705 147.519 102.718C147.525 102.731 147.534 102.743 147.545 102.751C147.557 102.759 147.571 102.765 147.585 102.766C148.373 102.856 148.962 103.186 149.353 103.756C149.716 104.286 149.837 104.888 149.716 105.563C149.537 106.555 148.854 107.175 147.665 107.422C147.566 107.442 147.565 107.465 147.663 107.491C147.973 107.571 148.273 107.666 148.563 107.774C148.84 107.877 149.121 108.013 149.409 108.182C151.231 109.258 152.74 110.679 153.937 112.448C154.239 112.893 154.416 113.314 154.47 113.711C154.536 114.206 154.296 114.454 153.749 114.456C143.804 114.472 133.859 114.481 123.915 114.481C123.389 114.441 123.165 114.184 123.243 113.711C123.313 113.287 123.535 112.811 123.909 112.284C124.986 110.765 126.302 109.495 127.856 108.473C128.526 108.033 129.259 107.705 130.056 107.489C130.126 107.469 130.125 107.454 130.054 107.442C129.297 107.31 128.731 106.974 128.356 106.434C127.998 105.918 127.879 105.33 127.999 104.668C128.184 103.651 128.901 103.011 130.151 102.748C130.164 102.746 130.175 102.74 130.185 102.732C130.195 102.724 130.202 102.713 130.207 102.702C130.212 102.69 130.213 102.678 130.212 102.665C130.21 102.653 130.206 102.641 130.198 102.631C128.607 100.396 127.257 98.0343 126.149 95.5473C124.826 92.5799 123.728 89.531 122.854 86.4008C121.482 81.4946 120.468 76.5154 119.813 71.4633C119.083 65.8331 118.662 60.6573 118.552 55.936Z" fill="#E4E1EC"/>
<path d="M136.706 76.4926C138.375 77.2322 140.056 77.1059 141.749 76.1137C143.12 75.3103 144.543 75.1788 146.019 75.7192C146.019 75.7192 146.465 75.9418 147.359 76.3872C149.049 77.2309 150.752 77.1808 152.468 76.2368C153.081 75.8995 153.62 75.6756 154.083 75.5649C153.818 77.2888 153.476 78.9978 153.058 80.6918C152.911 80.7062 152.714 80.7836 152.468 80.9243C150.685 81.9399 148.881 81.9301 147.056 80.895C145.295 79.8963 143.558 79.8416 141.843 80.7309C141.154 81.0877 140.808 81.2667 140.806 81.268C139.669 81.7316 138.517 81.7882 137.351 81.4379C137.158 81.3806 136.693 81.158 135.956 80.77C134.299 79.9002 132.623 79.8839 130.929 80.7211C130.155 81.1026 129.768 81.2941 129.767 81.2954C128.126 81.923 126.528 81.7446 124.972 80.7602C124.875 80.699 124.77 80.6762 124.655 80.6918C124.241 79.0486 123.911 77.3885 123.663 75.7114C123.657 75.6775 123.658 75.6482 123.667 75.6235C123.675 75.605 123.692 75.591 123.716 75.5845C123.74 75.5779 123.769 75.5793 123.796 75.5883C124.266 75.7433 124.717 75.9431 125.148 76.1879C126.991 77.2361 128.879 77.2114 130.812 76.1137C132.477 75.1684 134.163 75.1469 135.87 76.0493C136.426 76.3435 136.705 76.4913 136.706 76.4926Z" fill="#CE444C"/>
<path d="M137.351 81.4379C138.517 81.7882 139.669 81.7315 140.806 81.268C140.808 81.2667 141.154 81.0877 141.843 80.7309C143.558 79.8416 145.295 79.8963 147.056 80.895C148.881 81.9301 150.685 81.9399 152.468 80.9242C152.714 80.7836 152.91 80.7061 153.058 80.6918C152.464 83.4132 151.737 86.0987 150.876 88.7485C150.703 88.6573 150.524 88.6241 150.341 88.6489C150.069 88.6853 149.93 88.7035 149.925 88.7035C148.93 88.7022 147.922 88.4119 146.901 87.8325C145.22 86.8806 143.521 86.8663 141.804 87.7895C141.301 88.059 141.05 88.1944 141.05 88.1957C139.387 88.9627 137.765 88.8826 136.183 87.9555C135.063 87.2992 133.908 87.044 132.718 87.1899C132.287 87.2433 131.804 87.3865 131.271 87.6196C130.806 87.8227 130.352 88.0486 129.909 88.2973C128.97 88.6944 127.998 88.7947 126.991 88.5981C126.87 88.5733 126.819 88.6235 126.837 88.7485C125.972 86.1 125.245 83.4145 124.655 80.6918C124.77 80.6762 124.875 80.699 124.972 80.7602C126.528 81.7446 128.126 81.9229 129.767 81.2953C129.768 81.294 130.155 81.1026 130.929 80.7211C132.623 79.8839 134.299 79.9002 135.956 80.77C136.693 81.158 137.158 81.3806 137.351 81.4379Z" fill="#E16E68"/>
<path d="M136.182 87.9555C137.764 88.8826 139.387 88.9627 141.049 88.1957C141.049 88.1944 141.301 88.059 141.803 87.7895C143.521 86.8663 145.22 86.8806 146.901 87.8324C147.922 88.4119 148.93 88.7022 149.924 88.7035C149.93 88.7035 150.068 88.6853 150.34 88.6488C150.524 88.6241 150.702 88.6573 150.876 88.7485C150.382 90.3409 149.777 91.8897 149.061 93.3949C148.212 93.1502 147.63 92.9321 147.315 92.7406C145.462 91.6117 143.615 91.5258 141.772 92.4828C141.13 92.8162 140.807 92.9835 140.803 92.9848C139.262 93.6371 137.786 93.5557 136.378 92.7406C134.633 91.7302 132.913 91.5857 131.217 92.307C131.215 92.307 130.919 92.4633 130.331 92.7758C129.794 93.061 129.221 93.2485 128.61 93.3383C127.923 91.8461 127.331 90.3162 126.837 88.7485C126.818 88.6235 126.87 88.5733 126.991 88.5981C127.997 88.7947 128.97 88.6944 129.909 88.2973C130.352 88.0486 130.805 87.8227 131.27 87.6195C131.804 87.3865 132.286 87.2432 132.717 87.1899C133.908 87.044 135.062 87.2992 136.182 87.9555Z" fill="#CE444C"/>
<path d="M136.378 92.7407C137.787 93.5558 139.262 93.6371 140.804 92.9848C140.808 92.9835 141.131 92.8162 141.772 92.4828C143.615 91.5258 145.463 91.6118 147.315 92.7407C147.631 92.9321 148.213 93.1502 149.062 93.395C148.328 95.0812 147.364 96.9138 146.169 98.893C145.941 99.2693 145.649 99.5043 145.292 99.5981C145.19 99.6241 144.838 99.6372 144.235 99.6372C136.971 99.6372 133.339 99.6372 133.339 99.6372C132.328 99.7739 131.645 99.3832 131.288 98.4653C130.282 96.8155 129.389 95.1065 128.61 93.3383C129.221 93.2485 129.795 93.061 130.331 92.7758C130.92 92.4633 131.215 92.3071 131.218 92.3071C132.913 91.5857 134.633 91.7302 136.378 92.7407Z" fill="#D96062"/>
</g>
<defs>
<clipPath id="clip0_544_3530">
<rect width="240" height="240" fill="white" transform="translate(0.770508 0.117065)"/>
</clipPath>
</defs>
</svg>
