<?xml version="1.0" encoding="UTF-8" standalone="no"?>
<!DOCTYPE svg PUBLIC "-//W3C//DTD SVG 1.1//EN" "http://www.w3.org/Graphics/SVG/1.1/DTD/svg11.dtd">
<svg xmlns="http://www.w3.org/2000/svg" version="1.1" viewBox="0 0 512 512">
<path fill="rgb(221,204,202)" fill-opacity="1.000" d="M 250.31 0.00 Q 255.94 0.00 261.56 0.00 Q 289.19 0.68 316.00 7.29 Q 316.02 7.51 315.93 7.68 Q 315.69 8.14 315.69 8.29 L 315.69 54.68 A 0.52 0.51 89.4 0 1 315.19 55.20 Q 286.38 55.98 257.56 55.57 A 0.52 0.52 -87.7 0 0 257.03 56.06 Q 256.25 68.51 257.00 80.96 L 248.50 81.21 Q 244.48 81.17 240.50 81.76 Q 201.47 87.49 173.00 114.54 L 109.84 114.74 A 0.71 0.69 2.2 0 0 109.13 115.38 Q 106.58 143.20 106.94 169.75 Q 106.96 171.28 107.11 172.31 A 1.09 1.05 -4.3 0 0 108.18 173.20 L 140.46 173.25 Q 137.46 187.84 137.48 202.75 Q 137.50 218.10 137.50 233.46 L 136.75 233.54 L 119.26 233.28 A 1.29 1.20 -9.2 0 1 118.09 232.50 Q 108.46 206.75 107.30 179.51 Q 107.21 177.38 106.95 174.80 A 0.89 0.88 87.1 0 0 106.07 174.00 Q 97.27 174.00 89.52 174.00 Q 88.84 174.00 86.01 174.35 Q 84.11 174.58 82.42 174.11 A 2.62 2.60 40.5 0 0 80.69 174.24 Q 78.33 175.25 78.04 174.25 L 77.96 72.25 Q 97.50 52.98 120.96 38.75 Q 121.70 39.93 121.30 41.11 Q 120.87 42.39 120.86 42.46 Q 119.71 48.13 118.42 54.10 A 1.00 0.97 6.2 0 0 119.39 55.27 L 129.43 55.40 Q 130.80 55.42 129.44 55.46 L 118.75 55.75 A 0.63 0.63 90.0 0 0 118.15 56.25 Q 112.64 84.32 109.45 113.19 A 0.69 0.69 4.3 0 0 110.11 113.95 Q 123.82 114.57 136.44 113.96 A 0.54 0.53 89.4 0 0 136.95 113.43 Q 137.64 84.97 137.25 56.21 A 0.51 0.50 89.4 0 1 137.75 55.69 L 196.25 55.21 Q 196.94 51.77 196.75 48.25 Q 196.91 34.75 196.54 21.25 L 196.25 7.29 Q 199.96 6.06 203.81 5.30 Q 226.84 0.77 250.31 0.00 Z M 255.3400 55.4458 A 0.35 0.35 0 0 0 254.9906 55.0952 L 214.6907 55.0248 A 0.35 0.35 0 0 0 214.3400 55.3742 L 214.3400 55.3942 A 0.35 0.35 0 0 0 214.6894 55.7448 L 254.9893 55.8152 A 0.35 0.35 0 0 0 255.3400 55.4658 L 255.3400 55.4458 Z"/>
<path fill="rgb(230,221,219)" fill-opacity="1.000" d="M 196.25 7.29 L 196.54 21.25 L 196.25 55.21 L 137.75 55.69 A 0.51 0.50 89.4 0 0 137.25 56.21 Q 137.64 84.97 136.95 113.43 A 0.54 0.53 89.4 0 1 136.44 113.96 Q 123.82 114.57 110.11 113.95 A 0.69 0.69 4.3 0 1 109.45 113.19 Q 112.64 84.32 118.15 56.25 A 0.63 0.63 -75.7 0 1 118.75 55.75 L 129.44 55.46 Q 130.80 55.42 129.43 55.40 L 119.39 55.27 A 1.00 0.97 6.2 0 1 118.42 54.10 Q 119.71 48.13 120.86 42.46 Q 120.87 42.39 121.30 41.11 Q 121.70 39.93 120.96 38.75 Q 155.90 16.59 196.25 7.29 Z"/>
<path fill="rgb(230,221,219)" fill-opacity="1.000" d="M 316.00 7.29 Q 316.56 7.25 318.50 7.75 Q 385.10 24.97 433.79 72.00 L 433.71 114.00 L 432.75 114.04 L 375.54 113.99 A 0.52 0.51 0.0 0 1 375.02 113.48 L 374.69 57.37 A 0.07 0.06 -85.3 0 0 374.64 57.30 L 374.59 57.28 A 0.07 0.07 -81.3 0 0 374.50 57.35 L 374.06 113.44 A 0.56 0.56 -0.5 0 1 373.51 114.00 L 339.71 114.50 L 339.25 114.54 Q 338.44 114.22 337.19 113.06 Q 303.64 81.86 257.00 80.96 Q 256.25 68.51 257.03 56.06 A 0.52 0.52 -87.7 0 1 257.56 55.57 Q 286.38 55.98 315.19 55.20 A 0.52 0.51 89.4 0 0 315.69 54.68 L 315.69 8.29 Q 315.69 8.14 315.93 7.68 Q 316.02 7.51 316.00 7.29 Z M 362.85 55.44 A 0.20 0.20 0 0 0 362.65 55.24 L 316.33 55.24 A 0.20 0.20 0 0 0 316.13 55.44 L 316.13 55.44 A 0.20 0.20 0 0 0 316.33 55.64 L 362.65 55.64 A 0.20 0.20 0 0 0 362.85 55.44 L 362.85 55.44 Z"/>
<path fill="rgb(188,172,177)" fill-opacity="1.000" d="M 196.54 21.25 Q 196.91 34.75 196.75 48.25 Q 196.94 51.77 196.25 55.21 L 196.54 21.25 Z"/>
<rect fill="rgb(210,195,194)" fill-opacity="1.000" x="-20.50" y="-0.36" width="41.00" height="0.72" rx="0.35" transform="translate(234.84,55.42) rotate(0.1)"/>
<rect fill="rgb(221,204,202)" fill-opacity="1.000" x="-23.36" y="-0.20" width="46.72" height="0.40" rx="0.20" transform="translate(339.49,55.44) rotate(0.0)"/>
<path fill="rgb(188,172,177)" fill-opacity="1.000" d="M 374.59 57.28 L 374.64 57.30 A 0.07 0.06 -85.3 0 1 374.69 57.37 L 375.02 113.48 A 0.52 0.51 0.0 0 0 375.54 113.99 L 432.75 114.04 Q 433.13 114.37 432.74 114.38 Q 410.88 115.33 389.00 114.75 Q 366.25 115.00 343.50 114.75 Q 340.33 114.71 339.71 114.50 L 373.51 114.00 A 0.56 0.56 -0.5 0 0 374.06 113.44 L 374.50 57.35 A 0.07 0.07 -81.3 0 1 374.59 57.28 Z"/>
<path fill="rgb(91,60,92)" fill-opacity="1.000" d="M 433.79 72.00 Q 461.08 98.19 479.46 131.25 Q 478.37 130.74 478.25 131.75 Q 474.86 161.12 475.78 193.51 Q 475.97 200.13 475.75 206.75 Q 476.71 240.23 470.25 268.25 Q 465.71 287.95 456.94 303.44 Q 447.07 320.87 430.36 332.98 Q 426.46 335.81 416.73 341.40 Q 404.60 348.37 403.06 349.81 Q 395.63 356.78 391.50 366.10 Q 389.70 370.16 386.69 377.19 Q 382.21 387.62 375.19 397.69 Q 370.25 404.76 357.63 420.14 Q 349.95 429.49 344.06 438.56 Q 333.07 455.50 331.43 475.99 Q 330.38 489.16 330.56 499.69 Q 330.57 500.31 331.25 500.71 Q 304.20 508.94 276.00 511.21 L 275.71 496.25 Q 276.19 494.41 276.00 492.50 Q 276.00 471.90 276.00 451.31 Q 276.00 441.35 277.28 435.29 Q 284.20 402.66 316.12 388.95 Q 327.43 384.09 338.75 379.25 Q 349.35 375.60 349.75 364.25 Q 349.72 328.63 349.79 293.00 L 433.11 292.81 A 0.61 0.61 -88.5 0 0 433.72 292.23 Q 434.36 278.50 433.71 265.50 L 433.71 233.00 L 433.71 173.75 L 433.71 114.00 L 433.79 72.00 Z"/>
<path fill="rgb(91,60,92)" fill-opacity="1.000" d="M 77.96 72.25 L 78.04 174.25 L 78.25 233.29 Q 77.63 262.90 78.24 292.23 A 0.79 0.79 89.3 0 0 79.03 293.00 L 162.46 293.00 Q 162.53 329.12 162.50 365.25 Q 163.18 375.27 172.50 378.75 Q 183.82 383.58 195.12 388.46 Q 236.95 406.53 236.25 453.00 Q 236.25 453.11 236.25 511.21 Q 205.51 508.81 176.21 499.25 Q 176.24 487.74 175.73 476.25 Q 173.83 432.74 149.07 397.19 Q 131.41 371.84 105.19 355.49 Q 95.08 349.19 85.19 342.56 Q 75.33 336.26 65.94 327.06 Q 58.44 319.72 54.07 310.78 Q 50.16 302.79 49.03 291.66 Q 47.92 280.81 49.00 269.50 Q 51.07 247.75 52.29 223.24 Q 52.88 211.41 52.71 203.26 Q 51.84 162.38 39.50 123.25 Q 39.26 122.47 37.96 122.00 Q 54.75 94.54 77.96 72.25 Z"/>
<path fill="rgb(93,106,133)" fill-opacity="1.000" d="M 257.00 80.96 Q 303.64 81.86 337.19 113.06 Q 338.44 114.22 339.25 114.54 Q 339.51 115.35 340.81 116.69 Q 364.02 140.48 371.75 173.79 Q 374.28 186.90 374.44 199.31 Q 374.57 209.30 374.50 233.21 L 373.75 233.29 L 349.79 233.50 Q 349.96 213.29 349.50 209.75 Q 348.22 199.91 340.19 195.06 Q 337.34 193.34 333.62 193.23 Q 330.52 193.13 330.37 193.12 Q 327.63 192.94 324.25 193.00 Q 318.31 193.10 187.75 192.96 Q 188.31 181.92 191.00 172.25 Q 197.28 149.68 210.39 129.37 Q 226.94 103.72 248.56 82.19 Q 248.79 81.96 248.79 81.73 Q 248.79 81.40 248.50 81.21 L 257.00 80.96 Z"/>
<path fill="rgb(82,94,119)" fill-opacity="1.000" d="M 248.50 81.21 Q 248.79 81.40 248.79 81.73 Q 248.79 81.96 248.56 82.19 Q 226.94 103.72 210.39 129.37 Q 197.28 149.68 191.00 172.25 Q 188.31 181.92 187.75 192.96 Q 187.31 193.32 186.75 193.29 Q 178.26 192.77 175.50 193.75 Q 165.01 197.49 162.75 208.50 Q 162.27 210.84 162.46 233.75 L 137.50 233.46 Q 137.50 218.10 137.48 202.75 Q 137.46 187.84 140.46 173.25 Q 148.50 139.28 173.00 114.54 Q 201.47 87.49 240.50 81.76 Q 244.48 81.17 248.50 81.21 Z"/>
<path fill="rgb(221,204,202)" fill-opacity="1.000" d="M 432.75 114.04 L 433.71 114.00 L 433.71 173.75 L 371.75 173.79 Q 364.02 140.48 340.81 116.69 Q 339.51 115.35 339.25 114.54 L 339.71 114.50 Q 340.33 114.71 343.50 114.75 Q 366.25 115.00 389.00 114.75 Q 410.88 115.33 432.74 114.38 Q 433.13 114.37 432.75 114.04 Z"/>
<path fill="rgb(230,221,219)" fill-opacity="1.000" d="M 109.84 114.74 L 173.00 114.54 Q 148.50 139.28 140.46 173.25 L 108.18 173.20 A 1.09 1.05 -4.3 0 1 107.11 172.31 Q 106.96 171.28 106.94 169.75 Q 106.58 143.20 109.13 115.38 A 0.71 0.69 2.2 0 1 109.84 114.74 Z"/>
<path fill="rgb(117,83,119)" fill-opacity="1.000" d="M 37.96 122.00 Q 39.26 122.47 39.50 123.25 Q 51.84 162.38 52.71 203.26 Q 52.88 211.41 52.29 223.24 Q 51.07 247.75 49.00 269.50 Q 47.92 280.81 49.03 291.66 Q 50.16 302.79 54.07 310.78 Q 58.44 319.72 65.94 327.06 Q 75.33 336.26 85.19 342.56 Q 95.08 349.19 105.19 355.49 Q 131.41 371.84 149.07 397.19 Q 173.83 432.74 175.73 476.25 Q 176.24 487.74 176.21 499.25 Q 88.05 469.30 39.19 392.06 Q 1.99 333.26 0.00 261.44 Q 0.00 256.81 0.00 252.19 Q 1.39 181.77 37.96 122.00 Z"/>
<path fill="rgb(117,83,119)" fill-opacity="1.000" d="M 479.46 131.25 Q 510.74 187.46 512.00 252.06 Q 512.00 255.81 512.00 259.56 Q 511.09 310.08 492.19 354.69 Q 457.05 437.63 377.19 481.44 Q 356.06 493.03 331.25 500.71 Q 330.57 500.31 330.56 499.69 Q 330.38 489.16 331.43 475.99 Q 333.07 455.50 344.06 438.56 Q 349.95 429.49 357.63 420.14 Q 370.25 404.76 375.19 397.69 Q 382.21 387.62 386.69 377.19 Q 389.70 370.16 391.50 366.10 Q 395.63 356.78 403.06 349.81 Q 404.60 348.37 416.73 341.40 Q 426.46 335.81 430.36 332.98 Q 447.07 320.87 456.94 303.44 Q 465.71 287.95 470.25 268.25 Q 476.71 240.23 475.75 206.75 Q 475.97 200.13 475.78 193.51 Q 474.86 161.12 478.25 131.75 Q 478.37 130.74 479.46 131.25 Z"/>
<path fill="rgb(210,195,194)" fill-opacity="1.000" d="M 106.95 174.80 Q 107.21 177.38 107.30 179.51 Q 108.46 206.75 118.09 232.50 A 1.29 1.20 -9.2 0 0 119.26 233.28 L 136.75 233.54 L 119.04 233.75 Q 101.24 233.56 83.44 233.94 Q 80.85 233.57 78.25 233.29 L 78.04 174.25 Q 78.33 175.25 80.69 174.24 A 2.62 2.60 40.5 0 1 82.42 174.11 Q 84.11 174.58 86.01 174.35 Q 88.84 174.00 89.52 174.00 Q 97.27 174.00 106.07 174.00 A 0.89 0.88 87.1 0 1 106.95 174.80 Z"/>
<path fill="rgb(230,221,219)" fill-opacity="1.000" d="M 371.75 173.79 L 433.71 173.75 L 433.71 233.00 Q 431.24 233.33 427.50 233.25 Q 403.47 232.71 374.50 233.21 Q 374.57 209.30 374.44 199.31 Q 374.28 186.90 371.75 173.79 Z"/>
<path fill="rgb(251,203,188)" fill-opacity="1.000" d="M 187.75 192.96 Q 318.31 193.10 324.25 193.00 Q 327.63 192.94 330.37 193.12 Q 330.52 193.13 333.62 193.23 Q 337.34 193.34 340.19 195.06 Q 348.22 199.91 349.50 209.75 Q 349.96 213.29 349.79 233.50 L 349.79 293.00 Q 349.72 328.63 349.75 364.25 Q 349.35 375.60 338.75 379.25 Q 327.43 384.09 316.12 388.95 Q 284.20 402.66 277.28 435.29 Q 276.00 441.35 276.00 451.31 Q 276.00 471.90 276.00 492.50 Q 276.19 494.41 275.71 496.25 Q 268.20 495.22 263.16 490.24 Q 260.56 487.68 258.68 483.62 Q 256.98 479.96 256.06 475.99 Q 254.13 467.73 253.73 459.25 Q 253.14 447.04 253.98 434.87 Q 254.83 422.52 255.50 417.63 Q 256.79 408.32 260.06 400.81 Q 265.49 388.34 277.97 383.01 Q 283.80 380.52 289.93 378.91 Q 296.08 377.29 302.02 375.07 Q 313.33 370.84 318.84 360.14 Q 324.21 349.74 319.45 339.05 Q 317.93 335.64 315.95 332.48 Q 315.78 332.20 315.24 331.84 Q 314.51 331.34 314.54 330.25 Q 314.83 326.50 315.00 322.75 Q 316.08 314.34 321.31 309.31 Q 327.24 303.62 328.88 296.52 Q 330.22 290.69 328.43 285.03 Q 326.65 279.39 322.06 274.94 Q 317.43 270.44 315.63 264.10 Q 315.11 262.24 314.88 259.21 Q 314.53 254.44 314.50 254.25 Q 311.66 238.00 296.64 234.39 Q 295.35 234.07 289.81 233.80 Q 280.50 233.34 272.94 226.31 Q 259.59 213.91 244.08 222.60 Q 242.39 223.55 239.06 226.65 Q 232.51 232.75 223.25 233.75 Q 218.94 233.52 214.75 234.54 Q 204.36 237.10 199.25 246.54 Q 198.40 246.56 198.25 245.75 Q 187.77 227.92 186.00 207.25 Q 185.46 200.95 186.75 193.29 Q 187.31 193.32 187.75 192.96 Z"/>
<path fill="rgb(253,173,155)" fill-opacity="1.000" d="M 186.75 193.29 Q 185.46 200.95 186.00 207.25 Q 187.77 227.92 198.25 245.75 Q 198.40 246.56 199.25 246.54 Q 197.33 251.25 197.00 259.50 Q 196.69 267.30 191.18 273.47 Q 186.94 278.23 186.40 279.07 Q 176.81 293.93 189.31 308.19 Q 194.46 312.96 196.24 319.47 Q 196.53 320.53 197.11 327.61 Q 198.39 343.46 213.52 348.73 Q 215.77 349.52 218.57 349.73 Q 221.16 349.93 223.75 350.00 Q 232.75 350.80 239.06 357.20 Q 245.42 363.64 254.25 364.25 Q 263.50 364.89 270.60 359.30 Q 270.61 359.28 273.68 356.46 Q 280.33 350.36 289.40 349.80 Q 294.54 349.48 294.58 349.48 Q 310.01 347.25 314.29 331.75 Q 314.63 331.05 314.54 330.25 Q 314.51 331.34 315.24 331.84 Q 315.78 332.20 315.95 332.48 Q 317.93 335.64 319.45 339.05 Q 324.21 349.74 318.84 360.14 Q 313.33 370.84 302.02 375.07 Q 296.08 377.29 289.93 378.91 Q 283.80 380.52 277.97 383.01 Q 265.49 388.34 260.06 400.81 Q 256.79 408.32 255.50 417.63 Q 254.83 422.52 253.98 434.87 Q 253.14 447.04 253.73 459.25 Q 254.13 467.73 256.06 475.99 Q 256.98 479.96 258.68 483.62 Q 260.56 487.68 263.16 490.24 Q 268.20 495.22 275.71 496.25 L 276.00 511.21 Q 268.34 511.60 260.69 512.00 Q 255.94 512.00 251.19 512.00 Q 243.72 511.61 236.25 511.21 Q 236.25 453.11 236.25 453.00 Q 236.95 406.53 195.12 388.46 Q 183.82 383.58 172.50 378.75 Q 163.18 375.27 162.50 365.25 Q 162.53 329.12 162.46 293.00 L 162.46 268.75 L 162.46 233.75 Q 162.27 210.84 162.75 208.50 Q 165.01 197.49 175.50 193.75 Q 178.26 192.77 186.75 193.29 Z"/>
<path fill="rgb(232,114,71)" fill-opacity="1.000" d="M 272.94 226.31 Q 280.50 233.34 289.81 233.80 Q 295.35 234.07 296.64 234.39 Q 311.66 238.00 314.50 254.25 Q 314.53 254.44 314.88 259.21 Q 315.11 262.24 315.63 264.10 Q 317.43 270.44 322.06 274.94 Q 326.65 279.39 328.43 285.03 Q 330.22 290.69 328.88 296.52 Q 327.24 303.62 321.31 309.31 Q 316.08 314.34 315.00 322.75 Q 314.83 326.50 314.54 330.25 Q 314.63 331.05 314.29 331.75 Q 314.22 331.11 313.89 330.65 Q 313.61 330.27 312.94 330.11 Q 302.28 327.51 292.50 331.75 Q 284.01 335.43 276.86 338.22 Q 266.91 342.10 260.66 342.85 Q 247.03 344.49 234.01 338.65 Q 225.14 334.67 220.56 327.94 Q 216.30 321.66 209.07 307.87 Q 204.42 299.02 203.65 296.60 Q 201.58 290.11 203.25 283.75 Q 205.48 275.25 212.35 261.89 Q 217.18 252.48 217.00 244.00 Q 216.93 240.72 214.75 234.54 Q 218.94 233.52 223.25 233.75 Q 232.51 232.75 239.06 226.65 Q 242.39 223.55 244.08 222.60 Q 259.59 213.91 272.94 226.31 Z M 294.1770 292.0889 A 6.06 6.06 0 0 0 294.1620 283.5187 L 266.8484 256.3004 A 6.06 6.06 0 0 0 258.2783 256.3153 L 258.1230 256.4711 A 6.06 6.06 0 0 0 258.1380 265.0413 L 285.4516 292.2597 A 6.06 6.06 0 0 0 294.0217 292.2447 L 294.1770 292.0889 Z M 232.1490 258.7723 A 6.03 6.03 0 0 0 223.6213 258.7723 L 223.5223 258.8713 A 6.03 6.03 0 0 0 223.5223 267.3990 L 278.1110 321.9877 A 6.03 6.03 0 0 0 286.6387 321.9877 L 286.7377 321.8887 A 6.03 6.03 0 0 0 286.7377 313.3610 L 232.1490 258.7723 Z M 253.3465 326.9953 A 6.06 6.06 0 0 0 253.3316 318.4252 L 226.6130 291.7997 A 6.06 6.06 0 0 0 218.0429 291.8147 L 217.8735 291.9847 A 6.06 6.06 0 0 0 217.8884 300.5548 L 244.6070 327.1803 A 6.06 6.06 0 0 0 253.1771 327.1653 L 253.3465 326.9953 Z"/>
<path fill="rgb(221,204,202)" fill-opacity="1.000" d="M 427.50 233.25 Q 431.24 233.33 433.71 233.00 L 433.71 265.50 Q 419.72 271.01 405.75 273.25 Q 399.17 274.30 392.74 273.00 Q 385.82 271.59 381.30 267.50 Q 374.23 261.11 373.50 250.25 Q 372.96 242.18 373.92 235.74 A 1.26 0.70 41.6 0 0 373.63 234.91 Q 373.29 234.46 373.62 233.93 A 0.45 0.37 12.8 0 1 373.98 233.75 Q 376.01 233.76 373.75 233.29 L 374.50 233.21 Q 403.47 232.71 427.50 233.25 Z"/>
<path fill="rgb(221,204,202)" fill-opacity="1.000" d="M 78.25 233.29 Q 80.85 233.57 83.44 233.94 Q 101.24 233.56 119.04 233.75 Q 121.37 239.51 125.44 245.56 Q 138.82 265.48 162.46 268.75 L 162.46 293.00 L 79.03 293.00 A 0.79 0.79 89.3 0 1 78.24 292.23 Q 77.63 262.90 78.25 233.29 Z"/>
<path fill="rgb(210,195,194)" fill-opacity="1.000" d="M 373.75 233.29 Q 376.01 233.76 373.98 233.75 A 0.45 0.37 12.8 0 0 373.62 233.93 Q 373.29 234.46 373.63 234.91 A 1.26 0.70 41.6 0 1 373.92 235.74 Q 372.96 242.18 373.50 250.25 Q 374.23 261.11 381.30 267.50 Q 385.82 271.59 392.74 273.00 Q 399.17 274.30 405.75 273.25 Q 419.72 271.01 433.71 265.50 Q 434.36 278.50 433.72 292.23 A 0.61 0.61 -88.5 0 1 433.11 292.81 L 349.79 293.00 L 349.79 233.50 L 373.75 233.29 Z"/>
<path fill="rgb(230,221,219)" fill-opacity="1.000" d="M 136.75 233.54 L 137.50 233.46 L 162.46 233.75 L 162.46 268.75 Q 138.82 265.48 125.44 245.56 Q 121.37 239.51 119.04 233.75 L 136.75 233.54 Z"/>
<path fill="rgb(209,98,62)" fill-opacity="1.000" d="M 214.75 234.54 Q 216.93 240.72 217.00 244.00 Q 217.18 252.48 212.35 261.89 Q 205.48 275.25 203.25 283.75 Q 201.58 290.11 203.65 296.60 Q 204.42 299.02 209.07 307.87 Q 216.30 321.66 220.56 327.94 Q 225.14 334.67 234.01 338.65 Q 247.03 344.49 260.66 342.85 Q 266.91 342.10 276.86 338.22 Q 284.01 335.43 292.50 331.75 Q 302.28 327.51 312.94 330.11 Q 313.61 330.27 313.89 330.65 Q 314.22 331.11 314.29 331.75 Q 310.01 347.25 294.58 349.48 Q 294.54 349.48 289.40 349.80 Q 280.33 350.36 273.68 356.46 Q 270.61 359.28 270.60 359.30 Q 263.50 364.89 254.25 364.25 Q 245.42 363.64 239.06 357.20 Q 232.75 350.80 223.75 350.00 Q 221.16 349.93 218.57 349.73 Q 215.77 349.52 213.52 348.73 Q 198.39 343.46 197.11 327.61 Q 196.53 320.53 196.24 319.47 Q 194.46 312.96 189.31 308.19 Q 176.81 293.93 186.40 279.07 Q 186.94 278.23 191.18 273.47 Q 196.69 267.30 197.00 259.50 Q 197.33 251.25 199.25 246.54 Q 204.36 237.10 214.75 234.54 Z"/>
<rect fill="rgb(183,82,54)" fill-opacity="1.000" x="-25.34" y="-6.17" width="50.68" height="12.34" rx="6.06" transform="translate(276.15,274.28) rotate(44.9)"/>
<rect fill="rgb(183,82,54)" fill-opacity="1.000" x="-6.10" y="-44.63" width="12.20" height="89.26" rx="6.03" transform="translate(255.13,290.38) rotate(-45.0)"/>
<rect fill="rgb(183,82,54)" fill-opacity="1.000" x="-24.92" y="-6.18" width="49.84" height="12.36" rx="6.06" transform="translate(235.61,309.49) rotate(44.9)"/>
</svg>