<svg width="240" height="240" viewBox="0 0 240 240" fill="none" xmlns="http://www.w3.org/2000/svg">
<g clip-path="url(#clip0_541_1313)">
<path d="M117.333 0C119.092 0 120.85 0 122.606 0C131.241 0.2125 139.747 1.35156 148.125 3.41719C148.131 3.48594 148.121 3.54687 148.092 3.6C148.017 3.74375 147.98 3.83906 147.98 3.88594V25.6313C147.98 25.6951 147.955 25.7564 147.912 25.802C147.868 25.8476 147.808 25.8738 147.746 25.875C138.742 26.1188 129.738 26.1766 120.731 26.0484C120.668 26.0471 120.607 26.0703 120.561 26.1132C120.515 26.156 120.487 26.2151 120.483 26.2781C120.239 30.1688 120.235 34.0594 120.469 37.95L116.485 38.0672C115.228 38.0547 113.978 38.1406 112.735 38.325C100.538 40.1156 89.9908 45.2375 81.0939 53.6906L51.4877 53.7844C51.4033 53.784 51.322 53.8148 51.2603 53.8704C51.1985 53.9261 51.1608 54.0026 51.1549 54.0844C50.358 62.7781 50.0158 71.2734 50.1283 79.5703C50.1346 80.0484 50.1611 80.4484 50.208 80.7703C50.2259 80.8863 50.2863 80.9922 50.3783 81.0687C50.4703 81.1452 50.5877 81.1873 50.7096 81.1875L65.8408 81.2109C64.9033 85.7703 64.4377 90.3797 64.4439 95.0391C64.4502 99.8359 64.4533 104.634 64.4533 109.434L64.1018 109.472L55.9033 109.35C55.7818 109.349 55.6645 109.313 55.5666 109.248C55.4688 109.182 55.395 109.091 55.3549 108.984C52.3455 100.938 50.6596 92.6578 50.2971 84.1453C50.2689 83.4797 50.2143 82.7438 50.133 81.9375C50.1225 81.8344 50.0745 81.7389 49.9982 81.6696C49.922 81.6002 49.823 81.5621 49.7205 81.5625C46.9705 81.5625 44.3846 81.5625 41.9627 81.5625C41.7502 81.5625 41.2018 81.6172 40.3174 81.7266C39.7236 81.7984 39.1627 81.7609 38.6346 81.6141C38.3645 81.5414 38.0784 81.5629 37.8236 81.675C37.0861 81.9906 36.6721 81.9922 36.5814 81.6797L36.5439 33.8672C42.6502 27.8453 49.3689 22.6109 56.7002 18.1641C56.9314 18.5328 56.9846 18.9016 56.8596 19.2703C56.7252 19.6703 56.6564 19.8812 56.6533 19.9031C56.2939 21.675 55.9127 23.4937 55.5096 25.3594C55.4958 25.425 55.4971 25.4929 55.5136 25.5581C55.53 25.6234 55.561 25.6844 55.6044 25.7368C55.6479 25.7892 55.7027 25.8317 55.7649 25.8613C55.8271 25.8908 55.8952 25.9067 55.9643 25.9078L60.6705 25.9688C61.0986 25.975 61.1002 25.9844 60.6752 25.9969L55.6643 26.1328C55.5978 26.1346 55.534 26.1586 55.4829 26.2012C55.4319 26.2437 55.3967 26.3022 55.383 26.3672C53.6611 35.1391 52.3018 44.0359 51.3049 53.0578C51.3004 53.1018 51.3049 53.1462 51.3182 53.1884C51.3316 53.2306 51.3534 53.2695 51.3824 53.3029C51.4114 53.3363 51.4469 53.3634 51.4868 53.3825C51.5267 53.4016 51.5701 53.4124 51.6143 53.4141C55.8986 53.6078 60.0127 53.6094 63.9564 53.4187C64.0199 53.4163 64.0801 53.3893 64.1245 53.343C64.169 53.2968 64.1944 53.235 64.1955 53.1703C64.4111 44.2766 64.458 35.3359 64.3361 26.3484C64.3355 26.3166 64.3411 26.285 64.3526 26.2555C64.3641 26.2259 64.3813 26.199 64.4031 26.1763C64.4249 26.1536 64.451 26.1356 64.4797 26.1233C64.5085 26.111 64.5393 26.1047 64.5705 26.1047L91.9924 25.8797C92.208 24.8047 92.2861 23.7172 92.2268 22.6172C92.2768 18.3984 92.2439 14.1797 92.1283 9.96094L91.9924 3.41719C93.1518 3.03281 94.333 2.72188 95.5361 2.48438C102.733 1.06875 109.999 0.240625 117.333 0ZM119.691 25.9902C119.691 25.9687 119.687 25.9473 119.678 25.9274C119.67 25.9075 119.658 25.8894 119.643 25.8741C119.628 25.8589 119.61 25.8467 119.59 25.8385C119.57 25.8302 119.549 25.8259 119.527 25.8259L100.636 25.7929C100.615 25.7928 100.594 25.797 100.574 25.8052C100.554 25.8134 100.536 25.8255 100.52 25.8407C100.505 25.8559 100.493 25.874 100.485 25.8939C100.476 25.9138 100.472 25.9351 100.472 25.9567V25.966C100.472 25.9876 100.476 26.0089 100.484 26.0288C100.493 26.0488 100.505 26.0669 100.52 26.0821C100.535 26.0974 100.553 26.1095 100.573 26.1178C100.593 26.1261 100.614 26.1303 100.636 26.1304L119.526 26.1634C119.548 26.1634 119.569 26.1592 119.589 26.151C119.609 26.1428 119.627 26.1307 119.643 26.1155C119.658 26.1003 119.67 26.0823 119.678 26.0624C119.687 26.0425 119.691 26.0211 119.691 25.9996V25.9902Z" fill="#DDCCCA" stroke="#DDCCCA"/>
<path d="M91.9919 3.41719L92.1279 9.96094L91.9919 25.8797L64.5701 26.1047C64.5389 26.1047 64.508 26.111 64.4793 26.1233C64.4505 26.1356 64.4245 26.1536 64.4026 26.1763C64.3808 26.199 64.3636 26.2259 64.3522 26.2555C64.3407 26.285 64.3351 26.3166 64.3357 26.3484C64.4576 35.3359 64.4107 44.2766 64.1951 53.1703C64.1939 53.235 64.1685 53.2968 64.1241 53.343C64.0796 53.3893 64.0195 53.4163 63.956 53.4187C60.0122 53.6094 55.8982 53.6078 51.6138 53.4141C51.5696 53.4124 51.5262 53.4016 51.4864 53.3825C51.4465 53.3634 51.411 53.3363 51.382 53.3029C51.353 53.2695 51.3311 53.2306 51.3178 53.1884C51.3045 53.1462 51.2999 53.1018 51.3044 53.0578C52.3013 44.0359 53.6607 35.1391 55.3826 26.3672C55.3962 26.3022 55.4314 26.2437 55.4825 26.2012C55.5335 26.1586 55.5974 26.1346 55.6638 26.1328L60.6747 25.9969C61.0997 25.9844 61.0982 25.975 60.67 25.9688L55.9638 25.9078C55.8947 25.9067 55.8266 25.8908 55.7644 25.8613C55.7022 25.8317 55.6474 25.7892 55.604 25.7368C55.5605 25.6844 55.5295 25.6234 55.5131 25.5581C55.4967 25.4929 55.4953 25.425 55.5091 25.3594C55.9122 23.4937 56.2935 21.675 56.6529 19.9031C56.656 19.8812 56.7247 19.6703 56.8591 19.2703C56.9841 18.9016 56.931 18.5328 56.6997 18.1641C67.6185 11.2391 79.3826 6.32344 91.9919 3.41719Z" fill="#E6DDDB" stroke="#E6DDDB"/>
<path d="M148.125 3.41719C148.3 3.40469 148.691 3.47656 149.297 3.63281C170.11 9.01406 188.124 19.0531 203.34 33.75L203.302 53.4375L202.852 53.4562L176.035 53.4328C175.97 53.4328 175.908 53.4076 175.862 53.3628C175.817 53.318 175.791 53.2572 175.791 53.1937L175.636 26.8922C175.637 26.8842 175.634 26.8765 175.63 26.8705C175.626 26.8645 175.62 26.8605 175.613 26.8594L175.59 26.85C175.585 26.8485 175.579 26.8482 175.574 26.8492C175.569 26.8501 175.564 26.8523 175.56 26.8555C175.556 26.8587 175.553 26.8629 175.55 26.8676C175.548 26.8724 175.547 26.8776 175.547 26.8828L175.341 53.175C175.341 53.2438 175.314 53.3099 175.266 53.359C175.218 53.4081 175.152 53.4363 175.083 53.4375L159.24 53.6719L159.024 53.6906C158.771 53.5906 158.449 53.3594 158.058 52.9969C147.574 43.2469 135.044 38.2312 120.469 37.95C120.235 34.0594 120.24 30.1688 120.483 26.2781C120.487 26.2151 120.515 26.156 120.561 26.1132C120.607 26.0703 120.669 26.0471 120.732 26.0484C129.738 26.1766 138.743 26.1187 147.746 25.875C147.808 25.8738 147.868 25.8476 147.912 25.802C147.956 25.7564 147.98 25.6951 147.98 25.6312V3.88594C147.98 3.83906 148.018 3.74375 148.093 3.6C148.121 3.54687 148.132 3.48594 148.125 3.41719ZM170.086 25.9875C170.086 25.9626 170.077 25.9388 170.059 25.9212C170.041 25.9036 170.018 25.8938 169.993 25.8938H148.28C148.255 25.8938 148.231 25.9036 148.214 25.9212C148.196 25.9388 148.186 25.9626 148.186 25.9875C148.186 26.0124 148.196 26.0362 148.214 26.0538C148.231 26.0714 148.255 26.0812 148.28 26.0812H169.993C170.018 26.0812 170.041 26.0714 170.059 26.0538C170.077 26.0362 170.086 26.0124 170.086 25.9875Z" fill="#E6DDDB" stroke="#E6DDDB"/>
<path d="M92.1281 9.96094C92.2437 14.1797 92.2766 18.3984 92.2266 22.6172C92.2859 23.7172 92.2078 24.8047 91.9922 25.8797L92.1281 9.96094Z" fill="#BCACB1" stroke="#BCACB1"/>
<path d="M119.527 25.8259L100.637 25.7929C100.546 25.7927 100.473 25.8661 100.472 25.9567L100.472 25.966C100.472 26.0566 100.546 26.1302 100.636 26.1304L119.527 26.1634C119.617 26.1635 119.691 26.0902 119.691 25.9996L119.691 25.9902C119.691 25.8996 119.618 25.826 119.527 25.8259Z" fill="#D2C3C2" stroke="#D2C3C2"/>
<path d="M169.992 25.8938H148.279C148.228 25.8938 148.186 25.9357 148.186 25.9875C148.186 26.0393 148.228 26.0813 148.279 26.0813H169.992C170.044 26.0813 170.086 26.0393 170.086 25.9875C170.086 25.9357 170.044 25.8938 169.992 25.8938Z" fill="#DDCCCA" stroke="#DDCCCA"/>
<path d="M175.589 26.85L175.613 26.8594C175.619 26.8605 175.626 26.8645 175.63 26.8705C175.634 26.8765 175.636 26.8842 175.636 26.8922L175.791 53.1938C175.791 53.2572 175.817 53.318 175.862 53.3628C175.908 53.4076 175.97 53.4328 176.035 53.4328L202.852 53.4563C202.971 53.5594 202.969 53.6125 202.847 53.6156C196.016 53.9125 189.181 53.9703 182.344 53.7891C175.235 53.8672 168.125 53.8672 161.016 53.7891C160.025 53.7766 159.433 53.7375 159.239 53.6719L175.083 53.4375C175.152 53.4363 175.217 53.4081 175.266 53.359C175.314 53.3099 175.341 53.2438 175.341 53.175L175.547 26.8828C175.547 26.8776 175.548 26.8724 175.55 26.8676C175.552 26.8629 175.556 26.8587 175.56 26.8555C175.564 26.8523 175.569 26.8501 175.574 26.8492C175.579 26.8482 175.584 26.8485 175.589 26.85Z" fill="#BCACB1" stroke="#BCACB1"/>
<path d="M203.339 33.75C211.867 41.9344 219.003 51.1922 224.747 61.5234C224.406 61.3641 224.217 61.4422 224.18 61.7578C223.121 70.9359 222.735 80.5859 223.022 90.7078C223.081 92.7766 223.077 94.8453 223.008 96.9141C223.308 107.377 222.449 116.986 220.43 125.742C219.011 131.898 216.931 137.397 214.191 142.238C211.106 147.684 206.953 152.3 201.731 156.084C200.513 156.969 198.383 158.284 195.342 160.031C191.552 162.209 189.416 163.523 188.935 163.973C186.613 166.152 184.806 168.697 183.516 171.609C182.953 172.878 182.202 174.611 181.261 176.808C179.861 180.067 178.064 183.27 175.871 186.417C174.327 188.627 171.583 192.134 167.639 196.941C165.239 199.863 163.119 202.741 161.278 205.575C157.844 210.869 155.871 216.717 155.358 223.12C155.03 227.236 154.894 230.939 154.95 234.23C154.953 234.423 155.061 234.583 155.274 234.708C146.821 237.28 138.188 238.92 129.375 239.63L129.239 232.617C129.389 232.042 129.435 231.456 129.375 230.859C129.375 224.422 129.375 217.986 129.375 211.552C129.375 208.439 129.575 205.936 129.975 204.042C132.138 193.845 138.206 186.605 148.181 182.32C151.716 180.802 155.252 179.286 158.789 177.773C162.102 176.633 163.821 174.289 163.946 170.742C163.936 159.611 163.942 148.478 163.964 137.344L203.021 137.255C203.094 137.255 203.165 137.227 203.218 137.176C203.271 137.125 203.303 137.056 203.306 136.983C203.506 132.692 203.505 128.516 203.302 124.453V109.219V81.4453V53.4375L203.339 33.75Z" fill="#5B3C5C" stroke="#5B3C5C"/>
<path d="M36.5439 33.8672L36.5814 81.6797L36.6799 109.355C36.4861 118.608 36.4846 127.817 36.6752 136.983C36.6776 137.079 36.7177 137.171 36.7869 137.239C36.8561 137.306 36.9489 137.344 37.0455 137.344H76.1533C76.1752 148.631 76.1814 159.92 76.1721 171.211C76.3846 174.342 77.9471 176.452 80.8596 177.539C84.3971 179.048 87.9314 180.566 91.4627 182.091C104.535 187.737 110.961 197.822 110.742 212.344C110.742 212.378 110.742 221.473 110.742 239.63C101.136 238.88 91.7549 237.011 82.5986 234.023C82.608 230.427 82.533 226.833 82.3736 223.242C81.7799 209.645 77.6143 197.292 69.8768 186.183C64.358 178.261 57.5018 171.745 49.308 166.636C46.1486 164.667 43.0236 162.647 39.933 160.575C36.8518 158.606 33.8439 156.184 30.9096 153.309C28.5658 151.016 26.7111 148.472 25.3455 145.678C24.1236 143.181 23.3361 140.194 22.983 136.716C22.6361 133.325 22.6314 129.862 22.9689 126.328C23.6158 119.531 24.1299 112.303 24.5111 104.644C24.6955 100.947 24.7611 97.825 24.708 95.2781C24.4361 82.5031 22.3721 70.0016 18.5158 57.7734C18.4408 57.5297 18.2002 57.3344 17.7939 57.1875C23.0408 48.6062 29.2908 40.8328 36.5439 33.8672Z" fill="#5B3C5C" stroke="#5B3C5C"/>
<path d="M120.469 37.95C135.044 38.2313 147.573 43.2469 158.058 52.9969C158.448 53.3594 158.77 53.5906 159.023 53.6906C159.105 53.9438 159.348 54.2797 159.755 54.6984C167.008 62.1328 171.842 71.0547 174.258 81.4641C175.048 85.5609 175.469 89.5484 175.519 93.4266C175.559 96.5484 175.569 101.845 175.547 109.317L175.195 109.355L163.964 109.453C164.017 103.138 163.972 99.4266 163.828 98.3203C163.428 95.2453 161.973 92.95 159.464 91.4344C158.573 90.8969 157.547 90.6109 156.384 90.5766C155.416 90.5453 154.908 90.5281 154.861 90.525C154.005 90.4687 153.048 90.45 151.992 90.4688C150.136 90.5 128.808 90.4938 88.0078 90.45C88.1828 87 88.6906 83.7641 89.5313 80.7422C91.4938 73.6891 94.5234 66.9891 98.6203 60.6422C103.792 52.6266 109.756 45.2547 116.513 38.5266C116.584 38.4547 116.62 38.3828 116.62 38.3109C116.62 38.2078 116.575 38.1266 116.484 38.0672L120.469 37.95Z" fill="#5D6A85" stroke="#5D6A85"/>
<path d="M116.484 38.0672C116.575 38.1266 116.62 38.2078 116.62 38.3109C116.62 38.3828 116.584 38.4547 116.512 38.5266C109.756 45.2547 103.792 52.6266 98.62 60.6422C94.5231 66.9891 91.4934 73.6891 89.5309 80.7422C88.6903 83.7641 88.1825 87 88.0075 90.45C87.87 90.5625 87.7137 90.6141 87.5387 90.6047C84.8856 90.4422 83.1278 90.5141 82.2653 90.8203C78.9872 91.9891 76.995 94.2937 76.2887 97.7344C76.1387 98.4656 76.0934 102.411 76.1528 109.57L64.4528 109.434C64.4528 104.634 64.4497 99.8359 64.4434 95.0391C64.4372 90.3797 64.9028 85.7703 65.8403 81.2109C68.3528 70.5953 73.4372 61.4219 81.0934 53.6906C89.9903 45.2375 100.537 40.1156 112.734 38.325C113.978 38.1406 115.228 38.0547 116.484 38.0672Z" fill="#525E77" stroke="#525E77"/>
<path d="M202.852 53.4563L203.302 53.4375V81.4453L174.258 81.4641C171.842 71.0547 167.008 62.1328 159.755 54.6984C159.348 54.2797 159.105 53.9438 159.023 53.6906L159.239 53.6719C159.433 53.7375 160.025 53.7766 161.016 53.7891C168.125 53.8672 175.234 53.8672 182.344 53.7891C189.181 53.9703 196.016 53.9125 202.847 53.6156C202.969 53.6125 202.97 53.5594 202.852 53.4563Z" fill="#DDCCCA" stroke="#DDCCCA"/>
<path d="M51.4877 53.7844L81.0939 53.6906C73.4377 61.4219 68.3533 70.5953 65.8408 81.2109L50.7095 81.1875C50.5877 81.1873 50.4702 81.1451 50.3783 81.0687C50.2863 80.9922 50.2259 80.8863 50.208 80.7703C50.1611 80.4484 50.1345 80.0484 50.1283 79.5703C50.0158 71.2734 50.358 62.7781 51.1549 54.0844C51.1608 54.0026 51.1985 53.9261 51.2602 53.8704C51.322 53.8148 51.4033 53.784 51.4877 53.7844Z" fill="#E6DDDB" stroke="#E6DDDB"/>
<path d="M17.7937 57.1875C18.2 57.3344 18.4406 57.5297 18.5156 57.7734C22.3719 70.0016 24.4359 82.5031 24.7078 95.2781C24.7609 97.825 24.6953 100.947 24.5109 104.644C24.1297 112.303 23.6156 119.531 22.9688 126.328C22.6312 129.862 22.6359 133.325 22.9828 136.716C23.3359 140.194 24.1234 143.181 25.3453 145.678C26.7109 148.472 28.5656 151.016 30.9094 153.309C33.8438 156.184 36.8516 158.606 39.9328 160.575C43.0234 162.647 46.1484 164.667 49.3078 166.636C57.5016 171.745 64.3578 178.261 69.8766 186.183C77.6141 197.292 81.7797 209.645 82.3734 223.242C82.5328 226.833 82.6078 230.427 82.5984 234.023C55.0484 224.664 33.6391 207.916 18.3703 183.778C6.74531 165.403 0.621875 144.994 0 122.55C0 121.103 0 119.658 0 118.214C0.434375 96.2078 6.36562 75.8656 17.7937 57.1875Z" fill="#755377" stroke="#755377"/>
<path d="M224.747 61.5234C234.522 79.0891 239.606 97.9656 240 118.153C240 119.325 240 120.497 240 121.669C239.715 137.456 236.62 152.32 230.714 166.261C219.733 192.18 201.764 211.984 176.808 225.675C170.205 229.297 163.026 232.308 155.273 234.708C155.061 234.583 154.953 234.423 154.95 234.23C154.894 230.939 155.03 227.236 155.358 223.12C155.87 216.717 157.844 210.869 161.278 205.575C163.119 202.741 165.239 199.863 167.639 196.941C171.583 192.134 174.326 188.627 175.87 186.417C178.064 183.27 179.861 180.067 181.261 176.808C182.201 174.611 182.953 172.878 183.515 171.609C184.806 168.697 186.612 166.152 188.934 163.973C189.415 163.523 191.551 162.209 195.342 160.031C198.383 158.284 200.512 156.969 201.731 156.084C206.953 152.3 211.106 147.684 214.19 142.238C216.931 137.397 219.011 131.898 220.43 125.742C222.448 116.986 223.308 107.377 223.008 96.9141C223.076 94.8453 223.081 92.7766 223.022 90.7078C222.734 80.5859 223.12 70.9359 224.18 61.7578C224.217 61.4422 224.406 61.3641 224.747 61.5234Z" fill="#755377" stroke="#755377"/>
<path d="M50.1326 81.9375C50.2139 82.7438 50.2686 83.4797 50.2967 84.1453C50.6592 92.6578 52.3451 100.938 55.3545 108.984C55.3946 109.091 55.4684 109.182 55.5662 109.248C55.6641 109.313 55.7814 109.349 55.9029 109.35L64.1014 109.472L55.7998 109.57C50.2373 109.511 44.6748 109.541 39.1123 109.659C38.3029 109.544 37.492 109.442 36.6795 109.355L36.5811 81.6797C36.6717 81.9922 37.0857 81.9906 37.8232 81.675C38.078 81.5629 38.3641 81.5414 38.6342 81.6141C39.1623 81.7609 39.7232 81.7984 40.317 81.7266C41.2014 81.6172 41.7498 81.5625 41.9623 81.5625C44.3842 81.5625 46.9701 81.5625 49.7201 81.5625C49.8226 81.5621 49.9216 81.6002 49.9978 81.6696C50.0741 81.7389 50.1221 81.8344 50.1326 81.9375Z" fill="#D2C3C2" stroke="#D2C3C2"/>
<path d="M174.258 81.4641L203.302 81.4453V109.219C202.53 109.322 201.559 109.361 200.391 109.336C192.881 109.167 184.6 109.161 175.547 109.317C175.569 101.845 175.559 96.5484 175.519 93.4266C175.469 89.5484 175.048 85.5609 174.258 81.4641Z" fill="#E6DDDB" stroke="#E6DDDB"/>
<path d="M88.0083 90.45C128.808 90.4938 150.136 90.5 151.993 90.4688C153.049 90.45 154.005 90.4687 154.861 90.525C154.908 90.5281 155.416 90.5453 156.385 90.5766C157.547 90.6109 158.574 90.8969 159.465 91.4344C161.974 92.95 163.429 95.2453 163.829 98.3203C163.972 99.4266 164.018 103.138 163.965 109.453V137.344C163.943 148.478 163.936 159.611 163.946 170.742C163.821 174.289 162.102 176.633 158.79 177.773C155.252 179.286 151.716 180.802 148.182 182.32C138.207 186.605 132.138 193.845 129.975 204.042C129.575 205.936 129.375 208.439 129.375 211.552C129.375 217.986 129.375 224.422 129.375 230.859C129.435 231.456 129.39 232.042 129.24 232.617C126.893 232.295 124.932 231.356 123.357 229.8C122.544 229 121.844 227.966 121.257 226.697C120.725 225.553 120.316 224.361 120.029 223.12C119.425 220.539 119.061 217.923 118.936 215.273C118.752 211.458 118.791 207.648 119.054 203.845C119.319 199.986 119.557 197.292 119.766 195.764C120.169 192.855 120.882 190.227 121.904 187.88C123.6 183.983 126.399 181.202 130.299 179.536C132.121 178.758 133.99 178.117 135.905 177.614C137.827 177.108 139.716 176.508 141.572 175.814C145.107 174.492 147.735 172.159 149.457 168.816C151.135 165.566 151.23 162.27 149.743 158.93C149.268 157.864 148.721 156.838 148.102 155.85C148.049 155.763 147.938 155.662 147.769 155.55C147.541 155.394 147.432 155.145 147.441 154.805C147.532 153.633 147.604 152.461 147.657 151.289C147.994 148.661 148.98 146.561 150.615 144.989C152.468 143.211 153.65 141.212 154.163 138.994C154.582 137.172 154.511 135.377 153.952 133.608C153.396 131.845 152.4 130.269 150.966 128.878C149.519 127.472 148.515 125.778 147.952 123.797C147.79 123.216 147.672 122.452 147.6 121.505C147.491 120.014 147.432 119.239 147.422 119.18C146.535 114.102 143.744 110.998 139.05 109.87C138.647 109.77 137.58 109.678 135.849 109.594C132.94 109.45 130.304 108.28 127.941 106.083C123.769 102.208 119.26 101.628 114.413 104.344C113.885 104.641 113.1 105.273 112.06 106.242C110.013 108.148 107.543 109.258 104.649 109.57C103.302 109.498 101.974 109.622 100.665 109.941C97.4177 110.741 94.9958 112.616 93.3989 115.566C93.1333 115.572 92.977 115.448 92.9302 115.195C89.6552 109.623 87.7411 103.608 87.188 97.1484C87.0192 95.1797 87.1364 92.9984 87.5395 90.6047C87.7145 90.6141 87.8708 90.5625 88.0083 90.45Z" fill="#FBCBBC" stroke="#FBCBBC"/>
<path d="M87.5391 90.6047C87.136 92.9984 87.0188 95.1797 87.1876 97.1484C87.7407 103.608 89.6547 109.623 92.9297 115.195C92.9766 115.448 93.1329 115.572 93.3985 115.566C92.7985 117.037 92.4469 119.063 92.3438 121.641C92.2469 124.078 91.3376 126.261 89.6157 128.189C88.2907 129.677 87.5438 130.552 87.3751 130.814C84.3782 135.458 84.8329 140.008 88.7391 144.464C90.3485 145.955 91.4313 147.717 91.9876 149.752C92.0782 150.083 92.2141 151.355 92.3954 153.567C92.7954 158.52 95.3594 161.82 100.088 163.467C100.791 163.714 101.58 163.87 102.455 163.936C103.264 163.998 104.073 164.041 104.883 164.063C107.695 164.313 110.088 165.438 112.059 167.438C114.047 169.45 116.42 170.552 119.18 170.742C122.07 170.942 124.625 170.169 126.844 168.422C126.847 168.416 127.328 167.972 128.288 167.091C130.366 165.184 132.822 164.144 135.656 163.969C137.263 163.869 138.072 163.819 138.084 163.819C142.906 163.122 145.986 160.352 147.323 155.508C147.43 155.289 147.469 155.055 147.441 154.805C147.431 155.145 147.541 155.394 147.769 155.55C147.938 155.663 148.049 155.763 148.102 155.85C148.72 156.838 149.267 157.864 149.742 158.93C151.23 162.27 151.134 165.566 149.456 168.816C147.734 172.159 145.106 174.492 141.572 175.814C139.716 176.508 137.827 177.108 135.905 177.614C133.989 178.117 132.12 178.758 130.298 179.536C126.398 181.202 123.6 183.983 121.903 187.88C120.881 190.227 120.169 192.855 119.766 195.764C119.556 197.292 119.319 199.986 119.053 203.845C118.791 207.648 118.752 211.458 118.936 215.273C119.061 217.923 119.425 220.539 120.028 223.12C120.316 224.361 120.725 225.553 121.256 226.697C121.844 227.966 122.544 229 123.356 229.8C124.931 231.356 126.892 232.295 129.239 232.617L129.375 239.63C126.981 239.752 124.589 239.875 122.198 240C120.714 240 119.23 240 117.745 240C115.411 239.878 113.077 239.755 110.742 239.63C110.742 221.473 110.742 212.378 110.742 212.344C110.961 197.822 104.534 187.737 91.4626 182.091C87.9313 180.566 84.3969 179.048 80.8594 177.539C77.9469 176.452 76.3844 174.342 76.1719 171.211C76.1813 159.92 76.1751 148.631 76.1532 137.344V125.977V109.57C76.0938 102.411 76.1391 98.4656 76.2891 97.7344C76.9954 94.2938 78.9876 91.9891 82.2657 90.8203C83.1282 90.5141 84.886 90.4422 87.5391 90.6047Z" fill="#FDAD9B" stroke="#FDAD9B"/>
<path d="M127.941 106.083C130.303 108.28 132.939 109.45 135.848 109.594C137.58 109.678 138.647 109.77 139.05 109.87C143.744 110.998 146.534 114.102 147.422 119.18C147.431 119.239 147.491 120.014 147.6 121.505C147.672 122.452 147.789 123.216 147.952 123.797C148.514 125.778 149.519 127.472 150.966 128.878C152.4 130.269 153.395 131.845 153.951 133.608C154.511 135.377 154.581 137.172 154.162 138.994C153.65 141.213 152.467 143.211 150.614 144.989C148.98 146.561 147.994 148.661 147.656 151.289C147.603 152.461 147.531 153.633 147.441 154.805C147.469 155.055 147.43 155.289 147.323 155.508C147.302 155.308 147.239 155.136 147.136 154.992C147.048 154.873 146.9 154.789 146.691 154.739C143.359 153.927 140.166 154.183 137.109 155.508C134.456 156.658 132.012 157.669 129.778 158.541C126.669 159.753 124.137 160.477 122.184 160.711C117.925 161.223 113.761 160.567 109.692 158.742C106.92 157.498 104.819 155.825 103.387 153.722C102.056 151.759 100.261 148.623 98.0015 144.314C96.5484 141.548 95.7015 139.788 95.4609 139.031C94.814 137.003 94.7515 134.995 95.2734 133.008C95.9702 130.352 97.3921 126.936 99.539 122.761C101.048 119.82 101.775 117.025 101.719 114.375C101.697 113.35 101.345 111.872 100.664 109.941C101.973 109.622 103.301 109.498 104.648 109.57C107.542 109.258 110.012 108.148 112.059 106.242C113.1 105.273 113.884 104.641 114.412 104.344C119.259 101.628 123.769 102.208 127.941 106.083ZM137.895 136.917C138.159 136.652 138.367 136.339 138.51 135.994C138.652 135.649 138.725 135.28 138.724 134.907C138.723 134.534 138.649 134.164 138.506 133.82C138.362 133.475 138.153 133.163 137.888 132.899L125.085 120.141C124.551 119.609 123.828 119.311 123.075 119.312C122.322 119.314 121.6 119.614 121.068 120.148L120.995 120.221C120.732 120.485 120.523 120.799 120.381 121.143C120.239 121.488 120.166 121.858 120.167 122.231C120.167 122.604 120.241 122.973 120.385 123.318C120.528 123.662 120.738 123.975 121.002 124.238L133.805 136.997C134.339 137.529 135.062 137.827 135.815 137.825C136.569 137.824 137.291 137.523 137.823 136.99L137.895 136.917ZM108.82 121.3C108.29 120.769 107.571 120.472 106.821 120.472C106.071 120.472 105.353 120.769 104.822 121.3L104.776 121.346C104.246 121.876 103.948 122.595 103.948 123.345C103.948 124.094 104.246 124.813 104.776 125.343L130.364 150.932C130.895 151.462 131.613 151.76 132.363 151.76C133.113 151.76 133.832 151.462 134.362 150.932L134.408 150.885C134.938 150.355 135.236 149.636 135.236 148.887C135.236 148.137 134.938 147.418 134.408 146.888L108.82 121.3ZM118.756 153.279C119.288 152.745 119.586 152.022 119.585 151.269C119.583 150.516 119.283 149.794 118.749 149.262L106.225 136.781C105.691 136.249 104.968 135.951 104.215 135.953C103.461 135.954 102.739 136.254 102.208 136.788L102.128 136.868C101.596 137.401 101.298 138.125 101.3 138.878C101.301 139.631 101.601 140.353 102.135 140.885L114.659 153.366C115.193 153.898 115.916 154.196 116.67 154.194C117.423 154.193 118.145 153.892 118.677 153.359L118.756 153.279Z" fill="#E87247" stroke="#E87247"/>
<path d="M200.391 109.336C201.56 109.361 202.53 109.322 203.302 109.219V124.453C198.93 126.175 194.561 127.386 190.196 128.086C188.139 128.414 186.107 128.375 184.097 127.969C181.935 127.528 180.147 126.669 178.735 125.391C176.525 123.394 175.307 120.698 175.078 117.305C174.91 114.783 174.975 112.516 175.275 110.503C175.284 110.449 175.277 110.386 175.253 110.319C175.23 110.252 175.191 110.182 175.139 110.114C175.033 109.973 175.032 109.82 175.135 109.655C175.151 109.629 175.174 109.608 175.204 109.593C175.234 109.578 175.268 109.57 175.303 109.57C175.938 109.573 175.902 109.502 175.196 109.355L175.547 109.317C184.6 109.161 192.882 109.167 200.391 109.336Z" fill="#DDCCCA" stroke="#DDCCCA"/>
<path d="M36.6797 109.355C37.4922 109.442 38.3031 109.544 39.1125 109.659C44.675 109.541 50.2375 109.511 55.8 109.57C56.5281 111.37 57.5281 113.216 58.8 115.106C62.9813 121.331 68.7656 124.955 76.1531 125.977V137.344H37.0453C36.9487 137.344 36.8559 137.306 36.7867 137.239C36.7175 137.171 36.6775 137.079 36.675 136.983C36.4844 127.817 36.4859 118.608 36.6797 109.355Z" fill="#DDCCCA" stroke="#DDCCCA"/>
<path d="M175.195 109.355C175.901 109.502 175.937 109.573 175.303 109.57C175.267 109.57 175.233 109.578 175.204 109.593C175.174 109.608 175.15 109.629 175.134 109.655C175.031 109.82 175.033 109.973 175.139 110.114C175.19 110.182 175.229 110.252 175.253 110.319C175.276 110.386 175.284 110.449 175.275 110.503C174.975 112.516 174.909 114.783 175.078 117.305C175.306 120.698 176.525 123.394 178.734 125.391C180.147 126.669 181.934 127.528 184.097 127.969C186.106 128.375 188.139 128.414 190.195 128.086C194.561 127.386 198.929 126.175 203.301 124.453C203.504 128.516 203.506 132.692 203.306 136.983C203.302 137.056 203.271 137.125 203.217 137.176C203.164 137.227 203.094 137.255 203.02 137.255L163.964 137.344V109.453L175.195 109.355Z" fill="#D2C3C2" stroke="#D2C3C2"/>
<path d="M64.1014 109.472L64.4529 109.434L76.1529 109.57V125.977C68.7654 124.955 62.9811 121.331 58.7998 115.106C57.5279 113.216 56.5279 111.37 55.7998 109.57L64.1014 109.472Z" fill="#E6DDDB" stroke="#E6DDDB"/>
<path d="M100.664 109.941C101.346 111.872 101.697 113.35 101.719 114.375C101.775 117.025 101.049 119.82 99.5395 122.761C97.3926 126.936 95.9707 130.352 95.2738 133.008C94.752 134.995 94.8145 137.003 95.4613 139.031C95.702 139.788 96.5488 141.548 98.002 144.314C100.261 148.623 102.057 151.759 103.388 153.722C104.819 155.825 106.921 157.498 109.693 158.742C113.761 160.567 117.925 161.223 122.185 160.711C124.138 160.477 126.669 159.753 129.779 158.541C132.013 157.669 134.457 156.658 137.11 155.508C140.166 154.183 143.36 153.927 146.691 154.739C146.9 154.789 147.049 154.873 147.136 154.992C147.239 155.136 147.302 155.308 147.324 155.508C145.986 160.352 142.907 163.122 138.085 163.819C138.072 163.819 137.263 163.869 135.657 163.969C132.822 164.144 130.366 165.184 128.288 167.091C127.329 167.972 126.847 168.416 126.844 168.422C124.625 170.169 122.071 170.942 119.18 170.742C116.421 170.552 114.047 169.45 112.06 167.438C110.088 165.438 107.696 164.312 104.883 164.062C104.074 164.041 103.264 163.998 102.455 163.936C101.58 163.87 100.791 163.714 100.088 163.467C95.3598 161.82 92.7957 158.52 92.3957 153.567C92.2145 151.355 92.0785 150.083 91.9879 149.752C91.4316 147.717 90.3488 145.955 88.7395 144.464C84.8332 140.008 84.3785 135.458 87.3754 130.814C87.5441 130.552 88.291 129.677 89.616 128.189C91.3379 126.261 92.2473 124.078 92.3441 121.641C92.4473 119.062 92.7988 117.037 93.3988 115.566C94.9957 112.616 97.4176 110.741 100.664 109.941Z" fill="#D1623E" stroke="#D1623E"/>
<path d="M137.889 132.899L125.085 120.141C123.974 119.033 122.176 119.037 121.068 120.148L120.995 120.221C119.888 121.332 119.891 123.131 121.002 124.238L133.806 136.997C134.917 138.104 136.715 138.101 137.823 136.99L137.896 136.917C139.003 135.805 139 134.007 137.889 132.899Z" fill="#B75236" stroke="#B75236"/>
<path d="M104.822 121.3L104.776 121.346C103.672 122.45 103.672 124.239 104.776 125.343L130.364 150.932C131.468 152.036 133.258 152.036 134.362 150.932L134.408 150.885C135.512 149.781 135.512 147.992 134.408 146.888L108.82 121.3C107.716 120.196 105.926 120.196 104.822 121.3Z" fill="#B75236" stroke="#B75236"/>
<path d="M118.749 149.262L106.225 136.781C105.114 135.674 103.315 135.677 102.208 136.788L102.128 136.868C101.021 137.979 101.024 139.778 102.135 140.885L114.66 153.366C115.771 154.473 117.57 154.47 118.677 153.359L118.756 153.279C119.864 152.168 119.861 150.369 118.749 149.262Z" fill="#B75236" stroke="#B75236"/>
</g>
<defs>
<clipPath id="clip0_541_1313">
<rect width="240" height="240" fill="white"/>
</clipPath>
</defs>
</svg>
