<svg width="251" height="231" viewBox="0 0 251 231" fill="none" xmlns="http://www.w3.org/2000/svg">
<path fill-rule="evenodd" clip-rule="evenodd" d="M183.544 32.6465C183.648 32.2984 183.968 32.0595 184.331 32.0576C184.333 32.0576 184.335 32.0576 184.338 32.0576C184.668 32.0593 184.934 32.3285 184.933 32.659C184.932 32.7791 184.932 32.8492 184.932 32.8693C184.932 32.8706 184.932 32.872 184.932 32.8736C184.932 33.2655 184.618 33.5852 184.226 33.5926L184.121 33.5946C184.088 33.5952 184.056 33.5934 184.024 33.5891C183.677 33.5424 183.434 33.2235 183.481 32.8768C183.484 32.8521 183.505 32.7753 183.544 32.6465ZM186.358 46.1522C186.462 45.8042 186.782 45.5653 187.145 45.5634C187.147 45.5634 187.149 45.5634 187.151 45.5634C187.482 45.565 187.748 45.8343 187.747 46.1647C187.746 46.2849 187.746 46.355 187.746 46.375C187.746 46.3763 187.746 46.3778 187.746 46.3794C187.746 46.7712 187.432 47.0909 187.04 47.0984L186.934 47.1004C186.902 47.101 186.87 47.0991 186.838 47.0948C186.491 47.0481 186.248 46.7292 186.294 46.3825C186.298 46.3578 186.319 46.281 186.358 46.1522ZM102.813 36.3135C102.865 36.4317 102.894 36.5025 102.9 36.5261C102.988 36.868 102.783 37.2167 102.441 37.305C102.411 37.3127 102.381 37.3182 102.35 37.3216L102.231 37.3346C101.839 37.3773 101.486 37.0966 101.44 36.7054C101.438 36.6859 101.429 36.6187 101.415 36.5037C101.374 36.1677 101.613 35.8619 101.949 35.8207C102.314 35.7758 102.666 35.9762 102.813 36.3135ZM101.918 48.5092C101.977 48.6442 102.01 48.7252 102.017 48.7522C102.118 49.1429 101.883 49.5414 101.492 49.6423C101.458 49.6511 101.423 49.6574 101.389 49.6612L101.252 49.6761C100.804 49.7249 100.401 49.4041 100.348 48.9571C100.345 48.9347 100.336 48.8579 100.32 48.7265C100.273 48.3425 100.546 47.9931 100.93 47.9459C101.347 47.8946 101.749 48.1237 101.918 48.5092ZM130.672 7.36514C130.853 6.75794 131.411 6.3418 132.045 6.3418C132.628 6.3418 133.1 6.81407 133.1 7.39666C133.1 7.59731 133.1 7.71464 133.1 7.74865C133.103 8.42758 132.558 8.98196 131.879 8.99126L131.676 8.99405C131.623 8.99479 131.57 8.9917 131.518 8.98482C130.914 8.90569 130.489 8.35224 130.568 7.74865C130.573 7.70687 130.608 7.57904 130.672 7.36514Z" fill="#F6F0FF"/>
<path fill-rule="evenodd" clip-rule="evenodd" d="M116.79 116.469C117.44 121.55 117.956 124.457 118.338 125.191C118.91 126.292 121.855 127.301 122.417 127.301C122.793 127.301 136.674 128.474 164.06 130.819C166.124 130.819 167.906 130.209 169.406 128.99C170.011 128.498 169.95 127.795 170.25 126.739C170.546 125.697 170.828 123.493 171.094 120.127L164.06 116.469H116.79Z" fill="white"/>
<path d="M102.032 35.6903C101.581 35.7457 101.259 36.1568 101.315 36.6084C101.329 36.723 101.337 36.7903 101.339 36.8094C101.4 37.3155 101.856 37.6786 102.363 37.6234L102.482 37.6104C102.523 37.606 102.563 37.5986 102.603 37.5884C103.058 37.471 103.331 37.0072 103.214 36.5524C103.203 36.5127 103.174 36.4405 103.116 36.308C102.931 35.8852 102.49 35.634 102.032 35.6903ZM102.729 36.4772C102.775 36.581 102.803 36.6505 102.805 36.658C102.864 36.887 102.726 37.1206 102.497 37.1797C102.477 37.1849 102.457 37.1886 102.437 37.1908L102.317 37.2039C102.04 37.234 101.791 37.0358 101.759 36.7596C101.756 36.7397 101.748 36.6724 101.734 36.557C101.707 36.3367 101.863 36.1362 102.084 36.1092C102.357 36.0757 102.619 36.2253 102.729 36.4772ZM101.013 47.8155C100.513 47.8769 100.158 48.3316 100.219 48.8313C100.235 48.9622 100.245 49.0391 100.247 49.061C100.314 49.623 100.821 50.0262 101.384 49.965L101.521 49.9501C101.566 49.9451 101.61 49.937 101.654 49.9257C102.158 49.7956 102.46 49.282 102.33 48.7785C102.319 48.7353 102.286 48.653 102.22 48.5036C102.014 48.0327 101.523 47.7529 101.013 47.8155ZM101.834 48.6728C101.886 48.7935 101.919 48.8731 101.922 48.884C101.993 49.1618 101.826 49.4453 101.548 49.517C101.524 49.5233 101.5 49.5278 101.475 49.5305L101.338 49.5454C101.006 49.5816 100.706 49.3433 100.667 49.0112C100.664 48.9885 100.654 48.9116 100.638 48.7798C100.605 48.5116 100.796 48.2674 101.064 48.2344C101.39 48.1945 101.702 48.3728 101.834 48.6728ZM184.336 31.743C183.88 31.7453 183.479 32.0453 183.348 32.4821C183.304 32.626 183.283 32.7039 183.278 32.745C183.215 33.2072 183.54 33.6323 184.002 33.6946C184.044 33.7004 184.087 33.7028 184.131 33.702L184.236 33.7C184.743 33.6904 185.149 33.2769 185.149 32.77L185.149 32.7659C185.149 32.7463 185.149 32.6762 185.15 32.5564C185.152 32.1095 184.792 31.7453 184.345 31.743C184.34 31.743 184.34 31.743 184.336 31.743ZM183.696 32.8014C183.697 32.793 183.718 32.7174 183.752 32.6036C183.83 32.3444 184.068 32.1664 184.338 32.165C184.34 32.165 184.34 32.165 184.342 32.165C184.556 32.1661 184.729 32.3404 184.728 32.5543C184.727 32.6749 184.727 32.7449 184.727 32.7654L184.727 32.77C184.727 33.0469 184.505 33.2728 184.228 33.278L184.122 33.28C184.101 33.2804 184.079 33.2792 184.058 33.2763C183.827 33.2452 183.665 33.0325 183.696 32.8014ZM187.15 45.2487C186.694 45.2511 186.293 45.551 186.161 45.9879C186.118 46.1317 186.097 46.2097 186.091 46.2508C186.029 46.7129 186.353 47.1381 186.815 47.2004C186.858 47.2061 186.901 47.2086 186.944 47.2078L187.05 47.2058C187.557 47.1961 187.963 46.7826 187.963 46.2758L187.963 46.2717C187.963 46.252 187.963 46.1819 187.963 46.0622C187.966 45.6152 187.605 45.251 187.158 45.2487C187.154 45.2487 187.154 45.2487 187.15 45.2487ZM186.51 46.3071C186.511 46.2988 186.531 46.2231 186.566 46.1093C186.644 45.8501 186.882 45.6722 187.152 45.6708C187.154 45.6708 187.154 45.6708 187.156 45.6708C187.37 45.6719 187.543 45.8462 187.541 46.06C187.541 46.1806 187.541 46.2507 187.54 46.2712L187.54 46.2758C187.54 46.5526 187.319 46.7785 187.042 46.7838L186.936 46.7858C186.915 46.7862 186.893 46.785 186.872 46.7821C186.641 46.7509 186.478 46.5383 186.51 46.3071ZM130.348 7.7765C130.253 8.49565 130.76 9.15506 131.479 9.24934C131.542 9.25754 131.605 9.26122 131.668 9.26034L131.871 9.25755C132.666 9.24666 133.303 8.59777 133.3 7.8031C133.3 7.7695 133.3 7.65217 133.3 7.45193C133.3 6.75279 132.733 6.18605 132.034 6.18605C131.307 6.18605 130.667 6.66347 130.459 7.36009C130.39 7.58898 130.355 7.71822 130.348 7.7765ZM132.034 6.60811C132.5 6.60811 132.878 6.9859 132.878 7.45195C132.878 7.65301 132.878 7.77034 132.878 7.80476C132.881 8.36795 132.429 8.82782 131.866 8.83553L131.662 8.83832C131.619 8.83892 131.577 8.83643 131.534 8.83086C131.046 8.76688 130.702 8.31939 130.766 7.83136C130.77 7.80609 130.804 7.67966 130.863 7.48076C131.018 6.96297 131.494 6.60811 132.034 6.60811Z" fill="#67577F"/>
<path d="M117.967 45.349L116.185 49.0802L102.075 48.6572L102.063 49.0791L116.447 49.5103L118.44 45.3378L126.817 45.1389L126.807 44.7169L118.195 44.9214L116.732 39.1714L102.892 36.6063L102.815 37.0213L116.39 39.5372L117.869 45.3513L117.967 45.349Z" fill="#67577F"/>
<path fill-rule="evenodd" clip-rule="evenodd" d="M148.444 63.4304L168.844 59.4912L159.699 84.1111H151.821L148.444 63.4304Z" fill="#67577F"/>
<path fill-rule="evenodd" clip-rule="evenodd" d="M122.981 88.4724L90.3963 80.7306C85.8996 79.6622 81.1606 80.622 77.4339 83.3559L54.7982 99.9616C51.1045 102.671 48.7729 106.854 48.411 111.421L45.3232 150.374H52.6389L56.947 114.185C57.3408 110.877 59.0514 107.867 61.6921 105.836L82.2655 90.0103C84.0065 88.6711 86.2275 88.1195 88.3928 88.4886L122.137 94.2405L122.981 88.4724Z" fill="white"/>
<path d="M123.218 88.3118L90.445 80.5253C85.8881 79.4427 81.0855 80.4153 77.309 83.1858L54.6733 99.7915C50.9301 102.538 48.5673 106.777 48.2005 111.405L45.0947 150.585H52.8262L57.1564 114.21C57.5436 110.959 59.225 108 61.8206 106.003L82.3941 90.1777C84.0884 88.8743 86.25 88.3375 88.3573 88.6967L122.315 94.4849L123.218 88.3118ZM121.96 93.9962L88.4282 88.2806C86.2049 87.9017 83.9244 88.4681 82.1367 89.8432L61.5633 105.669C58.8776 107.735 57.1379 110.796 56.7373 114.161L52.4514 150.163H45.5516L48.6212 111.438C48.9784 106.932 51.2787 102.805 54.9229 100.132L77.5586 83.5261C81.2354 80.8289 85.9109 79.8819 90.3475 80.936L122.744 88.6331L121.96 93.9962Z" fill="#67577F"/>
<path fill-rule="evenodd" clip-rule="evenodd" d="M122.293 127.084L120.167 118.579L160.262 121.252L160.72 122.441L164.059 130.602C166.47 130.499 168.117 130.089 168.993 129.388C169.774 128.763 170.378 126.419 170.761 122.407L164.623 117.79L167.718 84.6738L174.33 96.4914L171.305 120.956C171.306 120.966 171.306 120.976 171.305 120.986C170.925 126.026 170.262 128.913 169.257 129.717C168.288 130.492 166.549 130.922 164.032 131.025L164.06 131.1L122.418 127.583L122.4 127.512C119.865 127.422 117.763 125.519 117.424 123.004L116.568 116.66L116.987 116.604L117.842 122.947C118.148 125.218 120.018 126.946 122.293 127.084V127.084Z" fill="#67577F"/>
<path d="M115.1 49.6079L116.56 56.9083C117.93 63.7574 124.587 68.2036 131.439 66.845L168.701 59.4559L164.562 41.9453C161.653 29.6358 149.857 21.5598 137.328 23.2998C135.667 23.5306 133.886 23.838 131.986 24.222C120.32 26.5802 112.766 37.9374 115.1 49.6079Z" fill="white"/>
<mask id="mask0_711_4922" style="mask-type:alpha" maskUnits="userSpaceOnUse" x="114" y="23" width="55" height="45">
<path d="M115.1 49.6079L116.56 56.9083C117.93 63.7574 124.587 68.2036 131.439 66.845L168.701 59.4559L164.562 41.9453C161.653 29.6358 149.857 21.5598 137.328 23.2998C135.667 23.5306 133.886 23.838 131.986 24.222C120.32 26.5802 112.766 37.9374 115.1 49.6079Z" fill="white"/>
</mask>
<g mask="url(#mask0_711_4922)">
<path fill-rule="evenodd" clip-rule="evenodd" d="M114.818 62.7261L144.329 57.8076C147.212 57.3271 149.247 54.7197 149.013 51.8064L148.436 44.614C148.162 41.2062 145.178 38.6655 141.77 38.9391C141.532 38.9583 141.295 38.9912 141.06 39.0377L110.316 45.1404L114.818 62.7261Z" fill="#F6F0FF"/>
<path d="M114.663 62.8255L144.365 57.8752C147.356 57.3767 149.467 54.6715 149.224 51.649L148.647 44.4566C148.364 40.9326 145.278 38.3053 141.754 38.5883C141.508 38.608 141.263 38.6421 141.02 38.6902L110.058 44.8363L114.663 62.8255ZM110.577 45.1635L141.102 39.1042C141.329 39.0592 141.558 39.0274 141.788 39.009C145.079 38.7447 147.962 41.1988 148.226 44.4903L148.804 51.6828C149.029 54.4868 147.07 56.9965 144.295 57.4589L114.976 62.3455L110.577 45.1635Z" fill="#67577F"/>
</g>
<path d="M132.326 16.9627L132.265 8.98446C132.265 8.86792 132.17 8.77344 132.054 8.77344C131.937 8.77344 131.843 8.86792 131.843 8.98446L131.904 17.1737C131.904 17.2903 131.998 17.3848 132.115 17.3848H137.816L134.6 23.5476C134.547 23.6509 134.587 23.7784 134.69 23.8323C134.793 23.8862 134.921 23.8462 134.975 23.7428L138.351 17.2713C138.424 17.1308 138.322 16.9627 138.164 16.9627H132.326Z" fill="#67577F"/>
<path d="M114.895 49.6494L116.355 56.9498C117.748 63.9131 124.516 68.4334 131.482 67.0521L168.744 59.663C168.861 59.6397 168.936 59.5238 168.908 59.4074L164.77 41.8968C161.835 29.4814 149.938 21.3359 137.301 23.0909C135.635 23.3223 133.85 23.6304 131.946 24.0153C120.167 26.3965 112.538 37.8647 114.895 49.6494ZM131.4 66.6381C124.663 67.9741 118.116 63.602 116.769 56.8671L115.309 49.5666C112.998 38.0102 120.478 26.7641 132.03 24.429C133.926 24.0458 135.702 23.7391 137.359 23.509C149.78 21.7839 161.474 29.7904 164.359 41.9939L168.447 59.2915L131.4 66.6381Z" fill="#67577F"/>
<path fill-rule="evenodd" clip-rule="evenodd" d="M120.933 84.0563L116.318 114.009C115.987 116.159 117.461 118.17 119.611 118.502C119.721 118.519 119.832 118.531 119.943 118.538L160.313 121.289C162.342 121.428 164.143 119.998 164.469 117.991L169.281 88.3548C169.63 86.2074 168.172 84.1838 166.025 83.8351C165.914 83.8171 165.802 83.8038 165.69 83.7954L125.123 80.7282C123.071 80.573 121.246 82.0229 120.933 84.0563Z" fill="white"/>
<path d="M120.724 84.0243L116.11 113.977C115.761 116.242 117.314 118.361 119.579 118.71C119.695 118.728 119.812 118.741 119.929 118.749L160.298 121.5C162.436 121.646 164.334 120.14 164.677 118.025L169.49 88.3887C169.857 86.1263 168.321 83.9943 166.059 83.6269C165.942 83.6079 165.824 83.594 165.706 83.5851L125.139 80.5178C122.978 80.3544 121.054 81.8819 120.724 84.0243ZM121.141 84.0885C121.438 82.164 123.166 80.7919 125.107 80.9387L165.674 84.0059C165.78 84.0139 165.886 84.0265 165.991 84.0435C168.023 84.3736 169.403 86.2887 169.073 88.3211L164.26 117.957C163.952 119.857 162.248 121.21 160.327 121.079L119.958 118.328C119.853 118.321 119.748 118.309 119.644 118.293C117.609 117.98 116.213 116.076 116.527 114.041L121.141 84.0885Z" fill="#67577F"/>
<path fill-rule="evenodd" clip-rule="evenodd" d="M43.5972 150.017C43.4702 152.464 45.3511 154.551 47.7983 154.678C47.8704 154.682 47.9426 154.684 48.0148 154.684L50.4256 154.691C52.9047 154.699 54.9204 152.695 54.9279 150.216C54.9279 150.209 54.9279 150.202 54.9279 150.196C54.9241 147.683 52.9252 145.629 50.414 145.556L48.4955 145.5C45.9065 145.425 43.7313 147.431 43.5972 150.017Z" fill="white"/>
<path fill-rule="evenodd" clip-rule="evenodd" d="M96.9927 203.071L117.635 193.083L91.531 174.712L71.209 182.943" fill="white"/>
<path d="M43.4581 150.15C43.3252 152.714 45.2955 154.9 47.8591 155.033C47.9346 155.037 48.0102 155.039 48.0858 155.039L50.4967 155.046C53.0923 155.054 55.2028 152.956 55.2106 150.36L55.2106 150.339C55.2067 147.713 53.117 145.565 50.4918 145.489L48.5733 145.433C45.8697 145.354 43.5982 147.449 43.4581 150.15ZM43.8796 150.172C44.0078 147.7 46.0867 145.783 48.5611 145.855L50.4795 145.91C52.8768 145.98 54.785 147.942 54.7886 150.34L54.7886 150.359C54.7815 152.722 52.8605 154.631 50.498 154.624L48.0871 154.617C48.0183 154.617 47.9496 154.615 47.8809 154.611C45.5502 154.49 43.7587 152.503 43.8796 150.172Z" fill="#67577F"/>
<path fill-rule="evenodd" clip-rule="evenodd" d="M42.2278 203.072L20.1403 212.697C7.24653 198.819 0.82192 191.691 0.866441 191.313C0.910961 190.936 8.50795 188.122 23.6574 182.872L42.2278 203.072Z" fill="white"/>
<path fill-rule="evenodd" clip-rule="evenodd" d="M44.478 230.764L94.2809 230.424L97.0946 203.131H42.2275L30.832 208.055L32.2389 219.45L44.478 230.764Z" fill="white"/>
<path fill-rule="evenodd" clip-rule="evenodd" d="M62.4863 203.131V219.45L71.2088 214.104L79.3685 219.45V203.131H62.4863Z" fill="#F6F0FF"/>
<path d="M44.2698 230.741L32.0403 219.554L30.5083 208.35L20.0856 212.893L0.5 191.162L23.7169 182.767L42.3749 202.861H96.9446L117.221 193.049L91.5039 174.951L71.3495 183.294L71.1911 182.903L91.5587 174.474L118.05 193.117L97.2985 203.158L94.4721 230.574L44.2842 230.917L44.2698 230.741ZM44.2195 230.123L42.0372 203.326L30.9103 208.175L32.4378 219.346L44.2195 230.123ZM42.4571 203.283L44.6731 230.493L94.0911 230.155L96.8614 203.283H42.4571ZM23.5977 183.259L1.2336 191.346L20.1956 212.384L41.871 202.938L23.5977 183.259Z" fill="#67577F"/>
<path d="M79.2539 219.627C79.3943 219.719 79.5806 219.618 79.5806 219.45V203.131C79.5806 203.014 79.4861 202.92 79.3696 202.92H62.4874C62.3708 202.92 62.2764 203.014 62.2764 203.131V219.45C62.2764 219.615 62.4571 219.717 62.5977 219.63L71.2061 214.354L79.2539 219.627ZM79.1586 203.342V219.06L71.3255 213.928C71.2572 213.883 71.1692 213.882 71.0996 213.924L62.6984 219.074V203.342H79.1586Z" fill="#67577F"/>
<path d="M119.252 49.9204C119.118 49.234 119.567 48.5694 120.253 48.4359C120.94 48.3025 121.604 48.7508 121.738 49.4372L122.489 53.304C122.623 53.9905 122.174 54.6551 121.488 54.7885C120.802 54.922 120.137 54.4737 120.004 53.7872L119.252 49.9204Z" fill="white"/>
<path d="M139.071 47.4375C138.976 46.6663 139.525 45.9644 140.296 45.8697C141.067 45.775 141.769 46.3234 141.864 47.0946L142.344 51.0044C142.439 51.7756 141.89 52.4775 141.119 52.5722C140.348 52.6669 139.646 52.1185 139.551 51.3473L139.071 47.4375Z" fill="white"/>
<path d="M140.436 45.8523L140.156 45.8866C139.462 45.9718 138.969 46.6035 139.054 47.2976L139.568 51.4867C139.653 52.1808 140.285 52.6743 140.979 52.5891L141.259 52.5548C141.953 52.4696 142.446 51.8379 142.361 51.1438L141.847 46.9547C141.761 46.2606 141.13 45.7671 140.436 45.8523ZM140.487 46.2712C140.95 46.2144 141.371 46.5434 141.428 47.0061L141.942 51.1952C141.999 51.658 141.67 52.0791 141.207 52.1359L140.928 52.1702C140.465 52.227 140.044 51.898 139.987 51.4353L139.473 47.2462C139.416 46.7835 139.745 46.3623 140.208 46.3055L140.487 46.2712ZM140.365 46.428C139.902 46.4848 139.573 46.906 139.63 47.3687L140.11 51.2785C140.166 51.7412 140.588 52.0702 141.05 52.0134C141.513 51.9566 141.842 51.5355 141.785 51.0727L141.305 47.1629C141.248 46.7002 140.827 46.3712 140.365 46.428ZM142.287 45.9024C142.402 45.9147 142.506 45.8307 142.519 45.7148C142.531 45.5989 142.447 45.495 142.331 45.4827L138.434 45.0705C138.318 45.0583 138.214 45.1423 138.202 45.2582C138.189 45.3741 138.273 45.478 138.389 45.4902L142.287 45.9024ZM118.555 48.8549L122.213 47.4481C122.322 47.4062 122.376 47.2841 122.334 47.1754C122.292 47.0666 122.17 47.0123 122.061 47.0542L118.403 48.461C118.295 48.5028 118.24 48.6249 118.282 48.7337C118.324 48.8425 118.446 48.8968 118.555 48.8549ZM129.683 54.4135C130.232 53.7356 130.939 53.3534 131.816 53.2612C133.274 53.108 133.599 53.1479 134.722 53.6356C134.829 53.6821 134.953 53.633 135 53.5261C135.046 53.4192 134.997 53.2949 134.89 53.2485C133.696 52.7298 133.298 52.6811 131.772 52.8414C130.784 52.9453 129.974 53.3827 129.355 54.1479C129.281 54.2385 129.295 54.3714 129.386 54.4447C129.477 54.5181 129.609 54.5041 129.683 54.4135ZM120.422 48.2717L120.144 48.3157C119.453 48.4251 118.982 49.0737 119.091 49.7643L119.752 53.9329C119.861 54.6236 120.509 55.0948 121.2 54.9854L121.478 54.9414C122.169 54.832 122.64 54.1834 122.531 53.4928L121.87 49.3242C121.761 48.6335 121.112 48.1623 120.422 48.2717ZM120.488 48.6885C120.948 48.6156 121.381 48.9297 121.453 49.3902L122.114 53.5588C122.187 54.0192 121.873 54.4516 121.412 54.5246L121.134 54.5686C120.674 54.6415 120.241 54.3273 120.168 53.8669L119.508 49.6983C119.435 49.2379 119.749 48.8055 120.21 48.7325L120.488 48.6885ZM120.371 48.8495C119.91 48.9224 119.596 49.3548 119.669 49.8153L120.285 53.7059C120.358 54.1664 120.791 54.4805 121.251 54.4076C121.712 54.3347 122.026 53.9023 121.953 53.4418L121.337 49.5512C121.264 49.0907 120.831 48.7766 120.371 48.8495Z" fill="#67577F"/>
<path fill-rule="evenodd" clip-rule="evenodd" d="M96.8144 203.072H42.2286L23.6582 182.954H71.2097L96.8144 203.072ZM38.031 215.932C37.0601 216.211 35.8216 214.862 35.2648 212.92C34.7079 210.978 35.0436 209.179 36.0146 208.9C36.9855 208.622 38.224 209.97 38.7809 211.912C39.3377 213.854 39.002 215.654 38.031 215.932Z" fill="#67577F"/>
<path fill-rule="evenodd" clip-rule="evenodd" d="M148.736 128.132L156.39 172.18L153.791 221.56L145.978 228.603C145.517 229.019 145.48 229.731 145.896 230.192C146.109 230.429 146.413 230.564 146.732 230.564H171.377C167.87 204.093 165.031 184.35 162.862 171.336C160.766 158.762 157.893 144.066 154.244 127.246C154.019 126.211 153.103 125.473 152.044 125.473C151.795 125.473 151.555 125.473 151.326 125.473C151.135 125.473 150.928 125.485 150.704 125.51C149.469 125.647 148.579 126.76 148.716 127.996C148.721 128.042 148.728 128.087 148.736 128.132Z" fill="white"/>
<path d="M153.519 221.462L145.771 228.446C145.223 228.94 145.179 229.786 145.673 230.334C145.926 230.615 146.287 230.775 146.666 230.775H171.31C171.438 230.775 171.536 230.663 171.52 230.537C168.012 204.063 165.174 184.318 163.004 171.301C160.907 158.724 158.034 144.024 154.384 127.202C154.138 126.069 153.136 125.262 151.978 125.262H151.259C151.06 125.262 150.845 125.275 150.615 125.3C149.263 125.451 148.29 126.668 148.44 128.019C148.446 128.069 148.453 128.119 148.461 128.169L156.112 172.193L153.519 221.462ZM153.514 221.549L153.583 221.404L153.519 221.462L153.514 221.549ZM171.069 230.353H146.666C146.407 230.353 146.16 230.244 145.986 230.051C145.648 229.676 145.678 229.098 146.053 228.76L153.866 221.717C153.908 221.68 153.932 221.628 153.935 221.572L156.535 172.191L156.532 172.144L148.877 128.096C148.87 128.055 148.864 128.014 148.86 127.973C148.735 126.853 149.542 125.844 150.661 125.72C150.877 125.696 151.076 125.684 151.259 125.684H151.978C152.938 125.684 153.768 126.353 153.971 127.291C157.62 144.107 160.492 158.8 162.587 171.371C164.75 184.343 167.577 204.004 171.069 230.353Z" fill="#67577F"/>
<path fill-rule="evenodd" clip-rule="evenodd" d="M154.522 171.728C154.264 169.555 155.813 167.583 157.985 167.319L159.423 167.145C161.602 166.881 163.594 168.402 163.912 170.574C163.916 170.601 163.92 170.629 163.923 170.656C164.187 172.772 162.685 174.701 160.57 174.965L158.92 175.17C158.913 175.171 158.905 175.172 158.898 175.173C156.739 175.43 154.779 173.888 154.522 171.728ZM157.053 171.345C157.17 172.295 158.034 172.972 158.984 172.857L159.754 172.764C160.673 172.653 161.328 171.819 161.217 170.9C161.215 170.883 161.213 170.867 161.21 170.85C161.067 169.899 160.194 169.233 159.238 169.345L158.562 169.424C157.617 169.535 156.941 170.391 157.052 171.336C157.052 171.339 157.053 171.342 157.053 171.345Z" fill="#F6F0FF"/>
<path d="M154.21 171.853C153.938 169.564 155.57 167.487 157.858 167.209L159.295 167.035C161.588 166.757 163.683 168.358 164.018 170.643C164.023 170.672 164.027 170.701 164.03 170.73C164.308 172.962 162.725 174.996 160.493 175.274L158.843 175.48L158.821 175.482C156.545 175.753 154.481 174.128 154.21 171.853ZM154.629 171.803C154.873 173.847 156.727 175.306 158.771 175.063L158.791 175.061L160.441 174.855C162.441 174.606 163.861 172.782 163.611 170.782C163.608 170.756 163.605 170.73 163.601 170.704C163.299 168.646 161.411 167.204 159.346 167.454L157.908 167.628C155.851 167.878 154.385 169.745 154.629 171.803ZM156.74 171.46C156.616 170.399 157.375 169.439 158.435 169.314L159.111 169.235C160.18 169.109 161.156 169.854 161.316 170.919C161.319 170.937 161.322 170.956 161.324 170.974C161.449 172.009 160.711 172.949 159.677 173.073L158.907 173.166C157.841 173.295 156.872 172.536 156.741 171.471L156.74 171.46ZM158.857 172.747L159.626 172.654C160.429 172.557 161.002 171.828 160.905 171.025C160.903 171.01 160.901 170.996 160.899 170.982C160.772 170.143 160.003 169.555 159.16 169.654L158.484 169.733C157.655 169.831 157.062 170.582 157.159 171.411L157.16 171.419C157.263 172.254 158.022 172.848 158.857 172.747Z" fill="#67577F"/>
<path fill-rule="evenodd" clip-rule="evenodd" d="M137.43 127.197L123.544 171.708L144.059 209.461L142.782 222.583C142.722 223.202 143.174 223.752 143.793 223.813C144.097 223.842 144.4 223.747 144.633 223.549L163.614 207.351L159.113 202.849L130.173 171.972L142.785 128.176C143.109 127.052 142.46 125.878 141.336 125.555C141.145 125.5 140.948 125.472 140.75 125.472C140.551 125.472 140.347 125.46 140.138 125.436C138.929 125.296 137.792 126.036 137.43 127.197Z" fill="white"/>
<path d="M143.972 209.562L143.947 209.441L143.941 209.505L143.972 209.562ZM142.67 222.563C142.598 223.298 143.136 223.951 143.87 224.023C144.231 224.058 144.591 223.945 144.867 223.709L163.849 207.511C163.943 207.431 163.948 207.289 163.861 207.202L159.359 202.7L130.507 171.916L143.085 128.234C143.441 126.998 142.728 125.708 141.492 125.352C141.282 125.292 141.065 125.261 140.847 125.261C140.657 125.261 140.461 125.25 140.259 125.226C138.95 125.075 137.719 125.876 137.326 127.134L123.44 171.645C123.423 171.7 123.429 171.759 123.456 171.809L143.941 209.505L142.67 222.563ZM144.593 223.388C144.404 223.549 144.158 223.627 143.911 223.603C143.408 223.554 143.041 223.107 143.09 222.604L144.367 209.482C144.371 209.44 144.363 209.397 144.342 209.36L123.87 171.686L137.729 127.26C138.061 126.196 139.103 125.518 140.211 125.645C140.429 125.671 140.641 125.683 140.847 125.683C141.026 125.683 141.204 125.708 141.375 125.758C142.387 126.049 142.971 127.106 142.68 128.118L130.068 171.914C130.048 171.986 130.066 172.063 130.117 172.117L159.056 202.993L163.401 207.339L144.593 223.388Z" fill="#67577F"/>
<path fill-rule="evenodd" clip-rule="evenodd" d="M122.491 173.027C122.084 170.908 123.437 168.85 125.543 168.383L127.042 168.051C129.078 167.6 131.102 168.854 131.603 170.878C132.101 172.889 130.877 174.923 128.867 175.424L126.982 175.894C126.917 175.91 126.852 175.925 126.787 175.937C124.797 176.32 122.874 175.016 122.491 173.027ZM125.018 172.597C125.198 173.472 126.053 174.036 126.928 173.856C126.943 173.853 126.957 173.85 126.971 173.846L127.908 173.627C128.751 173.429 129.274 172.586 129.076 171.743C129.073 171.729 129.07 171.715 129.066 171.702C128.836 170.828 127.963 170.288 127.079 170.471L126.311 170.631C125.412 170.818 124.833 171.697 125.018 172.597Z" fill="#F6F0FF"/>
<path d="M122.311 173.154C121.883 170.924 123.307 168.757 125.525 168.265L127.024 167.933C129.171 167.457 131.307 168.78 131.836 170.916C132.362 173.039 131.069 175.188 128.946 175.717L127.06 176.187C126.992 176.204 126.923 176.219 126.854 176.232C124.75 176.637 122.716 175.259 122.311 173.154ZM122.726 173.075C123.086 174.95 124.899 176.178 126.774 175.818C126.836 175.806 126.897 175.793 126.958 175.777L128.844 175.307C130.741 174.834 131.896 172.915 131.426 171.017C130.952 169.104 129.039 167.918 127.115 168.345L125.616 168.677C123.621 169.119 122.34 171.068 122.726 173.075ZM124.839 172.728C124.631 171.714 125.282 170.723 126.296 170.512L127.063 170.353C128.057 170.146 129.039 170.754 129.298 171.736C129.302 171.751 129.306 171.767 129.309 171.783C129.533 172.739 128.94 173.696 127.983 173.92L127.047 174.14C127.031 174.144 127.014 174.147 126.998 174.151C126.009 174.354 125.042 173.717 124.839 172.728ZM125.252 172.643C125.409 173.404 126.152 173.894 126.913 173.737C126.926 173.735 126.938 173.732 126.951 173.729L127.887 173.509C128.616 173.338 129.069 172.609 128.898 171.879C128.895 171.867 128.893 171.855 128.889 171.843C128.688 171.079 127.923 170.605 127.149 170.766L126.382 170.925C125.596 171.089 125.091 171.857 125.252 172.643Z" fill="#67577F"/>
<path fill-rule="evenodd" clip-rule="evenodd" d="M95.1191 145.511C95.5118 144.184 96.7348 143.275 98.1193 143.283C99.3977 143.291 100.432 144.325 100.44 145.604C100.442 146.02 100.444 146.265 100.445 146.337C100.445 146.338 100.445 146.34 100.445 146.342C100.456 147.802 99.2817 148.994 97.8218 149.006L97.309 149.01C97.2016 149.011 97.0943 149.004 96.9877 148.991C95.6713 148.824 94.7396 147.621 94.9067 146.305C94.9178 146.217 94.9886 145.952 95.1191 145.511ZM82.4574 114.842C82.8501 113.514 84.0732 112.606 85.4577 112.614C86.736 112.621 87.7706 113.656 87.7782 114.934C87.7806 115.351 87.7822 115.595 87.7829 115.667C87.7829 115.669 87.7829 115.671 87.783 115.673C87.7943 117.132 86.62 118.325 85.1601 118.336L84.6473 118.34C84.5399 118.341 84.4326 118.335 84.3261 118.321C83.0096 118.154 82.0779 116.952 82.245 115.635C82.2562 115.547 82.327 115.283 82.4574 114.842ZM213.013 108.652C213.406 107.324 214.629 106.416 216.013 106.424C217.292 106.431 218.326 107.466 218.334 108.744C218.336 109.161 218.338 109.405 218.339 109.477C218.339 109.479 218.339 109.481 218.339 109.482C218.35 110.942 217.176 112.135 215.716 112.146L215.203 112.15C215.096 112.151 214.988 112.145 214.882 112.131C213.565 111.964 212.634 110.761 212.801 109.445C212.812 109.357 212.883 109.093 213.013 108.652ZM185.439 155.078C185.832 153.75 187.055 152.842 188.439 152.85C189.717 152.857 190.752 153.892 190.76 155.17C190.762 155.587 190.764 155.831 190.764 155.903C190.764 155.905 190.764 155.907 190.764 155.908C190.776 157.368 189.601 158.561 188.142 158.572L187.629 158.576C187.521 158.577 187.414 158.571 187.307 158.557C185.991 158.39 185.059 157.188 185.226 155.871C185.238 155.783 185.308 155.519 185.439 155.078ZM221.736 171.96C222.128 170.632 223.351 169.724 224.736 169.732C226.014 169.74 227.049 170.774 227.056 172.052C227.059 172.469 227.06 172.713 227.061 172.785C227.061 172.787 227.061 172.789 227.061 172.791C227.072 174.251 225.898 175.443 224.438 175.455L223.925 175.459C223.818 175.459 223.711 175.453 223.604 175.439C222.288 175.272 221.356 174.07 221.523 172.753C221.534 172.665 221.605 172.401 221.736 171.96ZM191.348 62.7884C191.74 61.4608 192.963 60.5526 194.348 60.5606C195.626 60.568 196.661 61.6024 196.668 62.8808C196.671 63.2975 196.672 63.5418 196.673 63.6137C196.673 63.6155 196.673 63.6173 196.673 63.6191C196.684 65.079 195.51 66.2717 194.05 66.283L193.537 66.287C193.43 66.2878 193.323 66.2815 193.216 66.2679C191.9 66.1008 190.968 64.8982 191.135 63.5817C191.146 63.4938 191.217 63.2293 191.348 62.7884ZM25.058 134.819C25.4507 133.491 26.6737 132.583 28.0582 132.591C29.3366 132.599 30.3711 133.633 30.3787 134.911C30.3812 135.328 30.3827 135.573 30.3835 135.644C30.3835 135.646 30.3835 135.648 30.3835 135.65C30.3948 137.11 29.2206 138.302 27.7607 138.314L27.2479 138.318C27.1405 138.319 27.0332 138.312 26.9266 138.299C25.6102 138.132 24.6785 136.929 24.8456 135.612C24.8567 135.524 24.9275 135.26 25.058 134.819ZM58.8223 73.4805C59.2151 72.1528 60.4381 71.2447 61.8226 71.2527C63.101 71.26 64.1355 72.2944 64.1431 73.5728C64.1456 73.9895 64.1471 74.2339 64.1478 74.3058C64.1479 74.3076 64.1479 74.3094 64.1479 74.3112C64.1592 75.7711 62.985 76.9637 61.5251 76.9751L61.0122 76.979C60.9049 76.9799 60.7976 76.9735 60.691 76.96C59.3746 76.7929 58.4428 75.5902 58.6099 74.2738C58.6211 74.1858 58.6919 73.9214 58.8223 73.4805Z" fill="#F6F0FF"/>
<path fill-rule="evenodd" clip-rule="evenodd" d="M43.8301 170.59C41.4275 169.026 39.7803 166.373 39.6188 163.291C39.3504 158.17 43.2842 153.801 48.4053 153.533C53.5263 153.264 57.8953 157.198 58.1637 162.319C58.3283 165.459 56.9133 168.316 54.6136 170.118L51.1455 165.686C52.0514 164.976 52.6089 163.85 52.544 162.614C52.4383 160.596 50.7172 159.047 48.6998 159.152C46.6824 159.258 45.1327 160.979 45.2384 162.997C45.3021 164.211 45.951 165.256 46.8975 165.872L43.8301 170.59Z" fill="#F6F0FF"/>
<path d="M44.0229 170.971L43.8459 170.856C41.3178 169.209 39.6999 166.461 39.539 163.39C39.2645 158.153 43.2878 153.685 48.5252 153.41C53.7626 153.136 58.2309 157.159 58.5054 162.396C58.6694 165.525 57.294 168.476 54.8748 170.373L54.7086 170.503L50.9804 165.738L51.1463 165.608C52.0247 164.92 52.5238 163.849 52.4643 162.713C52.3646 160.812 50.7428 159.352 48.8418 159.451C46.9408 159.551 45.4805 161.173 45.5801 163.074C45.6386 164.189 46.2256 165.186 47.1436 165.784L47.3203 165.899L44.0229 170.971ZM43.9006 170.385L46.7397 166.017C45.8097 165.338 45.2205 164.275 45.1587 163.096C45.0468 160.962 46.686 159.142 48.8197 159.03C50.9535 158.918 52.7739 160.557 52.8857 162.691C52.9488 163.894 52.4533 165.032 51.5691 165.806L54.7791 169.908C56.9888 168.093 58.2369 165.336 58.0839 162.419C57.8217 157.414 53.552 153.569 48.5473 153.832C43.5426 154.094 39.6982 158.364 39.9605 163.368C40.1105 166.231 41.5852 168.8 43.9006 170.385Z" fill="#67577F"/>
<path fill-rule="evenodd" clip-rule="evenodd" d="M175.165 99.97L228.383 79.0677C229.54 78.6132 230.846 79.1828 231.301 80.34C231.355 80.4793 231.396 80.6237 231.422 80.7711L242.033 140.811C242.168 141.576 241.657 142.306 240.892 142.441C240.628 142.488 240.356 142.458 240.108 142.355L173.685 114.781V121.534L240.752 150.793C244.17 152.284 248.151 150.722 249.642 147.304C250.157 146.123 250.323 144.821 250.122 143.549L239.469 76.1487C238.766 71.6975 234.587 68.6594 230.136 69.363C229.476 69.4673 228.831 69.6522 228.216 69.9137L172.711 93.518C171.491 94.0368 170.737 95.2749 170.836 96.5969C170.865 96.9866 170.924 97.3735 171.012 97.7578C171.014 97.7702 171.017 97.7826 171.02 97.795C171.41 99.4593 173.075 100.492 174.74 100.103C174.884 100.069 175.027 100.024 175.165 99.97Z" fill="white"/>
<path d="M175.326 100.167L228.544 79.2643C229.593 78.8524 230.776 79.3686 231.188 80.4172C231.238 80.5435 231.275 80.6744 231.298 80.808L241.909 140.848C242.024 141.498 241.59 142.119 240.939 142.234C240.715 142.273 240.484 142.248 240.273 142.16L173.558 114.465V121.672L240.752 150.986C244.277 152.524 248.381 150.913 249.919 147.388C250.45 146.171 250.622 144.828 250.415 143.516L239.762 76.1159C239.04 71.5496 234.753 68.4329 230.187 69.1546C229.51 69.2616 228.848 69.4514 228.218 69.7196L172.713 93.3239C171.409 93.8781 170.604 95.2006 170.709 96.6128C170.739 97.013 170.8 97.4105 170.89 97.8051C170.894 97.8242 170.894 97.8242 170.899 97.8432C171.315 99.621 173.094 100.725 174.872 100.308C175.027 100.272 175.178 100.225 175.326 100.167ZM173.98 115.097L240.111 142.55C240.396 142.669 240.709 142.703 241.013 142.649C241.893 142.494 242.48 141.654 242.325 140.774L231.714 80.7345C231.686 80.5733 231.641 80.4153 231.581 80.2629C231.084 78.9973 229.655 78.3743 228.39 78.8714L175.172 99.7737C175.043 99.8244 174.911 99.8657 174.776 99.8973C173.225 100.261 171.673 99.2978 171.31 97.747C171.306 97.7289 171.306 97.7289 171.301 97.7108C171.216 97.3368 171.159 96.9604 171.13 96.5813C171.038 95.3494 171.741 94.1957 172.878 93.7123L228.383 70.108C228.982 69.8533 229.61 69.6731 230.253 69.5715C234.589 68.8862 238.659 71.8457 239.345 76.1818L249.998 143.582C250.193 144.814 250.031 146.076 249.532 147.219C248.088 150.531 244.232 152.044 240.921 150.6L173.98 121.396V115.097Z" fill="#67577F"/>
<path fill-rule="evenodd" clip-rule="evenodd" d="M175.741 140.617C173.048 139.633 170.847 137.419 169.996 134.452C168.582 129.522 171.433 124.381 176.362 122.967C181.291 121.554 186.433 124.404 187.847 129.333C188.713 132.355 187.977 135.457 186.142 137.731L181.766 134.193C182.489 133.297 182.779 132.075 182.437 130.884C181.881 128.942 179.855 127.82 177.913 128.376C175.971 128.933 174.848 130.959 175.405 132.901C175.74 134.07 176.608 134.942 177.669 135.329L175.741 140.617Z" fill="#F6F0FF"/>
<path d="M175.858 140.908L175.659 140.836C172.826 139.8 170.631 137.486 169.784 134.531C168.338 129.489 171.253 124.23 176.294 122.785C181.336 121.339 186.595 124.254 188.04 129.296C188.904 132.307 188.228 135.492 186.297 137.884L186.164 138.049L181.46 134.245L181.592 134.081C182.293 133.212 182.539 132.056 182.225 130.963C181.7 129.133 179.792 128.075 177.962 128.6C176.132 129.125 175.074 131.033 175.599 132.863C175.906 133.936 176.703 134.776 177.732 135.152L177.93 135.224L175.858 140.908ZM177.391 135.471C176.332 135.017 175.518 134.115 175.193 132.98C174.604 130.926 175.792 128.783 177.846 128.194C179.899 127.605 182.042 128.793 182.631 130.847C182.963 132.004 182.736 133.225 182.049 134.178L186.099 137.453C187.844 135.187 188.44 132.221 187.635 129.412C186.253 124.595 181.228 121.809 176.411 123.191C171.593 124.572 168.808 129.597 170.189 134.414C170.979 137.17 172.994 139.341 175.607 140.365L177.391 135.471Z" fill="#67577F"/>
<path fill-rule="evenodd" clip-rule="evenodd" d="M177.24 124.459C179.666 124.117 181.356 121.872 181.013 119.446C181.003 119.374 180.991 119.303 180.978 119.232L180.525 116.864C180.059 114.429 177.708 112.833 175.273 113.299C175.266 113.3 175.26 113.301 175.253 113.302C172.788 113.785 171.152 116.14 171.559 118.619L171.871 120.513C172.291 123.068 174.675 124.821 177.24 124.459Z" fill="white"/>
<path d="M177.219 124.605C179.761 124.246 181.531 121.895 181.172 119.353C181.161 119.278 181.149 119.203 181.135 119.129L180.682 116.761C180.194 114.212 177.732 112.54 175.183 113.028L175.162 113.032C172.585 113.537 170.875 115.998 171.301 118.59L171.612 120.483C172.051 123.152 174.541 124.982 177.219 124.605ZM177.16 124.187C174.709 124.532 172.43 122.858 172.029 120.415L171.717 118.521C171.328 116.155 172.89 113.907 175.243 113.446L175.262 113.442C177.583 112.999 179.823 114.52 180.267 116.84L180.72 119.208C180.733 119.276 180.744 119.344 180.754 119.412C181.08 121.723 179.471 123.861 177.16 124.187Z" fill="#67577F"/>
<path d="M127.878 85.2415L162.914 87.7727C163.999 87.8511 164.815 88.7941 164.737 89.8791C164.734 89.9199 164.73 89.9607 164.724 90.0012L161.348 114.953C161.206 116 160.263 116.749 159.21 116.649L123.64 113.276C122.557 113.173 121.763 112.212 121.865 111.129C121.869 111.086 121.875 111.042 121.882 111L125.792 86.8907C125.955 85.8837 126.86 85.168 127.878 85.2415ZM123.83 111.294L159.406 114.718L162.811 89.7399L127.736 87.206L123.83 111.294ZM137.349 100.993C135.95 100.993 134.816 99.8593 134.816 98.4607C134.816 97.0621 135.95 95.9284 137.349 95.9284C138.747 95.9284 139.881 97.0621 139.881 98.4607C139.881 99.8593 138.747 100.993 137.349 100.993ZM133.471 104.014L151.716 105.29L151.637 106.413L133.393 105.137L133.471 104.014ZM148.946 101.828L146.644 99.0841L149.387 96.7821L151.689 99.5255L148.946 101.828Z" fill="#F6F0FF"/>
<path fill-rule="evenodd" clip-rule="evenodd" d="M230.745 69.4798C232.541 69.3166 233.901 69.4573 234.825 69.9019C235.748 70.3465 236.92 71.425 238.342 73.1376L231.026 79.7498C230.651 79.4684 230.37 79.2809 230.182 79.1871C229.994 79.0933 229.666 78.9995 229.197 78.9057L230.745 69.4798ZM80.0832 81.9972C81.3011 81.3674 82.4226 80.9465 83.4475 80.7346C84.4725 80.5227 86.0669 80.382 88.2308 80.3126L86.4019 88.4723L85.4171 88.613L84.441 88.9331L80.0832 81.9972ZM48.5283 110.438C48.9165 108.779 49.3015 107.506 49.6831 106.621C50.0648 105.735 50.7776 104.461 51.8216 102.798L58.2649 109.856L57.8153 110.744L57.5177 111.727L48.5283 110.438ZM250.3 144.465C249.818 146.85 249.208 148.444 248.471 149.248C247.734 150.052 246.28 150.709 244.11 151.218L240.733 142.495C241.247 142.343 241.579 142.193 241.728 142.046C241.878 141.899 242.015 141.627 242.14 141.229L250.3 144.465Z" fill="#67577F"/>
<path d="M167.723 44.3474L170.393 48.4296L186.258 46.0579L186.321 46.4753L170.188 48.887L167.336 44.527L157.611 45.4918C157.495 45.5033 157.391 45.4187 157.38 45.3027C157.368 45.1867 157.453 45.0834 157.569 45.0719L167.329 44.1037L168.182 37.3837L183.412 32.5597C183.523 32.5245 183.642 32.5861 183.677 32.6972C183.712 32.8083 183.651 32.9269 183.54 32.9621L168.567 37.7046L167.723 44.3474Z" fill="#67577F"/>
<path d="M127.886 108.519C127.764 108.508 127.677 108.396 127.696 108.275L130.369 91.815C130.387 91.7069 130.484 91.6302 130.593 91.6384L158.59 93.7487C158.711 93.7578 158.8 93.8679 158.783 93.9887L156.391 110.871C156.375 110.982 156.275 111.061 156.163 111.051L127.886 108.519ZM130.755 92.0738L128.149 108.119L156.001 110.613L158.333 94.1526L130.755 92.0738ZM127.764 85.0936L162.801 87.6248C164.002 87.7116 164.905 88.7557 164.818 89.9569C164.815 90.0021 164.81 90.0472 164.804 90.0921L161.428 115.044C161.271 116.204 160.227 117.033 159.062 116.922L123.491 113.548C122.293 113.435 121.413 112.37 121.526 111.172C121.531 111.124 121.537 111.076 121.545 111.028L125.454 86.9195C125.635 85.8046 126.637 85.0122 127.764 85.0936ZM127.734 85.5146C126.825 85.449 126.017 86.0879 125.871 86.9871L121.961 111.096C121.955 111.134 121.95 111.173 121.947 111.211C121.855 112.178 122.564 113.036 123.531 113.128L159.101 116.502C160.041 116.591 160.884 115.922 161.01 114.987L164.386 90.0355C164.391 89.9993 164.395 89.9629 164.397 89.9265C164.467 88.9578 163.739 88.1157 162.77 88.0458L127.734 85.5146ZM123.456 111.545L127.43 87.0442L162.922 89.6083L159.459 115.01L123.456 111.545ZM159.096 114.551L162.443 89.9968L127.784 87.493L123.945 111.168L159.096 114.551ZM137.33 101.204C135.815 101.204 134.587 99.9761 134.587 98.461C134.587 96.9459 135.815 95.7176 137.33 95.7176C138.846 95.7176 140.074 96.9459 140.074 98.461C140.074 99.9761 138.846 101.204 137.33 101.204ZM137.33 100.782C138.612 100.782 139.652 99.743 139.652 98.461C139.652 97.179 138.612 96.1397 137.33 96.1397C136.048 96.1397 135.009 97.179 135.009 98.461C135.009 99.743 136.048 100.782 137.33 100.782ZM133.257 103.789L151.923 105.095L151.815 106.638L133.149 105.333L133.257 103.789ZM133.6 104.942L151.423 106.188L151.472 105.486L133.649 104.24L133.6 104.942ZM148.901 102.125L146.328 99.0584L149.395 96.4851L151.968 99.5518L148.901 102.125ZM151.373 99.4998L149.343 97.0797L146.923 99.1104L148.953 101.531L151.373 99.4998Z" fill="#67577F"/>
<path d="M157.027 221.772V221.35V221.772ZM157.027 221.35C157.308 221.35 157.308 221.772 157.027 221.772H153.791C153.51 221.772 153.51 221.35 153.791 221.35H157.027H160.262C160.544 221.35 160.544 221.772 160.262 221.772H157.027C156.745 221.772 156.745 221.35 157.027 221.35ZM146.963 207.443L146.691 207.119L146.963 207.443ZM146.963 207.443L144.36 209.624C144.144 209.804 143.873 209.481 144.089 209.3L146.691 207.119L149.294 204.939C149.51 204.758 149.781 205.082 149.565 205.262L146.963 207.443Z" fill="#67577F"/>
</svg>
