<svg width="240" height="240" viewBox="0 0 240 240" fill="none" xmlns="http://www.w3.org/2000/svg">
<path d="M169.115 3.87188L179.85 7.41094C179.899 7.4268 179.94 7.46169 179.963 7.50814C179.987 7.55458 179.992 7.60888 179.976 7.65938L176.7 18.9844C176.531 19.0031 176.381 18.9641 176.25 18.8672C173.678 16.1016 171.037 13.4016 168.328 10.7672C168.315 10.7516 168.198 10.6125 167.976 10.35C167.698 10.0125 167.337 9.92188 166.894 10.0781L168.623 4.13907C168.638 4.08866 168.662 4.04165 168.695 4.00079C168.728 3.95994 168.768 3.92607 168.814 3.90117C168.86 3.87628 168.91 3.86086 168.962 3.85583C169.014 3.8508 169.066 3.85626 169.115 3.87188Z" fill="#F68741" stroke="#F68741"/>
<path d="M114.806 3.89531C124 8.10781 129.37 15.2469 130.917 25.3125C126.286 28.0219 124.725 31.9984 126.234 37.2422C126.242 37.2691 126.243 37.2973 126.238 37.3246C126.233 37.3519 126.221 37.3776 126.205 37.3998C126.189 37.4219 126.168 37.44 126.144 37.4525C126.119 37.4649 126.093 37.4716 126.066 37.4719C123.484 37.5062 121.328 38.2687 119.597 39.7594C117.887 41.2375 116.833 43.1609 116.433 45.5297C115.886 48.7891 116.997 51.6922 119.766 54.2391L103.477 54.3562C104.464 52.9469 105.603 51.6703 106.894 50.5266C108.253 49.3203 108.837 47.9703 108.647 46.4766C108.516 45.4609 107.877 44.3016 106.73 42.9984C105.602 41.7203 104.547 40.7562 103.566 40.1062C102.163 39.1812 100.619 39.1812 98.9344 40.1062C98.3594 40.425 97.2516 41.4281 95.6109 43.1156C93.9109 44.8687 92.9156 45.9766 92.625 46.4391C91.2813 48.5766 91.7641 50.6844 94.0734 52.7625C94.6328 53.2687 94.9156 53.8 94.9219 54.3562H81.2109C81.2734 53.9094 81.5375 53.4766 82.0031 53.0578C82.5688 52.5453 83.0859 51.9016 83.5547 51.1266C84.0516 50.3078 84.3047 49.5375 84.3141 48.8156C84.3297 47.6937 83.9297 46.6469 83.1141 45.675C82.5578 45.0094 82.1188 44.5437 81.7969 44.2781C83 43.0625 84.4281 42.0781 86.0812 41.325C86.1494 41.2946 86.2093 41.2481 86.2558 41.1893C86.3023 41.1306 86.3341 41.0613 86.3484 40.9875C86.9953 37.7156 88.4141 34.8734 90.6047 32.4609C93.0672 33.6672 95.4047 34.0187 97.6172 33.5156C100.87 32.775 103.084 30.9109 104.259 27.9234C104.816 26.5016 105.025 25.0453 104.887 23.5547C104.744 22.0484 104.306 20.6031 103.575 19.2187C105.372 16.5094 107.752 14.4687 110.714 13.0969C111.402 12.775 112.05 12.025 112.659 10.8469C113.766 8.70312 114.336 6.47656 114.37 4.16719C114.371 4.11656 114.384 4.06695 114.409 4.02283C114.434 3.97872 114.47 3.94149 114.513 3.91451C114.556 3.88753 114.606 3.87165 114.657 3.8683C114.708 3.86495 114.759 3.87423 114.806 3.89531ZM121.629 17.6212C121.841 17.2018 121.877 16.7154 121.731 16.2689C121.584 15.8225 121.266 15.4527 120.846 15.2408L117.022 13.3091C116.814 13.2042 116.588 13.1412 116.356 13.1237C116.124 13.1063 115.891 13.1347 115.67 13.2074C115.449 13.2801 115.244 13.3956 115.068 13.5473C114.891 13.6991 114.747 13.8841 114.642 14.0917L114.574 14.2256C114.362 14.6451 114.326 15.1315 114.472 15.5779C114.619 16.0244 114.937 16.3942 115.357 16.6061L119.181 18.5378C119.389 18.6427 119.615 18.7057 119.847 18.7231C120.079 18.7406 120.312 18.7121 120.533 18.6395C120.754 18.5668 120.959 18.4513 121.135 18.2996C121.312 18.1478 121.456 17.9628 121.561 17.7551L121.629 17.6212ZM121.561 23.4754C121.349 23.0615 120.981 22.7487 120.539 22.6058C120.096 22.4629 119.615 22.5016 119.201 22.7134L115.387 24.6651C114.973 24.8769 114.661 25.2445 114.518 25.6869C114.375 26.1294 114.414 26.6105 114.625 27.0244L114.689 27.1496C114.901 27.5635 115.269 27.8763 115.711 28.0192C116.154 28.1621 116.635 28.1234 117.049 27.9116L120.863 25.9599C121.277 25.7481 121.589 25.3805 121.732 24.9381C121.875 24.4956 121.836 24.0145 121.625 23.6006L121.561 23.4754ZM116.031 34.5104C116.241 34.0939 116.276 33.6113 116.13 33.1687C115.984 32.7261 115.667 32.3597 115.251 32.1502L111.407 30.2167C111.2 30.113 110.976 30.0509 110.745 30.034C110.515 30.0171 110.284 30.0457 110.065 30.1182C109.846 30.1907 109.643 30.3056 109.468 30.4565C109.293 30.6073 109.15 30.7911 109.046 30.9973L108.987 31.1146C108.778 31.5311 108.742 32.0137 108.889 32.4563C109.035 32.8989 109.351 33.2653 109.768 33.4747L113.612 35.4082C113.818 35.512 114.043 35.5741 114.273 35.591C114.504 35.6079 114.735 35.5793 114.954 35.5068C115.173 35.4343 115.376 35.3194 115.551 35.1685C115.725 35.0177 115.869 34.8339 115.972 34.6277L116.031 34.5104Z" fill="#F1F2F2" stroke="#F1F2F2"/>
<path d="M168.328 10.7672C171.038 13.4016 173.678 16.1016 176.25 18.8672C176.381 18.9641 176.531 19.0031 176.7 18.9844L174.628 26.1328C173.575 25.3578 172.466 24.3516 171.3 23.1141C170.422 22.1859 168.603 20.3828 165.844 17.7047C165.559 17.4297 165.383 17.1453 165.314 16.8516C165.233 16.5109 165.206 16.1609 165.234 15.8016L166.894 10.0781C167.338 9.92187 167.699 10.0125 167.977 10.35C168.199 10.6125 168.316 10.7516 168.328 10.7672Z" fill="#FC9F4B" stroke="#FC9F4B"/>
<path d="M120.846 15.2408L117.022 13.3091C116.149 12.8679 115.083 13.2183 114.642 14.0917L114.574 14.2256C114.133 15.0991 114.483 16.1648 115.357 16.6061L119.181 18.5378C120.054 18.979 121.12 18.6286 121.561 17.7551L121.629 17.6213C122.07 16.7478 121.72 15.682 120.846 15.2408Z" fill="#FFB749" stroke="#FFB749"/>
<path d="M98.7097 15.5813C100.632 16.2719 102.253 17.4844 103.575 19.2188C104.307 20.6031 104.744 22.0484 104.888 23.5547C105.025 25.0453 104.816 26.5016 104.26 27.9234C103.085 30.9109 100.871 32.775 97.6175 33.5156C95.405 34.0188 93.0675 33.6672 90.605 32.4609L90.5909 32.3578C90.5864 32.3298 90.5732 32.3007 90.5521 32.2724C90.5311 32.244 90.5028 32.2172 90.4691 32.1938C88.3847 30.7406 87.0956 28.9547 86.6019 26.8359C85.7738 23.2922 86.5847 20.275 89.0347 17.7844C90.3503 16.4469 91.8925 15.5891 93.6613 15.2109C95.3425 14.8547 97.0253 14.9781 98.7097 15.5813Z" fill="#D24850" stroke="#D24850"/>
<path d="M165.234 15.8016C165.206 16.1609 165.233 16.5109 165.314 16.8516C165.383 17.1453 165.559 17.4297 165.844 17.7047C168.603 20.3828 170.422 22.1859 171.3 23.1141C172.465 24.3516 173.575 25.3578 174.628 26.1328L172.481 33.5156H172.373C172.339 33.5156 172.305 33.5089 172.274 33.4961C172.242 33.4832 172.214 33.4643 172.19 33.4406C169.359 30.5406 166.503 27.6656 163.622 24.8156C163.431 24.5062 163.154 24.3203 162.792 24.2578L165.234 15.8016Z" fill="#F68741" stroke="#F68741"/>
<path d="M119.202 22.7134L115.388 24.6651C114.526 25.1062 114.185 26.1625 114.626 27.0244L114.69 27.1496C115.131 28.0115 116.187 28.3527 117.049 27.9116L120.863 25.9599C121.725 25.5188 122.066 24.4625 121.625 23.6006L121.561 23.4754C121.12 22.6135 120.064 22.2723 119.202 22.7134Z" fill="#FB7B51" stroke="#FB7B51"/>
<path d="M162.792 24.2578C163.154 24.3203 163.431 24.5062 163.622 24.8156C166.503 27.6656 169.359 30.5406 172.19 33.4406C172.214 33.4644 172.242 33.4832 172.274 33.4961C172.305 33.5089 172.339 33.5156 172.373 33.5156H172.481L170.372 40.7812C169.931 40.8688 169.698 40.75 169.673 40.425C169.661 40.2596 169.607 40.12 169.523 40.0359C166.77 37.3484 164.042 34.6375 161.339 31.9031C161.123 31.7687 160.904 31.6422 160.683 31.5234L162.792 24.2578Z" fill="#FC9F4B" stroke="#FC9F4B"/>
<path d="M137.11 24.6094C140.769 25.6312 143.074 27.8187 144.024 31.1719C144.827 34.0156 144.313 36.8281 142.482 39.6094C140.319 41.875 137.669 43.0828 134.532 43.2328C134.505 43.2343 134.479 43.242 134.455 43.2553C134.432 43.2687 134.411 43.2873 134.396 43.3099C134.381 43.3325 134.371 43.3583 134.367 43.3856C134.362 43.4128 134.364 43.4407 134.372 43.4672C135.728 47.7641 134.727 51.3547 131.368 54.2391C127.502 54.4672 123.635 54.4672 119.766 54.2391C116.997 51.6922 115.886 48.7891 116.433 45.5297C116.833 43.1609 117.888 41.2375 119.597 39.7594C121.328 38.2687 123.485 37.5062 126.066 37.4719C126.093 37.4716 126.12 37.4649 126.144 37.4525C126.168 37.44 126.189 37.4219 126.205 37.3998C126.222 37.3776 126.233 37.3519 126.238 37.3246C126.243 37.2973 126.242 37.2691 126.235 37.2422C124.725 31.9984 126.286 28.0219 130.918 25.3125C133.108 24.3031 135.172 24.0687 137.11 24.6094Z" fill="#D24850" stroke="#D24850"/>
<path d="M115.251 32.1502L111.406 30.2168C110.539 29.7806 109.482 30.13 109.046 30.9973L108.987 31.1146C108.551 31.9819 108.9 33.0386 109.768 33.4748L113.612 35.4082C114.479 35.8445 115.536 35.495 115.972 34.6277L116.031 34.5104C116.467 33.6431 116.118 32.5864 115.251 32.1502Z" fill="#A1AC37" stroke="#A1AC37"/>
<path d="M160.683 31.5234C160.905 31.6422 161.123 31.7687 161.339 31.9031C164.042 34.6375 166.77 37.3484 169.523 40.0359C169.608 40.12 169.661 40.2596 169.673 40.425C169.698 40.75 169.931 40.8688 170.372 40.7812L168.262 47.8125C168.159 47.7406 168.05 47.6984 167.934 47.6859C167.755 47.6649 167.608 47.6076 167.527 47.5266L158.672 38.5359L160.683 31.5234Z" fill="#F68741" stroke="#F68741"/>
<path d="M158.672 38.5359L167.527 47.5266C167.608 47.6076 167.755 47.6649 167.935 47.6859C168.05 47.6984 168.16 47.7406 168.263 47.8125L166.271 54.9609C166.124 54.6984 165.941 54.5844 165.722 54.6187C165.64 54.6315 165.561 54.6305 165.493 54.6157C165.424 54.601 165.367 54.573 165.328 54.5344L156.544 45.8203L158.672 38.5359Z" fill="#FC9F4B" stroke="#FC9F4B"/>
<path d="M76.8464 39.8719C78.3464 40.6875 79.9964 42.1563 81.7964 44.2781C82.1183 44.5438 82.5573 45.0094 83.1136 45.675C83.9292 46.6469 84.3292 47.6938 84.3136 48.8156C84.3042 49.5375 84.0511 50.3078 83.5542 51.1266C83.0855 51.9016 82.5683 52.5453 82.0026 53.0578C81.537 53.4766 81.273 53.9094 81.2105 54.3563C78.9261 54.3906 76.7058 54.7875 74.5495 55.5469C72.4933 53.7688 70.5573 51.8703 68.7417 49.8516C68.2292 49.2797 67.8745 48.6391 67.6776 47.9297C67.4901 47.2641 67.5089 46.5641 67.7339 45.8297C68.1089 44.5891 68.8214 43.5406 69.8714 42.6844C70.4214 42.1094 70.987 41.5531 71.5683 41.0156C72.2933 40.3438 72.9386 39.8984 73.5042 39.6797C74.6605 39.2266 75.7745 39.2906 76.8464 39.8719Z" fill="#F3E9DB" stroke="#F3E9DB"/>
<path d="M103.566 40.1063C104.547 40.7563 105.602 41.7203 106.73 42.9984C107.877 44.3016 108.516 45.4609 108.647 46.4766C108.838 47.9703 108.253 49.3203 106.894 50.5266C105.603 51.6703 104.464 52.9469 103.477 54.3563H94.9221C94.9158 53.8 94.633 53.2688 94.0736 52.7625C91.7643 50.6844 91.2815 48.5766 92.6252 46.4391C92.9158 45.9766 93.9111 44.8688 95.6111 43.1156C97.2518 41.4281 98.3596 40.425 98.9346 40.1063C100.619 39.1813 102.163 39.1813 103.566 40.1063Z" fill="#F5EBDE" stroke="#F5EBDE"/>
<path d="M142.481 39.6094L142.519 40.9875C142.521 41.0561 142.544 41.1229 142.585 41.1802C142.626 41.2374 142.682 41.2828 142.748 41.3109C148.417 43.6516 150.834 48 150 54.3562L131.367 54.2391C134.727 51.3547 135.728 47.7641 134.372 43.4672C134.364 43.4407 134.362 43.4128 134.366 43.3856C134.37 43.3583 134.38 43.3325 134.396 43.3099C134.411 43.2873 134.431 43.2687 134.455 43.2553C134.478 43.242 134.504 43.2343 134.531 43.2328C137.669 43.0828 140.319 41.875 142.481 39.6094Z" fill="#F1F2F2" stroke="#F1F2F2"/>
<path d="M156.544 45.8203L165.328 54.5344C165.367 54.573 165.424 54.601 165.492 54.6157C165.561 54.6305 165.64 54.6315 165.722 54.6187C165.941 54.5844 166.123 54.6984 166.27 54.9609L163.027 65.8594C163.055 65.6813 163.017 65.5656 162.914 65.5125C162.834 65.4697 162.765 65.4232 162.713 65.3778C162.661 65.3325 162.628 65.2899 162.619 65.2547C161.134 60.5922 158.139 57.2844 153.633 55.3313C153.845 55.1625 153.97 54.9516 154.008 54.6984C154.058 54.3453 154.089 54.1531 154.102 54.1219C154.933 51.3594 155.747 48.5922 156.544 45.8203Z" fill="#F68741" stroke="#F68741"/>
<path d="M119.766 54.2391C123.635 54.4672 127.502 54.4672 131.368 54.2391L150 54.3562L153.633 55.3312C158.139 57.2844 161.135 60.5922 162.619 65.2547C162.629 65.2899 162.661 65.3325 162.713 65.3778C162.765 65.4232 162.835 65.4697 162.914 65.5125C163.018 65.5656 163.055 65.6812 163.027 65.8594L162.989 66.9141C162.696 66.9828 162.419 66.9141 162.16 66.7078C160.482 65.3922 158.703 65.3141 156.825 66.4734C155.816 67.0984 153.932 68.9312 151.172 71.9719C149.341 70.6406 147.31 69.8187 145.078 69.5062C143.728 69.3187 142.439 69.4766 141.211 69.9797C139.883 68.4891 138.472 67.0875 136.978 65.775C135.682 64.6375 134.532 64.0031 133.528 63.8719C131.957 63.6656 130.563 64.2797 129.347 65.7141C128.063 66.8422 126.939 68.1078 125.977 69.5109C123.971 69.2078 122.166 69.6625 120.563 70.875C117.366 73.2906 114.046 73.7516 110.602 72.2578C110.396 72.1672 109.544 71.6312 108.047 70.65C105.46 68.9531 102.755 69.0266 99.9331 70.8703C96.8113 73.5016 93.7066 73.7953 90.6191 71.7516C89.2128 70.8203 88.3347 70.2844 87.9847 70.1437C85.0378 68.95 82.2113 69.1531 79.505 70.7531C77.8331 71.7406 76.8722 72.2828 76.6222 72.3797C72.7253 73.8766 69.216 73.0312 66.0941 69.8437C65.9691 69.7156 65.8456 69.7547 65.7238 69.9609C65.4894 67.8047 65.8019 65.7312 66.6613 63.7406C68.2613 60.025 70.891 57.2937 74.5503 55.5469C76.7066 54.7875 78.9269 54.3906 81.2113 54.3562H94.9222H103.477L119.766 54.2391ZM84.3097 61.8844C84.3097 61.3995 84.1171 60.9345 83.7743 60.5917C83.4314 60.2489 82.9664 60.0562 82.4816 60.0562C82.2415 60.0562 82.0038 60.1035 81.782 60.1954C81.5602 60.2873 81.3587 60.4219 81.1889 60.5917C81.0191 60.7614 80.8845 60.963 80.7926 61.1848C80.7007 61.4066 80.6535 61.6443 80.6535 61.8844C80.6535 62.1244 80.7007 62.3622 80.7926 62.584C80.8845 62.8058 81.0191 63.0073 81.1889 63.177C81.3587 63.3468 81.5602 63.4815 81.782 63.5733C82.0038 63.6652 82.2415 63.7125 82.4816 63.7125C82.9664 63.7125 83.4314 63.5199 83.7743 63.177C84.1171 62.8342 84.3097 62.3692 84.3097 61.8844ZM106.796 61.8937C106.796 61.4114 106.604 60.9488 106.263 60.6077C105.922 60.2666 105.459 60.075 104.977 60.075C104.495 60.075 104.032 60.2666 103.691 60.6077C103.35 60.9488 103.158 61.4114 103.158 61.8937C103.158 62.3761 103.35 62.8387 103.691 63.1798C104.032 63.5209 104.495 63.7125 104.977 63.7125C105.459 63.7125 105.922 63.5209 106.263 63.1798C106.604 62.8387 106.796 62.3761 106.796 61.8937ZM125.55 61.8891C125.55 61.4067 125.359 60.9441 125.018 60.603C124.677 60.2619 124.214 60.0703 123.732 60.0703C123.249 60.0703 122.787 60.2619 122.446 60.603C122.104 60.9441 121.913 61.4067 121.913 61.8891C121.913 62.3714 122.104 62.834 122.446 63.1751C122.787 63.5162 123.249 63.7078 123.732 63.7078C124.214 63.7078 124.677 63.5162 125.018 63.1751C125.359 62.834 125.55 62.3714 125.55 61.8891ZM148.06 61.8937C148.06 61.4101 147.868 60.9463 147.526 60.6044C147.184 60.2624 146.72 60.0703 146.236 60.0703C145.997 60.0703 145.76 60.1175 145.538 60.2091C145.317 60.3007 145.116 60.4351 144.947 60.6044C144.778 60.7737 144.643 60.9747 144.552 61.1959C144.46 61.4172 144.413 61.6543 144.413 61.8937C144.413 62.1332 144.46 62.3703 144.552 62.5915C144.643 62.8128 144.778 63.0138 144.947 63.1831C145.116 63.3524 145.317 63.4867 145.538 63.5784C145.76 63.67 145.997 63.7172 146.236 63.7172C146.72 63.7172 147.184 63.5251 147.526 63.1831C147.868 62.8412 148.06 62.3773 148.06 61.8937ZM74.9253 65.625C74.9253 65.1414 74.7332 64.6776 74.3913 64.3356C74.0493 63.9937 73.5855 63.8016 73.1019 63.8016C72.6183 63.8016 72.1545 63.9937 71.8125 64.3356C71.4706 64.6776 71.2785 65.1414 71.2785 65.625C71.2785 66.1086 71.4706 66.5724 71.8125 66.9144C72.1545 67.2563 72.6183 67.4484 73.1019 67.4484C73.5855 67.4484 74.0493 67.2563 74.3913 66.9144C74.7332 66.5724 74.9253 66.1086 74.9253 65.625ZM95.5503 65.6297C95.5503 65.1473 95.3587 64.6847 95.0176 64.3436C94.6765 64.0025 94.2139 63.8109 93.7316 63.8109C93.2492 63.8109 92.7866 64.0025 92.4455 64.3436C92.1045 64.6847 91.9128 65.1473 91.9128 65.6297C91.9128 66.112 92.1045 66.5747 92.4455 66.9157C92.7866 67.2568 93.2492 67.4484 93.7316 67.4484C94.2139 67.4484 94.6765 67.2568 95.0176 66.9157C95.3587 66.5747 95.5503 66.112 95.5503 65.6297ZM116.175 65.6297C116.175 65.1486 115.984 64.6872 115.644 64.3469C115.304 64.0067 114.842 63.8156 114.361 63.8156C114.123 63.8156 113.887 63.8625 113.667 63.9537C113.447 64.0449 113.247 64.1785 113.079 64.3469C112.91 64.5154 112.776 64.7154 112.685 64.9355C112.594 65.1556 112.547 65.3915 112.547 65.6297C112.547 65.8679 112.594 66.1038 112.685 66.3239C112.776 66.544 112.91 66.744 113.079 66.9124C113.247 67.0809 113.447 67.2145 113.667 67.3057C113.887 67.3968 114.123 67.4437 114.361 67.4437C114.842 67.4437 115.304 67.2526 115.644 66.9124C115.984 66.5722 116.175 66.1108 116.175 65.6297Z" fill="#FFB749" stroke="#FFB749"/>
<path d="M82.4814 63.7125C83.4911 63.7125 84.3096 62.894 84.3096 61.8844C84.3096 60.8747 83.4911 60.0562 82.4814 60.0562C81.4718 60.0562 80.6533 60.8747 80.6533 61.8844C80.6533 62.894 81.4718 63.7125 82.4814 63.7125Z" fill="#F47E3E" stroke="#F47E3E"/>
<path d="M104.977 63.7125C105.981 63.7125 106.796 62.8982 106.796 61.8937C106.796 60.8893 105.981 60.075 104.977 60.075C103.972 60.075 103.158 60.8893 103.158 61.8937C103.158 62.8982 103.972 63.7125 104.977 63.7125Z" fill="#F47E3E" stroke="#F47E3E"/>
<path d="M123.731 63.7078C124.735 63.7078 125.55 62.8935 125.55 61.8891C125.55 60.8846 124.735 60.0703 123.731 60.0703C122.726 60.0703 121.912 60.8846 121.912 61.8891C121.912 62.8935 122.726 63.7078 123.731 63.7078Z" fill="#F47E3E" stroke="#F47E3E"/>
<path d="M146.236 63.7172C147.243 63.7172 148.059 62.9008 148.059 61.8937C148.059 60.8867 147.243 60.0703 146.236 60.0703C145.228 60.0703 144.412 60.8867 144.412 61.8937C144.412 62.9008 145.228 63.7172 146.236 63.7172Z" fill="#F47E3E" stroke="#F47E3E"/>
<path d="M73.1018 67.4484C74.1088 67.4484 74.9252 66.6321 74.9252 65.625C74.9252 64.6179 74.1088 63.8016 73.1018 63.8016C72.0947 63.8016 71.2783 64.6179 71.2783 65.625C71.2783 66.6321 72.0947 67.4484 73.1018 67.4484Z" fill="#F47E3E" stroke="#F47E3E"/>
<path d="M136.978 65.775C138.472 67.0875 139.882 68.4891 141.211 69.9797C142.711 71.7766 142.906 73.5672 141.797 75.3516C140.653 77.1953 138.817 78.9078 136.289 80.4891C135.307 80.6578 134.331 80.6312 133.359 80.4094C130.975 78.5 128.781 76.3906 126.778 74.0812C125.612 72.7375 125.345 71.2141 125.976 69.5109C126.939 68.1078 128.062 66.8422 129.347 65.7141C130.562 64.2797 131.956 63.6656 133.528 63.8719C134.531 64.0031 135.681 64.6375 136.978 65.775Z" fill="#F3E9DB" stroke="#F3E9DB"/>
<path d="M93.7309 67.4484C94.7353 67.4484 95.5496 66.6342 95.5496 65.6297C95.5496 64.6252 94.7353 63.8109 93.7309 63.8109C92.7264 63.8109 91.9121 64.6252 91.9121 65.6297C91.9121 66.6342 92.7264 67.4484 93.7309 67.4484Z" fill="#F47E3E" stroke="#F47E3E"/>
<path d="M114.361 67.4438C115.363 67.4438 116.175 66.6316 116.175 65.6297C116.175 64.6278 115.363 63.8156 114.361 63.8156C113.359 63.8156 112.547 64.6278 112.547 65.6297C112.547 66.6316 113.359 67.4438 114.361 67.4438Z" fill="#F47E3E" stroke="#F47E3E"/>
<path d="M162.159 66.7078C162.418 66.9141 162.695 66.9828 162.989 66.9141C163.304 67.686 163.887 68.4375 164.737 69.1688C167.393 71.4594 167.55 73.9406 165.206 76.6125C163.775 77.9656 162.411 79.3813 161.114 80.8594C159.411 80.6125 157.698 80.5406 155.976 80.6438C155.107 80.6969 154.248 80.6453 153.398 80.4891C152.842 79.6235 152.168 78.8578 151.378 78.1922C149.637 76.1735 149.568 74.1 151.171 71.9719C153.931 68.9313 155.815 67.0985 156.825 66.4735C158.703 65.3141 160.481 65.3922 162.159 66.7078Z" fill="#F5EBDE" stroke="#F5EBDE"/>
<path d="M90.6189 71.7516C93.7064 73.7953 96.8111 73.5016 99.933 70.8703C102.755 69.0266 105.46 68.9531 108.047 70.65C109.544 71.6313 110.396 72.1672 110.602 72.2578C114.046 73.7516 117.366 73.2906 120.563 70.875C122.166 69.6625 123.971 69.2078 125.977 69.5109C125.346 71.2141 125.613 72.7375 126.778 74.0812C128.781 76.3906 130.975 78.5 133.36 80.4094L132.188 80.6437C92.5658 80.6 72.4877 80.5938 71.9533 80.625C71.4002 80.6594 70.9377 80.6203 70.5658 80.5078C67.5377 77.6609 65.9236 74.1453 65.7236 69.9609C65.8455 69.7547 65.9689 69.7156 66.0939 69.8438C69.2158 73.0313 72.7252 73.8766 76.6221 72.3797C76.8721 72.2828 77.833 71.7406 79.5049 70.7531C82.2111 69.1531 85.0377 68.95 87.9846 70.1438C88.3346 70.2844 89.2127 70.8203 90.6189 71.7516Z" fill="#D6A379" stroke="#D6A379"/>
<path d="M145.078 69.5062C147.309 69.8187 149.341 70.6406 151.172 71.9719C149.569 74.1 149.638 76.1734 151.378 78.1922C152.169 78.8578 152.842 79.6234 153.398 80.4891C147.695 80.7172 141.992 80.7172 136.289 80.4891C138.817 78.9078 140.653 77.1953 141.797 75.3516C142.906 73.5672 142.711 71.7766 141.211 69.9797C142.439 69.4766 143.728 69.3187 145.078 69.5062Z" fill="#D6A379" stroke="#D6A379"/>
<path d="M133.359 80.4094C134.331 80.6312 135.308 80.6578 136.289 80.4891C141.992 80.7172 147.695 80.7172 153.398 80.4891C154.248 80.6453 155.108 80.6969 155.977 80.6437C157.698 80.5406 159.411 80.6125 161.114 80.8594C162.733 81.7531 163.403 83.1594 163.125 85.0781C163.134 89.2562 163.128 93.4359 163.106 97.6172C162.669 97.7203 162.253 97.8828 161.859 98.1047C159.822 99.2422 157.666 99.5547 155.391 99.0422C153.75 98.3516 152.328 97.4109 151.125 96.2203C150.756 95.8578 150.312 95.6844 149.794 95.7C148.378 95.7437 147.261 96.1391 146.442 96.8859C145.817 97.4578 145.333 98.4422 144.989 99.8391C144.358 102.377 144.261 104.966 144.698 107.606C145.152 112.637 145.63 117.667 146.133 122.695C146.361 124.983 146.053 127.066 145.209 128.944C144.659 130.169 143.933 131.1 143.03 131.737C142.058 132.425 140.905 132.848 139.57 133.008C138.264 133.164 137.13 132.959 136.167 132.394C135.352 131.912 134.691 131.067 134.184 129.858C133.347 127.867 133.033 125.753 133.242 123.516C133.733 117.187 134.277 110.866 134.873 104.55C134.973 103.503 134.862 102.659 134.541 102.019C133.756 100.472 132.386 99.5969 130.43 99.3937C131.07 99.475 131.361 99.2484 131.302 98.7141C131.264 98.3672 131.245 98.1797 131.245 98.1516C131.192 92.5047 131.231 86.8984 131.362 81.3328C131.363 81.2859 131.374 81.2398 131.394 81.1973C131.414 81.1548 131.443 81.1169 131.479 81.086C131.515 81.0552 131.556 81.032 131.602 81.018C131.647 81.004 131.695 80.9994 131.742 81.0047C132.255 81.0672 132.403 80.9469 132.188 80.6437L133.359 80.4094ZM142.278 92.6333C142.382 92.4271 142.444 92.2025 142.461 91.9723C142.478 91.742 142.449 91.5107 142.377 91.2916C142.304 91.0724 142.189 90.8697 142.039 90.6949C141.888 90.5202 141.704 90.3769 141.498 90.2731L137.645 88.3355C137.229 88.126 136.746 88.0906 136.303 88.2369C135.861 88.3833 135.494 88.6995 135.285 89.116L135.222 89.2416C135.118 89.4479 135.056 89.6725 135.039 89.9027C135.022 90.133 135.051 90.3642 135.123 90.5834C135.196 90.8026 135.311 91.0053 135.461 91.1801C135.612 91.3548 135.796 91.4981 136.002 91.6018L139.855 93.5395C140.271 93.749 140.754 93.7844 141.197 93.638C141.639 93.4916 142.006 93.1754 142.215 92.759L142.278 92.6333Z" fill="#8E5E47" stroke="#8E5E47"/>
<path d="M70.5656 80.5078C70.9375 80.6203 71.4 80.6594 71.9531 80.625C72.4875 80.5937 92.5656 80.6 132.187 80.6437C132.403 80.9469 132.255 81.0672 131.742 81.0047C131.695 80.9994 131.647 81.004 131.602 81.018C131.556 81.032 131.515 81.0552 131.479 81.086C131.443 81.1169 131.414 81.1548 131.394 81.1973C131.374 81.2398 131.363 81.2859 131.362 81.3328C131.231 86.8984 131.192 92.5047 131.245 98.1516C131.245 98.1797 131.264 98.3672 131.302 98.7141C131.361 99.2484 131.07 99.475 130.43 99.3937C127.017 99.45 125.416 101.202 125.625 104.648C125.741 106.545 125.719 110.442 125.559 116.339C125.512 118.089 125.384 119.35 125.175 120.122C124.834 121.369 124.263 122.522 123.459 123.581C122.3 125.109 120.939 125.764 119.377 125.545C118.089 125.367 116.98 124.653 116.048 123.403C115.058 122.072 114.503 120.509 114.384 118.716C114.303 117.462 114.417 116.133 114.727 114.727C115.273 112.248 115.734 109.514 116.109 106.523C116.222 105.62 116.205 104.841 116.058 104.184C115.886 103.403 115.622 102.658 115.266 101.948C114.653 100.73 113.861 99.9125 112.889 99.4969C111.605 98.9437 110.242 99.1078 108.802 99.9891C108.342 100.27 107.613 100.759 106.613 101.456C104.644 102.825 102.397 103.333 99.8719 102.98C97.2844 102.617 94.8078 101.569 92.4422 99.8344C90.8172 98.6437 89.8281 97.95 89.475 97.7531C88.3188 97.1156 87.1953 96.65 86.1047 96.3562C83.3047 95.6062 80.6875 96.0953 78.2531 97.8234C77.0531 98.6734 75.4219 99.1969 73.3594 99.3937C70.5438 99.025 68.1203 97.8484 66.0891 95.8641C65.9641 95.7422 65.8156 95.7016 65.6437 95.7422C65.6 87.7516 65.5938 83.6891 65.625 83.5547C66.1438 81.3578 67.55 80.3813 69.8438 80.625C70.1469 80.6563 70.3875 80.6172 70.5656 80.5078ZM84.0849 87.2314C83.8761 86.8146 83.5104 86.4977 83.068 86.3506C82.6256 86.2034 82.1429 86.238 81.7261 86.4467L77.8784 88.3735C77.672 88.4768 77.488 88.6198 77.3368 88.7943C77.1857 88.9688 77.0704 89.1713 76.9975 89.3904C76.9247 89.6094 76.8957 89.8407 76.9122 90.0709C76.9287 90.3012 76.9904 90.5259 77.0937 90.7323L77.1651 90.8748C77.3739 91.2917 77.7396 91.6085 78.182 91.7557C78.6244 91.9028 79.1071 91.8682 79.5239 91.6595L83.3716 89.7328C83.578 89.6294 83.762 89.4864 83.9132 89.3119C84.0643 89.1374 84.1796 88.9349 84.2525 88.7159C84.3253 88.4968 84.3543 88.2656 84.3378 88.0353C84.3213 87.8051 84.2596 87.5803 84.1563 87.3739L84.0849 87.2314ZM125.332 87.2356C125.123 86.8176 124.756 86.4999 124.313 86.3524C123.869 86.2048 123.385 86.2395 122.967 86.4488L119.128 88.3714C118.71 88.5807 118.392 88.9475 118.245 89.391C118.097 89.8345 118.132 90.3185 118.341 90.7365L118.408 90.8707C118.618 91.2886 118.984 91.6063 119.428 91.7539C119.871 91.9014 120.355 91.8667 120.773 91.6574L124.613 89.7348C125.031 89.5255 125.348 89.1588 125.496 88.7152C125.643 88.2717 125.609 87.7877 125.399 87.3697L125.332 87.2356ZM104.791 92.6122C104.894 92.4061 104.955 92.1819 104.971 91.9522C104.987 91.7225 104.958 91.492 104.885 91.2736C104.812 91.0553 104.696 90.8535 104.545 90.6797C104.394 90.506 104.21 90.3637 104.004 90.261L100.136 88.3326C99.7204 88.1251 99.2389 88.0914 98.798 88.239C98.357 88.3865 97.9928 88.7032 97.7853 89.1193L97.7184 89.2535C97.6157 89.4595 97.5545 89.6838 97.5385 89.9134C97.5224 90.1431 97.5517 90.3737 97.6248 90.592C97.6978 90.8103 97.8132 91.0121 97.9642 91.1859C98.1153 91.3596 98.2991 91.5019 98.5051 91.6047L102.373 93.5331C102.789 93.7405 103.27 93.7742 103.711 93.6266C104.152 93.4791 104.517 93.1625 104.724 92.7464L104.791 92.6122Z" fill="#895740" stroke="#895740"/>
<path d="M81.7261 86.4467L77.8784 88.3735C77.0103 88.8082 76.659 89.8643 77.0937 90.7323L77.1651 90.8748C77.5998 91.7429 78.6559 92.0942 79.5239 91.6595L83.3716 89.7328C84.2396 89.2981 84.5909 88.242 84.1562 87.3739L84.0849 87.2314C83.6502 86.3634 82.5941 86.0121 81.7261 86.4467Z" fill="#A1AC37" stroke="#A1AC37"/>
<path d="M122.967 86.4488L119.128 88.3714C118.257 88.8073 117.905 89.8662 118.341 90.7365L118.408 90.8707C118.844 91.741 119.903 92.0933 120.773 91.6574L124.612 89.7349C125.483 89.299 125.835 88.2401 125.399 87.3697L125.332 87.2356C124.896 86.3652 123.837 86.013 122.967 86.4488Z" fill="#A1AC37" stroke="#A1AC37"/>
<path d="M104.004 90.261L100.136 88.3326C99.2698 87.9005 98.2172 88.2528 97.7851 89.1193L97.7182 89.2535C97.2862 90.12 97.6384 91.1726 98.5049 91.6047L102.373 93.5331C103.239 93.9651 104.292 93.6129 104.724 92.7464L104.791 92.6121C105.223 91.7457 104.871 90.693 104.004 90.261Z" fill="#F47E3E" stroke="#F47E3E"/>
<path d="M141.497 90.2731L137.645 88.3355C136.777 87.8993 135.721 88.2487 135.284 89.116L135.221 89.2416C134.785 90.1089 135.134 91.1656 136.002 91.6018L139.854 93.5395C140.722 93.9757 141.778 93.6263 142.215 92.759L142.278 92.6333C142.714 91.766 142.365 90.7094 141.497 90.2731Z" fill="#F47E3E" stroke="#F47E3E"/>
<path d="M151.125 96.2203C152.328 97.4109 153.75 98.3516 155.391 99.0422C154.75 113.733 153.259 128.336 150.919 142.852C149.806 143.117 148.514 143.655 147.042 144.464C142.923 146.73 138.836 146.85 134.78 144.825C132.636 143.756 131.564 143.222 131.564 143.222C128.023 141.925 124.608 142.241 121.317 144.169C117.255 146.55 113.22 146.853 109.214 145.078C109.211 145.075 108.542 144.72 107.208 144.014C103.111 141.848 99.0641 141.9 95.0672 144.169C90.4297 146.803 85.8984 146.863 81.4734 144.347C80.4391 143.759 79.3578 143.28 78.2297 142.908C78.1638 142.886 78.095 142.883 78.0375 142.899C77.98 142.914 77.9381 142.948 77.9203 142.992C77.8984 143.052 77.8953 143.122 77.9109 143.203C75.5297 128.691 74.0125 114.087 73.3594 99.3937C75.4219 99.1969 77.0531 98.6734 78.2531 97.8234C80.6875 96.0953 83.3047 95.6063 86.1047 96.3563C87.1953 96.65 88.3188 97.1156 89.475 97.7531C89.8281 97.95 90.8172 98.6438 92.4422 99.8344C94.8078 101.569 97.2844 102.617 99.8719 102.98C102.397 103.333 104.644 102.825 106.613 101.456C107.613 100.759 108.342 100.27 108.802 99.9891C110.242 99.1078 111.605 98.9437 112.889 99.4969C113.861 99.9125 114.653 100.73 115.266 101.948C115.622 102.658 115.886 103.403 116.058 104.184C116.205 104.841 116.222 105.62 116.109 106.523C115.734 109.514 115.273 112.248 114.727 114.727C114.417 116.133 114.303 117.463 114.384 118.716C114.503 120.509 115.058 122.072 116.048 123.403C116.98 124.653 118.089 125.367 119.377 125.545C120.939 125.764 122.3 125.109 123.459 123.581C124.263 122.522 124.834 121.369 125.175 120.122C125.384 119.35 125.512 118.089 125.559 116.339C125.719 110.442 125.741 106.545 125.625 104.648C125.416 101.202 127.017 99.45 130.43 99.3937C132.386 99.5969 133.756 100.472 134.541 102.019C134.862 102.659 134.973 103.503 134.873 104.55C134.277 110.866 133.733 117.188 133.242 123.516C133.033 125.753 133.347 127.867 134.184 129.858C134.691 131.067 135.352 131.913 136.167 132.394C137.13 132.959 138.264 133.164 139.57 133.008C140.905 132.848 142.058 132.425 143.03 131.738C143.933 131.1 144.659 130.169 145.209 128.944C146.053 127.066 146.361 124.983 146.133 122.695C145.63 117.667 145.152 112.638 144.698 107.606C144.261 104.966 144.358 102.377 144.989 99.8391C145.333 98.4422 145.817 97.4578 146.442 96.8859C147.261 96.1391 148.378 95.7438 149.794 95.7C150.312 95.6844 150.756 95.8578 151.125 96.2203Z" fill="#EB7D6F" stroke="#EB7D6F"/>
<path d="M65.6436 95.7422C65.8154 95.7016 65.9639 95.7422 66.0889 95.8641C68.1201 97.8484 70.5436 99.025 73.3592 99.3938C74.0123 114.088 75.5295 128.691 77.9107 143.203C78.5045 147.228 79.2982 151.213 80.292 155.156C81.7076 161.691 83.4529 168.136 85.5279 174.492C86.7154 178.255 88.1342 181.927 89.7842 185.508C91.6529 189.752 93.7951 193.853 96.2107 197.812C97.067 200.016 98.7076 200.953 101.133 200.625C101.133 200.625 109.85 200.625 127.284 200.625C128.731 200.625 129.576 200.594 129.82 200.531C130.676 200.306 131.378 199.742 131.925 198.839C134.794 194.089 137.108 189.691 138.867 185.644C140.586 182.031 142.037 178.314 143.222 174.492C145.287 168.133 147.033 161.688 148.458 155.156C149.461 151.091 150.281 146.989 150.919 142.852C153.259 128.336 154.75 113.733 155.39 99.0422C157.665 99.5547 159.822 99.2422 161.859 98.1047C162.253 97.8828 162.669 97.7203 163.106 97.6172C162.447 118.13 159.887 138.397 155.428 158.419C153.15 168.653 149.99 178.605 145.95 188.273C143.097 195.105 139.508 201.622 135.183 207.825C135.163 207.853 135.151 207.886 135.147 207.92C135.144 207.954 135.15 207.989 135.164 208.02C135.178 208.051 135.201 208.078 135.229 208.098C135.256 208.118 135.289 208.131 135.323 208.134C137.214 208.35 138.628 209.142 139.565 210.511C140.437 211.783 140.728 213.228 140.437 214.847C140.009 217.228 138.369 218.716 135.515 219.309C135.278 219.356 135.276 219.411 135.511 219.473C136.254 219.667 136.975 219.894 137.672 220.153C138.334 220.4 139.011 220.727 139.701 221.133C144.073 223.714 147.695 227.127 150.567 231.37C151.292 232.439 151.719 233.45 151.847 234.403C152.006 235.591 151.429 236.186 150.117 236.189C126.248 236.23 102.381 236.25 78.5154 236.25C77.2529 236.153 76.7154 235.537 76.9029 234.403C77.0717 233.384 77.6045 232.242 78.5014 230.977C81.0857 227.333 84.2436 224.284 87.9748 221.831C89.5811 220.775 91.3404 219.988 93.2529 219.469C93.4217 219.422 93.4201 219.384 93.2482 219.356C91.4326 219.041 90.0748 218.234 89.1748 216.937C88.3154 215.7 88.0295 214.288 88.317 212.7C88.7607 210.259 90.4826 208.723 93.4826 208.092C93.5124 208.086 93.5402 208.072 93.5636 208.053C93.5869 208.033 93.605 208.008 93.6161 207.98C93.6273 207.952 93.6313 207.922 93.6276 207.893C93.6239 207.863 93.6128 207.835 93.5951 207.811C89.7764 202.445 86.5373 196.778 83.8779 190.809C80.7029 183.687 78.067 176.37 75.9701 168.858C72.6764 157.083 70.2436 145.133 68.6717 133.008C66.9186 119.495 65.9092 107.073 65.6436 95.7422Z" fill="#565656" stroke="#565656"/>
<path d="M109.214 145.078C113.221 146.853 117.255 146.55 121.317 144.169C124.608 142.241 128.024 141.925 131.564 143.222C131.564 143.222 132.636 143.756 134.78 144.825C138.836 146.85 142.924 146.73 147.042 144.464C148.514 143.655 149.806 143.117 150.919 142.852C150.281 146.989 149.461 151.091 148.458 155.156C148.105 155.191 147.633 155.377 147.042 155.714C142.764 158.152 138.435 158.128 134.053 155.644C129.828 153.247 125.658 153.116 121.542 155.25C119.889 156.106 119.06 156.536 119.053 156.539C116.325 157.652 113.561 157.787 110.761 156.947C110.299 156.809 109.183 156.275 107.414 155.344C103.436 153.256 99.4143 153.217 95.3486 155.227C93.4924 156.142 92.5627 156.602 92.5596 156.605C88.6221 158.111 84.7861 157.683 81.0518 155.32C80.8205 155.173 80.5674 155.119 80.2924 155.156C79.2986 151.212 78.5049 147.228 77.9111 143.203C77.8955 143.122 77.8986 143.052 77.9205 142.992C77.9382 142.948 77.9802 142.914 78.0377 142.899C78.0952 142.883 78.164 142.886 78.2299 142.908C79.358 143.28 80.4393 143.759 81.4736 144.347C85.8986 146.862 90.4299 146.803 95.0674 144.169C99.0643 141.9 103.111 141.848 107.208 144.014C108.542 144.72 109.211 145.075 109.214 145.078Z" fill="#CE444C" stroke="#CE444C"/>
<path d="M110.761 156.947C113.561 157.788 116.325 157.652 119.053 156.539C119.059 156.536 119.889 156.106 121.542 155.25C125.658 153.116 129.828 153.247 134.053 155.644C138.434 158.128 142.764 158.152 147.042 155.714C147.633 155.377 148.104 155.191 148.458 155.156C147.033 161.688 145.287 168.133 143.222 174.492C142.806 174.273 142.378 174.194 141.937 174.253C141.284 174.341 140.951 174.384 140.939 174.384C138.551 174.381 136.133 173.684 133.683 172.294C129.648 170.009 125.57 169.975 121.448 172.191C120.242 172.837 119.639 173.163 119.639 173.166C115.648 175.006 111.754 174.814 107.958 172.589C105.27 171.014 102.498 170.402 99.642 170.752C98.6076 170.88 97.4498 171.223 96.1686 171.783C95.0529 172.27 93.9639 172.813 92.9014 173.409C90.6482 174.363 88.3139 174.603 85.8982 174.131C85.6076 174.072 85.4842 174.192 85.5279 174.492C83.4529 168.136 81.7076 161.691 80.292 155.156C80.567 155.119 80.8201 155.173 81.0514 155.32C84.7857 157.683 88.6217 158.111 92.5592 156.605C92.5623 156.602 93.492 156.142 95.3482 155.227C99.4139 153.217 103.436 153.256 107.414 155.344C109.183 156.275 110.298 156.809 110.761 156.947Z" fill="#E16E68" stroke="#E16E68"/>
<path d="M107.958 172.589C111.755 174.814 115.648 175.006 119.639 173.166C119.639 173.163 120.242 172.837 121.448 172.191C125.57 169.975 129.648 170.009 133.683 172.294C136.133 173.684 138.552 174.381 140.939 174.384C140.952 174.384 141.284 174.341 141.937 174.253C142.378 174.194 142.806 174.273 143.222 174.492C142.037 178.314 140.586 182.031 138.867 185.644C136.83 185.056 135.433 184.533 134.677 184.073C130.23 181.364 125.795 181.158 121.373 183.455C119.833 184.255 119.058 184.656 119.048 184.659C115.348 186.225 111.808 186.03 108.427 184.073C104.239 181.648 100.111 181.302 96.0422 183.033C96.0359 183.033 95.3266 183.408 93.9141 184.158C92.6266 184.842 91.25 185.292 89.7844 185.508C88.1344 181.927 86.7156 178.255 85.5281 174.492C85.4844 174.192 85.6078 174.072 85.8984 174.131C88.3141 174.603 90.6484 174.362 92.9016 173.409C93.9641 172.812 95.0531 172.27 96.1687 171.783C97.45 171.223 98.6078 170.88 99.6422 170.752C102.498 170.402 105.27 171.014 107.958 172.589Z" fill="#CE444C" stroke="#CE444C"/>
<path d="M108.426 184.073C111.808 186.03 115.348 186.225 119.048 184.659C119.058 184.656 119.833 184.255 121.373 183.455C125.795 181.158 130.229 181.364 134.676 184.073C135.433 184.533 136.829 185.056 138.867 185.644C137.108 189.691 134.794 194.089 131.925 198.839C131.378 199.742 130.676 200.306 129.82 200.531C129.576 200.594 128.731 200.625 127.284 200.625C109.85 200.625 101.133 200.625 101.133 200.625C98.7076 200.953 97.067 200.016 96.2107 197.812C93.7951 193.853 91.6529 189.752 89.7842 185.508C91.2498 185.292 92.6264 184.842 93.9139 184.158C95.3264 183.408 96.0357 183.033 96.042 183.033C100.111 181.302 104.239 181.648 108.426 184.073Z" fill="#D96062" stroke="#D96062"/>
</svg>
