<?xml version="1.0" encoding="UTF-8" standalone="no"?>
<!DOCTYPE svg PUBLIC "-//W3C//DTD SVG 1.1//EN" "http://www.w3.org/Graphics/SVG/1.1/DTD/svg11.dtd">
<svg xmlns="http://www.w3.org/2000/svg" version="1.1" viewBox="0 0 512 512">
<path fill="rgb(246,135,65)" fill-opacity="1.000" d="M 360.78 8.26 L 383.68 15.81 A 0.43 0.42 -72.4 0 1 383.95 16.34 L 376.96 40.50 Q 376.42 40.56 376.00 40.25 Q 367.77 31.40 359.10 22.97 Q 359.06 22.92 358.35 22.08 Q 357.46 21.00 356.04 21.50 L 359.73 8.83 A 0.84 0.83 -73.1 0 1 360.78 8.26 Z"/>
<path fill="rgb(241,242,242)" fill-opacity="1.000" d="M 244.92 8.31 Q 274.34 21.79 279.29 54.00 Q 264.47 62.67 269.30 79.45 A 0.39 0.38 81.7 0 1 268.94 79.94 Q 260.68 80.05 255.14 84.82 Q 249.67 89.55 248.39 97.13 Q 246.64 107.56 255.50 115.71 L 220.75 115.96 Q 223.91 111.45 228.04 107.79 Q 232.39 103.93 231.78 99.15 Q 231.36 95.90 227.69 91.73 Q 224.08 87.64 220.94 85.56 Q 216.45 82.60 211.06 85.56 Q 209.22 86.58 203.97 91.98 Q 198.53 97.59 197.60 99.07 Q 193.30 105.91 200.69 112.56 Q 202.48 114.18 202.50 115.96 L 173.25 115.96 Q 173.45 114.53 174.94 113.19 Q 176.75 111.55 178.25 109.07 Q 179.84 106.45 179.87 104.14 Q 179.92 100.55 177.31 97.44 Q 175.53 95.31 174.50 94.46 Q 178.35 90.57 183.64 88.16 A 1.00 0.99 83.7 0 0 184.21 87.44 Q 186.28 76.97 193.29 69.25 Q 201.17 73.11 208.25 71.50 Q 218.66 69.13 222.42 59.57 Q 224.20 55.02 223.76 50.25 Q 223.30 45.43 220.96 41.00 Q 226.71 32.33 236.19 27.94 Q 238.39 26.91 240.34 23.14 Q 243.88 16.28 243.99 8.89 A 0.66 0.65 13.0 0 1 244.92 8.31 Z M 259.4752 37.5920 A 3.78 3.78 0 0 0 257.8056 32.5137 L 249.6473 28.3927 A 3.78 3.78 0 0 0 244.5690 30.0624 L 244.4248 30.3480 A 3.78 3.78 0 0 0 246.0944 35.4263 L 254.2527 39.5473 A 3.78 3.78 0 0 0 259.3310 37.8776 L 259.4752 37.5920 Z M 259.3293 50.0809 A 3.74 3.74 0 0 0 254.2962 48.4552 L 246.1597 52.6189 A 3.74 3.74 0 0 0 244.5340 57.6520 L 244.6707 57.9191 A 3.74 3.74 0 0 0 249.7038 59.5448 L 257.8403 55.3811 A 3.74 3.74 0 0 0 259.4660 50.3480 L 259.3293 50.0809 Z M 247.5336 73.6222 A 3.75 3.75 0 0 0 245.8684 68.5872 L 237.6673 64.4624 A 3.75 3.75 0 0 0 232.6322 66.1276 L 232.5064 66.3778 A 3.75 3.75 0 0 0 234.1716 71.4128 L 242.3727 75.5376 A 3.75 3.75 0 0 0 247.4078 73.8724 L 247.5336 73.6222 Z"/>
<path fill="rgb(252,159,75)" fill-opacity="1.000" d="M 359.10 22.97 Q 367.77 31.40 376.00 40.25 Q 376.42 40.56 376.96 40.50 L 372.54 55.75 Q 369.17 53.27 365.44 49.31 Q 362.63 46.34 353.80 37.77 Q 352.89 36.89 352.67 35.95 Q 352.41 34.86 352.50 33.71 L 356.04 21.50 Q 357.46 21.00 358.35 22.08 Q 359.06 22.92 359.10 22.97 Z"/>
<rect fill="rgb(255,183,73)" fill-opacity="1.000" x="-8.35" y="-3.94" width="16.70" height="7.88" rx="3.78" transform="translate(251.95,33.97) rotate(26.8)"/>
<path fill="rgb(210,72,80)" fill-opacity="1.000" d="M 210.58 33.24 Q 216.73 35.45 220.96 41.00 Q 223.30 45.43 223.76 50.25 Q 224.20 55.02 222.42 59.57 Q 218.66 69.13 208.25 71.50 Q 201.17 73.11 193.29 69.25 L 193.26 69.03 A 0.63 0.38 22.4 0 0 193.00 68.68 Q 186.33 64.03 184.75 57.25 Q 182.10 45.91 189.94 37.94 Q 194.15 33.66 199.81 32.45 Q 205.19 31.31 210.58 33.24 Z"/>
<path fill="rgb(246,135,65)" fill-opacity="1.000" d="M 352.50 33.71 Q 352.41 34.86 352.67 35.95 Q 352.89 36.89 353.80 37.77 Q 362.63 46.34 365.44 49.31 Q 369.17 53.27 372.54 55.75 L 367.96 71.50 L 367.73 71.50 A 0.56 0.54 -22.0 0 1 367.34 71.34 Q 358.28 62.06 349.06 52.94 Q 348.45 51.95 347.29 51.75 L 352.50 33.71 Z"/>
<rect fill="rgb(251,123,81)" fill-opacity="1.000" x="-8.31" y="-3.89" width="16.62" height="7.78" rx="3.74" transform="translate(252.00,54.00) rotate(-27.1)"/>
<path fill="rgb(252,159,75)" fill-opacity="1.000" d="M 347.29 51.75 Q 348.45 51.95 349.06 52.94 Q 358.28 62.06 367.34 71.34 A 0.56 0.54 -22.0 0 0 367.73 71.50 L 367.96 71.50 L 363.46 87.00 Q 362.05 87.28 361.97 86.24 A 1.43 0.87 -79.7 0 0 361.65 85.41 Q 352.84 76.81 344.19 68.06 Q 343.50 67.63 342.79 67.25 L 347.29 51.75 Z"/>
<path fill="rgb(210,72,80)" fill-opacity="1.000" d="M 292.50 52.50 Q 304.21 55.77 307.25 66.50 Q 309.82 75.60 303.96 84.50 Q 297.04 91.75 287.00 92.23 A 0.39 0.38 80.0 0 0 286.66 92.73 Q 291.00 106.48 280.25 115.71 Q 267.88 116.44 255.50 115.71 Q 246.64 107.56 248.39 97.13 Q 249.67 89.55 255.14 84.82 Q 260.68 80.05 268.94 79.94 A 0.39 0.38 81.7 0 0 269.30 79.45 Q 264.47 62.67 279.29 54.00 Q 286.30 50.77 292.50 52.50 Z"/>
<rect fill="rgb(161,172,55)" fill-opacity="1.000" x="-8.34" y="-3.89" width="16.68" height="7.78" rx="3.75" transform="translate(240.02,70.00) rotate(26.7)"/>
<path fill="rgb(246,135,65)" fill-opacity="1.000" d="M 342.79 67.25 Q 343.50 67.63 344.19 68.06 Q 352.84 76.81 361.65 85.41 A 1.43 0.87 -79.7 0 1 361.97 86.24 Q 362.05 87.28 363.46 87.00 L 358.96 102.00 Q 358.63 101.77 358.26 101.73 A 1.55 0.77 -4.9 0 1 357.39 101.39 L 338.50 82.21 L 342.79 67.25 Z"/>
<path fill="rgb(252,159,75)" fill-opacity="1.000" d="M 338.50 82.21 L 357.39 101.39 A 1.55 0.77 -4.9 0 0 358.26 101.73 Q 358.63 101.77 358.96 102.00 L 354.71 117.25 Q 354.24 116.41 353.54 116.52 A 1.09 0.66 -19.0 0 1 352.70 116.34 L 333.96 97.75 L 338.50 82.21 Z"/>
<path fill="rgb(243,233,219)" fill-opacity="1.000" d="M 163.94 85.06 Q 168.74 87.67 174.50 94.46 Q 175.53 95.31 177.31 97.44 Q 179.92 100.55 179.87 104.14 Q 179.84 106.45 178.25 109.07 Q 176.75 111.55 174.94 113.19 Q 173.45 114.53 173.25 115.96 Q 165.94 116.07 159.04 118.50 Q 152.46 112.81 146.65 106.35 Q 145.01 104.52 144.38 102.25 Q 143.78 100.12 144.50 97.77 Q 145.70 93.80 149.06 91.06 Q 150.82 89.22 152.68 87.50 Q 155.00 85.35 156.81 84.65 Q 160.51 83.20 163.94 85.06 Z"/>
<path fill="rgb(245,235,222)" fill-opacity="1.000" d="M 220.94 85.56 Q 224.08 87.64 227.69 91.73 Q 231.36 95.90 231.78 99.15 Q 232.39 103.93 228.04 107.79 Q 223.91 111.45 220.75 115.96 L 202.50 115.96 Q 202.48 114.18 200.69 112.56 Q 193.30 105.91 197.60 99.07 Q 198.53 97.59 203.97 91.98 Q 209.22 86.58 211.06 85.56 Q 216.45 82.60 220.94 85.56 Z"/>
<path fill="rgb(241,242,242)" fill-opacity="1.000" d="M 303.96 84.50 L 304.04 87.44 A 0.81 0.77 10.9 0 0 304.53 88.13 Q 322.67 95.62 320.00 115.96 L 280.25 115.71 Q 291.00 106.48 286.66 92.73 A 0.39 0.38 80.0 0 1 287.00 92.23 Q 297.04 91.75 303.96 84.50 Z"/>
<path fill="rgb(246,135,65)" fill-opacity="1.000" d="M 333.96 97.75 L 352.70 116.34 A 1.09 0.66 -19.0 0 0 353.54 116.52 Q 354.24 116.41 354.71 117.25 L 347.79 140.50 Q 347.88 139.93 347.55 139.76 A 1.11 0.35 23.5 0 1 346.92 139.21 Q 342.17 124.29 327.75 118.04 Q 328.43 117.50 328.55 116.69 Q 328.71 115.56 328.75 115.46 Q 331.41 106.62 333.96 97.75 Z"/>
<path fill="rgb(255,183,73)" fill-opacity="1.000" d="M 255.50 115.71 Q 267.88 116.44 280.25 115.71 L 320.00 115.96 L 327.75 118.04 Q 342.17 124.29 346.92 139.21 A 1.11 0.35 23.5 0 0 347.55 139.76 Q 347.88 139.93 347.79 140.50 L 347.71 142.75 Q 346.77 142.97 345.94 142.31 Q 340.57 138.10 334.56 141.81 Q 331.33 143.81 322.50 153.54 Q 316.64 149.28 309.50 148.28 Q 305.18 147.68 301.25 149.29 Q 297.00 144.52 292.22 140.32 Q 288.07 136.68 284.86 136.26 Q 279.83 135.60 275.94 140.19 Q 271.83 143.80 268.75 148.29 Q 262.33 147.32 257.20 151.20 Q 246.97 158.93 235.95 154.15 Q 235.29 153.86 230.50 150.72 Q 222.22 145.29 213.19 151.19 Q 203.20 159.61 193.32 153.07 Q 188.82 150.09 187.70 149.64 Q 178.27 145.82 169.61 150.94 Q 164.26 154.10 163.46 154.41 Q 150.99 159.20 141.00 149.00 Q 140.60 148.59 140.21 149.25 Q 139.46 142.35 142.21 135.98 Q 147.33 124.09 159.04 118.50 Q 165.94 116.07 173.25 115.96 L 202.50 115.96 L 220.75 115.96 L 255.50 115.71 Z M 179.86 132.02 A 3.90 3.90 0 0 0 175.96 128.12 A 3.90 3.90 0 0 0 172.06 132.02 A 3.90 3.90 0 0 0 175.96 135.92 A 3.90 3.90 0 0 0 179.86 132.02 Z M 227.83 132.04 A 3.88 3.88 0 0 0 223.95 128.16 A 3.88 3.88 0 0 0 220.07 132.04 A 3.88 3.88 0 0 0 223.95 135.92 A 3.88 3.88 0 0 0 227.83 132.04 Z M 267.84 132.03 A 3.88 3.88 0 0 0 263.96 128.15 A 3.88 3.88 0 0 0 260.08 132.03 A 3.88 3.88 0 0 0 263.96 135.91 A 3.88 3.88 0 0 0 267.84 132.03 Z M 315.86 132.04 A 3.89 3.89 0 0 0 311.97 128.15 A 3.89 3.89 0 0 0 308.08 132.04 A 3.89 3.89 0 0 0 311.97 135.93 A 3.89 3.89 0 0 0 315.86 132.04 Z M 159.84 140.00 A 3.89 3.89 0 0 0 155.95 136.11 A 3.89 3.89 0 0 0 152.06 140.00 A 3.89 3.89 0 0 0 155.95 143.89 A 3.89 3.89 0 0 0 159.84 140.00 Z M 203.84 140.01 A 3.88 3.88 0 0 0 199.96 136.13 A 3.88 3.88 0 0 0 196.08 140.01 A 3.88 3.88 0 0 0 199.96 143.89 A 3.88 3.88 0 0 0 203.84 140.01 Z M 247.84 140.01 A 3.87 3.87 0 0 0 243.97 136.14 A 3.87 3.87 0 0 0 240.10 140.01 A 3.87 3.87 0 0 0 243.97 143.88 A 3.87 3.87 0 0 0 247.84 140.01 Z"/>
<circle fill="rgb(244,126,62)" fill-opacity="1.000" cx="175.96" cy="132.02" r="3.90"/>
<circle fill="rgb(244,126,62)" fill-opacity="1.000" cx="223.95" cy="132.04" r="3.88"/>
<circle fill="rgb(244,126,62)" fill-opacity="1.000" cx="263.96" cy="132.03" r="3.88"/>
<circle fill="rgb(244,126,62)" fill-opacity="1.000" cx="311.97" cy="132.04" r="3.89"/>
<circle fill="rgb(244,126,62)" fill-opacity="1.000" cx="155.95" cy="140.00" r="3.89"/>
<path fill="rgb(243,233,219)" fill-opacity="1.000" d="M 292.22 140.32 Q 297.00 144.52 301.25 149.29 Q 306.05 155.04 302.50 160.75 Q 298.84 166.65 290.75 171.71 Q 287.61 172.25 284.50 171.54 Q 276.87 165.43 270.46 158.04 Q 266.73 153.74 268.75 148.29 Q 271.83 143.80 275.94 140.19 Q 279.83 135.60 284.86 136.26 Q 288.07 136.68 292.22 140.32 Z"/>
<circle fill="rgb(244,126,62)" fill-opacity="1.000" cx="199.96" cy="140.01" r="3.88"/>
<circle fill="rgb(244,126,62)" fill-opacity="1.000" cx="243.97" cy="140.01" r="3.87"/>
<path fill="rgb(245,235,222)" fill-opacity="1.000" d="M 345.94 142.31 Q 346.77 142.97 347.71 142.75 Q 348.72 145.22 351.44 147.56 Q 359.94 154.89 352.44 163.44 Q 347.86 167.77 343.71 172.50 Q 338.26 171.71 332.75 172.04 Q 329.97 172.21 327.25 171.71 Q 325.47 168.94 322.94 166.81 Q 317.37 160.35 322.50 153.54 Q 331.33 143.81 334.56 141.81 Q 340.57 138.10 345.94 142.31 Z"/>
<path fill="rgb(214,163,121)" fill-opacity="1.000" d="M 193.32 153.07 Q 203.20 159.61 213.19 151.19 Q 222.22 145.29 230.50 150.72 Q 235.29 153.86 235.95 154.15 Q 246.97 158.93 257.20 151.20 Q 262.33 147.32 268.75 148.29 Q 266.73 153.74 270.46 158.04 Q 276.87 165.43 284.50 171.54 L 282.00 172.04 Q 155.21 171.90 153.50 172.00 Q 151.73 172.11 150.54 171.75 Q 140.85 162.64 140.21 149.25 Q 140.60 148.59 141.00 149.00 Q 150.99 159.20 163.46 154.41 Q 164.26 154.10 169.61 150.94 Q 178.27 145.82 187.70 149.64 Q 188.82 150.09 193.32 153.07 Z"/>
<path fill="rgb(214,163,121)" fill-opacity="1.000" d="M 309.50 148.28 Q 316.64 149.28 322.50 153.54 Q 317.37 160.35 322.94 166.81 Q 325.47 168.94 327.25 171.71 Q 309.00 172.44 290.75 171.71 Q 298.84 166.65 302.50 160.75 Q 306.05 155.04 301.25 149.29 Q 305.18 147.68 309.50 148.28 Z"/>
<path fill="rgb(142,94,71)" fill-opacity="1.000" d="M 284.50 171.54 Q 287.61 172.25 290.75 171.71 Q 309.00 172.44 327.25 171.71 Q 329.97 172.21 332.75 172.04 Q 338.26 171.71 343.71 172.50 Q 348.89 175.36 348.00 181.50 Q 348.03 194.87 347.96 208.25 Q 346.56 208.58 345.30 209.29 Q 338.78 212.93 331.50 211.29 Q 326.25 209.08 322.40 205.27 Q 321.22 204.11 319.56 204.16 Q 315.03 204.30 312.41 206.69 Q 310.41 208.52 309.31 212.99 Q 307.29 221.11 308.69 229.56 Q 310.14 245.66 311.75 261.75 Q 312.48 269.07 309.78 275.08 Q 308.02 279.00 305.13 281.04 Q 302.02 283.24 297.75 283.75 Q 293.57 284.25 290.49 282.44 Q 287.88 280.90 286.26 277.03 Q 283.58 270.66 284.25 263.50 Q 285.82 243.25 287.73 223.04 Q 288.05 219.69 287.02 217.64 Q 284.51 212.69 278.25 212.04 Q 280.30 212.30 280.11 210.59 Q 279.99 209.48 279.99 209.39 Q 279.82 191.32 280.24 173.51 A 0.73 0.72 4.0 0 1 281.05 172.81 Q 282.69 173.01 282.00 172.04 L 284.50 171.54 Z M 303.5270 197.6178 A 3.75 3.75 0 0 0 301.8618 192.5827 L 293.6428 188.4490 A 3.75 3.75 0 0 0 288.6078 190.1142 L 288.4730 190.3822 A 3.75 3.75 0 0 0 290.1382 195.4173 L 298.3572 199.5510 A 3.75 3.75 0 0 0 303.3922 197.8858 L 303.5270 197.6178 Z"/>
<path fill="rgb(137,87,64)" fill-opacity="1.000" d="M 150.54 171.75 Q 151.73 172.11 153.50 172.00 Q 155.21 171.90 282.00 172.04 Q 282.69 173.01 281.05 172.81 A 0.73 0.72 4.0 0 0 280.24 173.51 Q 279.82 191.32 279.99 209.39 Q 279.99 209.48 280.11 210.59 Q 280.30 212.30 278.25 212.04 Q 267.33 212.22 268.00 223.25 Q 268.37 229.32 267.86 248.19 Q 267.71 253.79 267.04 256.26 Q 265.95 260.25 263.38 263.64 Q 259.67 268.53 254.67 267.83 Q 250.55 267.26 247.57 263.26 Q 244.40 259.00 244.02 253.26 Q 243.76 249.25 244.75 244.75 Q 246.50 236.82 247.70 227.25 Q 248.06 224.36 247.59 222.26 Q 247.04 219.76 245.90 217.49 Q 243.94 213.59 240.83 212.26 Q 236.72 210.49 232.11 213.31 Q 230.64 214.21 227.44 216.44 Q 221.14 220.82 213.06 219.69 Q 204.78 218.53 197.21 212.98 Q 192.01 209.17 190.88 208.54 Q 187.18 206.50 183.69 205.56 Q 174.73 203.16 166.94 208.69 Q 163.10 211.41 156.50 212.04 Q 147.49 210.86 140.99 204.51 Q 140.59 204.12 140.04 204.25 Q 139.90 178.68 140.00 178.25 Q 141.66 171.22 149.00 172.00 Q 149.97 172.10 150.54 171.75 Z M 179.3811 186.0937 A 3.75 3.75 0 0 0 174.3490 184.4197 L 166.1406 188.5301 A 3.75 3.75 0 0 0 164.4666 193.5623 L 164.6189 193.8663 A 3.75 3.75 0 0 0 169.6510 195.5403 L 177.8594 191.4299 A 3.75 3.75 0 0 0 179.5334 186.3977 L 179.3811 186.0937 Z M 267.3756 186.1026 A 3.76 3.76 0 0 0 262.3300 184.4242 L 254.1396 188.5257 A 3.76 3.76 0 0 0 252.4611 193.5712 L 252.6044 193.8574 A 3.76 3.76 0 0 0 257.6500 195.5358 L 265.8405 191.4343 A 3.76 3.76 0 0 0 267.5189 186.3887 L 267.3756 186.1026 Z M 223.5541 197.5726 A 3.74 3.74 0 0 0 221.8758 192.5567 L 213.6245 188.4428 A 3.74 3.74 0 0 0 208.6087 190.1211 L 208.4659 190.4074 A 3.74 3.74 0 0 0 210.1442 195.4233 L 218.3955 199.5372 A 3.74 3.74 0 0 0 223.4113 197.8589 L 223.5541 197.5726 Z"/>
<rect fill="rgb(161,172,55)" fill-opacity="1.000" x="-8.34" y="-3.92" width="16.68" height="7.84" rx="3.75" transform="translate(172.00,189.98) rotate(-26.6)"/>
<rect fill="rgb(161,172,55)" fill-opacity="1.000" x="-8.34" y="-3.92" width="16.68" height="7.84" rx="3.76" transform="translate(259.99,189.98) rotate(-26.6)"/>
<rect fill="rgb(244,126,62)" fill-opacity="1.000" x="-8.35" y="-3.90" width="16.70" height="7.80" rx="3.74" transform="translate(216.01,193.99) rotate(26.5)"/>
<rect fill="rgb(244,126,62)" fill-opacity="1.000" x="-8.35" y="-3.90" width="16.70" height="7.80" rx="3.75" transform="translate(296.00,194.00) rotate(26.7)"/>
<path fill="rgb(235,125,111)" fill-opacity="1.000" d="M 322.40 205.27 Q 326.25 209.08 331.50 211.29 Q 329.45 258.30 321.96 304.75 Q 318.40 305.60 313.69 308.19 Q 300.51 315.44 287.53 308.96 Q 280.67 305.54 280.67 305.54 Q 269.34 301.39 258.81 307.56 Q 245.81 315.18 232.99 309.50 Q 232.98 309.49 228.71 307.23 Q 215.60 300.30 202.81 307.56 Q 187.97 315.99 173.81 307.94 Q 170.50 306.06 166.89 304.87 A 0.58 0.40 19.3 0 0 166.23 305.05 Q 166.16 305.24 166.21 305.50 Q 158.59 259.06 156.50 212.04 Q 163.10 211.41 166.94 208.69 Q 174.73 203.16 183.69 205.56 Q 187.18 206.50 190.88 208.54 Q 192.01 209.17 197.21 212.98 Q 204.78 218.53 213.06 219.69 Q 221.14 220.82 227.44 216.44 Q 230.64 214.21 232.11 213.31 Q 236.72 210.49 240.83 212.26 Q 243.94 213.59 245.90 217.49 Q 247.04 219.76 247.59 222.26 Q 248.06 224.36 247.70 227.25 Q 246.50 236.82 244.75 244.75 Q 243.76 249.25 244.02 253.26 Q 244.40 259.00 247.57 263.26 Q 250.55 267.26 254.67 267.83 Q 259.67 268.53 263.38 263.64 Q 265.95 260.25 267.04 256.26 Q 267.71 253.79 267.86 248.19 Q 268.37 229.32 268.00 223.25 Q 267.33 212.22 278.25 212.04 Q 284.51 212.69 287.02 217.64 Q 288.05 219.69 287.73 223.04 Q 285.82 243.25 284.25 263.50 Q 283.58 270.66 286.26 277.03 Q 287.88 280.90 290.49 282.44 Q 293.57 284.25 297.75 283.75 Q 302.02 283.24 305.13 281.04 Q 308.02 279.00 309.78 275.08 Q 312.48 269.07 311.75 261.75 Q 310.14 245.66 308.69 229.56 Q 307.29 221.11 309.31 212.99 Q 310.41 208.52 312.41 206.69 Q 315.03 204.30 319.56 204.16 Q 321.22 204.11 322.40 205.27 Z"/>
<path fill="rgb(234,235,235)" fill-opacity="1.000" d="M 140.04 204.25 Q 140.59 204.12 140.99 204.51 Q 147.49 210.86 156.50 212.04 Q 158.59 259.06 166.21 305.50 Q 168.11 318.38 171.29 331.00 Q 175.82 351.91 182.46 372.25 Q 186.26 384.29 191.54 395.75 Q 197.52 409.33 205.25 422.00 Q 207.99 429.05 215.75 428.00 Q 215.75 428.00 271.54 428.00 Q 276.17 428.00 276.95 427.80 Q 279.69 427.08 281.44 424.19 Q 290.62 408.99 296.25 396.04 Q 301.75 384.48 305.54 372.25 Q 312.15 351.90 316.71 331.00 Q 319.92 317.99 321.96 304.75 Q 329.45 258.30 331.50 211.29 Q 338.78 212.93 345.30 209.29 Q 346.56 208.58 347.96 208.25 Q 345.85 273.89 331.58 337.96 Q 324.29 370.71 311.36 401.65 Q 302.23 423.51 288.39 443.36 A 0.42 0.42 20.6 0 0 288.69 444.02 Q 294.74 444.71 297.74 449.09 Q 300.53 453.16 299.60 458.34 Q 298.23 465.96 289.10 467.86 Q 288.34 468.01 289.09 468.21 Q 291.47 468.83 293.70 469.66 Q 295.82 470.45 298.03 471.75 Q 312.02 480.01 321.21 493.59 Q 323.53 497.01 323.94 500.06 Q 324.45 503.86 320.25 503.87 Q 243.87 504.00 167.50 504.00 Q 163.46 503.69 164.06 500.06 Q 164.60 496.80 167.47 492.75 Q 175.74 481.09 187.68 473.24 Q 192.82 469.86 198.94 468.20 Q 199.48 468.05 198.93 467.96 Q 193.12 466.95 190.24 462.80 Q 187.49 458.84 188.41 453.76 Q 189.83 445.95 199.43 443.93 A 0.39 0.38 -23.4 0 0 199.67 443.33 Q 187.45 426.16 178.94 407.06 Q 168.78 384.27 162.07 360.23 Q 151.53 322.55 146.50 283.75 Q 140.89 240.51 140.04 204.25 Z"/>
<path fill="rgb(206,68,76)" fill-opacity="1.000" d="M 232.99 309.50 Q 245.81 315.18 258.81 307.56 Q 269.34 301.39 280.67 305.54 Q 280.67 305.54 287.53 308.96 Q 300.51 315.44 313.69 308.19 Q 318.40 305.60 321.96 304.75 Q 319.92 317.99 316.71 331.00 Q 315.58 331.11 313.69 332.19 Q 300.00 339.99 285.98 332.04 Q 272.46 324.37 259.29 331.20 Q 254.00 333.94 253.98 333.95 Q 245.25 337.51 236.29 334.82 Q 234.81 334.38 229.15 331.40 Q 216.42 324.72 203.41 331.15 Q 197.47 334.08 197.46 334.09 Q 184.86 338.91 172.91 331.35 Q 172.17 330.88 171.29 331.00 Q 168.11 318.38 166.21 305.50 Q 166.16 305.24 166.23 305.05 A 0.58 0.40 19.3 0 1 166.89 304.87 Q 170.50 306.06 173.81 307.94 Q 187.97 315.99 202.81 307.56 Q 215.60 300.30 228.71 307.23 Q 232.98 309.49 232.99 309.50 Z"/>
<path fill="rgb(225,110,104)" fill-opacity="1.000" d="M 236.29 334.82 Q 245.25 337.51 253.98 333.95 Q 254.00 333.94 259.29 331.20 Q 272.46 324.37 285.98 332.04 Q 300.00 339.99 313.69 332.19 Q 315.58 331.11 316.71 331.00 Q 312.15 351.90 305.54 372.25 Q 304.21 371.55 302.80 371.74 Q 300.71 372.02 300.67 372.02 Q 293.03 372.01 285.19 367.56 Q 272.28 360.25 259.09 367.34 Q 255.23 369.41 255.23 369.42 Q 242.46 375.31 230.31 368.19 Q 221.71 363.15 212.57 364.27 Q 209.26 364.68 205.16 366.47 Q 201.59 368.03 198.19 369.94 Q 190.98 372.99 183.25 371.48 Q 182.32 371.29 182.46 372.25 Q 175.82 351.91 171.29 331.00 Q 172.17 330.88 172.91 331.35 Q 184.86 338.91 197.46 334.09 Q 197.47 334.08 203.41 331.15 Q 216.42 324.72 229.15 331.40 Q 234.81 334.38 236.29 334.82 Z"/>
<path fill="rgb(206,68,76)" fill-opacity="1.000" d="M 230.31 368.19 Q 242.46 375.31 255.23 369.42 Q 255.23 369.41 259.09 367.34 Q 272.28 360.25 285.19 367.56 Q 293.03 372.01 300.67 372.02 Q 300.71 372.02 302.80 371.74 Q 304.21 371.55 305.54 372.25 Q 301.75 384.48 296.25 396.04 Q 289.73 394.16 287.31 392.69 Q 273.08 384.02 258.93 391.37 Q 254.00 393.93 253.97 393.94 Q 242.13 398.95 231.31 392.69 Q 217.91 384.93 204.89 390.47 Q 204.87 390.47 200.35 392.87 Q 196.23 395.06 191.54 395.75 Q 186.26 384.29 182.46 372.25 Q 182.32 371.29 183.25 371.48 Q 190.98 372.99 198.19 369.94 Q 201.59 368.03 205.16 366.47 Q 209.26 364.68 212.57 364.27 Q 221.71 363.15 230.31 368.19 Z"/>
<path fill="rgb(217,96,98)" fill-opacity="1.000" d="M 231.31 392.69 Q 242.13 398.95 253.97 393.94 Q 254.00 393.93 258.93 391.37 Q 273.08 384.02 287.31 392.69 Q 289.73 394.16 296.25 396.04 Q 290.62 408.99 281.44 424.19 Q 279.69 427.08 276.95 427.80 Q 276.17 428.00 271.54 428.00 Q 215.75 428.00 215.75 428.00 Q 207.99 429.05 205.25 422.00 Q 197.52 409.33 191.54 395.75 Q 196.23 395.06 200.35 392.87 Q 204.87 390.47 204.89 390.47 Q 217.91 384.93 231.31 392.69 Z"/>
</svg>