<svg width="240" height="240" viewBox="0 0 240 240" fill="none" xmlns="http://www.w3.org/2000/svg">
<path d="M121.406 9.19219C121.947 14.4859 121.595 19.7359 120.352 24.9422C120.261 25.0922 119.919 25.3813 119.325 25.8094C115.169 28.8156 112.809 33.025 112.247 38.4375C112.028 38.3969 111.634 38.2109 111.066 37.8797C107.9 36.0422 104.584 35.2938 101.119 35.6344C97.95 35.9469 95.0718 37.0563 92.4843 38.9625C89.3187 41.2938 87.1624 44.5234 86.0156 48.6516C83.3999 48.1328 81.2812 47.5109 79.6593 46.7859C79.1062 46.5391 78.6468 46.5234 78.2812 46.7391C78.4531 46.6172 78.5218 46.4844 78.4874 46.3406C78.4624 46.2438 78.3734 46.1625 78.2203 46.0969C75.7515 45.075 73.4765 43.725 71.3953 42.0469C71.214 41.9 71.0093 41.8234 70.7812 41.8172C70.7874 41.7703 70.7843 41.7266 70.7718 41.6859C70.7624 41.6547 70.739 41.6234 70.7015 41.5922C66.5515 38.2578 63.2281 34.6578 60.7312 30.7922C59.1781 28.3828 59.3249 26.4078 61.1718 24.8672C61.8093 24.3328 62.6906 23.9828 63.8156 23.8172C74.9343 22.1766 85.0687 24.5953 94.2187 31.0734L95.6625 32.3297C95.8218 32.4703 95.9125 32.4391 95.9343 32.2359L96.0937 30.6844C96.1749 30.6031 96.2624 30.3453 96.3562 29.9109C97.9624 22.6109 101.398 16.3219 106.664 11.0438C109.727 7.97501 112.267 5.86563 114.286 4.71563C116.82 3.27501 118.766 3.42969 120.122 5.17969C120.794 6.04219 121.222 7.37969 121.406 9.19219Z" fill="#85BF3F" stroke="#85BF3F"/>
<path d="M142.139 4.74375C144.62 5.45625 145.708 7.38125 145.402 10.5188C144.461 16.8469 143.578 23.1844 142.753 29.5313L139.823 50.7422L138.417 59.6484C138.102 62.8297 137.627 65.9875 136.992 69.1219C133.977 69.6438 130.98 69.5563 128.002 68.8594C127.767 68.8063 127.639 68.6719 127.617 68.4563L128.925 59.2969L130.078 50.7234L132.637 33.1641L133.594 26.2688L133.927 23.4375C134.761 18.25 135.548 13.0547 136.289 7.85157C136.767 6.50782 137.57 5.55157 138.698 4.98282C139.733 4.46094 140.88 4.38125 142.139 4.74375Z" fill="#A8E2F4" stroke="#A8E2F4"/>
<path d="M133.927 23.4375L133.594 26.2687C133.266 26.2562 133.08 26.2406 133.036 26.2219C131.049 25.3687 129.1 25.2609 127.191 25.8984C126.044 26.2828 125.278 26.9125 124.894 27.7875C124.353 29.0125 124.802 30.1312 126.239 31.1437C128.071 32.4312 130.203 33.1047 132.638 33.1641L130.078 50.7234C126.506 51.0484 122.952 50.9437 119.414 50.4094C118.58 45.4719 116.191 41.4812 112.247 38.4375C112.81 33.025 115.169 28.8156 119.325 25.8094C119.919 25.3812 120.261 25.0922 120.352 24.9422C120.652 24.9266 121.081 24.7766 121.641 24.4922C125.491 22.5297 129.586 22.1781 133.927 23.4375Z" fill="#5F1367" stroke="#5F1367"/>
<path d="M133.036 26.2219C133.079 26.2407 133.265 26.2563 133.594 26.2688L132.637 33.1641C130.203 33.1047 128.07 32.4313 126.239 31.1438C124.801 30.1313 124.353 29.0125 124.894 27.7875C125.278 26.9125 126.044 26.2828 127.19 25.8985C129.1 25.261 131.048 25.3688 133.036 26.2219Z" fill="#250037" stroke="#250037"/>
<path d="M142.753 29.5312C143.278 30.5625 143.936 31.4937 144.726 32.325C144.654 32.3187 144.6 32.3281 144.562 32.3531C144.537 32.3675 144.521 32.399 144.517 32.4415C144.514 32.484 144.523 32.5344 144.544 32.5828C145.772 35.4953 146.256 38.5406 145.997 41.7188C145.553 44.3531 144.769 46.5703 143.644 48.3703C142.84 49.6547 141.567 50.4453 139.823 50.7422L142.753 29.5312Z" fill="#5F1367" stroke="#5F1367"/>
<path d="M96.0938 30.6844L95.9344 32.2359C95.9125 32.4391 95.8219 32.4703 95.6625 32.3297L94.2188 31.0735L96.0938 30.6844Z" fill="#D0EFF9" stroke="#D0EFF9"/>
<path d="M144.726 32.325C149.048 33.5562 153.186 35.2391 157.139 37.3734C160.348 39.1016 163.276 41.2187 165.923 43.725C168.086 45.7687 169.839 48.1172 171.183 50.7703C172.573 53.5172 173.084 56.75 172.715 60.4687C171.328 65.625 168.593 69.9219 164.512 73.3594C159.684 77.1875 154.525 80.0687 149.034 82.0031C138.593 85.6781 127.665 87.4391 116.25 87.2859C115.29 82.8016 116.923 80.0422 121.148 79.0078C121.373 78.9547 121.373 78.9203 121.148 78.9047L120.234 78.8484C123.672 78.7703 127.461 78.425 131.601 77.8125C138.695 76.7656 145.336 74.7734 151.523 71.8359C155.373 70.0078 158.586 67.7125 161.161 64.95C164.383 61.5 165.236 58.0219 163.72 54.5156C162.758 52.2875 160.704 49.9797 157.561 47.5922C154.104 44.9641 150.25 43.0062 145.997 41.7187C146.256 38.5406 145.772 35.4953 144.543 32.5828C144.523 32.5344 144.514 32.484 144.517 32.4415C144.521 32.399 144.537 32.3675 144.562 32.3531C144.6 32.3281 144.654 32.3187 144.726 32.325Z" fill="#D0EFF9" stroke="#D0EFF9"/>
<path d="M111.066 37.8797C111.634 38.2109 112.028 38.3968 112.247 38.4375C116.191 41.4812 118.58 45.4718 119.414 50.4093C119.645 53.4312 119.224 56.3515 118.149 59.1703C117.78 60.1453 117.147 60.7734 116.25 61.0547C111.969 62.4047 107.506 62.6484 102.863 61.7859C99.2345 61.114 95.9798 61.425 93.0985 62.7187C92.0204 63.2031 91.3579 63.4609 91.111 63.4922C90.2423 63.6047 89.5298 63.2906 88.9735 62.55C86.0079 58.575 85.022 53.9422 86.0157 48.6515C87.1626 44.5234 89.3189 41.2937 92.4845 38.9625C95.072 37.0562 97.9501 35.9468 101.119 35.6343C104.584 35.2937 107.9 36.0422 111.066 37.8797ZM103.591 40.1753C103.227 39.2874 102.287 38.6779 100.979 38.481C99.6704 38.284 98.1005 38.5158 96.6144 39.1253C95.8786 39.4271 95.1855 39.8125 94.5747 40.2596C93.9639 40.7067 93.4473 41.2066 93.0545 41.7309C92.6617 42.2552 92.4003 42.7936 92.2853 43.3153C92.1704 43.837 92.204 44.3318 92.3843 44.7715C92.7485 45.6595 93.6881 46.2689 94.9965 46.4659C96.3048 46.6628 97.8747 46.431 99.3608 45.8215C100.097 45.5197 100.79 45.1343 101.401 44.6872C102.011 44.2401 102.528 43.7402 102.921 43.2159C103.314 42.6916 103.575 42.1532 103.69 41.6315C103.805 41.1098 103.771 40.615 103.591 40.1753Z" fill="#F03974" stroke="#F03974"/>
<path d="M99.3604 45.8215C102.455 44.5523 104.349 42.0244 103.591 40.1753C102.832 38.3262 99.7087 37.8561 96.614 39.1253C93.5194 40.3945 91.6255 42.9224 92.3839 44.7715C93.1423 46.6206 96.2657 47.0907 99.3604 45.8215Z" fill="#C0003B" stroke="#C0003B"/>
<path d="M145.997 41.7188C150.25 43.0063 154.104 44.9641 157.561 47.5922C160.704 49.9797 162.758 52.2875 163.72 54.5156C165.236 58.0219 164.383 61.5 161.161 64.95C158.586 67.7125 155.373 70.0078 151.523 71.8359C145.336 74.7734 138.695 76.7656 131.601 77.8125C127.461 78.425 123.672 78.7703 120.234 78.8484C118.009 78.8391 115.783 78.8062 113.554 78.75C112.129 78.8781 111.164 79.4734 110.658 80.5359C110.401 81.0766 110.273 82.0906 110.273 83.5781C110.273 84.6 110.273 85.6656 110.273 86.775C110.273 86.8848 110.316 86.9902 110.392 87.0684C110.469 87.1465 110.572 87.1909 110.681 87.1922L116.25 87.2859C127.665 87.4391 138.594 85.6781 149.034 82.0031C154.525 80.0688 159.684 77.1875 164.512 73.3594C164.472 73.4937 164.426 73.6266 164.376 73.7578C164.323 73.8922 164.298 74.0234 164.301 74.1516C164.364 78.2234 164.401 82.2953 164.414 86.3672C164.586 87.8578 164.944 89.3031 165.487 90.7031C159.072 95.825 151.961 99.4891 144.154 101.695C141.258 102.517 138.211 103.209 135.014 103.772C132.089 104.288 128.803 104.697 125.156 105C120.319 105.403 115.476 105.481 110.629 105.234C110.599 105.232 110.568 105.237 110.539 105.248C110.51 105.258 110.484 105.275 110.461 105.296C110.439 105.318 110.421 105.344 110.409 105.373C110.397 105.402 110.39 105.433 110.39 105.464C110.39 108.161 110.423 110.778 110.489 113.316C110.529 114.866 110.419 115.961 110.156 116.602C109.65 117.836 108.845 118.647 107.742 119.034C106.717 119.394 105.687 119.319 104.653 118.809C103.128 118.059 102.375 116.659 102.394 114.609C102.422 111.209 102.425 107.811 102.403 104.414L102.422 86.2313C102.575 84.525 102.606 82.8172 102.515 81.1078C102.456 80.0047 102.258 79.1672 101.92 78.5953C101.373 77.6672 100.57 77.1891 99.5107 77.1609C98.3951 77.1297 97.4982 77.5219 96.8201 78.3375C96.1264 79.1781 95.8842 80.2531 96.0936 81.5625C95.9748 82.825 96.0529 84.0688 96.3279 85.2938C96.1123 85.6531 96.0342 86.1281 96.0936 86.7188C96.1467 87.2594 96.1467 92.3375 96.0936 101.953C96.0904 102.569 96.1686 102.992 96.3279 103.223C96.1186 103.548 96.0404 103.984 96.0936 104.531C96.2342 105.975 95.8748 107.155 95.0154 108.07C94.2029 108.933 93.1717 109.348 91.9217 109.317C90.6311 109.286 89.6357 108.736 88.9357 107.667C88.4732 106.97 88.2139 105.983 88.1576 104.705C88.117 103.761 88.1139 102.722 88.1482 101.588C88.1522 101.425 88.1038 101.266 88.01 101.133C87.9163 101.001 87.7823 100.902 87.6279 100.852C80.8061 98.6547 74.6154 95.2219 69.0561 90.5531C68.9217 90.4406 68.8654 90.2953 68.8873 90.1172C69.7592 87.7109 70.1951 86.0312 70.1951 85.0781C70.1951 81.5625 70.1951 77.8609 70.1951 73.9734C70.1951 73.7691 70.0991 73.5535 69.9279 73.3734L68.6904 72.0703C72.7342 75.7359 77.292 78.5875 82.3639 80.625C84.1264 81.55 85.9639 82.3 87.8764 82.875C87.9032 82.8826 87.9313 82.884 87.9589 82.8794C87.9864 82.8747 88.0127 82.864 88.0359 82.8479C88.0591 82.8319 88.0786 82.8109 88.0932 82.7864C88.1077 82.762 88.1169 82.7346 88.1201 82.7063C88.342 80.4281 88.3373 78.1531 88.1061 75.8813C88.0342 75.1594 87.8561 74.6109 87.5717 74.2359C87.2154 73.7672 86.7357 73.3969 86.1326 73.125C84.0764 72.2 81.7717 71.0344 79.2186 69.6281C78.0029 68.9 76.5092 67.7703 74.7373 66.2391C72.7654 64.5391 71.3873 62.5703 70.6029 60.3328C70.1342 58.9984 70.042 57.6641 70.3264 56.3297C70.6201 54.9297 71.1717 53.6625 71.9811 52.5281C73.5936 50.2687 75.6936 48.3391 78.2811 46.7391C78.6467 46.5234 79.1061 46.5391 79.6592 46.7859C81.2811 47.5109 83.3998 48.1328 86.0154 48.6516C85.0217 53.9422 86.0076 58.575 88.9732 62.55C89.5295 63.2906 90.242 63.6047 91.1107 63.4922C91.3576 63.4609 92.0201 63.2031 93.0982 62.7188C95.9795 61.425 99.2342 61.1141 102.862 61.7859C107.506 62.6484 111.969 62.4047 116.25 61.0547C117.147 60.7734 117.779 60.1453 118.148 59.1703C119.223 56.3516 119.645 53.4313 119.414 50.4094C122.951 50.9438 126.506 51.0484 130.078 50.7234L128.925 59.2969C126.459 59.55 124.569 60.4 123.253 61.8469C121.809 63.4313 121.858 64.9641 123.398 66.4453C124.364 67.3734 125.487 68.0469 126.769 68.4656C127.09 68.7156 127.373 68.7125 127.617 68.4562C127.639 68.6719 127.767 68.8062 128.001 68.8594C130.979 69.5562 133.976 69.6438 136.992 69.1219C139.451 68.8344 141.506 67.8437 143.156 66.15C143.644 65.65 143.936 65.1422 144.033 64.6266C144.158 63.9547 144.047 63.3406 143.7 62.7844C142.544 60.925 140.783 59.8797 138.417 59.6484L139.823 50.7422C141.567 50.4453 142.84 49.6547 143.644 48.3703C144.769 46.5703 145.553 44.3531 145.997 41.7188Z" fill="#FF8CBB" stroke="#FF8CBB"/>
<path d="M70.7811 41.8172C71.0093 41.8234 71.2139 41.9 71.3952 42.0469C73.4764 43.725 75.7514 45.075 78.2202 46.0969C78.3733 46.1625 78.4624 46.2438 78.4874 46.3406C78.5218 46.4844 78.453 46.6172 78.2811 46.7391C75.6936 48.3391 73.5936 50.2688 71.9811 52.5281C71.1717 53.6625 70.6202 54.9297 70.3264 56.3297C70.0421 57.6641 70.1342 58.9985 70.603 60.3328C71.3874 62.5703 72.7655 64.5391 74.7374 66.2391C76.5093 67.7703 78.003 68.9 79.2186 69.6281C79.2092 69.9156 79.2999 70.1703 79.4905 70.3922C82.0186 73.3234 82.9764 76.7344 82.3639 80.625C77.2921 78.5875 72.7342 75.736 68.6905 72.0703C65.403 68.9422 63.1374 65.1922 61.8936 60.8203C61.4061 56.8391 62.0733 53.1766 63.8952 49.8328C65.5514 46.7953 67.8468 44.1234 70.7811 41.8172Z" fill="#D0EFF9" stroke="#D0EFF9"/>
<path d="M128.925 59.2969L127.617 68.4562C127.373 68.7125 127.09 68.7156 126.768 68.4656C125.487 68.0469 124.364 67.3734 123.398 66.4453C121.857 64.9641 121.809 63.4313 123.253 61.8469C124.568 60.4 126.459 59.55 128.925 59.2969Z" fill="#F03974" stroke="#F03974"/>
<path d="M143.7 62.7844C144.047 63.3406 144.158 63.9547 144.033 64.6266C143.936 65.1422 143.644 65.65 143.156 66.15C141.506 67.8437 139.452 68.8344 136.992 69.1219C137.627 65.9875 138.102 62.8297 138.417 59.6484C140.783 59.8797 142.544 60.925 143.7 62.7844Z" fill="#F03974" stroke="#F03974"/>
<path d="M172.716 60.4688C172.863 69.0437 172.869 75.2547 172.735 79.1016C172.566 83.9391 174.1 87.9516 177.338 91.1391C181.382 95.1266 183.763 99.9234 184.482 105.53C184.485 105.533 184.524 106.041 184.599 107.053C184.846 110.359 186.75 111.98 190.313 111.914C191.222 112.005 192.135 112.052 193.05 112.055C194.288 112.061 195.197 112.106 195.779 112.191C202.954 113.212 208.169 117.027 211.425 123.633L211.411 123.736C211.406 123.765 211.39 123.791 211.365 123.811C211.341 123.832 211.309 123.845 211.275 123.848C208.46 124.205 205.691 124.797 202.969 125.625C202.616 125.634 202.349 125.791 202.168 126.094C200.002 123.094 197.099 121.533 193.458 121.411C192.415 121.377 191.88 121.358 191.855 121.355C190.377 121.273 189.355 121.291 188.79 121.406C186.018 121.969 184.611 123.688 184.571 126.562C184.58 128.281 184.574 130 184.552 131.719C181.68 132.712 178.88 133.884 176.152 135.234C176.13 125.937 176.124 116.641 176.133 107.344C176.074 105.275 175.554 103.333 174.572 101.517C173.116 98.8297 171.179 96.5531 168.76 94.6875C167.366 93.6125 166.275 92.2844 165.488 90.7031C164.944 89.3031 164.586 87.8578 164.415 86.3672C164.402 82.2953 164.365 78.2234 164.302 74.1516C164.299 74.0234 164.324 73.8922 164.377 73.7578C164.427 73.6266 164.472 73.4937 164.513 73.3594C168.594 69.9219 171.329 65.625 172.716 60.4688Z" fill="#A8E2F4" stroke="#A8E2F4"/>
<path d="M61.8937 60.8203C63.1375 65.1922 65.4031 68.9422 68.6906 72.0703L69.9281 73.3734C70.0993 73.5535 70.1953 73.7691 70.1953 73.9734C70.1953 77.8609 70.1953 81.5625 70.1953 85.0781C70.1953 86.0312 69.7594 87.7109 68.8875 90.1172C68.425 91.1422 67.8687 92.1047 67.2187 93.0047C66.8281 93.5516 66.0563 94.3406 64.9031 95.3719C62.7656 97.2844 61.0516 99.5406 59.7609 102.141C58.9172 103.837 58.4891 105.142 58.4766 106.055C58.2859 121.455 58.2562 149.966 58.3875 191.588C58.3875 191.597 58.4172 191.817 58.4766 192.248C58.5109 192.505 58.4656 192.758 58.3406 193.008C55.5344 192.395 52.7734 191.614 50.0578 190.664C50.0141 136.298 50.0078 108.291 50.0391 106.641C50.0734 104.853 50.4266 102.998 51.0984 101.077C52.4141 97.3234 54.6875 93.7578 57.9187 90.3797C60.2406 87.9547 61.5156 85.0547 61.7438 81.6797C61.8938 79.4141 61.8984 77.1484 61.7578 74.8828C61.6109 72.5328 61.6562 67.8453 61.8937 60.8203Z" fill="#A8E2F4" stroke="#A8E2F4"/>
<path d="M79.2184 69.6281C81.7716 71.0344 84.0762 72.2 86.1325 73.125C86.7356 73.3969 87.2153 73.7672 87.5716 74.2359C87.8559 74.6109 88.0341 75.1594 88.1059 75.8812C88.3372 78.1531 88.3419 80.4281 88.12 82.7062C88.1168 82.7346 88.1076 82.7619 88.093 82.7864C88.0785 82.8109 88.059 82.8318 88.0358 82.8479C88.0126 82.8639 87.9863 82.8747 87.9588 82.8794C87.9312 82.884 87.9031 82.8826 87.8762 82.875C85.9637 82.3 84.1262 81.55 82.3637 80.625C82.9762 76.7344 82.0184 73.3234 79.4903 70.3922C79.2997 70.1703 79.2091 69.9156 79.2184 69.6281Z" fill="#87D2ED" stroke="#87D2ED"/>
<path d="M102.515 81.1078C102.606 82.8172 102.575 84.525 102.421 86.2312L96.3277 85.2937C96.0527 84.0687 95.9746 82.825 96.0933 81.5625C95.8839 80.2531 96.1261 79.1781 96.8199 78.3375C97.498 77.5218 98.3949 77.1297 99.5105 77.1609C100.57 77.189 101.373 77.6672 101.92 78.5953C102.257 79.1672 102.456 80.0047 102.515 81.1078Z" fill="#87D2ED" stroke="#87D2ED"/>
<path d="M113.555 78.75C115.783 78.8063 118.009 78.8391 120.234 78.8484L121.148 78.9047C121.373 78.9203 121.373 78.9547 121.148 79.0078C116.923 80.0422 115.291 82.8016 116.25 87.2859L110.681 87.1922C110.573 87.191 110.469 87.1465 110.393 87.0684C110.316 86.9902 110.273 86.8848 110.273 86.775C110.273 85.6656 110.273 84.6 110.273 83.5781C110.273 82.0906 110.402 81.0766 110.658 80.5359C111.164 79.4734 112.13 78.8781 113.555 78.75Z" fill="#87D2ED" stroke="#87D2ED"/>
<path d="M96.3278 85.2938L102.422 86.2313L102.403 104.414L96.3278 103.223C96.1684 102.992 96.0903 102.569 96.0934 101.953C96.1466 92.3375 96.1466 87.2594 96.0934 86.7188C96.0341 86.1281 96.1122 85.6531 96.3278 85.2938Z" fill="#FF78AD" stroke="#FF78AD"/>
<path d="M68.8879 90.1172C68.866 90.2953 68.9223 90.4406 69.0567 90.5531C74.616 95.2219 80.8066 98.6547 87.6285 100.852C87.7829 100.902 87.9169 101.001 88.0106 101.133C88.1043 101.266 88.1528 101.425 88.1488 101.588C88.1145 102.722 88.1176 103.761 88.1582 104.705C88.2145 105.983 88.4738 106.97 88.9363 107.667C89.6363 108.736 90.6317 109.286 91.9223 109.317C93.1723 109.348 94.2035 108.933 95.016 108.07C95.8754 107.155 96.2348 105.975 96.0941 104.531C96.041 103.984 96.1191 103.548 96.3285 103.223L102.404 104.414C102.425 107.811 102.422 111.209 102.394 114.609C102.375 116.659 103.129 118.059 104.654 118.809C105.688 119.319 106.718 119.394 107.743 119.034C108.846 118.647 109.65 117.836 110.157 116.602C110.419 115.961 110.53 114.866 110.489 113.316C110.424 110.778 110.391 108.161 110.391 105.464C110.391 105.433 110.397 105.402 110.409 105.373C110.422 105.344 110.44 105.318 110.462 105.296C110.484 105.275 110.511 105.258 110.54 105.248C110.569 105.237 110.599 105.232 110.63 105.234C115.477 105.481 120.319 105.403 125.157 105C128.804 104.697 132.089 104.288 135.014 103.772C138.211 103.209 141.258 102.517 144.155 101.695C151.961 99.4891 159.072 95.825 165.488 90.7031C166.275 92.2844 167.366 93.6125 168.76 94.6875C171.179 96.5531 173.116 98.8297 174.572 101.517C175.554 103.333 176.074 105.275 176.133 107.344C176.124 116.641 176.13 125.937 176.152 135.234L176.114 135.352C170.377 138.195 165.005 141.608 159.999 145.589C155.686 149.02 151.996 153.002 148.927 157.533C146.805 160.667 145.741 162.239 145.735 162.248C139.863 170.133 132.622 176.645 124.013 181.786C110.329 189.961 95.5535 194.405 79.6879 195.117C72.7066 195.43 65.6363 194.772 58.477 193.144C58.4051 193.125 58.3598 193.08 58.341 193.008C58.466 192.758 58.5113 192.505 58.477 192.248C58.4176 191.817 58.3879 191.597 58.3879 191.588C58.2566 149.966 58.2863 121.455 58.477 106.055C58.4895 105.142 58.9176 103.837 59.7613 102.141C61.052 99.5406 62.766 97.2844 64.9035 95.3719C66.0567 94.3406 66.8285 93.5516 67.2191 93.0047C67.8691 92.1047 68.4254 91.1422 68.8879 90.1172ZM110.358 129.83C110.358 129.332 110.26 128.839 110.07 128.378C109.879 127.918 109.6 127.5 109.248 127.148C108.895 126.796 108.477 126.517 108.017 126.326C107.557 126.136 107.064 126.038 106.566 126.038H106.247C105.749 126.038 105.256 126.136 104.796 126.326C104.336 126.517 103.918 126.796 103.566 127.148C103.214 127.5 102.934 127.918 102.744 128.378C102.553 128.839 102.455 129.332 102.455 129.83V142.064C102.455 143.07 102.855 144.034 103.566 144.746C104.277 145.457 105.242 145.856 106.247 145.856H106.566C107.572 145.856 108.536 145.457 109.248 144.746C109.959 144.034 110.358 143.07 110.358 142.064V129.83ZM143.771 132.558C143.771 131.499 143.35 130.483 142.601 129.734C141.852 128.985 140.836 128.564 139.777 128.564C139.252 128.564 138.733 128.667 138.249 128.868C137.764 129.069 137.324 129.363 136.953 129.734C136.582 130.105 136.288 130.545 136.087 131.029C135.887 131.514 135.783 132.033 135.783 132.558C135.783 133.617 136.204 134.633 136.953 135.382C137.702 136.131 138.718 136.552 139.777 136.552C140.836 136.552 141.852 136.131 142.601 135.382C143.35 134.633 143.771 133.617 143.771 132.558ZM81.7176 145.955C81.7176 144.898 81.2978 143.885 80.5506 143.137C79.8034 142.39 78.7899 141.97 77.7332 141.97C76.6765 141.97 75.663 142.39 74.9158 143.137C74.1686 143.885 73.7488 144.898 73.7488 145.955C73.7488 147.011 74.1686 148.025 74.9158 148.772C75.663 149.519 76.6765 149.939 77.7332 149.939C78.7899 149.939 79.8034 149.519 80.5506 148.772C81.2978 148.025 81.7176 147.011 81.7176 145.955ZM118.458 166.238C118.458 165.18 118.038 164.165 117.29 163.417C116.542 162.669 115.527 162.248 114.469 162.248C113.411 162.248 112.397 162.669 111.648 163.417C110.9 164.165 110.48 165.18 110.48 166.238C110.48 167.295 110.9 168.31 111.648 169.058C112.397 169.806 113.411 170.227 114.469 170.227C115.527 170.227 116.542 169.806 117.29 169.058C118.038 168.31 118.458 167.295 118.458 166.238Z" fill="#FFAECB" stroke="#FFAECB"/>
<path d="M211.425 123.633C212.744 126.408 213.403 129.338 213.403 132.422C213.4 144.572 213.399 156.72 213.399 168.867C213.374 174.402 211.528 179.119 207.863 183.019C204.494 186.6 200.285 188.68 195.235 189.258C194.031 189.395 192.156 189.434 189.61 189.375C187.95 189.334 186.66 189.898 185.738 191.067C185.094 191.886 184.727 193.103 184.636 194.719C184.571 195.903 184.549 197.286 184.571 198.867C184.633 203.455 183.391 207.644 180.844 211.434C178.847 214.403 176.445 216.998 173.639 219.22C169.677 222.352 165.381 224.934 160.753 226.969C153.372 230.209 145.7 232.484 137.738 233.794C120.141 236.688 102.75 235.803 85.5658 231.141C78.9783 229.353 72.7424 226.733 66.858 223.28C63.6799 221.414 60.8377 219.302 58.3314 216.942C55.9189 214.673 53.8971 212.008 52.2658 208.945C50.5564 205.736 49.8143 202.103 50.0393 198.047C50.0299 195.588 50.0361 193.127 50.058 190.664C52.7736 191.614 55.5346 192.395 58.3408 193.008C58.3596 193.08 58.4049 193.125 58.4768 193.144C58.4768 195.716 58.4768 198.287 58.4768 200.859C59.133 204.341 60.7064 207.337 63.1971 209.85C65.7658 212.441 68.4596 214.552 71.2783 216.183C76.0721 218.952 81.3455 221.152 87.0986 222.783C99.1674 226.205 111.43 227.539 123.886 226.786C127.236 226.583 130.347 226.292 133.219 225.914C141.763 224.792 149.994 222.464 157.913 218.93C161.291 217.423 164.469 215.577 167.447 213.389C170.488 211.158 172.866 208.534 174.581 205.519C175.497 203.909 176.014 202.044 176.133 199.922C176.164 199.356 176.158 177.833 176.114 135.352L176.152 135.234C178.88 133.884 181.68 132.712 184.552 131.719C184.595 157.619 184.602 171.291 184.571 172.734C184.552 173.606 184.564 174.409 184.608 175.144C184.664 176.078 184.853 176.847 185.175 177.45C186.022 179.053 187.461 179.903 189.492 180C190.48 180 191.469 180 192.46 180C193.641 180 194.621 179.908 195.399 179.723C199.461 178.758 202.124 176.394 203.386 172.631C203.811 171.372 204.024 169.539 204.024 167.133C204.024 155.289 204.024 143.445 204.024 131.602C203.839 129.617 203.221 127.781 202.167 126.094C202.349 125.791 202.616 125.634 202.969 125.625C205.691 124.797 208.46 124.205 211.275 123.848C211.309 123.845 211.341 123.832 211.365 123.811C211.389 123.791 211.406 123.765 211.411 123.736L211.425 123.633Z" fill="#5BC1E7" stroke="#5BC1E7"/>
<path d="M106.566 126.037H106.247C104.153 126.037 102.455 127.735 102.455 129.83V142.064C102.455 144.158 104.153 145.856 106.247 145.856H106.566C108.66 145.856 110.358 144.158 110.358 142.064V129.83C110.358 127.735 108.66 126.037 106.566 126.037Z" fill="#FF8CBB" stroke="#FF8CBB"/>
<path d="M139.777 136.552C141.983 136.552 143.771 134.764 143.771 132.558C143.771 130.352 141.983 128.564 139.777 128.564C137.571 128.564 135.783 130.352 135.783 132.558C135.783 134.764 137.571 136.552 139.777 136.552Z" fill="#F03974" stroke="#F03974"/>
<path d="M176.114 135.352C176.158 177.833 176.164 199.356 176.133 199.922C176.014 202.044 175.497 203.909 174.581 205.519C172.866 208.534 170.488 211.158 167.447 213.389C164.469 215.577 161.291 217.423 157.913 218.93C149.994 222.464 141.763 224.792 133.219 225.914C130.347 226.292 127.236 226.583 123.886 226.786C111.43 227.539 99.1672 226.205 87.0984 222.783C81.3453 221.152 76.0719 218.952 71.2781 216.183C68.4594 214.552 65.7656 212.441 63.1969 209.85C60.7063 207.337 59.1328 204.341 58.4766 200.859C58.4766 198.287 58.4766 195.716 58.4766 193.144C65.6359 194.772 72.7062 195.43 79.6875 195.117C95.5531 194.405 110.328 189.961 124.012 181.786C132.622 176.645 139.862 170.133 145.734 162.248C145.741 162.239 146.805 160.667 148.927 157.533C151.995 153.002 155.686 149.02 159.998 145.589C165.005 141.608 170.377 138.195 176.114 135.352ZM153.094 188.672C153.094 187.614 152.673 186.599 151.925 185.851C151.177 185.103 150.163 184.683 149.105 184.683C148.047 184.683 147.032 185.103 146.284 185.851C145.536 186.599 145.116 187.614 145.116 188.672C145.116 189.73 145.536 190.744 146.284 191.493C147.032 192.241 148.047 192.661 149.105 192.661C150.163 192.661 151.177 192.241 151.925 191.493C152.673 190.744 153.094 189.73 153.094 188.672ZM97.425 205.856C97.425 204.8 97.0052 203.786 96.258 203.039C95.5108 202.292 94.4973 201.872 93.4406 201.872C92.3839 201.872 91.3705 202.292 90.6232 203.039C89.876 203.786 89.4562 204.8 89.4562 205.856C89.4562 206.913 89.876 207.926 90.6232 208.674C91.3705 209.421 92.3839 209.841 93.4406 209.841C94.4973 209.841 95.5108 209.421 96.258 208.674C97.0052 207.926 97.425 206.913 97.425 205.856Z" fill="#FF78AD" stroke="#FF78AD"/>
<path d="M77.7324 149.939C79.9329 149.939 81.7168 148.155 81.7168 145.955C81.7168 143.754 79.9329 141.97 77.7324 141.97C75.5319 141.97 73.748 143.754 73.748 145.955C73.748 148.155 75.5319 149.939 77.7324 149.939Z" fill="#FF8CBB" stroke="#FF8CBB"/>
<path d="M114.469 170.227C116.672 170.227 118.458 168.441 118.458 166.237C118.458 164.034 116.672 162.248 114.469 162.248C112.265 162.248 110.479 164.034 110.479 166.237C110.479 168.441 112.265 170.227 114.469 170.227Z" fill="#F03974" stroke="#F03974"/>
<path d="M149.104 192.661C151.307 192.661 153.093 190.875 153.093 188.672C153.093 186.469 151.307 184.683 149.104 184.683C146.901 184.683 145.115 186.469 145.115 188.672C145.115 190.875 146.901 192.661 149.104 192.661Z" fill="#FFAECB" stroke="#FFAECB"/>
<path d="M93.4404 209.841C95.6409 209.841 97.4248 208.057 97.4248 205.856C97.4248 203.656 95.6409 201.872 93.4404 201.872C91.2399 201.872 89.4561 203.656 89.4561 205.856C89.4561 208.057 91.2399 209.841 93.4404 209.841Z" fill="#F03974" stroke="#F03974"/>
</svg>
