<?xml version="1.0" encoding="UTF-8" standalone="no"?>
<!DOCTYPE svg PUBLIC "-//W3C//DTD SVG 1.1//EN" "http://www.w3.org/Graphics/SVG/1.1/DTD/svg11.dtd">
<svg xmlns="http://www.w3.org/2000/svg" version="1.1" viewBox="0 0 512 512">
<path fill="rgb(69,109,12)" fill-opacity="0.000" d="M 0.00 0.00 Q 112.78 0.00 225.56 0.00 Q 220.33 1.33 218.75 6.00 Q 217.69 9.12 218.00 13.50 Q 218.10 14.96 217.96 108.25 Q 170.23 108.81 122.50 108.29 Q 83.61 108.06 82.56 108.31 Q 70.06 111.38 70.75 124.50 Q 70.97 128.69 79.02 217.24 Q 79.24 219.59 79.81 227.77 Q 80.39 235.95 81.25 238.25 Q 85.15 248.71 96.44 248.57 A 0.76 0.74 -10.9 0 1 97.14 249.03 Q 98.18 251.51 98.00 254.25 Q 97.96 254.93 118.09 475.29 Q 119.58 491.55 120.77 495.06 Q 125.53 509.13 142.69 512.00 Q 71.34 512.00 0.00 512.00 Q 0.00 256.00 0.00 0.00 Z"/>
<path fill="rgb(255,183,75)" fill-opacity="1.000" d="M 225.56 0.00 Q 231.19 0.00 236.81 0.00 Q 236.80 0.13 236.79 0.25 Q 234.80 0.23 235.66 1.66 A 0.59 0.58 52.9 0 1 235.57 2.39 Q 232.79 4.98 232.75 8.25 Q 232.25 54.61 232.50 151.50 Q 232.50 152.87 233.00 153.21 L 218.00 152.96 L 217.96 108.25 Q 218.10 14.96 218.00 13.50 Q 217.69 9.12 218.75 6.00 Q 220.33 1.33 225.56 0.00 Z"/>
<path fill="rgb(69,109,12)" fill-opacity="0.000" d="M 236.81 0.00 Q 374.41 0.00 512.00 0.00 Q 512.00 256.00 512.00 512.00 Q 426.09 512.00 340.19 512.00 Q 340.27 511.78 340.50 511.71 Q 355.25 511.31 369.06 504.81 Q 384.12 497.73 396.08 486.96 Q 403.84 479.97 409.81 472.46 Q 421.29 458.00 426.30 439.81 Q 430.96 422.90 422.25 408.04 Q 431.72 408.01 438.69 404.19 Q 442.08 402.32 441.70 399.08 Q 441.44 396.86 439.23 394.53 Q 436.36 391.51 432.45 389.78 Q 414.39 381.81 394.78 384.72 Q 391.48 385.21 387.93 386.45 A 0.58 0.58 67.9 0 1 387.22 386.15 Q 379.05 367.86 362.29 357.00 Q 359.23 354.69 354.75 353.00 Q 349.14 350.88 344.50 354.21 L 354.02 249.01 A 0.84 0.84 2.6 0 1 354.86 248.25 Q 369.21 248.20 371.00 234.50 Q 375.86 180.00 380.75 125.50 Q 381.99 111.66 369.00 108.50 Q 368.99 108.50 243.79 108.50 Q 243.72 59.25 243.74 10.00 Q 243.75 2.50 236.79 0.25 Q 236.80 0.13 236.81 0.00 Z"/>
<path fill="rgb(255,213,81)" fill-opacity="1.000" d="M 236.79 0.25 Q 243.75 2.50 243.74 10.00 Q 243.72 59.25 243.79 108.50 L 243.50 153.21 L 233.00 153.21 Q 232.50 152.87 232.50 151.50 Q 232.25 54.61 232.75 8.25 Q 232.79 4.98 235.57 2.39 A 0.59 0.58 52.9 0 0 235.66 1.66 Q 234.80 0.23 236.79 0.25 Z"/>
<path fill="rgb(255,213,154)" fill-opacity="1.000" d="M 82.56 108.31 Q 83.61 108.06 122.50 108.29 L 121.94 108.52 A 0.61 0.46 72.9 0 0 121.69 109.20 Q 121.84 109.82 121.22 110.00 Q 120.60 110.18 120.45 110.26 Q 113.27 114.20 113.50 122.25 Q 113.77 131.79 116.00 152.96 Q 101.58 153.48 99.75 153.25 Q 95.87 152.75 92.14 153.23 Q 89.88 153.52 90.06 155.79 Q 92.76 190.15 96.26 224.41 Q 96.58 227.55 97.78 228.69 Q 99.53 230.35 102.75 230.00 Q 111.99 228.99 113.00 238.25 Q 124.04 361.76 135.49 485.24 Q 135.84 489.02 136.81 490.55 Q 138.50 493.21 142.00 493.50 Q 146.74 493.89 163.00 493.79 Q 165.84 503.11 174.44 508.31 Q 178.12 510.54 181.97 510.74 A 0.88 0.50 -10.0 0 1 182.48 510.92 L 182.69 511.11 A 1.36 0.76 55.1 0 0 183.49 511.50 Q 193.25 511.50 193.25 511.50 Q 194.21 511.25 194.44 512.00 Q 168.56 512.00 142.69 512.00 Q 125.53 509.13 120.77 495.06 Q 119.58 491.55 118.09 475.29 Q 97.96 254.93 98.00 254.25 Q 98.18 251.51 97.14 249.03 A 0.76 0.74 -10.9 0 0 96.44 248.57 Q 85.15 248.71 81.25 238.25 Q 80.39 235.95 79.81 227.77 Q 79.24 219.59 79.02 217.24 Q 70.97 128.69 70.75 124.50 Q 70.06 111.38 82.56 108.31 Z"/>
<path fill="rgb(255,234,207)" fill-opacity="1.000" d="M 122.50 108.29 Q 170.23 108.81 217.96 108.25 L 218.00 152.96 Q 217.20 153.43 216.25 153.25 Q 216.24 153.25 141.54 153.25 L 116.00 152.96 Q 113.77 131.79 113.50 122.25 Q 113.27 114.20 120.45 110.26 Q 120.60 110.18 121.22 110.00 Q 121.84 109.82 121.69 109.20 A 0.61 0.46 72.9 0 1 121.94 108.52 L 122.50 108.29 Z"/>
<path fill="rgb(255,234,207)" fill-opacity="1.000" d="M 369.00 108.50 Q 381.99 111.66 380.75 125.50 Q 375.86 180.00 371.00 234.50 Q 369.21 248.20 354.86 248.25 A 0.84 0.84 2.6 0 0 354.02 249.01 L 344.50 354.21 L 343.96 360.75 L 343.00 368.21 Q 330.91 369.98 321.54 377.75 Q 328.13 307.26 334.50 236.75 Q 336.30 229.12 344.25 230.00 Q 349.77 230.61 351.19 225.69 Q 354.16 191.59 357.25 157.50 Q 357.61 153.56 354.25 153.25 Q 298.88 153.28 243.50 153.21 L 243.79 108.50 Q 368.99 108.50 369.00 108.50 Z"/>
<path fill="rgb(255,98,75)" fill-opacity="1.000" d="M 99.75 153.25 Q 101.58 153.48 116.00 152.96 L 141.54 153.25 Q 139.62 155.01 140.25 157.75 Q 143.08 190.32 146.01 222.89 Q 146.35 226.60 147.25 227.91 Q 148.92 230.37 152.75 229.97 Q 161.24 229.07 162.94 237.06 Q 174.08 360.03 185.18 483.01 Q 185.41 485.56 185.94 488.06 Q 186.34 491.10 188.97 492.36 A 0.67 0.65 16.9 0 1 189.35 493.05 L 189.25 493.71 L 163.00 493.79 Q 146.74 493.89 142.00 493.50 Q 138.50 493.21 136.81 490.55 Q 135.84 489.02 135.49 485.24 Q 124.04 361.76 113.00 238.25 Q 111.99 228.99 102.75 230.00 Q 99.53 230.35 97.78 228.69 Q 96.58 227.55 96.26 224.41 Q 92.76 190.15 90.06 155.79 Q 89.88 153.52 92.14 153.23 Q 95.87 152.75 99.75 153.25 Z"/>
<path fill="rgb(255,144,121)" fill-opacity="1.000" d="M 218.00 152.96 L 233.00 153.21 L 243.50 153.21 Q 298.88 153.28 354.25 153.25 Q 357.61 153.56 357.25 157.50 Q 354.16 191.59 351.19 225.69 Q 349.77 230.61 344.25 230.00 Q 336.30 229.12 334.50 236.75 Q 328.13 307.26 321.54 377.75 Q 308.66 390.13 302.31 405.81 Q 294.07 426.16 294.07 449.25 Q 294.07 472.84 305.25 493.46 L 189.25 493.71 L 189.35 493.05 A 0.67 0.65 16.9 0 0 188.97 492.36 Q 186.34 491.10 185.94 488.06 Q 185.41 485.56 185.18 483.01 Q 174.08 360.03 162.94 237.06 Q 161.24 229.07 152.75 229.97 Q 148.92 230.37 147.25 227.91 Q 146.35 226.60 146.01 222.89 Q 143.08 190.32 140.25 157.75 Q 139.62 155.01 141.54 153.25 Q 216.24 153.25 216.25 153.25 Q 217.20 153.43 218.00 152.96 Z M 316.5576 244.5522 A 6.55 6.55 0 0 0 310.5049 237.5401 L 310.3253 237.5269 A 6.55 6.55 0 0 0 303.3132 243.5796 L 294.2625 366.8278 A 6.55 6.55 0 0 0 300.3152 373.8399 L 300.4947 373.8531 A 6.55 6.55 0 0 0 307.5068 367.8004 L 316.5576 244.5522 Z M 227.31 382.89 A 17.33 17.33 0 0 0 209.98 365.56 A 17.33 17.33 0 0 0 192.65 382.89 A 17.33 17.33 0 0 0 209.98 400.22 A 17.33 17.33 0 0 0 227.31 382.89 Z M 276.30 400.35 A 17.33 17.33 0 0 0 258.97 383.02 A 17.33 17.33 0 0 0 241.64 400.35 A 17.33 17.33 0 0 0 258.97 417.68 A 17.33 17.33 0 0 0 276.30 400.35 Z M 249.85 449.10 A 17.33 17.33 0 0 0 232.52 431.77 A 17.33 17.33 0 0 0 215.19 449.10 A 17.33 17.33 0 0 0 232.52 466.43 A 17.33 17.33 0 0 0 249.85 449.10 Z"/>
<rect fill="rgb(255,213,154)" fill-opacity="1.000" x="-6.64" y="-68.34" width="13.28" height="136.68" rx="6.55" transform="translate(305.41,305.69) rotate(4.2)"/>
<path fill="rgb(153,175,23)" fill-opacity="1.000" d="M 354.75 353.00 Q 359.23 354.69 362.29 357.00 Q 363.40 365.58 368.39 372.60 Q 371.29 376.67 374.01 380.03 Q 374.79 381.00 373.54 381.00 Q 367.41 381.00 361.99 382.37 Q 358.01 383.38 356.03 385.10 Q 351.94 388.67 357.56 393.19 Q 364.84 399.02 375.51 399.94 Q 376.56 400.03 376.75 400.96 Q 361.18 403.62 346.50 397.96 Q 341.57 396.39 338.04 392.79 Q 336.45 391.18 336.06 389.77 Q 335.49 387.69 336.94 385.94 Q 338.70 383.82 342.16 382.83 Q 348.33 381.06 354.94 381.26 Q 355.86 381.28 355.31 380.51 L 346.75 368.46 L 343.96 360.75 L 344.50 354.21 Q 349.14 350.88 354.75 353.00 Z"/>
<path fill="rgb(204,192,51)" fill-opacity="1.000" d="M 362.29 357.00 Q 379.05 367.86 387.22 386.15 A 0.58 0.58 67.9 0 0 387.93 386.45 Q 391.48 385.21 394.78 384.72 Q 414.39 381.81 432.45 389.78 Q 436.36 391.51 439.23 394.53 Q 441.44 396.86 441.70 399.08 Q 442.08 402.32 438.69 404.19 Q 431.72 408.01 422.25 408.04 Q 414.28 408.12 406.67 406.54 Q 405.48 406.29 406.31 407.18 Q 412.49 413.86 415.25 422.39 Q 416.30 425.64 416.03 427.72 Q 415.54 431.60 411.43 431.78 Q 409.89 431.84 407.78 431.15 Q 405.61 430.44 404.31 429.69 Q 386.98 419.66 379.92 400.96 A 0.71 0.55 73.2 0 0 379.25 400.48 L 376.75 400.96 Q 376.56 400.03 375.51 399.94 Q 364.84 399.02 357.56 393.19 Q 351.94 388.67 356.03 385.10 Q 358.01 383.38 361.99 382.37 Q 367.41 381.00 373.54 381.00 Q 374.79 381.00 374.01 380.03 Q 371.29 376.67 368.39 372.60 Q 363.40 365.58 362.29 357.00 Z"/>
<path fill="rgb(69,109,12)" fill-opacity="0.000" d="M 343.96 360.75 L 346.75 368.46 L 343.00 368.21 L 343.96 360.75 Z"/>
<circle fill="rgb(255,98,75)" fill-opacity="1.000" cx="209.98" cy="382.89" r="17.33"/>
<path fill="rgb(255,75,52)" fill-opacity="1.000" d="M 343.00 368.21 L 346.75 368.46 L 355.31 380.51 Q 355.86 381.28 354.94 381.26 Q 348.33 381.06 342.16 382.83 Q 338.70 383.82 336.94 385.94 Q 335.49 387.69 336.06 389.77 Q 336.45 391.18 338.04 392.79 Q 341.57 396.39 346.50 397.96 Q 345.12 398.96 344.08 400.33 Q 333.93 413.68 329.69 429.94 Q 328.92 432.88 329.00 433.71 Q 325.99 437.80 323.75 444.25 Q 322.10 449.01 326.00 451.29 Q 324.83 452.62 325.25 454.50 Q 324.76 460.88 325.21 467.25 Q 321.66 467.03 320.06 469.56 Q 318.59 471.90 316.03 478.37 Q 313.73 484.18 319.00 486.00 Q 322.17 487.09 324.44 483.94 Q 324.80 483.44 326.21 480.50 L 326.68 481.37 Q 327.07 482.09 327.10 482.24 Q 330.12 497.01 338.65 509.39 Q 338.88 509.73 339.40 509.99 Q 340.42 510.51 340.50 511.71 Q 340.27 511.78 340.19 512.00 Q 337.69 512.00 335.19 512.00 Q 327.28 511.23 320.04 508.00 Q 311.12 502.29 305.25 493.46 Q 294.07 472.84 294.07 449.25 Q 294.07 426.16 302.31 405.81 Q 308.66 390.13 321.54 377.75 Q 330.91 369.98 343.00 368.21 Z M 330.8956 412.5332 A 4.74 4.74 0 0 0 328.4388 406.2962 L 328.0169 406.1128 A 4.74 4.74 0 0 0 321.7800 408.5696 L 317.8244 417.6668 A 4.74 4.74 0 0 0 320.2812 423.9038 L 320.7031 424.0872 A 4.74 4.74 0 0 0 326.9400 421.6304 L 330.8956 412.5332 Z"/>
<circle fill="rgb(255,98,75)" fill-opacity="1.000" cx="258.97" cy="400.35" r="17.33"/>
<path fill="rgb(255,98,75)" fill-opacity="1.000" d="M 346.50 397.96 Q 361.18 403.62 376.75 400.96 L 379.25 400.48 A 0.71 0.55 73.2 0 1 379.92 400.96 Q 386.98 419.66 404.31 429.69 Q 405.61 430.44 407.78 431.15 Q 409.89 431.84 411.43 431.78 Q 415.54 431.60 416.03 427.72 Q 416.30 425.64 415.25 422.39 Q 412.49 413.86 406.31 407.18 Q 405.48 406.29 406.67 406.54 Q 414.28 408.12 422.25 408.04 Q 430.96 422.90 426.30 439.81 Q 421.29 458.00 409.81 472.46 Q 403.84 479.97 396.08 486.96 Q 384.12 497.73 369.06 504.81 Q 355.25 511.31 340.50 511.71 Q 340.42 510.51 339.40 509.99 Q 338.88 509.73 338.65 509.39 Q 330.12 497.01 327.10 482.24 Q 327.07 482.09 326.68 481.37 L 326.21 480.50 Q 327.73 476.58 327.94 476.19 Q 331.17 470.03 325.21 467.25 Q 324.76 460.88 325.25 454.50 Q 324.83 452.62 326.00 451.29 Q 329.97 452.59 331.94 449.69 Q 333.70 447.08 336.28 439.80 Q 337.76 435.64 334.44 433.56 Q 332.00 432.04 329.00 433.71 Q 328.92 432.88 329.69 429.94 Q 333.93 413.68 344.08 400.33 Q 345.12 398.96 346.50 397.96 Z M 359.8003 422.6757 A 4.76 4.76 0 0 0 357.3222 416.4168 L 356.9184 416.2421 A 4.76 4.76 0 0 0 350.6594 418.7202 L 346.7197 427.8243 A 4.76 4.76 0 0 0 349.1978 434.0832 L 349.6016 434.2579 A 4.76 4.76 0 0 0 355.8606 431.7798 L 359.8003 422.6757 Z M 381.1234 436.9813 A 4.75 4.75 0 0 0 378.6287 430.7442 L 378.2059 430.5630 A 4.75 4.75 0 0 0 371.9688 433.0576 L 368.0766 442.1387 A 4.75 4.75 0 0 0 370.5713 448.3758 L 370.9941 448.5570 A 4.75 4.75 0 0 0 377.2312 446.0623 L 381.1234 436.9813 Z M 405.7466 443.5604 A 4.74 4.74 0 0 0 403.2680 437.3320 L 402.8456 437.1501 A 4.74 4.74 0 0 0 396.6172 439.6286 L 392.6934 448.7396 A 4.74 4.74 0 0 0 395.1720 454.9680 L 395.5945 455.1499 A 4.74 4.74 0 0 0 401.8228 452.6714 L 405.7466 443.5604 Z M 356.8014 460.5072 A 4.73 4.73 0 0 0 354.3280 454.2921 L 353.9055 454.1101 A 4.73 4.73 0 0 0 347.6904 456.5834 L 343.7586 465.7128 A 4.73 4.73 0 0 0 346.2320 471.9279 L 346.6544 472.1099 A 4.73 4.73 0 0 0 352.8696 469.6366 L 356.8014 460.5072 Z M 383.3620 464.7887 A 4.76 4.76 0 0 0 380.8948 458.5254 L 380.4730 458.3420 A 4.76 4.76 0 0 0 374.2097 460.8091 L 370.2780 469.8513 A 4.76 4.76 0 0 0 372.7452 476.1146 L 373.1671 476.2980 A 4.76 4.76 0 0 0 379.4303 473.8309 L 383.3620 464.7887 Z M 358.9840 488.4062 A 4.73 4.73 0 0 0 356.5215 482.1866 L 356.0993 482.0040 A 4.73 4.73 0 0 0 349.8799 484.4664 L 345.9560 493.5338 A 4.73 4.73 0 0 0 348.4185 499.7534 L 348.8407 499.9360 A 4.73 4.73 0 0 0 355.0602 497.4736 L 358.9840 488.4062 Z"/>
<rect fill="rgb(140,76,23)" fill-opacity="1.000" x="-4.97" y="-9.70" width="9.94" height="19.40" rx="4.74" transform="translate(324.36,415.10) rotate(23.5)"/>
<rect fill="rgb(140,76,23)" fill-opacity="1.000" x="-4.98" y="-9.72" width="9.96" height="19.44" rx="4.76" transform="translate(353.26,425.25) rotate(23.4)"/>
<rect fill="rgb(140,76,23)" fill-opacity="1.000" x="-4.98" y="-9.69" width="9.96" height="19.38" rx="4.75" transform="translate(374.60,439.56) rotate(23.2)"/>
<circle fill="rgb(255,98,75)" fill-opacity="1.000" cx="232.52" cy="449.10" r="17.33"/>
<path fill="rgb(140,76,23)" fill-opacity="1.000" d="M 334.44 433.56 Q 337.76 435.64 336.28 439.80 Q 333.70 447.08 331.94 449.69 Q 329.97 452.59 326.00 451.29 Q 322.10 449.01 323.75 444.25 Q 325.99 437.80 329.00 433.71 Q 332.00 432.04 334.44 433.56 Z"/>
<rect fill="rgb(140,76,23)" fill-opacity="1.000" x="-4.97" y="-9.70" width="9.94" height="19.40" rx="4.74" transform="translate(399.22,446.15) rotate(23.3)"/>
<rect fill="rgb(140,76,23)" fill-opacity="1.000" x="-4.96" y="-9.70" width="9.92" height="19.40" rx="4.73" transform="translate(350.28,463.11) rotate(23.3)"/>
<rect fill="rgb(140,76,23)" fill-opacity="1.000" x="-4.99" y="-9.69" width="9.98" height="19.38" rx="4.76" transform="translate(376.82,467.32) rotate(23.5)"/>
<path fill="rgb(140,76,23)" fill-opacity="1.000" d="M 325.21 467.25 Q 331.17 470.03 327.94 476.19 Q 327.73 476.58 326.21 480.50 Q 324.80 483.44 324.44 483.94 Q 322.17 487.09 319.00 486.00 Q 313.73 484.18 316.03 478.37 Q 318.59 471.90 320.06 469.56 Q 321.66 467.03 325.21 467.25 Z"/>
<rect fill="rgb(140,76,23)" fill-opacity="1.000" x="-4.96" y="-9.67" width="9.92" height="19.34" rx="4.73" transform="translate(352.47,490.97) rotate(23.4)"/>
<path fill="rgb(255,234,207)" fill-opacity="1.000" d="M 305.25 493.46 Q 311.12 502.29 320.04 508.00 Q 316.02 510.65 311.25 511.50 Q 304.84 511.71 298.44 512.00 Q 295.81 512.00 293.19 512.00 Q 251.60 511.53 210.00 511.79 Q 203.84 511.53 197.69 512.00 Q 196.06 512.00 194.44 512.00 Q 194.21 511.25 193.25 511.50 Q 193.25 511.50 183.49 511.50 A 1.36 0.76 55.1 0 1 182.69 511.11 L 182.48 510.92 A 0.88 0.50 -10.0 0 0 181.97 510.74 Q 178.12 510.54 174.44 508.31 Q 165.84 503.11 163.00 493.79 L 189.25 493.71 L 305.25 493.46 Z"/>
<path fill="rgb(69,109,12)" fill-opacity="0.000" d="M 320.04 508.00 Q 327.28 511.23 335.19 512.00 Q 316.81 512.00 298.44 512.00 Q 304.84 511.71 311.25 511.50 Q 316.02 510.65 320.04 508.00 Z"/>
<path fill="rgb(143,139,95)" fill-opacity="0.702" d="M 210.00 511.79 Q 209.97 511.90 209.94 512.00 Q 203.81 512.00 197.69 512.00 Q 203.84 511.53 210.00 511.79 Z"/>
<path fill="rgb(69,109,12)" fill-opacity="0.000" d="M 210.00 511.79 Q 251.60 511.53 293.19 512.00 Q 251.56 512.00 209.94 512.00 Q 209.97 511.90 210.00 511.79 Z"/>
</svg>