<svg width="240" height="240" viewBox="0 0 240 240" fill="none" xmlns="http://www.w3.org/2000/svg">
<g clip-path="url(#clip0_535_1674)">
<path d="M105.731 0C107.49 0 109.248 0 111.004 0C111.001 0.040625 110.998 0.0796875 110.995 0.117188C110.373 0.110937 110.197 0.33125 110.465 0.778125C110.498 0.83205 110.512 0.895436 110.505 0.957708C110.497 1.01998 110.468 1.07737 110.423 1.12031C109.554 1.92969 109.114 2.84531 109.101 3.86719C108.945 18.3547 108.906 40.7375 108.984 71.0156C108.984 71.4438 109.062 71.7109 109.218 71.8172L102.187 71.7L102.168 50.7422C102.212 21.5891 102.218 6.78438 102.187 6.32812C102.09 4.95937 102.207 3.7875 102.539 2.8125C103.032 1.35313 104.097 0.415625 105.731 0Z" fill="#FFB74B" stroke="#FFB74B"/>
<path d="M110.995 0.117187C113.17 0.820312 114.256 2.34375 114.253 4.6875C114.247 20.0781 114.255 35.4688 114.277 50.8594L114.141 71.8172H109.219C109.062 71.7109 108.984 71.4438 108.984 71.0156C108.906 40.7375 108.945 18.3547 109.102 3.86719C109.114 2.84531 109.555 1.92969 110.423 1.12031C110.468 1.07737 110.497 1.01998 110.505 0.957707C110.513 0.895436 110.499 0.83205 110.466 0.778125C110.197 0.33125 110.373 0.110937 110.995 0.117187Z" fill="#FFD551" stroke="#FFD551"/>
<path d="M38.7003 50.7703C39.0284 50.6922 45.2691 50.6891 57.4222 50.7609L57.1597 50.8687C57.1095 50.8875 57.0697 50.9305 57.0481 50.9894C57.0264 51.0483 57.0244 51.1189 57.0425 51.1875C57.0894 51.3812 57.0159 51.5063 56.8222 51.5625C56.6284 51.6188 56.5081 51.6594 56.4613 51.6844C54.2175 52.9156 53.1316 54.7891 53.2034 57.3047C53.2878 60.2859 53.6784 65.0844 54.3753 71.7C49.8691 71.8625 47.33 71.9078 46.7581 71.8359C45.5456 71.6797 44.3566 71.6766 43.1909 71.8266C42.4847 71.9172 42.1597 72.3172 42.2159 73.0266C43.0597 83.7641 44.0284 94.4859 45.1222 105.192C45.2222 106.173 45.4597 106.842 45.8347 107.198C46.3816 107.717 47.1581 107.922 48.1644 107.812C51.0519 107.497 52.6534 108.786 52.9691 111.68C56.4191 150.277 59.9331 188.869 63.5113 227.456C63.6206 228.638 63.8269 229.467 64.13 229.945C64.6581 230.777 65.4691 231.238 66.5628 231.328C68.0441 231.45 71.3253 231.495 76.4066 231.464C77.2941 234.377 79.0816 236.645 81.7691 238.27C82.9191 238.967 84.0956 239.347 85.2988 239.409C85.4007 239.415 85.4865 239.446 85.5378 239.494L85.6363 239.583C85.6982 239.64 85.7635 239.686 85.8281 239.718C85.8926 239.749 85.955 239.766 86.0113 239.766C89.0613 239.766 90.5863 239.766 90.5863 239.766C90.8863 239.688 91.0722 239.766 91.1441 240C83.0566 240 74.9706 240 66.8863 240C61.5238 239.103 58.0988 236.456 56.6113 232.059C56.2394 230.963 55.8206 227.873 55.355 222.792C49.0644 153.93 45.9253 119.392 45.9378 119.18C45.9941 118.323 45.8597 117.508 45.5347 116.733C45.5085 116.669 45.4633 116.614 45.4049 116.576C45.3464 116.537 45.2774 116.517 45.2066 116.517C41.6784 116.561 39.305 114.948 38.0863 111.68C37.8175 110.961 37.5925 109.323 37.4113 106.767C37.2331 104.211 37.1097 102.566 37.0409 101.831C34.5253 74.1594 33.2331 59.6688 33.1644 58.3594C32.9488 54.2594 34.7941 51.7297 38.7003 50.7703Z" fill="#FFD59A" stroke="#FFD59A"/>
<path d="M57.4223 50.7609C72.3379 50.9234 87.2535 50.9172 102.169 50.7422L102.188 71.7C101.938 71.8469 101.664 71.8922 101.368 71.8359C101.364 71.8359 89.691 71.8359 66.3473 71.8359L54.3754 71.7C53.6785 65.0844 53.2879 60.2859 53.2035 57.3047C53.1317 54.7891 54.2176 52.9156 56.4614 51.6844C56.5082 51.6594 56.6285 51.6187 56.8223 51.5625C57.016 51.5063 57.0895 51.3812 57.0426 51.1875C57.0245 51.1189 57.0265 51.0483 57.0482 50.9894C57.0698 50.9305 57.1096 50.8875 57.1598 50.8687L57.4223 50.7609Z" fill="#FFEACF" stroke="#FFEACF"/>
<path d="M172.969 50.8594C177.028 51.8469 178.864 54.5031 178.477 58.8281C176.948 75.8594 175.425 92.8906 173.906 109.922C173.347 114.203 170.825 116.352 166.341 116.367C166.242 116.367 166.148 116.403 166.075 116.469C166.002 116.535 165.956 116.626 165.947 116.723L161.484 166.036L161.231 169.102L160.781 172.598C157.003 173.152 153.65 174.642 150.722 177.07C152.781 155.042 154.806 133.011 156.797 110.977C157.359 108.592 158.883 107.538 161.367 107.812C163.092 108.003 164.177 107.33 164.62 105.792C165.548 95.1359 166.495 84.4813 167.461 73.8281C167.573 72.5969 167.105 71.9328 166.055 71.8359C148.752 71.8453 131.447 71.8391 114.141 71.8172L114.277 50.8594C153.402 50.8594 172.966 50.8594 172.969 50.8594Z" fill="#FFEACF" stroke="#FFEACF"/>
<path d="M46.7574 71.8359C47.3293 71.9078 49.8683 71.8625 54.3746 71.7L66.3465 71.8359C65.7465 72.3859 65.5449 73.0891 65.7418 73.9453C66.6261 84.1234 67.5261 94.3016 68.4418 104.48C68.548 105.639 68.7418 106.423 69.023 106.833C69.5449 107.602 70.4043 107.923 71.6011 107.798C74.2543 107.517 75.8465 108.625 76.3777 111.122C79.859 149.55 83.334 187.98 86.8027 226.411C86.8746 227.208 86.9933 227.997 87.159 228.778C87.284 229.728 87.7574 230.4 88.5793 230.794C88.6404 230.822 88.6907 230.869 88.7228 230.928C88.7548 230.986 88.767 231.052 88.7574 231.117L88.7105 231.427L76.4058 231.464C71.3246 231.495 68.0433 231.45 66.5621 231.328C65.4683 231.237 64.6574 230.777 64.1293 229.945C63.8261 229.467 63.6199 228.637 63.5105 227.456C59.9324 188.869 56.4183 150.277 52.9683 111.68C52.6527 108.786 51.0511 107.497 48.1636 107.812C47.1574 107.922 46.3808 107.717 45.834 107.198C45.459 106.842 45.2215 106.173 45.1215 105.192C44.0277 94.4859 43.059 83.7641 42.2152 73.0266C42.159 72.3172 42.484 71.9172 43.1902 71.8266C44.3558 71.6766 45.5449 71.6797 46.7574 71.8359Z" fill="#FF624B" stroke="#FF624B"/>
<path d="M102.187 71.7L109.218 71.8172H114.14C131.447 71.8391 148.751 71.8453 166.054 71.8359C167.104 71.9328 167.573 72.5969 167.461 73.8281C166.495 84.4813 165.548 95.1359 164.62 105.792C164.176 107.33 163.092 108.003 161.367 107.813C158.883 107.538 157.359 108.592 156.797 110.977C154.806 133.011 152.781 155.042 150.722 177.07C146.697 180.939 143.692 185.323 141.708 190.223C139.133 196.583 137.845 203.37 137.845 210.586C137.845 217.958 139.592 224.866 143.086 231.309L88.7107 231.427L88.7575 231.117C88.7671 231.052 88.755 230.986 88.7229 230.928C88.6908 230.869 88.6405 230.822 88.5794 230.794C87.7575 230.4 87.2841 229.728 87.1591 228.778C86.9935 227.997 86.8747 227.208 86.8028 226.411C83.3341 187.98 79.8591 149.55 76.3778 111.122C75.8466 108.625 74.2544 107.517 71.6013 107.798C70.4044 107.923 69.545 107.602 69.0232 106.833C68.7419 106.423 68.5482 105.639 68.4419 104.48C67.5263 94.3016 66.6263 84.1234 65.7419 73.9453C65.545 73.0891 65.7466 72.3859 66.3466 71.8359C89.6903 71.8359 101.364 71.8359 101.367 71.8359C101.664 71.8922 101.937 71.8469 102.187 71.7ZM148.386 114.634C148.446 113.822 148.18 113.019 147.648 112.403C147.116 111.786 146.361 111.407 145.549 111.347L145.465 111.341C144.653 111.281 143.85 111.547 143.234 112.079C142.617 112.611 142.237 113.366 142.178 114.178L137.935 171.951C137.876 172.763 138.141 173.565 138.673 174.182C139.205 174.798 139.96 175.178 140.772 175.237L140.857 175.244C141.669 175.303 142.471 175.038 143.088 174.506C143.704 173.974 144.084 173.219 144.144 172.406L148.386 114.634ZM106.551 179.48C106.551 177.325 105.695 175.259 104.172 173.736C102.649 172.212 100.582 171.356 98.4278 171.356C96.2734 171.356 94.2071 172.212 92.6837 173.736C91.1603 175.259 90.3044 177.325 90.3044 179.48C90.3044 180.546 90.5145 181.603 90.9228 182.588C91.331 183.574 91.9294 184.469 92.6837 185.224C93.438 185.978 94.3336 186.577 95.3191 186.985C96.3047 187.393 97.3611 187.603 98.4278 187.603C99.4946 187.603 100.551 187.393 101.537 186.985C102.522 186.577 103.418 185.978 104.172 185.224C104.926 184.469 105.525 183.574 105.933 182.588C106.341 181.603 106.551 180.546 106.551 179.48ZM129.515 187.664C129.515 186.597 129.305 185.541 128.897 184.555C128.489 183.57 127.89 182.674 127.136 181.92C126.382 181.166 125.486 180.567 124.501 180.159C123.515 179.751 122.459 179.541 121.392 179.541C120.325 179.541 119.269 179.751 118.283 180.159C117.298 180.567 116.402 181.166 115.648 181.92C114.893 182.674 114.295 183.57 113.887 184.555C113.479 185.541 113.268 186.597 113.268 187.664C113.268 188.731 113.479 189.787 113.887 190.773C114.295 191.758 114.893 192.654 115.648 193.408C116.402 194.163 117.298 194.761 118.283 195.169C119.269 195.577 120.325 195.787 121.392 195.787C123.546 195.787 125.613 194.932 127.136 193.408C128.659 191.885 129.515 189.819 129.515 187.664ZM117.117 210.516C117.117 208.361 116.261 206.295 114.738 204.771C113.214 203.248 111.148 202.392 108.993 202.392C106.839 202.392 104.773 203.248 103.249 204.771C101.726 206.295 100.87 208.361 100.87 210.516C100.87 212.67 101.726 214.736 103.249 216.26C104.773 217.783 106.839 218.639 108.993 218.639C111.148 218.639 113.214 217.783 114.738 216.26C116.261 214.736 117.117 212.67 117.117 210.516Z" fill="#FF9079" stroke="#FF9079"/>
<path d="M145.55 111.347L145.465 111.341C143.774 111.217 142.303 112.487 142.178 114.178L137.936 171.951C137.812 173.642 139.082 175.113 140.773 175.237L140.857 175.244C142.548 175.368 144.02 174.098 144.144 172.406L148.387 114.634C148.511 112.943 147.241 111.471 145.55 111.347Z" fill="#FFD59A" stroke="#FFD59A"/>
<path d="M166.289 165.469C167.689 165.997 168.868 166.622 169.824 167.344C170.171 170.025 171.124 172.462 172.683 174.656C173.589 175.928 174.468 177.089 175.318 178.139C175.561 178.442 175.488 178.594 175.097 178.594C173.182 178.594 171.377 178.808 169.683 179.236C168.439 179.552 167.508 179.978 166.889 180.516C165.611 181.631 165.85 182.895 167.607 184.308C169.882 186.13 172.686 187.184 176.021 187.472C176.349 187.5 176.543 187.659 176.602 187.95C171.736 188.781 167.01 188.312 162.422 186.544C160.882 186.053 159.56 185.245 158.457 184.12C157.96 183.617 157.65 183.145 157.529 182.705C157.35 182.055 157.488 181.456 157.941 180.909C158.491 180.247 159.307 179.761 160.388 179.452C162.316 178.898 164.313 178.653 166.379 178.716C166.666 178.722 166.724 178.605 166.552 178.364L162.539 172.716L161.232 169.102L161.485 166.036C162.935 164.995 164.536 164.806 166.289 165.469Z" fill="#99AF17" stroke="#99AF17"/>
<path d="M169.823 167.344C175.06 170.737 178.956 175.292 181.509 181.008C181.538 181.068 181.587 181.115 181.649 181.141C181.71 181.167 181.779 181.17 181.842 181.148C182.951 180.761 184.021 180.491 185.053 180.338C191.181 179.428 197.067 180.219 202.71 182.709C203.932 183.25 204.992 183.992 205.889 184.936C206.579 185.664 206.965 186.375 207.046 187.069C207.165 188.081 206.695 188.88 205.635 189.464C203.457 190.658 200.889 191.259 197.929 191.269C195.439 191.294 193.004 191.059 190.626 190.566C190.254 190.488 190.198 190.587 190.457 190.866C192.389 192.953 193.785 195.33 194.648 197.995C194.976 199.011 195.098 199.844 195.014 200.494C194.86 201.706 194.142 202.341 192.857 202.397C192.376 202.416 191.806 202.317 191.146 202.102C190.468 201.88 189.926 201.652 189.52 201.417C184.104 198.283 180.293 193.794 178.087 187.95C178.06 187.876 178.013 187.813 177.956 187.771C177.898 187.73 177.833 187.714 177.773 187.725L176.601 187.95C176.542 187.659 176.348 187.5 176.02 187.472C172.685 187.184 169.881 186.13 167.606 184.308C165.85 182.895 165.61 181.631 166.889 180.516C167.507 179.978 168.439 179.552 169.682 179.236C171.376 178.808 173.181 178.594 175.096 178.594C175.487 178.594 175.56 178.442 175.317 178.139C174.467 177.089 173.589 175.928 172.682 174.656C171.123 172.463 170.17 170.025 169.823 167.344Z" fill="#CCC033" stroke="#CCC033"/>
<path d="M98.4281 187.603C102.915 187.603 106.552 183.966 106.552 179.48C106.552 174.993 102.915 171.356 98.4281 171.356C93.9417 171.356 90.3047 174.993 90.3047 179.48C90.3047 183.966 93.9417 187.603 98.4281 187.603Z" fill="#FF624B" stroke="#FF624B"/>
<path d="M160.782 172.598L162.539 172.716L166.552 178.364C166.724 178.605 166.666 178.722 166.379 178.716C164.313 178.653 162.316 178.898 160.388 179.452C159.307 179.761 158.491 180.247 157.941 180.909C157.488 181.456 157.35 182.055 157.529 182.705C157.65 183.145 157.96 183.617 158.457 184.12C159.56 185.245 160.882 186.053 162.422 186.544C161.991 186.856 161.613 187.227 161.288 187.655C158.116 191.827 155.868 196.453 154.543 201.534C154.302 202.453 154.194 203.042 154.219 203.302C153.279 204.58 152.458 206.227 151.758 208.242C151.243 209.73 151.594 210.83 152.813 211.542C152.447 211.958 152.33 212.459 152.461 213.047C152.308 215.041 152.302 217.033 152.443 219.023C151.333 218.955 150.529 219.316 150.029 220.106C149.569 220.837 148.939 222.214 148.139 224.236C147.421 226.052 147.885 227.244 149.532 227.813C150.522 228.153 151.372 227.831 152.082 226.847C152.194 226.691 152.471 226.153 152.911 225.234L153.132 225.642C153.254 225.867 153.319 226.003 153.329 226.05C154.272 230.666 156.077 234.908 158.743 238.777C158.814 238.883 158.932 238.977 159.094 239.058C159.413 239.22 159.585 239.489 159.61 239.864C159.538 239.886 159.489 239.931 159.464 240C158.683 240 157.902 240 157.121 240C154.649 239.759 152.282 239.134 150.019 238.125C147.232 236.341 144.921 234.069 143.086 231.309C139.593 224.866 137.846 217.958 137.846 210.586C137.846 203.37 139.133 196.583 141.708 190.223C143.693 185.323 146.697 180.939 150.722 177.07C153.65 174.642 157.004 173.152 160.782 172.598ZM155.108 193.375C155.224 193.107 155.287 192.819 155.292 192.528C155.297 192.236 155.244 191.946 155.137 191.675C155.03 191.403 154.871 191.155 154.668 190.946C154.466 190.736 154.224 190.568 153.956 190.451L153.758 190.365C153.218 190.13 152.606 190.12 152.058 190.336C151.51 190.552 151.07 190.977 150.835 191.517L148.981 195.781C148.864 196.049 148.802 196.337 148.797 196.629C148.792 196.92 148.844 197.21 148.951 197.482C149.058 197.753 149.217 198.001 149.42 198.211C149.623 198.421 149.865 198.589 150.132 198.705L150.33 198.791C150.87 199.026 151.482 199.037 152.03 198.821C152.579 198.605 153.019 198.18 153.254 197.639L155.108 193.375Z" fill="#FF4B34" stroke="#FF4B34"/>
<path d="M121.392 195.787C125.878 195.787 129.515 192.151 129.515 187.664C129.515 183.178 125.878 179.541 121.392 179.541C116.906 179.541 113.269 183.178 113.269 187.664C113.269 192.151 116.906 195.787 121.392 195.787Z" fill="#FF624B" stroke="#FF624B"/>
<path d="M162.421 186.544C167.009 188.312 171.736 188.781 176.601 187.95L177.773 187.725C177.833 187.714 177.898 187.73 177.956 187.771C178.013 187.813 178.06 187.876 178.087 187.95C180.293 193.794 184.104 198.283 189.52 201.417C189.926 201.652 190.468 201.88 191.146 202.102C191.806 202.317 192.376 202.416 192.857 202.397C194.142 202.341 194.861 201.706 195.014 200.494C195.098 199.844 194.976 199.011 194.648 197.995C193.786 195.33 192.389 192.953 190.457 190.866C190.198 190.587 190.254 190.488 190.626 190.566C193.004 191.059 195.439 191.294 197.929 191.269C200.651 195.913 201.284 200.877 199.828 206.161C198.262 211.845 195.686 216.947 192.098 221.466C190.232 223.812 188.087 226.078 185.662 228.262C181.925 231.628 177.703 234.417 172.996 236.63C168.681 238.661 164.218 239.739 159.609 239.864C159.584 239.489 159.412 239.22 159.093 239.058C158.931 238.977 158.814 238.883 158.742 238.777C156.076 234.908 154.271 230.666 153.328 226.05C153.318 226.003 153.253 225.867 153.131 225.642L152.911 225.234C153.386 224.009 153.656 223.336 153.721 223.214C154.731 221.289 154.304 219.892 152.442 219.023C152.301 217.033 152.307 215.041 152.461 213.047C152.329 212.459 152.446 211.958 152.812 211.542C154.053 211.948 154.981 211.698 155.596 210.792C156.146 209.977 156.825 208.431 157.631 206.156C158.093 204.856 157.806 203.881 156.768 203.231C156.006 202.756 155.156 202.78 154.218 203.302C154.193 203.042 154.301 202.453 154.542 201.534C155.867 196.453 158.115 191.827 161.287 187.655C161.612 187.227 161.99 186.856 162.421 186.544ZM168.656 198.129C168.891 197.586 168.901 196.972 168.683 196.422C168.465 195.872 168.037 195.43 167.494 195.195L167.305 195.113C167.036 194.997 166.747 194.935 166.454 194.93C166.161 194.926 165.87 194.979 165.598 195.087C165.325 195.195 165.077 195.355 164.866 195.559C164.656 195.763 164.488 196.006 164.371 196.275L162.524 200.543C162.289 201.086 162.28 201.7 162.498 202.25C162.716 202.8 163.143 203.241 163.686 203.476L163.875 203.558C164.144 203.675 164.433 203.737 164.726 203.742C165.019 203.746 165.31 203.693 165.583 203.585C165.855 203.477 166.104 203.317 166.314 203.113C166.525 202.909 166.693 202.666 166.809 202.397L168.656 198.129ZM178.651 204.835C178.884 204.292 178.891 203.679 178.672 203.131C178.453 202.583 178.025 202.144 177.482 201.911L177.284 201.826C176.741 201.594 176.128 201.586 175.58 201.806C175.031 202.025 174.593 202.453 174.36 202.996L172.536 207.253C172.303 207.795 172.295 208.408 172.515 208.957C172.734 209.505 173.162 209.944 173.705 210.176L173.903 210.261C174.446 210.494 175.059 210.501 175.607 210.282C176.155 210.063 176.594 209.634 176.827 209.092L178.651 204.835ZM190.193 207.919C190.309 207.651 190.37 207.363 190.374 207.071C190.378 206.779 190.325 206.49 190.217 206.219C190.109 205.947 189.949 205.7 189.746 205.491C189.542 205.282 189.299 205.115 189.031 204.999L188.833 204.914C188.566 204.799 188.277 204.737 187.986 204.733C187.694 204.729 187.404 204.782 187.133 204.89C186.862 204.998 186.615 205.158 186.406 205.362C186.196 205.565 186.029 205.808 185.914 206.076L184.075 210.347C183.959 210.615 183.898 210.903 183.894 211.195C183.89 211.486 183.943 211.776 184.051 212.047C184.159 212.318 184.319 212.565 184.522 212.775C184.726 212.984 184.968 213.151 185.236 213.266L185.435 213.352C185.976 213.585 186.587 213.593 187.135 213.375C187.682 213.157 188.121 212.731 188.354 212.19L190.193 207.919ZM167.25 215.863C167.483 215.323 167.491 214.712 167.274 214.166C167.056 213.62 166.631 213.182 166.091 212.949L165.893 212.864C165.353 212.632 164.742 212.623 164.196 212.84C163.65 213.058 163.212 213.483 162.979 214.023L161.136 218.303C160.904 218.843 160.895 219.453 161.113 220C161.33 220.546 161.756 220.984 162.296 221.216L162.494 221.302C162.761 221.417 163.049 221.478 163.34 221.482C163.631 221.486 163.92 221.433 164.191 221.325C164.461 221.218 164.708 221.058 164.917 220.855C165.125 220.652 165.292 220.41 165.407 220.142L167.25 215.863ZM179.701 217.87C179.817 217.601 179.88 217.312 179.885 217.019C179.89 216.726 179.838 216.435 179.73 216.162C179.623 215.89 179.463 215.641 179.259 215.43C179.056 215.219 178.813 215.051 178.544 214.934L178.346 214.848C178.078 214.731 177.789 214.668 177.496 214.663C177.203 214.658 176.911 214.711 176.639 214.818C176.366 214.925 176.117 215.085 175.907 215.289C175.696 215.492 175.527 215.736 175.41 216.004L173.567 220.243C173.451 220.512 173.388 220.801 173.383 221.094C173.378 221.387 173.43 221.678 173.538 221.95C173.645 222.223 173.805 222.472 174.009 222.682C174.212 222.893 174.455 223.062 174.724 223.179L174.922 223.265C175.464 223.501 176.079 223.511 176.629 223.294C177.18 223.078 177.622 222.651 177.858 222.108L179.701 217.87ZM168.273 228.94C168.389 228.673 168.451 228.386 168.455 228.095C168.46 227.804 168.407 227.514 168.3 227.244C168.193 226.973 168.033 226.726 167.831 226.517C167.628 226.308 167.386 226.141 167.119 226.025L166.921 225.939C166.382 225.706 165.771 225.696 165.224 225.913C164.678 226.129 164.239 226.554 164.006 227.094L162.166 231.344C162.051 231.611 161.989 231.899 161.984 232.19C161.98 232.481 162.033 232.77 162.14 233.041C162.247 233.311 162.406 233.558 162.609 233.768C162.812 233.977 163.054 234.144 163.321 234.259L163.519 234.345C164.058 234.579 164.669 234.588 165.215 234.372C165.762 234.155 166.201 233.73 166.434 233.191L168.273 228.94Z" fill="#FF624B" stroke="#FF624B"/>
<path d="M153.956 190.451L153.758 190.365C152.633 189.876 151.324 190.392 150.835 191.517L148.981 195.781C148.491 196.907 149.007 198.216 150.132 198.705L150.33 198.791C151.455 199.28 152.764 198.765 153.253 197.639L155.108 193.375C155.597 192.25 155.081 190.941 153.956 190.451Z" fill="#8C4C17" stroke="#8C4C17"/>
<path d="M167.495 195.195L167.306 195.113C166.175 194.624 164.861 195.144 164.372 196.275L162.525 200.543C162.036 201.674 162.556 202.987 163.687 203.477L163.876 203.558C165.007 204.048 166.32 203.528 166.81 202.397L168.656 198.129C169.146 196.998 168.626 195.685 167.495 195.195Z" fill="#8C4C17" stroke="#8C4C17"/>
<path d="M177.482 201.911L177.284 201.826C176.154 201.342 174.845 201.866 174.36 202.996L172.536 207.253C172.051 208.383 172.575 209.692 173.705 210.176L173.903 210.261C175.034 210.746 176.343 210.222 176.827 209.092L178.651 204.835C179.136 203.705 178.612 202.396 177.482 201.911Z" fill="#8C4C17" stroke="#8C4C17"/>
<path d="M108.994 218.639C113.48 218.639 117.117 215.002 117.117 210.516C117.117 206.029 113.48 202.392 108.994 202.392C104.507 202.392 100.87 206.029 100.87 210.516C100.87 215.002 104.507 218.639 108.994 218.639Z" fill="#FF624B" stroke="#FF624B"/>
<path d="M156.769 203.231C157.807 203.881 158.094 204.856 157.632 206.156C156.825 208.431 156.147 209.977 155.597 210.792C154.982 211.698 154.054 211.948 152.813 211.542C151.594 210.83 151.243 209.73 151.758 208.242C152.458 206.227 153.279 204.58 154.219 203.302C155.157 202.78 156.007 202.756 156.769 203.231Z" fill="#8C4C17" stroke="#8C4C17"/>
<path d="M189.032 204.999L188.834 204.914C187.707 204.429 186.399 204.949 185.914 206.076L184.075 210.347C183.589 211.474 184.11 212.781 185.237 213.266L185.435 213.352C186.562 213.837 187.869 213.317 188.354 212.19L190.194 207.919C190.679 206.792 190.159 205.485 189.032 204.999Z" fill="#8C4C17" stroke="#8C4C17"/>
<path d="M166.091 212.949L165.893 212.864C164.768 212.38 163.464 212.899 162.979 214.023L161.136 218.303C160.652 219.428 161.171 220.732 162.296 221.216L162.494 221.302C163.619 221.786 164.923 221.267 165.407 220.142L167.25 215.863C167.735 214.738 167.216 213.434 166.091 212.949Z" fill="#8C4C17" stroke="#8C4C17"/>
<path d="M178.545 214.934L178.347 214.848C177.217 214.356 175.902 214.874 175.411 216.004L173.568 220.243C173.077 221.373 173.595 222.687 174.725 223.179L174.922 223.265C176.052 223.756 177.367 223.238 177.858 222.108L179.701 217.87C180.193 216.74 179.675 215.425 178.545 214.934Z" fill="#8C4C17" stroke="#8C4C17"/>
<path d="M152.442 219.023C154.305 219.892 154.731 221.289 153.722 223.214C153.656 223.336 153.386 224.009 152.911 225.234C152.47 226.153 152.194 226.691 152.081 226.847C151.372 227.831 150.522 228.153 149.531 227.812C147.884 227.244 147.42 226.052 148.139 224.236C148.939 222.214 149.569 220.837 150.028 220.106C150.528 219.316 151.333 218.955 152.442 219.023Z" fill="#8C4C17" stroke="#8C4C17"/>
<path d="M167.119 226.025L166.922 225.939C165.798 225.453 164.492 225.97 164.006 227.094L162.167 231.344C161.681 232.468 162.197 233.773 163.321 234.259L163.519 234.345C164.643 234.831 165.948 234.315 166.434 233.191L168.274 228.94C168.76 227.817 168.243 226.511 167.119 226.025Z" fill="#8C4C17" stroke="#8C4C17"/>
<path d="M143.086 231.309C144.92 234.069 147.231 236.341 150.019 238.125C148.763 238.953 147.389 239.5 145.898 239.766C143.895 239.831 141.894 239.909 139.894 240C139.072 240 138.252 240 137.433 240C124.436 239.853 111.438 239.82 98.4375 239.902C96.5125 239.82 94.5891 239.853 92.6672 240C92.1578 240 91.65 240 91.1438 240C91.0719 239.766 90.8859 239.688 90.5859 239.766C90.5859 239.766 89.0609 239.766 86.0109 239.766C85.9547 239.766 85.8923 239.749 85.8277 239.718C85.7632 239.686 85.6978 239.64 85.6359 239.583L85.5375 239.494C85.4862 239.446 85.4004 239.415 85.2984 239.409C84.0953 239.347 82.9188 238.967 81.7688 238.27C79.0813 236.645 77.2937 234.377 76.4062 231.464L88.7109 231.427L143.086 231.309Z" fill="#FFEACF" stroke="#FFEACF"/>
</g>
<defs>
<clipPath id="clip0_535_1674">
<rect width="240" height="240" fill="white"/>
</clipPath>
</defs>
</svg>
