<?xml version="1.0" encoding="UTF-8" standalone="no"?>
<!DOCTYPE svg PUBLIC "-//W3C//DTD SVG 1.1//EN" "http://www.w3.org/Graphics/SVG/1.1/DTD/svg11.dtd">
<svg xmlns="http://www.w3.org/2000/svg" version="1.1" viewBox="0 0 512 512">
<path fill="rgb(133,191,63)" fill-opacity="1.000" d="M 259.00 19.61 Q 260.73 36.55 256.75 53.21 Q 256.46 53.69 254.56 55.06 Q 241.26 64.68 239.46 82.00 Q 238.76 81.87 236.94 80.81 Q 226.81 74.93 215.72 76.02 Q 205.58 77.02 197.30 83.12 Q 187.17 90.58 183.50 103.79 Q 175.13 102.13 169.94 99.81 Q 168.17 99.02 167.00 99.71 Q 167.55 99.32 167.44 98.86 Q 167.36 98.55 166.87 98.34 Q 158.97 95.07 152.31 89.70 Q 151.73 89.23 151.00 89.21 Q 151.02 89.06 150.98 88.93 Q 150.95 88.83 150.83 88.73 Q 137.55 78.06 129.56 65.69 Q 124.59 57.98 130.50 53.05 Q 132.54 51.34 136.14 50.81 Q 171.72 45.56 201.00 66.29 L 204.08 68.97 Q 204.59 69.42 204.66 68.77 L 205.00 65.46 Q 205.26 65.20 205.56 63.81 Q 210.70 40.45 227.55 23.56 Q 237.35 13.74 243.81 10.06 Q 251.92 5.45 256.26 11.05 Q 258.41 13.81 259.00 19.61 Z"/>
<path fill="rgb(168,226,244)" fill-opacity="1.000" d="M 303.23 10.12 Q 311.17 12.40 310.19 22.44 Q 307.18 42.69 304.54 63.00 L 298.29 108.25 L 295.29 127.25 Q 294.28 137.43 292.25 147.46 Q 282.60 149.13 273.07 146.90 Q 272.32 146.73 272.25 146.04 L 275.04 126.50 L 277.50 108.21 L 282.96 70.75 L 285.00 56.04 L 285.71 50.00 Q 288.38 33.40 290.75 16.75 Q 292.28 12.45 295.89 10.63 Q 299.20 8.96 303.23 10.12 Z"/>
<path fill="rgb(95,19,103)" fill-opacity="1.000" d="M 285.71 50.00 L 285.00 56.04 Q 283.95 56.00 283.81 55.94 Q 277.45 53.21 271.34 55.25 Q 267.67 56.48 266.44 59.28 Q 264.71 63.20 269.31 66.44 Q 275.17 70.56 282.96 70.75 L 277.50 108.21 Q 266.07 109.25 254.75 107.54 Q 252.08 91.74 239.46 82.00 Q 241.26 64.68 254.56 55.06 Q 256.46 53.69 256.75 53.21 Q 257.71 53.16 259.50 52.25 Q 271.82 45.97 285.71 50.00 Z"/>
<path fill="rgb(37,0,55)" fill-opacity="1.000" d="M 283.81 55.94 Q 283.95 56.00 285.00 56.04 L 282.96 70.75 Q 275.17 70.56 269.31 66.44 Q 264.71 63.20 266.44 59.28 Q 267.67 56.48 271.34 55.25 Q 277.45 53.21 283.81 55.94 Z"/>
<path fill="rgb(95,19,103)" fill-opacity="1.000" d="M 304.54 63.00 Q 306.22 66.30 308.75 68.96 Q 308.52 68.94 308.40 69.02 A 0.45 0.25 65.8 0 0 308.36 69.51 Q 312.29 78.83 311.46 89.00 Q 310.04 97.43 306.44 103.19 Q 303.87 107.30 298.29 108.25 L 304.54 63.00 Z"/>
<path fill="rgb(208,239,249)" fill-opacity="1.000" d="M 205.00 65.46 L 204.66 68.77 Q 204.59 69.42 204.08 68.97 L 201.00 66.29 L 205.00 65.46 Z"/>
<path fill="rgb(208,239,249)" fill-opacity="1.000" d="M 308.75 68.96 Q 322.58 72.90 335.23 79.73 Q 345.50 85.26 353.97 93.28 Q 360.89 99.82 365.19 108.31 Q 369.64 117.10 368.46 129.00 Q 364.02 145.50 350.96 156.50 Q 335.51 168.75 317.94 174.94 Q 284.53 186.70 248.00 186.21 Q 244.93 171.86 258.45 168.55 Q 259.17 168.38 258.45 168.33 L 256.50 168.21 Q 267.50 167.96 280.75 166.00 Q 303.45 162.65 323.25 153.25 Q 335.57 147.40 343.81 138.56 Q 354.12 127.52 349.27 116.30 Q 346.19 109.17 336.13 101.53 Q 325.07 93.12 311.46 89.00 Q 312.29 78.83 308.36 69.51 A 0.45 0.25 65.8 0 1 308.40 69.02 Q 308.52 68.94 308.75 68.96 Z"/>
<path fill="rgb(240,57,116)" fill-opacity="1.000" d="M 236.94 80.81 Q 238.76 81.87 239.46 82.00 Q 252.08 91.74 254.75 107.54 Q 255.49 117.21 252.05 126.23 Q 250.87 129.35 248.00 130.25 Q 234.30 134.57 219.44 131.81 Q 207.83 129.66 198.61 133.80 Q 195.16 135.35 194.37 135.45 Q 191.59 135.81 189.81 133.44 Q 180.32 120.72 183.50 103.79 Q 187.17 90.58 197.30 83.12 Q 205.58 77.02 215.72 76.02 Q 226.81 74.93 236.94 80.81 Z M 220.9937 85.7074 A 12.92 7.72 -22.3 0 0 206.1106 83.4674 A 12.92 7.72 -22.3 0 0 197.0863 95.5126 A 12.92 7.72 -22.3 0 0 211.9694 97.7526 A 12.92 7.72 -22.3 0 0 220.9937 85.7074 Z"/>
<ellipse fill="rgb(192,0,59)" fill-opacity="1.000" cx="0" cy="0" rx="12.92" ry="7.72" transform="translate(209.04,90.61) rotate(-22.3)"/>
<path fill="rgb(255,140,187)" fill-opacity="1.000" d="M 311.46 89.00 Q 325.07 93.12 336.13 101.53 Q 346.19 109.17 349.27 116.30 Q 354.12 127.52 343.81 138.56 Q 335.57 147.40 323.25 153.25 Q 303.45 162.65 280.75 166.00 Q 267.50 167.96 256.50 168.21 Q 249.38 168.18 242.25 168.00 Q 237.69 168.41 236.07 171.81 Q 235.25 173.54 235.25 178.30 Q 235.25 181.57 235.25 185.12 A 0.89 0.88 -89.7 0 0 236.12 186.01 L 248.00 186.21 Q 284.53 186.70 317.94 174.94 Q 335.51 168.75 350.96 156.50 Q 350.83 156.93 350.67 157.35 Q 350.50 157.78 350.51 158.19 Q 350.71 171.22 350.75 184.25 Q 351.30 189.02 353.04 193.50 Q 332.51 209.89 307.53 216.95 Q 298.26 219.58 288.03 221.38 Q 278.67 223.03 267.00 224.00 Q 251.52 225.29 236.01 224.50 A 0.49 0.48 -88.3 0 0 235.50 224.99 Q 235.50 233.62 235.71 241.74 Q 235.84 246.70 235.00 248.75 Q 233.38 252.70 229.85 253.94 Q 226.57 255.09 223.26 253.46 Q 218.38 251.06 218.44 244.50 Q 218.53 233.62 218.46 222.75 L 218.50 183.96 Q 218.99 178.50 218.70 173.03 Q 218.51 169.50 217.43 167.67 Q 215.68 164.70 212.29 164.61 Q 208.72 164.51 206.55 167.12 Q 204.33 169.81 205.00 174.00 Q 204.62 178.04 205.50 181.96 Q 204.81 183.11 205.00 185.00 Q 205.17 186.73 205.00 217.50 Q 204.99 219.47 205.50 220.21 Q 204.83 221.25 205.00 223.00 Q 205.45 227.62 202.70 230.55 Q 200.10 233.31 196.10 233.21 Q 191.97 233.11 189.73 229.69 Q 188.25 227.46 188.07 223.37 Q 187.94 220.35 188.05 216.72 A 1.61 1.61 -80.3 0 0 186.94 215.15 Q 165.11 208.12 147.32 193.18 Q 146.89 192.82 146.96 192.25 Q 149.75 184.55 149.75 181.50 Q 149.75 170.25 149.75 157.81 A 2.08 1.57 29.0 0 0 149.18 156.53 L 146.54 153.75 Q 159.48 165.48 175.71 172.00 Q 181.35 174.96 187.47 176.80 A 0.42 0.41 -79.0 0 0 187.99 176.44 Q 188.70 169.15 187.96 161.88 Q 187.73 159.57 186.82 158.37 Q 185.68 156.87 183.75 156.00 Q 177.17 153.04 169.00 148.54 Q 165.11 146.21 159.44 141.31 Q 153.13 135.87 150.62 128.71 Q 149.12 124.44 150.03 120.17 Q 150.97 115.69 153.56 112.06 Q 158.72 104.83 167.00 99.71 Q 168.17 99.02 169.94 99.81 Q 175.13 102.13 183.50 103.79 Q 180.32 120.72 189.81 133.44 Q 191.59 135.81 194.37 135.45 Q 195.16 135.35 198.61 133.80 Q 207.83 129.66 219.44 131.81 Q 234.30 134.57 248.00 130.25 Q 250.87 129.35 252.05 126.23 Q 255.49 117.21 254.75 107.54 Q 266.07 109.25 277.50 108.21 L 275.04 126.50 Q 267.15 127.31 262.94 131.94 Q 258.32 137.01 263.25 141.75 Q 266.34 144.72 270.44 146.06 Q 271.47 146.86 272.25 146.04 Q 272.32 146.73 273.07 146.90 Q 282.60 149.13 292.25 147.46 Q 300.12 146.54 305.40 141.12 Q 306.96 139.52 307.27 137.87 Q 307.67 135.72 306.56 133.94 Q 302.86 127.99 295.29 127.25 L 298.29 108.25 Q 303.87 107.30 306.44 103.19 Q 310.04 97.43 311.46 89.00 Z"/>
<path fill="rgb(208,239,249)" fill-opacity="1.000" d="M 151.00 89.21 Q 151.73 89.23 152.31 89.70 Q 158.97 95.07 166.87 98.34 Q 167.36 98.55 167.44 98.86 Q 167.55 99.32 167.00 99.71 Q 158.72 104.83 153.56 112.06 Q 150.97 115.69 150.03 120.17 Q 149.12 124.44 150.62 128.71 Q 153.13 135.87 159.44 141.31 Q 165.11 146.21 169.00 148.54 Q 168.97 149.46 169.58 150.17 Q 177.67 159.55 175.71 172.00 Q 159.48 165.48 146.54 153.75 Q 136.02 143.74 132.04 129.75 Q 130.48 117.01 136.31 106.31 Q 141.61 96.59 151.00 89.21 Z"/>
<path fill="rgb(240,57,116)" fill-opacity="1.000" d="M 275.04 126.50 L 272.25 146.04 Q 271.47 146.86 270.44 146.06 Q 266.34 144.72 263.25 141.75 Q 258.32 137.01 262.94 131.94 Q 267.15 127.31 275.04 126.50 Z"/>
<path fill="rgb(240,57,116)" fill-opacity="1.000" d="M 306.56 133.94 Q 307.67 135.72 307.27 137.87 Q 306.96 139.52 305.40 141.12 Q 300.12 146.54 292.25 147.46 Q 294.28 137.43 295.29 127.25 Q 302.86 127.99 306.56 133.94 Z"/>
<path fill="rgb(168,226,244)" fill-opacity="1.000" d="M 368.46 129.00 Q 368.93 156.44 368.50 168.75 Q 367.96 184.23 378.32 194.43 Q 391.26 207.19 393.56 225.13 Q 393.57 225.14 393.81 228.38 Q 394.60 238.96 406.00 238.75 Q 408.91 239.04 411.84 239.05 Q 415.80 239.07 417.66 239.34 Q 440.62 242.61 451.04 263.75 L 451.01 263.97 A 0.34 0.29 0.5 0 1 450.72 264.21 Q 441.71 265.35 433.00 268.00 Q 431.87 268.03 431.29 269.00 Q 424.36 259.40 412.71 259.01 Q 409.37 258.90 409.29 258.89 Q 404.56 258.63 402.75 259.00 Q 393.88 260.80 393.75 270.00 Q 393.78 275.50 393.71 281.00 Q 384.52 284.18 375.79 288.50 Q 375.72 258.75 375.75 229.00 Q 375.56 222.38 372.42 216.57 Q 367.76 207.97 360.02 202.00 Q 355.56 198.56 353.04 193.50 Q 351.30 189.02 350.75 184.25 Q 350.71 171.22 350.51 158.19 Q 350.50 157.78 350.67 157.35 Q 350.83 156.93 350.96 156.50 Q 364.02 145.50 368.46 129.00 Z"/>
<path fill="rgb(168,226,244)" fill-opacity="1.000" d="M 132.04 129.75 Q 136.02 143.74 146.54 153.75 L 149.18 156.53 A 2.08 1.57 29.0 0 1 149.75 157.81 Q 149.75 170.25 149.75 181.50 Q 149.75 184.55 146.96 192.25 Q 145.48 195.53 143.40 198.41 Q 142.15 200.16 138.46 203.46 Q 131.62 209.58 127.49 217.90 Q 124.79 223.33 124.75 226.25 Q 124.14 275.53 124.56 408.72 Q 124.56 408.75 124.75 410.13 Q 124.86 410.95 124.46 411.75 Q 115.48 409.79 106.79 406.75 Q 106.65 232.78 106.75 227.50 Q 106.86 221.78 109.01 215.63 Q 113.22 203.62 123.56 192.81 Q 130.99 185.05 131.72 174.25 Q 132.20 167.00 131.75 159.75 Q 131.28 152.23 132.04 129.75 Z"/>
<path fill="rgb(135,210,237)" fill-opacity="1.000" d="M 169.00 148.54 Q 177.17 153.04 183.75 156.00 Q 185.68 156.87 186.82 158.37 Q 187.73 159.57 187.96 161.88 Q 188.70 169.15 187.99 176.44 A 0.42 0.41 -79.0 0 1 187.47 176.80 Q 181.35 174.96 175.71 172.00 Q 177.67 159.55 169.58 150.17 Q 168.97 149.46 169.00 148.54 Z"/>
<path fill="rgb(135,210,237)" fill-opacity="1.000" d="M 218.70 173.03 Q 218.99 178.50 218.50 183.96 L 205.50 181.96 Q 204.62 178.04 205.00 174.00 Q 204.33 169.81 206.55 167.12 Q 208.72 164.51 212.29 164.61 Q 215.68 164.70 217.43 167.67 Q 218.51 169.50 218.70 173.03 Z"/>
<path fill="rgb(135,210,237)" fill-opacity="1.000" d="M 242.25 168.00 Q 249.38 168.18 256.50 168.21 L 258.45 168.33 Q 259.17 168.38 258.45 168.55 Q 244.93 171.86 248.00 186.21 L 236.12 186.01 A 0.89 0.88 -89.7 0 1 235.25 185.12 Q 235.25 181.57 235.25 178.30 Q 235.25 173.54 236.07 171.81 Q 237.69 168.41 242.25 168.00 Z"/>
<path fill="rgb(255,120,173)" fill-opacity="1.000" d="M 205.50 181.96 L 218.50 183.96 L 218.46 222.75 L 205.50 220.21 Q 204.99 219.47 205.00 217.50 Q 205.17 186.73 205.00 185.00 Q 204.81 183.11 205.50 181.96 Z"/>
<path fill="rgb(255,174,203)" fill-opacity="1.000" d="M 146.96 192.25 Q 146.89 192.82 147.32 193.18 Q 165.11 208.12 186.94 215.15 A 1.61 1.61 -80.3 0 1 188.05 216.72 Q 187.94 220.35 188.07 223.37 Q 188.25 227.46 189.73 229.69 Q 191.97 233.11 196.10 233.21 Q 200.10 233.31 202.70 230.55 Q 205.45 227.62 205.00 223.00 Q 204.83 221.25 205.50 220.21 L 218.46 222.75 Q 218.53 233.62 218.44 244.50 Q 218.38 251.06 223.26 253.46 Q 226.57 255.09 229.85 253.94 Q 233.38 252.70 235.00 248.75 Q 235.84 246.70 235.71 241.74 Q 235.50 233.62 235.50 224.99 A 0.49 0.48 -88.3 0 1 236.01 224.50 Q 251.52 225.29 267.00 224.00 Q 278.67 223.03 288.03 221.38 Q 298.26 219.58 307.53 216.95 Q 332.51 209.89 353.04 193.50 Q 355.56 198.56 360.02 202.00 Q 367.76 207.97 372.42 216.57 Q 375.56 222.38 375.75 229.00 Q 375.72 258.75 375.79 288.50 L 375.71 288.75 Q 357.35 297.85 341.33 310.59 Q 327.53 321.57 317.71 336.07 Q 310.92 346.10 310.90 346.13 Q 292.11 371.36 264.56 387.81 Q 220.77 413.97 170.00 416.25 Q 147.66 417.25 124.75 412.04 Q 124.52 411.98 124.46 411.75 Q 124.86 410.95 124.75 410.13 Q 124.56 408.75 124.56 408.72 Q 124.14 275.53 124.75 226.25 Q 124.79 223.33 127.49 217.90 Q 131.62 209.58 138.46 203.46 Q 142.15 200.16 143.40 198.41 Q 145.48 195.53 146.96 192.25 Z M 235.43 276.97 A 8.09 8.09 0 0 0 227.34 268.88 L 226.66 268.88 A 8.09 8.09 0 0 0 218.57 276.97 L 218.57 303.07 A 8.09 8.09 0 0 0 226.66 311.16 L 227.34 311.16 A 8.09 8.09 0 0 0 235.43 303.07 L 235.43 276.97 Z M 306.71 282.79 A 8.52 8.52 0 0 0 298.19 274.27 A 8.52 8.52 0 0 0 289.67 282.79 A 8.52 8.52 0 0 0 298.19 291.31 A 8.52 8.52 0 0 0 306.71 282.79 Z M 174.33 311.37 A 8.50 8.50 0 0 0 165.83 302.87 A 8.50 8.50 0 0 0 157.33 311.37 A 8.50 8.50 0 0 0 165.83 319.87 A 8.50 8.50 0 0 0 174.33 311.37 Z M 252.71 354.64 A 8.51 8.51 0 0 0 244.20 346.13 A 8.51 8.51 0 0 0 235.69 354.64 A 8.51 8.51 0 0 0 244.20 363.15 A 8.51 8.51 0 0 0 252.71 354.64 Z"/>
<path fill="rgb(91,193,231)" fill-opacity="1.000" d="M 451.04 263.75 Q 455.26 272.63 455.26 282.50 Q 455.25 321.38 455.25 360.25 Q 455.17 377.96 443.44 390.44 Q 432.66 401.90 416.50 403.75 Q 412.65 404.19 404.50 404.00 Q 399.19 403.87 396.24 407.61 Q 394.18 410.23 393.89 415.40 Q 393.68 419.19 393.75 424.25 Q 393.95 438.93 385.80 451.06 Q 379.41 460.56 370.43 467.67 Q 357.75 477.69 342.94 484.20 Q 319.32 494.57 293.84 498.76 Q 237.53 508.02 182.54 493.10 Q 161.46 487.38 142.63 476.33 Q 132.46 470.36 124.44 462.81 Q 116.72 455.55 111.50 445.75 Q 106.03 435.48 106.75 422.50 Q 106.72 414.63 106.79 406.75 Q 115.48 409.79 124.46 411.75 Q 124.52 411.98 124.75 412.04 Q 124.75 420.27 124.75 428.50 Q 126.85 439.64 134.82 447.68 Q 143.04 455.97 152.06 461.19 Q 167.40 470.05 185.81 475.27 Q 224.43 486.22 264.29 483.81 Q 275.01 483.16 284.20 481.95 Q 311.54 478.36 336.88 467.05 Q 347.69 462.23 357.22 455.23 Q 366.95 448.09 372.44 438.44 Q 375.37 433.29 375.75 426.50 Q 375.85 424.69 375.71 288.75 L 375.79 288.50 Q 384.52 284.18 393.71 281.00 Q 393.85 363.88 393.75 368.50 Q 393.69 371.29 393.83 373.64 Q 394.01 376.63 395.04 378.56 Q 397.75 383.69 404.25 384.00 Q 407.41 384.00 410.58 384.00 Q 414.36 384.00 416.85 383.41 Q 429.85 380.32 433.89 368.28 Q 435.25 364.25 435.25 356.55 Q 435.25 318.65 435.25 280.75 Q 434.66 274.40 431.29 269.00 Q 431.87 268.03 433.00 268.00 Q 441.71 265.35 450.72 264.21 A 0.34 0.29 0.5 0 0 451.01 263.97 L 451.04 263.75 Z"/>
<rect fill="rgb(255,140,187)" fill-opacity="1.000" x="-8.43" y="-21.14" width="16.86" height="42.28" rx="8.09" transform="translate(227.00,290.02) rotate(0.0)"/>
<circle fill="rgb(240,57,116)" fill-opacity="1.000" cx="298.19" cy="282.79" r="8.52"/>
<path fill="rgb(255,120,173)" fill-opacity="1.000" d="M 375.71 288.75 Q 375.85 424.69 375.75 426.50 Q 375.37 433.29 372.44 438.44 Q 366.95 448.09 357.22 455.23 Q 347.69 462.23 336.88 467.05 Q 311.54 478.36 284.20 481.95 Q 275.01 483.16 264.29 483.81 Q 224.43 486.22 185.81 475.27 Q 167.40 470.05 152.06 461.19 Q 143.04 455.97 134.82 447.68 Q 126.85 439.64 124.75 428.50 Q 124.75 420.27 124.75 412.04 Q 147.66 417.25 170.00 416.25 Q 220.77 413.97 264.56 387.81 Q 292.11 371.36 310.90 346.13 Q 310.92 346.10 317.71 336.07 Q 327.53 321.57 341.33 310.59 Q 357.35 297.85 375.71 288.75 Z M 326.60 402.50 A 8.51 8.51 0 0 0 318.09 393.99 A 8.51 8.51 0 0 0 309.58 402.50 A 8.51 8.51 0 0 0 318.09 411.01 A 8.51 8.51 0 0 0 326.60 402.50 Z M 207.84 439.16 A 8.50 8.50 0 0 0 199.34 430.66 A 8.50 8.50 0 0 0 190.84 439.16 A 8.50 8.50 0 0 0 199.34 447.66 A 8.50 8.50 0 0 0 207.84 439.16 Z"/>
<circle fill="rgb(255,140,187)" fill-opacity="1.000" cx="165.83" cy="311.37" r="8.50"/>
<circle fill="rgb(240,57,116)" fill-opacity="1.000" cx="244.20" cy="354.64" r="8.51"/>
<circle fill="rgb(255,174,203)" fill-opacity="1.000" cx="318.09" cy="402.50" r="8.51"/>
<circle fill="rgb(240,57,116)" fill-opacity="1.000" cx="199.34" cy="439.16" r="8.50"/>
</svg>