<?xml version="1.0" encoding="UTF-8" standalone="no"?>
<!DOCTYPE svg PUBLIC "-//W3C//DTD SVG 1.1//EN" "http://www.w3.org/Graphics/SVG/1.1/DTD/svg11.dtd">
<svg xmlns="http://www.w3.org/2000/svg" version="1.1" viewBox="0 0 512 512">
<path fill="rgb(255,203,55)" fill-opacity="1.000" d="M 249.56 0.00 Q 255.69 0.00 261.81 0.00 Q 324.17 1.75 378.00 32.71 L 377.77 33.10 A 0.91 0.83 12.3 0 1 377.04 33.52 Q 368.81 33.95 361.25 37.21 L 359.75 36.96 Q 330.12 26.94 303.64 42.94 Q 290.23 51.04 280.40 63.96 A 0.84 0.83 -48.4 0 1 279.14 64.04 Q 266.91 51.46 251.82 44.60 Q 242.09 40.18 232.66 39.29 Q 213.29 37.47 196.11 48.32 Q 183.67 56.18 174.15 67.41 Q 159.25 84.99 149.69 105.97 Q 126.97 155.83 77.34 178.97 Q 72.02 181.45 74.01 187.12 Q 74.65 188.94 77.44 191.31 Q 94.88 206.17 102.57 229.23 Q 107.86 245.08 109.29 261.75 Q 109.29 263.46 108.43 264.93 Q 83.11 308.17 75.50 357.75 Q 71.94 380.98 73.96 406.50 Q 73.99 406.82 74.23 407.46 Q 74.57 408.32 73.71 408.50 Q 12.31 339.16 11.00 247.25 Q 10.22 192.38 33.92 141.54 Q 38.13 132.51 43.13 123.79 Q 75.41 67.56 130.56 34.56 Q 184.72 2.16 249.56 0.00 Z"/>
<path fill="rgb(77,216,246)" fill-opacity="1.000" d="M 378.00 32.71 Q 431.80 63.67 464.31 116.19 Q 496.57 168.30 500.46 230.00 Q 500.09 230.23 499.70 230.40 Q 499.28 230.59 499.01 230.86 Q 482.80 246.59 472.44 267.69 Q 461.12 290.73 454.00 313.25 Q 445.98 337.37 438.05 361.52 Q 435.20 370.19 431.07 378.32 Q 419.01 402.06 394.94 409.85 Q 386.07 412.72 375.29 413.09 Q 362.69 413.54 350.23 410.78 Q 350.20 410.77 349.60 410.31 L 349.25 410.04 Q 372.42 402.26 384.21 380.90 Q 387.12 375.63 389.22 369.99 Q 396.42 350.74 402.25 331.04 Q 410.18 305.63 420.34 281.04 Q 429.70 258.35 444.06 240.56 Q 460.42 220.30 485.81 211.81 Q 485.84 211.80 487.71 211.24 Q 493.52 209.52 495.44 204.44 Q 497.27 199.58 494.36 196.32 Q 493.12 194.94 488.08 192.49 Q 464.93 181.23 448.47 161.82 Q 442.65 154.95 436.92 145.53 Q 427.75 130.48 420.19 112.56 Q 410.23 88.98 403.69 76.81 Q 397.89 66.03 391.06 57.94 Q 379.18 43.84 361.25 37.21 Q 368.81 33.95 377.04 33.52 A 0.91 0.83 12.3 0 0 377.77 33.10 L 378.00 32.71 Z"/>
<path fill="rgb(226,10,98)" fill-opacity="1.000" d="M 359.75 36.96 Q 346.86 40.58 337.06 48.81 Q 324.47 59.39 322.58 75.47 Q 322.05 80.00 322.54 85.53 Q 323.02 91.05 324.25 95.50 Q 327.64 107.79 334.71 120.77 Q 335.09 121.46 334.50 122.04 Q 327.15 120.33 320.25 121.00 Q 307.41 122.24 295.69 128.69 Q 281.58 136.45 271.80 145.55 Q 270.66 146.61 269.25 147.21 Q 260.24 135.09 248.44 127.81 Q 237.05 120.79 223.73 119.19 Q 213.71 117.99 203.87 120.22 Q 186.96 124.04 174.08 136.58 Q 161.99 148.35 148.71 158.75 Q 128.28 174.58 103.62 183.30 Q 102.92 183.55 103.50 184.01 Q 125.81 201.90 132.29 229.00 Q 120.56 244.03 110.96 260.50 Q 110.45 261.56 109.29 261.75 Q 107.86 245.08 102.57 229.23 Q 94.88 206.17 77.44 191.31 Q 74.65 188.94 74.01 187.12 Q 72.02 181.45 77.34 178.97 Q 126.97 155.83 149.69 105.97 Q 159.25 84.99 174.15 67.41 Q 183.67 56.18 196.11 48.32 Q 213.29 37.47 232.66 39.29 Q 242.09 40.18 251.82 44.60 Q 266.91 51.46 279.14 64.04 A 0.84 0.83 -48.4 0 0 280.40 63.96 Q 290.23 51.04 303.64 42.94 Q 330.12 26.94 359.75 36.96 Z"/>
<path fill="rgb(231,56,127)" fill-opacity="1.000" d="M 359.75 36.96 L 361.25 37.21 Q 379.18 43.84 391.06 57.94 Q 397.89 66.03 403.69 76.81 Q 410.23 88.98 420.19 112.56 Q 427.75 130.48 436.92 145.53 Q 442.65 154.95 448.47 161.82 Q 464.93 181.23 488.08 192.49 Q 493.12 194.94 494.36 196.32 Q 497.27 199.58 495.44 204.44 Q 493.52 209.52 487.71 211.24 Q 485.84 211.80 485.81 211.81 Q 460.42 220.30 444.06 240.56 Q 429.70 258.35 420.34 281.04 Q 410.18 305.63 402.25 331.04 Q 400.61 330.70 398.99 330.93 Q 389.40 332.30 379.75 331.56 Q 365.17 330.45 354.43 322.02 Q 347.11 316.28 342.51 307.36 Q 338.10 298.82 336.71 289.00 L 337.25 287.79 Q 349.40 268.48 363.94 252.94 Q 384.45 231.00 411.79 216.58 Q 429.38 207.31 448.83 203.06 Q 449.40 202.94 448.83 202.84 Q 434.52 200.53 422.59 193.40 Q 408.95 185.25 397.25 174.50 Q 396.03 173.38 395.29 173.25 Q 354.38 132.99 352.94 131.81 Q 344.70 125.10 334.50 122.04 Q 335.09 121.46 334.71 120.77 Q 327.64 107.79 324.25 95.50 Q 323.02 91.05 322.54 85.53 Q 322.05 80.00 322.58 75.47 Q 324.47 59.39 337.06 48.81 Q 346.86 40.58 359.75 36.96 Z"/>
<path fill="rgb(202,212,239)" fill-opacity="1.000" d="M 223.73 119.19 Q 237.05 120.79 248.44 127.81 Q 260.24 135.09 269.25 147.21 Q 267.39 147.75 265.92 148.91 Q 248.60 162.56 259.69 182.06 Q 260.32 183.54 261.04 185.00 Q 250.05 191.91 237.00 192.04 Q 223.85 191.63 213.12 184.15 Q 207.93 180.53 203.44 176.06 Q 200.82 174.18 198.69 174.06 Q 196.39 173.94 191.46 175.25 Q 165.25 178.57 148.71 158.75 Q 161.99 148.35 174.08 136.58 Q 186.96 124.04 203.87 120.22 Q 213.71 117.99 223.73 119.19 Z"/>
<path fill="rgb(224,231,252)" fill-opacity="1.000" d="M 334.50 122.04 Q 344.70 125.10 352.94 131.81 Q 354.38 132.99 395.29 173.25 Q 384.21 182.91 370.50 184.25 Q 355.09 185.76 339.69 179.31 Q 336.67 178.05 332.81 180.06 Q 328.41 183.66 323.60 186.63 Q 318.26 189.92 313.46 191.57 Q 298.84 196.60 283.54 191.50 Q 278.27 189.44 270.19 184.81 Q 265.84 182.32 261.04 185.00 Q 260.32 183.54 259.69 182.06 Q 248.60 162.56 265.92 148.91 Q 267.39 147.75 269.25 147.21 Q 270.66 146.61 271.80 145.55 Q 281.58 136.45 295.69 128.69 Q 307.41 122.24 320.25 121.00 Q 327.15 120.33 334.50 122.04 Z"/>
<path fill="rgb(36,68,127)" fill-opacity="1.000" d="M 148.71 158.75 Q 165.25 178.57 191.46 175.25 Q 157.02 196.77 132.29 229.00 Q 125.81 201.90 103.50 184.01 Q 102.92 183.55 103.62 183.30 Q 128.28 174.58 148.71 158.75 Z"/>
<path fill="rgb(181,8,78)" fill-opacity="1.000" d="M 395.29 173.25 Q 396.03 173.38 397.25 174.50 Q 408.95 185.25 422.59 193.40 Q 434.52 200.53 448.83 202.84 Q 449.40 202.94 448.83 203.06 Q 429.38 207.31 411.79 216.58 Q 384.45 231.00 363.94 252.94 Q 349.40 268.48 337.25 287.79 Q 335.11 286.43 334.25 284.00 Q 331.39 279.98 328.57 275.93 Q 323.84 269.16 318.30 263.08 Q 312.06 256.24 306.71 251.44 Q 293.77 239.84 277.31 234.19 Q 262.42 229.07 246.25 231.00 Q 241.04 232.14 235.75 232.71 Q 236.40 231.53 238.06 229.81 Q 258.61 208.55 282.31 193.06 Q 282.62 192.86 283.54 191.50 Q 298.84 196.60 313.46 191.57 Q 318.26 189.92 323.60 186.63 Q 328.41 183.66 332.81 180.06 Q 336.67 178.05 339.69 179.31 Q 355.09 185.76 370.50 184.25 Q 384.21 182.91 395.29 173.25 Z"/>
<path fill="rgb(181,8,78)" fill-opacity="1.000" d="M 198.69 174.06 Q 200.82 174.18 203.44 176.06 Q 207.93 180.53 213.12 184.15 Q 223.85 191.63 237.00 192.04 Q 237.25 193.35 236.38 194.15 Q 235.41 195.06 235.38 195.10 Q 218.45 215.92 205.25 239.29 Q 201.10 236.85 197.19 234.06 Q 180.28 225.07 160.75 230.50 Q 149.43 233.65 141.42 238.97 Q 141.05 239.21 140.50 239.29 Q 139.36 239.45 138.50 240.25 Q 125.26 248.14 114.06 258.72 Q 114.03 258.74 113.10 259.92 Q 112.31 260.92 110.96 260.50 Q 120.56 244.03 132.29 229.00 Q 157.02 196.77 191.46 175.25 Q 196.39 173.94 198.69 174.06 Z"/>
<path fill="rgb(166,7,72)" fill-opacity="1.000" d="M 270.19 184.81 Q 278.27 189.44 283.54 191.50 Q 282.62 192.86 282.31 193.06 Q 258.61 208.55 238.06 229.81 Q 236.40 231.53 235.75 232.71 Q 233.40 234.61 231.39 236.90 Q 209.29 262.06 192.15 290.82 Q 190.90 292.91 189.65 293.50 Q 187.58 294.47 185.56 292.94 Q 182.77 290.81 184.50 287.00 Q 193.23 262.43 205.25 239.29 Q 218.45 215.92 235.38 195.10 Q 235.41 195.06 236.38 194.15 Q 237.25 193.35 237.00 192.04 Q 250.05 191.91 261.04 185.00 Q 265.84 182.32 270.19 184.81 Z"/>
<path fill="rgb(196,9,85)" fill-opacity="1.000" d="M 197.19 234.06 Q 201.10 236.85 205.25 239.29 Q 193.23 262.43 184.50 287.00 Q 182.77 290.81 185.56 292.94 Q 187.58 294.47 189.65 293.50 Q 190.90 292.91 192.15 290.82 Q 209.29 262.06 231.39 236.90 Q 233.40 234.61 235.75 232.71 Q 241.04 232.14 246.25 231.00 Q 262.42 229.07 277.31 234.19 Q 293.77 239.84 306.71 251.44 Q 312.06 256.24 318.30 263.08 Q 323.84 269.16 328.57 275.93 Q 331.39 279.98 334.25 284.00 Q 335.11 286.43 337.25 287.79 L 336.71 289.00 Q 334.91 291.12 333.52 293.54 Q 311.83 331.46 301.75 374.00 Q 296.87 394.61 295.00 408.21 Q 290.42 433.64 277.47 455.96 Q 258.91 487.94 225.00 502.71 Q 203.04 511.26 179.44 512.00 Q 174.81 512.00 170.19 512.00 Q 170.07 511.77 169.25 511.75 Q 137.71 510.94 113.89 491.72 Q 106.16 485.47 99.86 477.53 Q 88.69 463.45 82.50 445.75 Q 76.30 428.03 74.50 410.75 Q 74.40 409.77 73.71 408.50 Q 74.57 408.32 74.23 407.46 Q 73.99 406.82 73.96 406.50 Q 71.94 380.98 75.50 357.75 Q 83.11 308.17 108.43 264.93 Q 109.29 263.46 109.29 261.75 Q 110.45 261.56 110.96 260.50 Q 112.31 260.92 113.10 259.92 Q 114.03 258.74 114.06 258.72 Q 125.26 248.14 138.50 240.25 Q 139.36 239.45 140.50 239.29 Q 141.05 239.21 141.42 238.97 Q 149.43 233.65 160.75 230.50 Q 180.28 225.07 197.19 234.06 Z"/>
<path fill="rgb(255,203,55)" fill-opacity="1.000" d="M 500.46 230.00 Q 504.43 301.48 470.54 363.14 Q 465.71 371.93 460.18 380.24 Q 426.37 431.03 372.28 460.50 Q 337.43 479.49 298.29 486.25 Q 298.48 485.77 299.44 484.94 Q 313.90 472.34 323.96 454.70 Q 335.31 434.77 340.00 412.29 L 349.25 410.04 L 349.60 410.31 Q 350.20 410.77 350.23 410.78 Q 362.69 413.54 375.29 413.09 Q 386.07 412.72 394.94 409.85 Q 419.01 402.06 431.07 378.32 Q 435.20 370.19 438.05 361.52 Q 445.98 337.37 454.00 313.25 Q 461.12 290.73 472.44 267.69 Q 482.80 246.59 499.01 230.86 Q 499.28 230.59 499.70 230.40 Q 500.09 230.23 500.46 230.00 Z"/>
<path fill="rgb(226,10,98)" fill-opacity="1.000" d="M 336.71 289.00 Q 338.10 298.82 342.51 307.36 Q 347.11 316.28 354.43 322.02 Q 365.17 330.45 379.75 331.56 Q 389.40 332.30 398.99 330.93 Q 400.61 330.70 402.25 331.04 Q 396.42 350.74 389.22 369.99 Q 387.12 375.63 384.21 380.90 Q 372.42 402.26 349.25 410.04 L 340.00 412.29 Q 316.99 415.51 295.00 408.21 Q 296.87 394.61 301.75 374.00 Q 311.83 331.46 333.52 293.54 Q 334.91 291.12 336.71 289.00 Z"/>
<path fill="rgb(77,216,246)" fill-opacity="1.000" d="M 295.00 408.21 Q 316.99 415.51 340.00 412.29 Q 335.31 434.77 323.96 454.70 Q 313.90 472.34 299.44 484.94 Q 298.48 485.77 298.29 486.25 Q 285.18 496.61 272.69 501.69 Q 249.73 511.01 225.00 502.71 Q 258.91 487.94 277.47 455.96 Q 290.42 433.64 295.00 408.21 Z"/>
</svg>