<svg width="241" height="241" viewBox="0 0 241 241" fill="none" xmlns="http://www.w3.org/2000/svg">
<g clip-path="url(#clip0_541_1314)">
<path d="M117.838 0.117065C119.753 0.117065 121.667 0.117065 123.58 0.117065C143.067 0.66394 161.222 5.77488 178.044 15.4499L177.936 15.6327C177.903 15.6901 177.854 15.7383 177.794 15.7727C177.734 15.8071 177.665 15.8267 177.594 15.8296C175.022 15.9639 172.555 16.5405 170.192 17.5593L169.489 17.4421C160.23 14.3108 151.463 15.2452 143.188 20.2452C138.997 22.7764 135.366 26.0608 132.294 30.0983C132.259 30.143 132.216 30.1799 132.166 30.2064C132.116 30.233 132.062 30.2485 132.006 30.2521C131.949 30.2557 131.894 30.2471 131.841 30.2271C131.789 30.207 131.742 30.1759 131.703 30.1358C127.881 26.2046 123.613 23.1671 118.897 21.0233C115.856 19.6421 112.863 18.8124 109.916 18.5343C103.863 17.9655 98.1517 19.3764 92.7829 22.7671C88.8954 25.2233 85.4642 28.2061 82.4892 31.7155C77.8329 37.2093 74.0111 43.2343 71.0236 49.7905C63.9236 65.3718 52.6189 76.778 37.1095 84.0093C35.447 84.7843 34.9267 86.0577 35.5486 87.8296C35.7486 88.3983 36.2845 89.053 37.1564 89.7936C42.6064 94.4374 46.5329 100.362 48.9361 107.569C50.5892 112.522 51.6392 117.603 52.0861 122.812C52.0861 123.347 51.9517 123.844 51.6829 124.303C43.7704 137.815 38.6251 152.319 36.247 167.812C35.1345 175.072 34.8939 182.689 35.5251 190.664C35.5345 190.764 35.5767 190.914 35.6517 191.114C35.7579 191.383 35.6767 191.545 35.4079 191.601C16.2204 169.933 6.422 144.737 6.01263 116.016C5.76888 98.8686 9.35013 82.3514 16.7564 66.4639C18.072 63.6421 19.5111 60.8686 21.0736 58.1436C31.1611 40.5718 44.822 26.6296 62.0564 16.3171C78.9814 6.19207 97.5751 0.792065 117.838 0.117065Z" fill="#FFCB37" stroke="#FFCB37"/>
<path d="M178.044 15.4499C194.856 25.1249 208.342 38.1686 218.502 54.5811C228.583 70.8655 234.231 88.6483 235.447 107.93C235.331 108.001 235.213 108.064 235.091 108.117C234.96 108.176 234.852 108.248 234.767 108.333C229.702 113.248 225.55 119.003 222.313 125.597C218.775 132.797 215.894 139.916 213.669 146.953C211.163 154.491 208.671 162.033 206.192 169.58C205.302 172.289 204.211 174.914 202.921 177.455C199.152 184.873 193.506 189.8 185.985 192.234C183.213 193.131 180.142 193.637 176.774 193.753C172.836 193.894 168.921 193.533 165.027 192.67C165.017 192.667 164.919 192.594 164.731 192.45L164.567 192.323C171.808 189.892 177.271 185.339 180.955 178.664C181.864 177.017 182.647 175.312 183.303 173.55C185.553 167.534 187.589 161.448 189.411 155.292C191.889 147.351 194.716 139.539 197.891 131.855C200.816 124.764 204.522 118.439 209.01 112.88C214.122 106.548 220.646 102.056 228.58 99.403C228.589 99.3999 228.886 99.3108 229.471 99.1358C231.286 98.5983 232.494 97.5358 233.094 95.9483C233.666 94.4296 233.497 93.1608 232.588 92.1421C232.2 91.7108 231.219 91.1124 229.644 90.3468C222.41 86.828 216.221 82.0358 211.077 75.9702C209.258 73.8233 207.453 71.278 205.663 68.3343C202.797 63.6311 200.183 58.4796 197.821 52.8796C194.708 45.5108 192.13 39.9249 190.086 36.1218C188.274 32.753 186.3 29.8046 184.166 27.2765C180.453 22.8702 175.796 19.6311 170.192 17.5593C172.555 16.5405 175.022 15.964 177.594 15.8296C177.666 15.8267 177.734 15.8071 177.794 15.7727C177.854 15.7383 177.903 15.6901 177.936 15.6327L178.044 15.4499Z" fill="#4DD8F6" stroke="#4DD8F6"/>
<path d="M169.489 17.4421C165.461 18.5733 161.916 20.4249 158.854 22.9968C154.919 26.303 152.657 30.4686 152.066 35.4936C151.9 36.9093 151.894 38.4811 152.047 40.2093C152.197 41.9343 152.464 43.4921 152.849 44.8827C153.908 48.7233 155.543 52.6718 157.752 56.728C157.871 56.9436 157.838 57.1421 157.654 57.3233C155.357 56.789 153.13 56.6265 150.974 56.8358C146.961 57.2233 143.124 58.4249 139.461 60.4405C135.052 62.8655 131.319 65.4999 128.263 68.3436C127.907 68.6749 127.508 68.9343 127.068 69.1218C124.252 65.3343 121 62.303 117.313 60.028C113.754 57.8343 109.893 56.4874 105.73 55.9874C102.599 55.6124 99.4957 55.7733 96.4207 56.4702C91.1364 57.664 86.4817 60.2202 82.4567 64.139C78.6785 67.8171 74.7145 71.2811 70.5645 74.5311C64.1801 79.478 57.1348 83.314 49.4285 86.039C49.2098 86.1171 49.191 86.228 49.3723 86.3718C56.3442 91.9624 60.8426 98.9921 62.8676 107.461C59.202 112.158 55.8692 117.08 52.8692 122.226C52.7098 122.558 52.4489 122.753 52.0864 122.812C51.6395 117.603 50.5895 112.522 48.9364 107.569C46.5332 100.362 42.6067 94.4374 37.1567 89.7936C36.2848 89.053 35.7489 88.3983 35.5489 87.8296C34.927 86.0577 35.4473 84.7843 37.1098 84.0093C52.6192 76.778 63.9239 65.3718 71.0239 49.7905C74.0114 43.2343 77.8332 37.2093 82.4895 31.7155C85.4645 28.2061 88.8957 25.2233 92.7832 22.7671C98.152 19.3764 103.863 17.9655 109.916 18.5343C112.863 18.8124 115.857 19.6421 118.897 21.0233C123.613 23.1671 127.882 26.2046 131.704 30.1358C131.742 30.1759 131.79 30.207 131.842 30.2271C131.894 30.2471 131.95 30.2557 132.006 30.2521C132.062 30.2486 132.117 30.233 132.166 30.2064C132.216 30.1799 132.26 30.143 132.294 30.0983C135.366 26.0608 138.997 22.7764 143.188 20.2452C151.463 15.2452 160.23 14.3108 169.489 17.4421Z" fill="#E20A62" stroke="#E20A62"/>
<path d="M169.489 17.4421L170.192 17.5593C175.795 19.6311 180.453 22.8702 184.166 27.2765C186.3 29.8046 188.273 32.753 190.086 36.1218C192.13 39.9249 194.708 45.5108 197.82 52.8796C200.183 58.4796 202.797 63.6311 205.663 68.3343C207.453 71.278 209.258 73.8233 211.077 75.9702C216.22 82.0358 222.409 86.828 229.644 90.3468C231.219 91.1124 232.2 91.7108 232.587 92.1421C233.497 93.1608 233.666 94.4296 233.094 95.9483C232.494 97.5358 231.286 98.5983 229.47 99.1358C228.886 99.3108 228.589 99.3999 228.58 99.403C220.645 102.056 214.122 106.548 209.009 112.88C204.522 118.439 200.816 124.764 197.891 131.855C194.716 139.539 191.889 147.351 189.411 155.292C188.898 155.186 188.389 155.169 187.883 155.241C184.886 155.669 181.88 155.767 178.864 155.536C174.308 155.189 170.352 153.698 166.995 151.064C164.708 149.27 162.845 146.98 161.408 144.192C160.03 141.523 159.123 138.655 158.689 135.586L158.942 135.019C162.739 128.984 166.909 123.539 171.453 118.683C177.862 111.826 185.339 106.145 193.883 101.639C199.38 98.7421 205.167 96.6296 211.245 95.3015C211.423 95.264 211.423 95.2296 211.245 95.1983C206.773 94.4765 202.673 93.0015 198.945 90.7733C194.683 88.2265 190.723 85.2733 187.067 81.914C186.686 81.564 186.38 81.3686 186.148 81.328C173.364 68.7468 166.747 62.2718 166.297 61.903C163.722 59.8061 160.841 58.2796 157.653 57.3233C157.837 57.1421 157.87 56.9436 157.752 56.728C155.542 52.6718 153.908 48.7233 152.848 44.8827C152.464 43.4921 152.197 41.9343 152.047 40.2093C151.894 38.4811 151.9 36.9093 152.066 35.4936C152.656 30.4686 154.919 26.303 158.853 22.9968C161.916 20.4249 165.461 18.5733 169.489 17.4421Z" fill="#E7387F" stroke="#E7387F"/>
<path d="M105.73 55.9874C109.893 56.4874 113.754 57.8343 117.313 60.028C121 62.303 124.252 65.3343 127.068 69.1218C126.486 69.2905 125.966 69.5561 125.507 69.9186C120.094 74.1843 119.121 79.3639 122.586 85.4577C122.783 85.9202 122.994 86.3796 123.219 86.8358C119.785 88.9952 116.029 90.0952 111.95 90.1358C107.841 90.0077 104.11 88.7749 100.757 86.4374C99.1348 85.3061 97.6223 84.0421 96.2191 82.6452C95.4004 82.0577 94.6582 81.7452 93.9926 81.7077C93.2738 81.6702 92.1441 81.8561 90.6035 82.2655C82.4129 83.303 75.7332 80.7249 70.5645 74.5311C74.7145 71.2811 78.6785 67.8171 82.4566 64.1389C86.4816 60.2202 91.1363 57.6639 96.4207 56.4702C99.4957 55.7733 102.599 55.6124 105.73 55.9874Z" fill="#CAD4EF" stroke="#CAD4EF"/>
<path d="M157.653 57.3233C160.841 58.2796 163.722 59.8061 166.297 61.903C166.747 62.2718 173.364 68.7468 186.148 81.328C182.686 84.3468 178.812 86.0655 174.528 86.4843C169.712 86.9561 164.898 86.1843 160.086 84.1686C159.142 83.7749 158.067 83.8921 156.861 84.5202C155.486 85.6452 154.047 86.6718 152.544 87.5999C150.875 88.628 149.291 89.3999 147.791 89.9155C143.222 91.4874 138.547 91.4764 133.766 89.8827C132.119 89.2389 130.033 88.1936 127.508 86.7468C126.148 85.9686 124.719 85.9983 123.219 86.8358C122.994 86.3796 122.783 85.9202 122.586 85.4577C119.12 79.3639 120.094 74.1843 125.506 69.9186C125.966 69.5561 126.486 69.2905 127.067 69.1218C127.508 68.9343 127.906 68.6749 128.262 68.3436C131.319 65.4999 135.052 62.8655 139.461 60.4405C143.123 58.4249 146.961 57.2233 150.973 56.8358C153.13 56.6264 155.356 56.7889 157.653 57.3233Z" fill="#E0E7FC" stroke="#E0E7FC"/>
<path d="M70.5644 74.5311C75.7332 80.7249 82.4128 83.303 90.6035 82.2655C79.841 88.9905 70.5957 97.3889 62.8675 107.461C60.8425 98.9921 56.3441 91.9624 49.3722 86.3718C49.191 86.228 49.2097 86.1171 49.4285 86.0389C57.1347 83.3139 64.18 79.478 70.5644 74.5311Z" fill="#24447F" stroke="#24447F"/>
<path d="M186.149 81.328C186.38 81.3686 186.686 81.5639 187.067 81.9139C190.724 85.2733 194.683 88.2264 198.946 90.7733C202.674 93.0014 206.774 94.4764 211.246 95.1983C211.424 95.2296 211.424 95.2639 211.246 95.3014C205.167 96.6296 199.38 98.7421 193.883 101.639C185.339 106.145 177.863 111.826 171.453 118.683C166.91 123.539 162.739 128.984 158.942 135.019C158.274 134.594 157.805 134.001 157.536 133.242C156.642 131.986 155.755 130.725 154.874 129.459C153.396 127.344 151.791 125.336 150.06 123.436C148.11 121.298 146.299 119.48 144.627 117.98C140.583 114.355 135.989 111.659 130.846 109.894C126.192 108.294 121.339 107.795 116.286 108.398C114.658 108.755 113.017 109.022 111.364 109.2C111.567 108.831 111.928 108.378 112.447 107.841C118.869 101.197 125.783 95.4546 133.189 90.6139C133.286 90.5514 133.478 90.3077 133.766 89.8827C138.547 91.4764 143.222 91.4874 147.791 89.9155C149.291 89.3999 150.875 88.628 152.544 87.5999C154.047 86.6718 155.486 85.6452 156.861 84.5202C158.067 83.8921 159.142 83.7749 160.086 84.1686C164.899 86.1843 169.713 86.9561 174.528 86.4843C178.813 86.0655 182.686 84.3468 186.149 81.328Z" fill="#B5084E" stroke="#B5084E"/>
<path d="M93.9926 81.7077C94.6582 81.7452 95.4004 82.0577 96.2191 82.6452C97.6223 84.0421 99.1348 85.3061 100.757 86.4374C104.11 88.7749 107.841 90.0077 111.95 90.1358C112.029 90.5452 111.932 90.8749 111.66 91.1249C111.357 91.4093 111.2 91.5577 111.191 91.5702C105.9 98.0764 101.193 104.981 97.0676 112.284C95.7707 111.522 94.5113 110.705 93.2895 109.833C88.0051 107.023 82.3113 106.467 76.2082 108.164C72.6707 109.148 69.6504 110.472 67.1473 112.134C67.0316 112.209 66.8879 112.259 66.716 112.284C66.3598 112.334 66.0473 112.484 65.7785 112.734C61.641 115.2 57.8223 118.086 54.3223 121.392C54.3129 121.398 54.1629 121.586 53.8723 121.955C53.6254 122.267 53.291 122.358 52.8691 122.226C55.8691 117.08 59.202 112.158 62.8676 107.461C70.5957 97.3889 79.841 88.9905 90.6035 82.2655C92.1441 81.8561 93.2738 81.6702 93.9926 81.7077Z" fill="#B5084E" stroke="#B5084E"/>
<path d="M127.508 86.7467C130.033 88.1936 132.119 89.2389 133.766 89.8827C133.478 90.3077 133.286 90.5514 133.189 90.6139C125.783 95.4546 118.869 101.197 112.447 107.84C111.928 108.378 111.567 108.831 111.364 109.2C110.63 109.794 109.948 110.448 109.32 111.164C102.414 119.026 96.2828 127.451 90.9266 136.439C90.536 137.092 90.1453 137.511 89.7547 137.695C89.1078 137.998 88.4688 137.911 87.8375 137.433C86.9657 136.767 86.8 135.839 87.3407 134.648C90.0688 126.97 93.311 119.515 97.0672 112.284C101.192 104.981 105.9 98.0764 111.191 91.5702C111.2 91.5577 111.356 91.4092 111.659 91.1249C111.931 90.8749 112.028 90.5452 111.95 90.1358C116.028 90.0952 119.784 88.9952 123.219 86.8358C124.719 85.9983 126.148 85.9686 127.508 86.7467Z" fill="#A60748" stroke="#A60748"/>
<path d="M93.2895 109.833C94.5113 110.705 95.7707 111.522 97.0676 112.284C93.3113 119.515 90.0691 126.97 87.341 134.648C86.8004 135.839 86.966 136.767 87.8379 137.433C88.4691 137.911 89.1082 137.998 89.7551 137.695C90.1457 137.511 90.5363 137.092 90.927 136.439C96.2832 127.451 102.414 119.026 109.321 111.164C109.949 110.448 110.63 109.794 111.364 109.2C113.018 109.022 114.658 108.755 116.286 108.398C121.339 107.795 126.193 108.294 130.846 109.894C135.989 111.659 140.583 114.355 144.627 117.98C146.299 119.48 148.11 121.298 150.06 123.436C151.791 125.336 153.396 127.344 154.874 129.459C155.755 130.725 156.643 131.986 157.536 133.242C157.805 134.001 158.274 134.594 158.943 135.019L158.689 135.586C158.127 136.248 157.629 136.958 157.194 137.714C150.416 149.564 145.452 162.136 142.302 175.43C140.777 181.87 139.722 187.215 139.138 191.465C137.707 199.412 134.968 206.873 130.921 213.848C125.121 223.842 116.922 231.147 106.325 235.762C99.4629 238.434 92.3441 239.886 84.9691 240.117C83.5223 240.117 82.077 240.117 80.6332 240.117C80.5957 240.045 80.4488 240.006 80.1926 240C70.3363 239.747 61.6863 236.617 54.2426 230.611C51.827 228.658 49.6348 226.44 47.666 223.959C44.1754 219.559 41.4629 214.594 39.5285 209.062C37.591 203.525 36.341 198.056 35.7785 192.656C35.7473 192.35 35.6238 191.998 35.4082 191.601C35.677 191.545 35.7582 191.383 35.652 191.114C35.577 190.914 35.5348 190.764 35.5254 190.664C34.8941 182.689 35.1348 175.072 36.2473 167.812C38.6254 152.319 43.7707 137.815 51.6832 124.303C51.952 123.844 52.0863 123.347 52.0863 122.812C52.4488 122.753 52.7098 122.558 52.8691 122.226C53.291 122.358 53.6254 122.267 53.8723 121.955C54.1629 121.586 54.3129 121.398 54.3223 121.392C57.8223 118.086 61.641 115.2 65.7785 112.734C66.0473 112.484 66.3598 112.334 66.716 112.284C66.8879 112.259 67.0316 112.209 67.1473 112.134C69.6504 110.472 72.6707 109.148 76.2082 108.164C82.3113 106.467 88.0051 107.023 93.2895 109.833Z" fill="#C40955" stroke="#C40955"/>
<path d="M235.447 107.93C236.687 130.267 232.013 151.07 221.422 170.339C219.912 173.086 218.294 175.758 216.566 178.355C206 194.226 192.266 206.767 175.362 215.976C164.472 221.911 152.911 225.934 140.68 228.047C140.739 227.897 140.919 227.692 141.219 227.433C145.737 223.495 149.569 218.77 152.712 213.258C156.259 207.03 158.766 200.403 160.231 193.378L164.567 192.323L164.731 192.45C164.919 192.594 165.017 192.667 165.027 192.67C168.92 193.533 172.836 193.894 176.773 193.753C180.142 193.637 183.212 193.131 185.984 192.234C193.506 189.8 199.152 184.873 202.92 177.455C204.211 174.914 205.302 172.289 206.192 169.58C208.67 162.033 211.162 154.491 213.669 146.953C215.894 139.916 218.775 132.797 222.312 125.597C225.55 119.003 229.702 113.248 234.767 108.333C234.852 108.248 234.959 108.176 235.091 108.117C235.213 108.064 235.331 108.001 235.447 107.93Z" fill="#FFCB37" stroke="#FFCB37"/>
<path d="M158.689 135.586C159.124 138.655 160.03 141.523 161.408 144.192C162.846 146.98 164.708 149.27 166.996 151.064C170.352 153.698 174.308 155.189 178.864 155.536C181.88 155.767 184.886 155.669 187.883 155.24C188.389 155.169 188.899 155.186 189.411 155.292C187.589 161.448 185.553 167.534 183.303 173.55C182.647 175.312 181.864 177.017 180.955 178.664C177.271 185.339 171.808 189.892 164.567 192.323L160.231 193.378C153.041 194.384 146.01 193.747 139.138 191.465C139.722 187.215 140.777 181.87 142.302 175.43C145.452 162.136 150.416 149.564 157.194 137.714C157.628 136.958 158.127 136.248 158.689 135.586Z" fill="#E20A62" stroke="#E20A62"/>
<path d="M139.138 191.466C146.01 193.747 153.041 194.384 160.231 193.378C158.766 200.403 156.26 207.03 152.713 213.258C149.569 218.77 145.738 223.495 141.219 227.433C140.919 227.692 140.739 227.897 140.68 228.047C136.583 231.284 132.583 233.697 128.68 235.284C121.505 238.197 114.053 238.356 106.325 235.762C116.922 231.147 125.121 223.842 130.921 213.848C134.967 206.873 137.706 199.412 139.138 191.466Z" fill="#4DD8F6" stroke="#4DD8F6"/>
</g>
<defs>
<clipPath id="clip0_541_1314">
<rect width="240" height="240" fill="white" transform="translate(0.856445 0.117065)"/>
</clipPath>
</defs>
</svg>
